<svg xmlns="http://www.w3.org/2000/svg" xmlns:xlink="http://www.w3.org/1999/xlink" width="500" height="551"><style><![CDATA[.B{fill-rule:nonzero}.C{fill:#fff}.D{opacity:.4}.E{opacity:.15}.F{opacity:.2}.G{stroke-width:2.24}.H{fill:#ffd593}]]></style><defs><circle id="A" cx="250" cy="249.654" r="249.583"/><linearGradient x1="55.1775173%" y1="3.39845739%" x2="45.5083465%" y2="75.3127722%" id="B"><stop stop-color="#fff" offset="0%"/><stop stop-color="#fff" stop-opacity="0" offset="100%"/></linearGradient><linearGradient x1="57.7454307%" y1="0.482584291%" x2="48.0779533%" y2="72.3800604%" id="C"><stop stop-color="#fff" offset="0%"/><stop stop-color="#fff" stop-opacity="0" offset="100%"/></linearGradient><linearGradient x1="57.7454268%" y1="0.482584291%" x2="48.0779533%" y2="72.3800604%" id="D"><stop stop-color="#fff" offset="0%"/><stop stop-color="#fff" stop-opacity="0" offset="100%"/></linearGradient><linearGradient x1="55.9636268%" y1="19.7735039%" x2="44.9777304%" y2="75.4552559%" id="E"><stop stop-color="#fff" offset="0%"/><stop stop-color="#fff" stop-opacity="0" offset="100%"/></linearGradient><linearGradient x1="145.301876%" y1="16.135294%" x2="-32.6772727%" y2="68.3944467%" id="F"><stop stop-color="#fff" offset="0%"/><stop stop-color="#fff" stop-opacity="0" offset="100%"/></linearGradient><linearGradient x1="34.3218841%" y1="10.283177%" x2="64.7566413%" y2="87.3825751%" id="G"><stop stop-color="#fff" offset="0%"/><stop stop-color="#fff" stop-opacity="0" offset="100%"/></linearGradient><linearGradient x1="55.9636268%" y1="19.7734843%" x2="44.9777439%" y2="75.4552165%" id="H"><stop stop-color="#fff" offset="0%"/><stop stop-color="#fff" stop-opacity="0" offset="100%"/></linearGradient><linearGradient x1="34.3259801%" y1="10.2936327%" x2="64.7607373%" y2="87.3928218%" id="I"><stop stop-color="#fff" offset="0%"/><stop stop-color="#fff" stop-opacity="0" offset="100%"/></linearGradient><linearGradient x1="70.5095832%" y1="31.2820593%" x2="32.9114009%" y2="65.5958072%" id="J"><stop stop-color="#fff" offset="0%"/><stop stop-color="#fff" stop-opacity="0" offset="100%"/></linearGradient><linearGradient x1="94.303558%" y1="3.39845739%" x2="11.5653174%" y2="75.3127722%" id="K"><stop stop-color="#fff" offset="0%"/><stop stop-color="#fff" stop-opacity="0" offset="100%"/></linearGradient><linearGradient x1="63.1743292%" y1="35.5256717%" x2="30.2015179%" y2="71.7099451%" id="L"><stop stop-color="#fff" offset="0%"/><stop stop-color="#fff" stop-opacity="0" offset="100%"/></linearGradient><path id="M" d="M429.725 140.149c3.263-29.269-7.972-58.288-30.094-77.728-.55-.487-1.368.307-.786.786 28.365 24.945 38.019 65.888 23.451 100.786-4.421 10.554-10.826 20.162-18.868 28.302-.519.527.283 1.344.786.786 14.106-14.35 23.074-32.959 25.511-52.932h0z"/></defs><g fill="none" fill-rule="evenodd"><circle fill="#ffd761" cx="250" cy="300.755" r="249.583" class="B"/><g transform="translate(0 51.101)"><mask id="N" class="C"><use xlink:href="#A"/></mask><g style="mix-blend-mode:soft-light" mask="url(#N)" class="B"><g transform="translate(-53.993 65.899)"><path d="M337.947 208.977c-5.854-3.412-10.095-3.504-12.723-.277-2.628 3.181-3.918 8.576-3.918 16.184v40.99c0 7.792-.738 14.247-2.167 19.365-1.429 5.302-3.872 9.083-7.237 11.296-3.273 2.259-7.698 2.859-13.322 1.798-5.486-1.014-12.354-3.873-20.559-8.622l-3.918-2.259v-32.275l4.886 2.813c5.854 3.412 9.773 3.827 11.755 1.337 2.074-2.398 3.135-7.423 3.135-15.031v-36.102c0-9.406.922-16.829 2.766-22.316s5.486-8.945 10.971-10.512c-5.486-7.884-9.127-15.584-10.971-23.146s-2.72-16.045-2.72-25.451V90.665c0-7.608-1.06-13.786-3.135-18.627-1.936-4.749-5.854-8.807-11.755-12.218l-4.886-2.813V24.732l3.918 2.259c8.205 4.749 15.074 9.775 20.559 15.123 5.624 5.395 10.049 11.158 13.322 17.198 3.411 6.132 5.808 12.68 7.237 19.642 1.429 6.778 2.167 14.109 2.167 21.855v40.99c0 7.608 1.291 14.524 3.918 20.702 2.628 6.225 6.868 11.02 12.723 14.386l-.046 32.091z" fill="url(#B)" opacity=".07"/><path d="M188.619 89.921c5.854 3.412 10.095 3.504 12.723.277 2.628-3.181 3.918-8.575 3.918-16.183V33.028c0-7.792.738-14.246 2.167-19.364 1.429-5.302 3.78-9.129 7.053-11.388C217.89.063 222.315-.536 227.801.478c5.624 1.06 12.538 3.965 20.744 8.714l3.918 2.259v32.273l-4.886-2.812c-5.854-3.412-9.865-3.873-11.939-1.475-1.936 2.49-2.95 7.515-2.95 15.122v36.1c0 9.405-.922 16.828-2.766 22.315-1.844 5.44-5.486 8.944-10.971 10.512 5.486 7.884 9.127 15.583 10.971 23.145s2.72 16.044 2.72 25.45v36.1c0 7.607.968 13.785 2.95 18.534 2.074 4.841 6.085 8.944 11.939 12.31l4.886 2.812v32.273l-3.918-2.259c-8.205-4.749-15.12-9.82-20.744-15.215-5.486-5.348-9.911-11.065-13.322-17.197-3.273-6.04-5.624-12.54-7.053-19.548-1.429-6.777-2.167-14.108-2.167-21.854V157.05c0-7.607-1.291-14.523-3.918-20.701-2.628-6.224-6.868-11.019-12.723-14.385l.046-32.043z" fill="url(#C)" opacity=".07"/><path d="M319.398 222.373c-5.854-3.412-10.095-3.504-12.723-.277-2.628 3.181-3.918 8.576-3.918 16.184v40.99c0 7.792-.738 14.247-2.167 19.365-1.429 5.302-3.872 9.083-7.237 11.296-3.273 2.259-7.698 2.859-13.322 1.798-5.486-1.014-12.354-3.873-20.559-8.622l-3.918-2.259v-32.275l4.886 2.813c5.854 3.412 9.773 3.827 11.755 1.337 2.074-2.398 3.135-7.423 3.135-15.031V221.59c0-9.406.922-16.829 2.766-22.316s5.486-8.945 10.971-10.512c-5.486-7.884-9.127-15.584-10.971-23.146s-2.72-16.045-2.72-25.451v-36.102c0-7.608-1.06-13.786-3.135-18.627-1.936-4.749-5.854-8.807-11.755-12.218l-4.886-2.813V38.128l3.918 2.259c8.205 4.749 15.074 9.775 20.559 15.123 5.624 5.395 10.049 11.158 13.322 17.198 3.411 6.132 5.808 12.68 7.237 19.642 1.429 6.778 2.167 14.109 2.167 21.855v40.99c0 7.608 1.291 14.524 3.918 20.702 2.628 6.225 6.868 11.02 12.723 14.386l-.046 32.091z" fill="url(#B)" class="D"/><path d="M171.1 103.318c5.854 3.412 10.095 3.504 12.723.277 2.628-3.181 3.918-8.575 3.918-16.183V46.424c0-7.792.738-14.246 2.167-19.364 1.429-5.302 3.78-9.129 7.053-11.388 3.411-2.213 7.836-2.812 13.322-1.798 5.624 1.06 12.538 3.965 20.744 8.714l3.918 2.259v32.273l-4.886-2.812c-5.854-3.412-9.865-3.873-11.939-1.475-1.936 2.49-2.95 7.515-2.95 15.122v36.1c0 9.405-.922 16.828-2.766 22.315-1.844 5.44-5.486 8.944-10.971 10.512 5.486 7.884 9.127 15.583 10.971 23.145s2.72 16.044 2.72 25.45v36.1c0 7.607.968 13.785 2.95 18.534 2.074 4.841 6.085 8.944 11.939 12.31l4.886 2.812v32.273l-3.918-2.259c-8.205-4.749-15.12-9.82-20.744-15.215-5.486-5.348-9.911-11.065-13.322-17.197-3.273-6.04-5.624-12.54-7.053-19.548-1.429-6.777-2.167-14.108-2.167-21.854v-40.987c0-7.607-1.291-14.523-3.918-20.701-2.628-6.224-6.868-11.019-12.723-14.385l.046-32.043z" fill="url(#D)" class="D"/><path fill="url(#E)" d="M68.052 5.152l79.301 45.449-.046 188.472-79.301-45.449z" class="E"/><path fill="url(#F)" d="M52.548 34.006l62.86 36.2v17.385l-62.86-36.2z" class="D"/><g class="C"><path d="M77.28 110.262l59.768 34.79v27.039l-59.768-34.79zm0-32.975l59.768 34.928v6.292L77.28 83.624zm0 12.365l51.524 29.85v6.217L77.28 95.869z" class="E"/></g><path fill="url(#G)" d="M68.005 5.152l79.348 45.69v25.414l-79.348-45.69z" class="F"/><path d="M87.585 29.562c0 3.678-2.327 5.407-5.176 3.9-2.849-1.551-5.129-5.761-5.129-9.439s2.327-5.407 5.176-3.9c2.802 1.551 5.129 5.761 5.129 9.439z" class="C F"/><path fill="url(#H)" d="M163.887 181.366l79.301 45.449-.046 188.472-79.301-45.449z" class="E"/><path fill="url(#F)" d="M194.802 235.982l62.814 36.216v17.369l-62.86-36.216z" class="D"/><g class="C"><path d="M175.176 253.5l59.768 34.837v26.993l-59.768-34.837zm0 39.159l59.768 34.928v6.292l-59.768-34.882zm0 10.304l51.524 29.85v6.217l-51.524-29.85z" class="E"/></g><path fill="url(#I)" d="M163.841 180.335l79.348 45.69v25.414l-79.348-45.69z" class="F"/><path d="M184.451 204.745c0 3.678-2.327 5.407-5.176 3.9-2.849-1.551-5.129-5.761-5.129-9.439s2.327-5.407 5.176-3.9c2.802 1.507 5.129 5.761 5.129 9.439z" class="C F"/><path fill="url(#J)" opacity=".3" d="M151.382 207.013L13.39 127.78l.046 71.572 125.84 72.264 12.199 17.951z"/><g class="C"><path d="M115.408 203.924l-29.884-17.406v6.296l29.884 17.406v-6.296zm-.046 12.363l-74.149-43.165v6.299l74.195 43.165zm.046 12.44l-89.652-51.484v6.224l89.652 51.484z" class="E"/></g><path d="M123.652 215.097c0 5.773 3.476 12.402 7.729 14.838s7.729-.271 7.729-6.043-3.476-12.402-7.729-14.838c-4.299-2.435-7.729.271-7.729 6.043z" fill="url(#K)" class="D"/><path d="M100.466 278.925c2.736 1.611 4.926 5.433 4.926 8.655v14.042l9.213 5.341c2.736 1.611 4.926 5.433 4.926 8.655 0 3.177-2.235 4.466-4.926 2.9l-9.213-5.341v14.042c0 3.177-2.235 4.466-4.926 2.9-2.736-1.611-4.926-5.433-4.926-8.655v-14.042l-9.213-5.341c-2.736-1.611-4.926-5.433-4.926-8.655 0-3.177 2.235-4.466 4.926-2.9l9.213 5.341v-14.042c0-3.223 2.189-4.512 4.926-2.9z" fill="url(#L)" class="F"/></g></g><g mask="url(#N)"><g transform="translate(-120.283 40.094)"><g class="B"><path d="M370.558 263.514s4.403 12.382-19.843 43.153C296.211 375.865 373.64 500 435.535 380.047s47.343-96.612 47.343-96.612-17.233-23.907-13.719-84.615-98.601 64.693-98.601 64.693z" fill="#c18465"/><path d="M442.846 230.778s-25.7 56.84-77.044 55.425l6.706-10.818c-5.267-5.299 26.643 1.47 70.338-44.607z" fill="#995334"/><path d="M319.819 68.396s-6.667 29.088-2.602 58.962c3.145 22.94.912 46.187 2.712 69.182 1.785 22.799 8.97 47.956 23.467 65.991 6.667 8.302 15.574 15.204 26.415 16.572 19.253 2.421 36.289-11.737 49.835-23.475 20.959-18.153 37.138-41.171 44.41-68.097.149-.55 5.503-2.264 6.132-2.571 4.714-2.29 8.996-5.378 12.657-9.127 10.865-11.454 7.461-32.689 5.212-47.335-.881-5.692-1.164-9.434-6.926-9.631-5.086-.165-11.108-6.187-14.269-2.193-2.987 3.774-9.292 12.406-11.352 16.753s-11.541 24.332-10.409 29.017c-3.2-11.234 13.404-38.569 11.612-50.165-1.722-11.171-4.544-14.874-4.395-26.203 0 0-69.803 2.649-96.431-29.921l-36.069 12.241z" fill="#c18465"/><path d="M319.914 180.283s-10.794-113.388 6.698-133.899 31.313-11.643 31.313-11.643 7.791-42.303 79.654-33.208 104.143 82.752 88.318 146.022l-24.976 59.473s73.899 11.989 95.841 50.865 4.796 101.462-65.763 62.807c-52.107-28.546-52.421-41.667-58.381-62.225-2.115-7.272.425-38.459.425-38.459s-6.509-19.568-6.73-34.426c-.204-13.498 22.799-21.352 17.099-47.956-5.425-25.566-43.16-8.278-31.077 43.97 0 0-19.929-20.322-15.723-52.775-.165 6.777-70.597-27.437-80.778-52.492 0 0-19.654.7-27.642 20.487s-8.593 66.038-8.593 66.038" fill="#111827"/><g fill="#1d1d1b"><path d="M394.654 158.593a8.02 8.02 0 0 1 2.704-1.95 13.54 13.54 0 0 1 1.572-.629l1.612-.432c2.174-.44 4.407-.509 6.604-.204a24.98 24.98 0 0 1 6.289 1.651l2.909 1.439a23.17 23.17 0 0 1 2.665 1.903 26.36 26.36 0 0 1-3.223-.259l-3.09-.417-5.991-.833-5.92-.535-1.494-.039h-1.509a20.84 20.84 0 0 0-3.129.307zm-70.574-3.161a8.01 8.01 0 0 1 2.579-2.123l1.517-.723 1.572-.527a19.85 19.85 0 0 1 6.58-.621c2.173.144 4.319.567 6.384 1.258l2.987 1.266a22.74 22.74 0 0 1 2.783 1.73 25.78 25.78 0 0 1-3.231-.063l-3.145-.228-6.03-.448-5.936-.173-1.494.047-1.509.118a20.44 20.44 0 0 0-3.058.487h0z"/><circle cx="335.165" cy="157.626" r="5.818"/><circle cx="405.039" cy="161.682" r="6.108"/><path d="M394.654 140.676s-10.149 2.744-6.635-2.303 17.665-7.862 38.192 6.431c.016 0-26.525-4.866-31.557-4.127zm-57.799-3.545s14.206 3.192 12.028-1.116-16.847-7.398-28.404.48c0 0-2.075 3.436 1.792 2.728s6.871-3.215 14.583-2.091z"/></g></g><path d="M367.586 145.44c-.542 9.481-1.682 18.986-4.245 28.153-1.257 4.557-2.912 8.995-4.945 13.263-1.572 3.333-6.486 8.538-5.063 12.429 1.297 3.538 6.816 4.072 10.031 4.198 4.568.173 10.079-.951 13.569-4.104" stroke="#1d1d1b" class="G"/><path d="M346.942 222.107s26.549 12.068 43.294 3.145c0 .008-25.456 30.354-43.294-3.145z" fill="#a80e2b" class="B"/><path d="M363.208 259.3s5.425-7.075 15.314 1.116" stroke="#9e7949" class="G"/><g class="B"><path d="M228.774 459.19l.244 90.189c-.016 59.638-2.563 146.572 5.393 174.033s5.629 46.203 5.629 46.203 194.182 52.972 298.223 32.681c0 0-27.162-37.02 16.698-229.175 36.95-161.887 21.761-253.931 21.761-253.931s-47.634-12.248-95.653-36.667c0 0-51.321 137.579-108.491 129.41s-10.613-120.731-10.613-120.731-70.597 10.354-101.336 29.583-40.393 91.989-31.855 138.404z" class="H"/><path d="M462.964 143.656c1.258-1.254 2.942-1.99 4.717-2.06a7.25 7.25 0 0 1 5.102 1.816c1.448 1.246 2.381 2.986 2.618 4.882a10.01 10.01 0 0 1-1.03 5.432c-.816 1.591-1.847 3.062-3.066 4.371l-3.648 3.632a23.09 23.09 0 0 0-3.215 3.813c-.917 1.413-1.516 3.01-1.753 4.678-.116-1.753.229-3.507.998-5.086a19.9 19.9 0 0 1 2.964-4.34c2.272-2.61 4.764-4.906 6.14-7.862a8.53 8.53 0 0 0 .959-4.489c-.307-3.214-2.868-5.748-6.085-6.022a7.53 7.53 0 0 0-4.701 1.234z" fill="#1d1d1b"/><path d="M354.733 293.962s-83.09 14.363-118.836 40.472-71.226 185.063-71.226 185.063l-9.906 36.777s-39.308-27.186-52.241-59.678c-14.002-35.267-29.811-47.697-29.851-47.759 2.72 2.138-2.445 16.431-3.412 18.616-2.298 5.319-6.026 9.897-10.77 13.223a34.33 34.33 0 0 1-13.365 5.181c-9.788 1.855-18.947 3.671-23.585-7.602-2.186-5.275-2.154-11.171-2.091-16.887-4.615 6.069 2.358 24.104 2.358 24.104l12.783 30.912s56.006 114.906 98.373 149.858 77.217-60.896 77.217-60.896" class="H"/><path d="M527.697 398.247s-30.055 69.135-28.766 146.879 31.329 80.11-33.121 112.421l77.303 35.763 15.448-76.525-13.931-68.396c-3.844-15.605-.786-85.016-1.258-91.981s-15.676-58.16-15.676-58.16z" fill="#fdc280"/><path d="M518.145 463.836c5.503 91.305 38.184 149.253 1.572 166.824-22.901 11.006-35.55 18.585-41.808 22.744-3.608 2.358-7.917 2.932-12.068 4.151-94.67 27.869-158.451 53.585-158.451 53.585 29.3-5.833 23.019 62.107 23.019 62.107s40.165-4.764 65.645-11.564c76.407-2.461 247.028-82.547 251.926-108.726s-2.225-160.786-13.726-235.212c-7.075-45.802-29.638-75.755-45.943-91.981-4.985-4.949-11.813-7.589-18.831-7.28s-13.587 3.539-18.118 8.907c-16.769 19.835-37.83 60.369-33.215 136.447z" class="H"/><path d="M372.642 411.95l12.925-.59-20.857 109.513s-18.994 15.212-19.953-1.454l15.307-111.808 12.579 4.34z" fill="#ffdeb3"/><path d="M225.975 415.228s-1.454 90.77-10.055 122.995l-33.153 116.8 47.461-88.876s12.201-70.975-4.253-150.92z" fill="#fdc280"/><g fill="#47332b"><path d="M551.368 327.382l-5.212 6.942-4.654 7.303c-2.943 4.971-5.549 10.135-7.799 15.456l-.865 1.981c-.283.668-.527 1.344-.786 2.02l-1.572 4.033-1.407 4.088c-.464 1.368-.951 2.72-1.336 4.112-.786 2.775-1.682 5.503-2.358 8.333l-1.006 4.198c-.322 1.407-.597 2.822-.896 4.237a243.05 243.05 0 0 0-4.52 34.285c-.401 5.763-.48 11.533-.574 17.296l.118 8.648c0 1.439.063 2.885.142 4.324l.204 4.324a441.89 441.89 0 0 0 2.932 34.536c1.399 11.478 3.239 22.893 5.157 34.3l6.093 34.19c1.973 11.392 3.726 22.917 3.829 34.513-.503-11.58-2.492-23.003-4.717-34.355l-6.572-34.112c-4.206-22.799-7.398-45.802-8.514-68.986l-.189-4.347c-.063-1.447-.126-2.901-.118-4.347l-.079-8.711c.118-5.802.22-11.604.66-17.398a227.43 227.43 0 0 1 4.788-34.473l.967-4.245 1.116-4.206c.7-2.822 1.619-5.582 2.469-8.357.401-1.392.912-2.752 1.399-4.119l1.478-4.104 1.635-4.033.825-2.013.904-1.981a129.23 129.23 0 0 1 8.184-15.346 103.68 103.68 0 0 1 10.275-13.986h0zM229.434 446.234a100.45 100.45 0 0 1 2.083 10.22c.55 3.428.936 6.879 1.242 10.338s.472 6.926.503 10.393a100.1 100.1 0 0 1-.354 10.409c-.417-3.451-.715-6.895-1.014-10.338l-.881-10.314-.857-10.322-.723-10.385zm204.63-76.871c-5.448 6.478-8.986 14.261-14.426 20.833a64.63 64.63 0 0 1-19.481 16.313 47.98 47.98 0 0 1-11.997 4.513c-4.205.944-8.534 1.21-12.822.786a39.75 39.75 0 0 1-23.294-10.22 30.79 30.79 0 0 1-7.311-10.66 40.88 40.88 0 0 1-2.736-12.579 97.28 97.28 0 0 1 .079-12.759c.259-4.237.645-8.459 1.266-12.657a171.13 171.13 0 0 1 5.401-24.803 164.04 164.04 0 0 1 9.198-23.585 214.7 214.7 0 0 0-4.623 11.792 145.14 145.14 0 0 0-3.742 12.068 171.53 171.53 0 0 0-4.898 24.748l-.362 3.145-.283 3.145c-.102 1.046-.165 2.091-.244 3.145l-.197 3.145a95.58 95.58 0 0 0 0 12.579 39.26 39.26 0 0 0 2.697 12.06 29.09 29.09 0 0 0 6.965 10.024 37.97 37.97 0 0 0 22.233 9.874 38.63 38.63 0 0 0 12.351-.715 49.93 49.93 0 0 0 11.698-4.222 63.87 63.87 0 0 0 19.41-15.66 98.27 98.27 0 0 0 7.484-10.157c2.27-3.581 4.823-6.975 7.634-10.149zM171.895 489.866c1.753-7.005 3.766-13.939 5.731-20.881l6.038-20.786 6.156-20.747 6.226-20.731v-.039h0l18.821-44.442 1.171-2.783c.346-.959.621-1.958.936-2.932a27.1 27.1 0 0 1 1.101-2.877l.597-1.431c.212-.464.472-.912.7-1.368l.715-1.368.362-.684.409-.653 1.667-2.594 1.855-2.461c.629-.786 1.336-1.572 1.997-2.358a64.56 64.56 0 0 1 9.135-8.184c3.283-2.399 6.718-4.584 10.283-6.541 3.546-1.981 7.178-3.781 10.857-5.503s7.366-3.318 11.108-4.843a334.41 334.41 0 0 1 22.704-8.451c3.829-1.289 7.697-2.469 11.564-3.616s7.775-2.17 11.69-3.145c7.814-2.02 15.77-3.443 23.671-5.016-7.862 1.84-15.723 3.42-23.514 5.613s-15.464 4.536-23.066 7.178-15.118 5.55-22.508 8.726c-3.703 1.572-7.366 3.247-11.006 4.937s-7.241 3.491-10.723 5.464c-3.499 1.939-6.868 4.103-10.086 6.478-3.19 2.376-6.146 5.051-8.829 7.987-.645.786-1.329 1.486-1.934 2.264l-1.769 2.358c-.55.786-1.061 1.667-1.572 2.5l-.393.629-.338.66-.684 1.313c-.22.44-.464.873-.668 1.321l-.558 1.368a24.05 24.05 0 0 0-1.046 2.767c-.307.943-.574 1.887-.912 2.822l-1.195 2.791-19.119 44.623v-.079l-12.893 41.321-6.439 20.668-3.184 10.338-3.058 10.385zM74.096 453.97c3.373 4.127 6.619 8.357 9.882 12.579s6.384 8.538 9.52 12.854 6.148 8.719 9.096 13.176c1.478 2.233 2.898 4.499 4.261 6.8l2.028 3.451a81.4 81.4 0 0 0 2.052 3.396c2.791 4.505 5.81 8.876 8.939 13.168s6.384 8.498 9.686 12.657 6.753 8.215 10.291 12.193 7.146 7.862 10.92 11.651c-4.041-3.475-7.862-7.241-11.557-11.069s-7.233-7.862-10.692-11.918a224.15 224.15 0 0 1-19.08-25.755 95.11 95.11 0 0 1-2.06-3.451l-2.036-3.451c-1.336-2.288-2.752-4.536-4.175-6.769-2.814-4.489-5.81-8.892-8.781-13.31l-9.104-13.121-9.19-13.082z"/></g><g stroke="#374151" class="G"><path d="M57.39 314.253l7.421-1.627 230.739 41.525s18.742 4.851 23.64 19.56" fill="#6b7280"/><path d="M131.384 590.975L49.112 326.619c-1.022-3.174-.292-6.653 1.919-9.148s5.577-3.639 8.851-3.006l229.929 42.689c13.309 2.467 23.943 12.495 27.186 25.637l75.369 305.031-260.983-96.847z" fill="#4b5563"/><path d="M318.884 372.547l76.769 308.27-4.182 3.396-74.914-303.223s-3.325-8.939-7.075-12.579" fill="#6b7280"/></g><path d="M491.604 283.671c9.182 3.836 18.506 7.209 27.901 10.354l28.302 9.151 14.253 4.269 7.154 2.02c2.429.608 4.825 1.343 7.178 2.201a46.26 46.26 0 0 1 12.956 7.649c1.939 1.61 3.752 3.366 5.425 5.252 1.7 1.876 3.234 3.896 4.583 6.038l-.086-.126c6.816 8.129 12.335 17.099 17.296 26.36 4.902 9.307 9.076 18.979 12.484 28.931 3.346 9.968 5.955 20.168 7.807 30.519l4.906 31.038c3.09 20.723 5.558 41.525 7.618 62.374l1.423 15.637.605 7.862.558 7.862.912 15.676c.307 5.22.401 10.464.597 15.723l-.936-15.676-1.179-15.653-.692-7.862-.739-7.814-1.572-15.613c-2.256-20.802-5.031-41.549-8.113-62.248l-5.016-30.975a218.26 218.26 0 0 0-7.822-30.252c-3.343-9.878-7.446-19.482-12.272-28.726-4.89-9.175-10.385-18.16-17.005-26.101l-.055-.063v-.063a42.98 42.98 0 0 0-4.387-5.81 50.43 50.43 0 0 0-5.244-5.126 44.74 44.74 0 0 0-12.492-7.547c-2.302-.87-4.648-1.618-7.028-2.241l-7.154-2.099-14.222-4.426a818.65 818.65 0 0 1-28.215-9.552c-9.363-3.388-18.671-6.879-27.728-10.943z" fill="#47332b"/></g></g></g></g><g class="B"><g fill="#451581"><path d="M146.108 42.453s-3.53-7.414.896-11.266S325.865 0 325.865 0l150.472 72.138s4.371 9.253-4.151 12.241L146.108 42.453z"/><path d="M325.873 10.299L147.091 38.923l-.983 3.522 119.175 62.689 206.903-20.778.983-3.522z"/></g><path fill="#18185e" d="M324.89 13.821L146.108 42.445l119.175 62.689 206.903-20.778z"/><path d="M387.98 197.618a13.02 13.02 0 0 1 7.303-4.269c.748-.11 1.508-.11 2.256 0 .874.107 1.71.423 2.437.92a3.93 3.93 0 0 1 .495.401c.126.11.252.236.362.354.638.725 1.08 1.602 1.281 2.547.159.757.207 1.533.142 2.303a13.06 13.06 0 0 1-3.498 7.524c-1.037 1.094-2.336 1.905-3.774 2.358-.566.192-1.144.347-1.73.464a19.01 19.01 0 0 1-2.209.299 22.47 22.47 0 0 1-4.167-.063l-.621-.071-.165-.786c-.253-1.264-.4-2.548-.44-3.836a19.01 19.01 0 0 1 .055-2.201l.212-1.486c.262-1.648.975-3.19 2.06-4.458z" fill="#dbb400"/><path d="M386.093 209.591l13.884-15.354a3.93 3.93 0 0 1 .495.401c.126.11.252.236.362.354l-13.954 15.432-.621-.071-.165-.763zm16.022-12.052a7.95 7.95 0 0 1 .142 2.303c-1.022 1.615-2.152 3.159-3.381 4.623a43.46 43.46 0 0 1-5.621 5.723 19.01 19.01 0 0 1-2.209.299 41.64 41.64 0 0 0 6.336-6.014 41.06 41.06 0 0 0 3.325-4.505 21.9 21.9 0 0 0 1.407-2.429h0zm-11.195-.267a41.21 41.21 0 0 1 4.363-3.931c.748-.11 1.508-.11 2.256 0a22.16 22.16 0 0 0-2.358 1.675 39.88 39.88 0 0 0-4.143 3.766 41.68 41.68 0 0 0-5.409 6.997 19.01 19.01 0 0 1 .055-2.201 42.36 42.36 0 0 1 5.236-6.305h0z" fill="#c9a600"/><use xlink:href="#M" fill="#1f2937"/><g fill="#f2c600"><use xlink:href="#M" x="-1.572"/><path d="M406.179 194.387c.476-1.7-.119-3.52-1.508-4.61s-3.298-1.235-4.836-.368-2.402 2.576-2.189 4.328 1.462 3.204 3.163 3.677c1.113.312 2.305.168 3.312-.4s1.747-1.513 2.057-2.627h0z"/></g><path d="M218.702 122.178l.708-63.64S250 36.675 300.77 41.399c47.476 4.41 67.484 16.187 85.369 38.64l-13.239 61.824c-.713 3.363-3.595 5.829-7.028 6.014-22.469 1.211-104.332 3.766-144.347-20.542-1.783-1.102-2.856-3.061-2.823-5.157h0z" fill="#451581"/></g></g></svg>
