<svg xmlns="http://www.w3.org/2000/svg" xmlns:xlink="http://www.w3.org/1999/xlink" viewBox="0 0 360 360"><style><![CDATA[.B{fill:#2626bc}.C{fill:#8a57db}]]></style><defs><linearGradient id="A" x1="107.74" y1="45.28" x2="271.41" y2="329.47" gradientUnits="userSpaceOnUse"><stop offset="0" stop-color="#d2deff" stop-opacity="0"/><stop offset="1" stop-color="#b7c5ff"/></linearGradient><clipPath id="B"><circle cx="184.61" cy="112.29" r="39.81" class="B"/></clipPath><clipPath id="C"><circle cx="127.56" cy="269.84" r="39.81" class="B"/></clipPath><clipPath id="D"><circle cx="241.07" cy="269.84" r="39.81" class="B"/></clipPath><clipPath id="E"><circle cx="102" cy="181.24" r="39.81" class="B"/></clipPath><clipPath id="F"><circle cx="264.79" cy="181.24" r="39.81" class="B"/></clipPath><clipPath id="G"><circle cx="180.61" cy="105.29" r="39.81" class="C"/></clipPath><clipPath id="H"><circle cx="123.56" cy="262.84" r="39.81" class="C"/></clipPath><clipPath id="I"><circle cx="237.07" cy="262.84" r="39.81" class="C"/></clipPath><clipPath id="J"><circle cx="98" cy="174.24" r="39.81" class="C"/></clipPath><clipPath id="K"><circle cx="260.79" cy="174.24" r="39.81" class="C"/></clipPath><path id="L" d="M184.75 162.86c-17.44 0-32.8-3.07-31.54-10.75 3.35-20.1 13.82-31.82 31.54-31.82s28.2 11.86 31.55 31.82c1.25 7.68-14.1 10.75-31.55 10.75z"/><path id="M" d="M127.56 322.39c-17.45 0-32.8-3.07-31.54-10.74 3.35-20.1 13.82-31.83 31.54-31.83s28.2 11.87 31.54 31.83c1.26 7.67-14.1 10.74-31.54 10.74z"/><path id="N" d="M241.07 322.39c-17.45 0-32.8-3.07-31.54-10.74 3.35-20.1 13.81-31.83 31.54-31.83s28.19 11.87 31.54 31.83c1.26 7.67-14.09 10.74-31.54 10.74z"/></defs><path d="M310.07 325c17.76-13.86 13.25-22.31 6.83-41.13-7.53-22.1-5.29-42.41 5.42-63 8.31-16 23.89-35.05 11.33-53.39-9.94-14.54-34.49-14.21-49.17-20.84-42.14-19-49.37-55.7-70.94-91.53-22.62-37.6-75.21-35.11-113.7-27.2C11.07 46.08 5.05 182.85 68.1 233.55c17.38 14 37 24.56 53.79 39.37C141.1 289.84 158 309.48 180 323.1c39 24.25 90.4 25.56 130.12 1.9z" fill="url(#A)"/><g opacity=".1" class="B"><circle cx="184.61" cy="112.29" r="39.81"/><g clip-path="url(#B)"><circle cx="184.75" cy="100.89" r="15.91"/><use xlink:href="#L"/></g><circle cx="127.56" cy="269.84" r="39.81"/><g clip-path="url(#C)"><circle cx="127.56" cy="260.42" r="15.91"/><use xlink:href="#M"/></g><circle cx="241.07" cy="269.84" r="39.81"/><g clip-path="url(#D)"><circle cx="241.07" cy="260.42" r="15.91"/><use xlink:href="#N"/></g><circle cx="102" cy="181.24" r="39.81"/><g clip-path="url(#E)"><circle cx="102" cy="171.82" r="15.91"/><path d="M102 233.79c-17.45 0-32.8-3.07-31.55-10.74C73.8 203 84.27 191.22 102 191.22s28.19 11.87 31.54 31.83c1.26 7.67-14.1 10.74-31.54 10.74z"/></g><circle cx="264.79" cy="181.24" r="39.81"/><g clip-path="url(#F)"><circle cx="264.79" cy="167.74" r="15.91"/><path d="M264.79 229.71c-17.45 0-32.8-3.07-31.54-10.75 3.35-20.1 13.81-31.82 31.54-31.82S293 199 296.33 219c1.26 7.64-14.09 10.71-31.54 10.71z"/></g></g><circle cx="180.61" cy="105.29" r="39.81" class="C"/><g clip-path="url(#G)" fill="#fff"><circle cx="180.75" cy="93.89" r="15.91"/><path d="M180.75 155.86c-17.44 0-32.8-3.07-31.54-10.75 3.35-20.1 13.82-31.82 31.54-31.82s28.2 11.86 31.55 31.82c1.25 7.68-14.1 10.75-31.55 10.75z"/></g><circle cx="123.56" cy="262.84" r="39.81" class="C"/><g clip-path="url(#H)" fill="#fff"><circle cx="123.56" cy="253.42" r="15.91"/><path d="M123.56 315.39c-17.45 0-32.8-3.07-31.54-10.74 3.35-20.1 13.82-31.83 31.54-31.83s28.2 11.87 31.54 31.83c1.26 7.67-14.1 10.74-31.54 10.74z"/></g><circle cx="237.07" cy="262.84" r="39.81" class="C"/><g clip-path="url(#I)" fill="#fff"><circle cx="237.07" cy="253.42" r="15.91"/><path d="M237.07 315.39c-17.45 0-32.8-3.07-31.54-10.74 3.35-20.1 13.81-31.83 31.54-31.83s28.19 11.87 31.54 31.83c1.26 7.67-14.09 10.74-31.54 10.74z"/></g><circle cx="98" cy="174.24" r="39.81" class="C"/><g clip-path="url(#J)" fill="#fff"><circle cx="98" cy="164.82" r="15.91"/><path d="M98 226.79c-17.45 0-32.8-3.07-31.55-10.74C69.8 196 80.27 184.22 98 184.22s28.19 11.87 31.54 31.83c1.26 7.67-14.1 10.74-31.54 10.74z"/></g><circle cx="260.79" cy="174.24" r="39.81" class="C"/><g clip-path="url(#K)" fill="#fff"><circle cx="260.79" cy="160.74" r="15.91"/><path d="M260.79 222.71c-17.45 0-32.8-3.07-31.54-10.75 3.35-20.1 13.81-31.82 31.54-31.82S289 192 292.33 212c1.26 7.64-14.09 10.71-31.54 10.71z"/></g><path d="M116.52 110.06a2.73 2.73 0 0 1-.11-3.85 3.27 3.27 0 0 0-.13-4.62 2.738 2.738 0 0 1 3.74-4 3.28 3.28 0 0 0 4.63-.13 2.738 2.738 0 1 1 4 3.74 3.28 3.28 0 0 0 .13 4.63 2.738 2.738 0 1 1-3.74 4 3.27 3.27 0 0 0-4.62.13 2.72 2.72 0 0 1-3.9.1zM185.06 330a2.74 2.74 0 0 1-.11-3.86 3.27 3.27 0 0 0-.13-4.62 2.741 2.741 0 1 1 3.75-4 3.27 3.27 0 0 0 4.62-.13 2.738 2.738 0 0 1 4 3.74 3.27 3.27 0 0 0 .13 4.62 2.738 2.738 0 1 1-3.74 4 3.27 3.27 0 0 0-4.62.14 2.74 2.74 0 0 1-3.9.11zM79.76 90.4a2.72 2.72 0 0 1-.11-3.86 3.27 3.27 0 0 0-.14-4.62 2.741 2.741 0 1 1 3.75-4 3.27 3.27 0 0 0 4.62-.13 2.738 2.738 0 0 1 4 3.74 3.27 3.27 0 0 0 .12 4.66 2.738 2.738 0 0 1-3.74 4 3.27 3.27 0 0 0-4.62.13 2.73 2.73 0 0 1-3.88.08zm202.92-2.12a2.68 2.68 0 0 1-.85-1.9l-.25-8.47a2.74 2.74 0 0 1 2.65-2.81l8.48-.24a2.73 2.73 0 0 1 2.8 2.65l.24 8.47a2.73 2.73 0 0 1-2.65 2.81l-8.47.24a2.73 2.73 0 0 1-1.95-.75zm4.43-7.81l.09 3 3-.08-.08-3z" opacity=".4" class="C"/></svg>
