<svg xmlns="http://www.w3.org/2000/svg" xmlns:xlink="http://www.w3.org/1999/xlink" viewBox="0 0 360 360"><defs><linearGradient id="A" x1="105.48" y1="42.71" x2="269.15" y2="326.9" gradientUnits="userSpaceOnUse"><stop offset="0" stop-color="#d2deff" stop-opacity="0"/><stop offset="1" stop-color="#b7c5ff"/></linearGradient><linearGradient id="B" x1="63.38" y1="177.89" x2="246.43" y2="177.89" xlink:href="#A"/><linearGradient id="C" x1="255.04" y1="196.34" x2="295.06" y2="196.34" xlink:href="#A"/><linearGradient id="D" x1="255.04" y1="166.08" x2="286.47" y2="166.08" xlink:href="#A"/><linearGradient id="E" x1="255.04" y1="226.6" x2="286.47" y2="226.6" xlink:href="#A"/></defs><path d="M307.81,322.43c17.76-13.85,13.25-22.31,6.83-41.12-7.53-22.11-5.29-42.42,5.42-63,8.31-16,23.89-35,11.33-53.39-9.94-14.54-34.49-14.2-49.17-20.84-42.14-19-49.37-55.69-70.94-91.53-22.62-37.59-75.21-35.06-113.7-27.19C8.81,43.51,2.79,180.28,65.84,231c17.38,14,37,24.55,53.79,39.37,19.21,16.91,36.15,36.56,58.06,50.18,39,24.24,90.4,25.55,130.12,1.89Z" fill="url(#A)"/><path d="M185.83 82.12a2.72 2.72 0 0 1-2.72-2.72 3.28 3.28 0 0 0-3.27-3.27 2.73 2.73 0 1 1 0-5.45 3.28 3.28 0 0 0 3.27-3.27 2.73 2.73 0 1 1 5.45 0 3.28 3.28 0 0 0 3.27 3.27 2.73 2.73 0 1 1 0 5.45 3.28 3.28 0 0 0-3.27 3.27 2.72 2.72 0 0 1-2.73 2.72zM263.3 276.9a2.72 2.72 0 0 1-2.73-2.72 3.28 3.28 0 0 0-3.27-3.27 2.73 2.73 0 0 1 0-5.45 3.28 3.28 0 0 0 3.27-3.27 2.73 2.73 0 1 1 5.45 0 3.28 3.28 0 0 0 3.27 3.27 2.73 2.73 0 1 1 0 5.45 3.28 3.28 0 0 0-3.27 3.27 2.72 2.72 0 0 1-2.72 2.72zM163.51 67.67a2.73 2.73 0 0 1-2.73-2.73 3.27 3.27 0 0 0-3.27-3.27 2.73 2.73 0 0 1 0-5.45 3.27 3.27 0 0 0 3.27-3.22 2.73 2.73 0 1 1 5.45 0 3.28 3.28 0 0 0 3.27 3.27 2.73 2.73 0 1 1 0 5.45 3.28 3.28 0 0 0-3.27 3.27 2.72 2.72 0 0 1-2.72 2.68zm87.8 21.68a2.72 2.72 0 0 1-1.93-.79l-6-6a2.73 2.73 0 0 1 0-3.85l6-6a2.73 2.73 0 0 1 3.85 0l6 6a2.73 2.73 0 0 1 0 3.85l-6 6a2.71 2.71 0 0 1-1.92.79zm-2.15-8.72l2.15 2.14 2.14-2.14-2.14-2.14zM89 290.87a2.73 2.73 0 0 1-1.93-.8l-6-6a2.73 2.73 0 0 1 0-3.85l6-6a2.73 2.73 0 0 1 3.85 0l6 6a2.73 2.73 0 0 1 0 3.85l-6 6a2.72 2.72 0 0 1-1.92.8zm-2.14-8.73l2.14 2.15 2.14-2.15L89 280z" opacity=".4" fill="#8a57db"/><path d="M279.52 207.72a3.17 3.17 0 0 1-.61-.07l-16.23-3.75a2.73 2.73 0 1 1 1.23-5.31l14 3.24 1.4-3.07a2.74 2.74 0 0 1 3-1.55l18.94 3.86a2.73 2.73 0 0 1-1.09 5.34L283.43 203l-1.43 3.12a2.73 2.73 0 0 1-2.48 1.6zm-16.22-22.66a2.72 2.72 0 0 1-1.45-5l12.24-7.64-1.19-3.17A2.72 2.72 0 0 1 274 166l16.11-10.66a2.721 2.721 0 1 1 3 4.54l-14.31 9.47 1.21 3.22a2.73 2.73 0 0 1-1.11 3.27l-14.12 8.82a2.72 2.72 0 0 1-1.44.41zM291.57 250a2.66 2.66 0 0 1-1.5-.45L274 238.88a2.72 2.72 0 0 1-1.05-3.23l1.19-3.16-12.24-7.64a2.725 2.725 0 1 1 2.89-4.62l14.13 8.82a2.71 2.71 0 0 1 1.1 3.27l-1.21 3.22 14.26 9.46a2.73 2.73 0 0 1-1.5 5z" opacity=".15" fill="#2626bc"/><path d="M223.73 121a6.2 6.2 0 0 0-3.7 1.36l-55.81 20.54v-3a25.2 25.2 0 0 0-25.2-25.2h-10.83a21.73 21.73 0 0 0 .47-4.52 22 22 0 1 0-41.43 10.37 25.2 25.2 0 0 0 16.14 44.55h.49l-28 10.28a15.26 15.26 0 0 0-10 14.31v23.61a15.26 15.26 0 0 0 10 14.31l8.74 3.21v26.31a16.42 16.42 0 0 0 10.44 15.36l46.57 18.39a16.51 16.51 0 0 0 22.57-15.36V260.1l59.56 21.9c11.13 0 20.15-36.05 20.15-80.52s-9-80.52-20.16-80.52zm-72.21 154.52a3.81 3.81 0 0 1-5.21 3.54l-46.56-18.38a3.79 3.79 0 0 1-2.42-3.55v-21.64l54.19 19.94z" fill="#2626bc" opacity=".1"/><g fill="#fff"><path d="M97.34,209.18v35.76a3.79,3.79,0,0,0,2.41,3.55l46.56,18.38a3.81,3.81,0,0,0,5.21-3.54V233.22h12.7v30.11a16.49,16.49,0,0,1-22.57,15.35L95.08,260.3a16.42,16.42,0,0,1-10.44-15.36V209.18Z"/><path d="M65.92 177.46v23.65a15.24 15.24 0 0 0 10 14.3l147.81 54.39v-161L75.9 163.16a15.26 15.26 0 0 0-9.98 14.3z"/></g><g fill="#8a57db"><path d="M157.6 211.61l-53.85-19.81a5.09 5.09 0 0 0-6.84 4.77v9.06a5.09 5.09 0 0 0 3.33 4.77l53.85 19.81a5.08 5.08 0 0 0 6.83-4.77v-9.06a5.09 5.09 0 0 0-3.32-4.77z"/><path d="M116.89,148.08v82.41l-41-15.08a15.23,15.23,0,0,1-10-14.3V177.46a15.23,15.23,0,0,1,10-14.3l13.64-5Z"/></g><path d="M65.93 178.64h10.58a2.54 2.54 0 0 1 0 5.08H65.93zm0 8.11h10.58a2.54 2.54 0 1 1 0 5.08H65.93zm0 8.1h10.58a2.54 2.54 0 1 1 0 5.08H65.93z" fill="#b186ea"/><ellipse cx="223.73" cy="189.29" rx="20.15" ry="80.52" fill="#fff"/><path d="M223.48 189.29a19.9 19.9 0 0 1-19.28 19.89 317.02 317.02 0 0 1 0-39.78 19.89 19.89 0 0 1 19.28 19.89z" fill="#8a57db"/><path d="M161.68 152.87h-58.31a25.2 25.2 0 0 1 0-50.39H139a25.2 25.2 0 0 1 25.2 25.2v22.65a2.54 2.54 0 0 1-2.52 2.54z" fill="#fff"/><path d="M146.37 131.23H99.88a2.54 2.54 0 0 1 0-5.08h46.49a2.54 2.54 0 0 1 0 5.08zm0 9.48H99.88a2.54 2.54 0 1 1 0-5.08h46.49a2.54 2.54 0 0 1 0 5.08z" fill="#8a57db"/><g fill="#fff"><circle cx="106.64" cy="97.96" r="22.01"/><path d="M116.89,196.64v19.88l-16.65-6.12a5.09,5.09,0,0,1-3.33-4.77v-9.06a5.08,5.08,0,0,1,6.84-4.77Z"/></g><path d="M75 217.8l7.08 2.6v24.54a19 19 0 0 0 12.05 17.72l46.57 18.39a19.05 19.05 0 0 0 26-17.72v-11.78l30.12 11.08a2.48 2.48 0 0 0 .88.16 2.55 2.55 0 0 0 .88-4.93L76.78 213a12.76 12.76 0 0 1-8.32-11.92v-23.62a12.74 12.74 0 0 1 8.32-11.91l27.53-10.13h30.55a2.54 2.54 0 0 0 0-5.08h-31.49a22.64 22.64 0 0 1-16.62-38 24.53 24.53 0 0 0 43.41-7.34H139a22.69 22.69 0 0 1 22.66 22.66v22.66H152a2.54 2.54 0 0 0 0 5.08h9.72a5.09 5.09 0 0 0 5.08-5.08v-17.9l46-16.91a76 76 0 0 0-5.7 16.21c-3.85 15.4-6 35.84-6 57.55s2.13 42.15 6 57.55c4.24 16.92 9.86 25.51 16.72 25.51s12.47-8.59 16.71-25.51c3.85-15.4 6-35.84 6-57.55s-2.13-42.15-6-57.55c-4.21-16.81-9.78-25.38-16.57-25.5h-.14a8.57 8.57 0 0 0-5 1.67l-52 19.13A27.76 27.76 0 0 0 139 99.94h-7.9c0-.65.08-1.31.08-2a24.55 24.55 0 1 0-47.07 9.78A27.71 27.71 0 0 0 94 153.79l-19 7a17.85 17.85 0 0 0-11.64 16.69v23.64A17.85 17.85 0 0 0 75 217.8zm86.66 45.53a14 14 0 0 1-19.1 13L96 257.94a13.9 13.9 0 0 1-8.83-13v-22.67l7.62 2.8v19.87a6.32 6.32 0 0 0 4 5.91l46.57 18.38a6.36 6.36 0 0 0 2.34.45 6.26 6.26 0 0 0 3.56-1.1 6.33 6.33 0 0 0 2.78-5.25v-16.45l7.62 2.8zm-61.8-36.39L149 245v18.32a1.2 1.2 0 0 1-.56 1.05 1.22 1.22 0 0 1-1.17.13l-46.57-18.39a1.22 1.22 0 0 1-.8-1.18zm141.47-37.65c0 48.31-10.26 78-17.61 78s-17.62-29.66-17.62-78c0-42.88 8.08-71.07 15-76.87l3-1.08c7.33 1 17.24 30.46 17.24 77.95zM106.65 78.48A19.48 19.48 0 1 1 87.18 98a19.49 19.49 0 0 1 19.47-19.52z" fill="url(#B)"/><path d="M257,197.7l15.12,3.49a2.22,2.22,0,0,0,.57.07,2.56,2.56,0,0,0,2.32-1.49l1.32-2.92L292,200a2.54,2.54,0,1,0,1-5l-17.65-3.59a2.54,2.54,0,0,0-2.82,1.44l-1.3,2.86-13.1-3A2.54,2.54,0,0,0,257,197.7Z" fill="url(#C)"/><path d="M257.58,180.14a2.56,2.56,0,0,0,1.35-.38l13.16-8.22a2.53,2.53,0,0,0,1-3l-1.12-3,13.33-8.83a2.54,2.54,0,1,0-2.8-4.23l-15,9.94a2.53,2.53,0,0,0-1,3l1.11,3-11.41,7.12a2.54,2.54,0,0,0,1.35,4.69Z" fill="url(#D)"/><path d="M267.51,230.31l15,9.94a2.57,2.57,0,0,0,1.4.42,2.54,2.54,0,0,0,1.4-4.66L272,227.19l1.12-3a2.52,2.52,0,0,0-1-3l-13.16-8.22a2.54,2.54,0,1,0-2.7,4.3l11.41,7.12-1.11,2.95a2.55,2.55,0,0,0,1,3Z" fill="url(#E)"/><g fill="#8a57db"><circle cx="106.9" cy="92.41" r="4.15"/><circle cx="116.21" cy="93.36" r="3.09"/><path d="M122.36 103.76c-.62-3.89-2.65-6.22-6.15-6.22a5.55 5.55 0 0 0-3.34 1 3.92 3.92 0 0 0 .36.33 12.41 12.41 0 0 1 3 6.69v.29c3.4.02 6.38-.56 6.13-2.09z"/><circle cx="97.59" cy="93.36" r="3.09"/><path d="M100.61 98.85l.33-.33a5.64 5.64 0 0 0-3.35-1c-3.45 0-5.49 2.29-6.14 6.22-.26 1.53 2.76 2.11 6.14 2.11a.64.64 0 0 1 0-.29 12.17 12.17 0 0 1 3.02-6.71zm6.29 9.71c-4.54 0-8.54-.8-8.22-2.8.88-5.24 3.6-8.29 8.22-8.29s7.35 3.09 8.22 8.29c.33 2-3.67 2.8-8.22 2.8z"/></g></svg>
