<svg xmlns="http://www.w3.org/2000/svg" viewBox="0 0 360 360"><defs><linearGradient id="A" x1="105.48" y1="42.71" x2="269.15" y2="326.9" gradientUnits="userSpaceOnUse"><stop offset="0" stop-color="#d2deff" stop-opacity="0"/><stop offset="1" stop-color="#b7c5ff"/></linearGradient></defs><path d="M307.81,322.43c17.76-13.85,13.25-22.31,6.83-41.12-7.53-22.11-5.29-42.42,5.42-63,8.31-16,23.89-35,11.33-53.39-9.94-14.54-34.49-14.2-49.17-20.84-42.14-19-49.37-55.69-70.94-91.53-22.62-37.59-75.21-35.06-113.7-27.19C8.81,43.51,2.79,180.28,65.84,231c17.38,14,37,24.55,53.79,39.37,19.21,16.91,36.15,36.56,58.06,50.18,39,24.24,90.4,25.55,130.12,1.89Z" fill="url(#A)"/><path d="M231.78 252.3c0 3 2.76 5.41 6.16 5.41h21.5c3.39 0 6.14-2.42 6.14-5.41a5.53 5.53 0 0 0-4.25-5.12v-70.34a5.52 5.52 0 0 0 4.25-5.13c0-3-2.75-5.43-6.14-5.43h-21.51c-3.4 0-6.16 2.44-6.16 5.43a5.55 5.55 0 0 0 4.26 5.13v70.34a5.55 5.55 0 0 0-4.25 5.12zm-127.17 0c0 3 2.75 5.41 6.14 5.41h21.5c3.4 0 6.15-2.42 6.15-5.41a5.54 5.54 0 0 0-4.24-5.12v-70.34a5.53 5.53 0 0 0 4.24-5.13c0-3-2.75-5.43-6.15-5.43h-21.5c-3.38 0-6.14 2.44-6.14 5.43a5.53 5.53 0 0 0 4.25 5.13v70.34a5.54 5.54 0 0 0-4.25 5.12zm42.39 0c0 3 2.77 5.41 6.17 5.41h21.48c3.41 0 6.16-2.42 6.16-5.41a5.54 5.54 0 0 0-4.24-5.12v-70.34a5.53 5.53 0 0 0 4.24-5.13c0-3-2.75-5.43-6.16-5.43h-21.5c-3.4 0-6.17 2.44-6.17 5.43a5.55 5.55 0 0 0 4.27 5.13v70.34a5.56 5.56 0 0 0-4.25 5.12zm42.38 0c0 3 2.76 5.41 6.17 5.41H217c3.4 0 6.15-2.42 6.15-5.41a5.55 5.55 0 0 0-4.26-5.12v-70.34a5.54 5.54 0 0 0 4.26-5.13c0-3-2.75-5.43-6.15-5.43h-21.45c-3.41 0-6.17 2.44-6.17 5.43a5.54 5.54 0 0 0 4.27 5.13v70.34a5.55 5.55 0 0 0-4.27 5.12zm-96.56 32.79H276.5v-8.32c0-5.25-4-9.52-8.9-9.52H101.7c-4.9 0-8.88 4.27-8.88 9.52zm-7.25 10v4.77h198.19v-4.77c0-3-4.28-5.44-9.57-5.44h-179c-5.31 0-9.59 2.45-9.59 5.44zm191.25-148.72H92.49v1.54a8.18 8.18 0 0 0 8.2 8.19h167.94a8.19 8.19 0 0 0 8.19-8.19zM92.49 140.9h184.36s7.61-3.42 4-8.53L184.62 73l-96.17 59.37c-3.59 5.11 4.04 8.53 4.04 8.53zm75.87-28.3a16.31 16.31 0 1 1 16.3 16.31 16.3 16.3 0 0 1-16.3-16.31z" opacity=".1" fill="#2626bc"/><path d="M226.46 243.43c0 3 2.76 5.42 6.16 5.42h21.5c3.39 0 6.14-2.43 6.14-5.42a5.51 5.51 0 0 0-4.25-5.11V168a5.51 5.51 0 0 0 4.25-5.13c0-3-2.75-5.43-6.14-5.43h-21.51c-3.4 0-6.16 2.44-6.16 5.43a5.53 5.53 0 0 0 4.26 5.13v70.35a5.52 5.52 0 0 0-4.25 5.08zm-127.17 0c0 3 2.75 5.42 6.14 5.42h21.5c3.4 0 6.15-2.43 6.15-5.42a5.52 5.52 0 0 0-4.24-5.11V168a5.52 5.52 0 0 0 4.24-5.13c0-3-2.75-5.43-6.15-5.43h-21.5c-3.38 0-6.14 2.44-6.14 5.43a5.51 5.51 0 0 0 4.25 5.13v70.35a5.51 5.51 0 0 0-4.25 5.08zm42.37 0c0 3 2.77 5.42 6.17 5.42h21.48c3.41 0 6.16-2.43 6.16-5.42a5.52 5.52 0 0 0-4.24-5.11V168a5.52 5.52 0 0 0 4.24-5.13c0-3-2.75-5.43-6.16-5.43h-21.48c-3.4 0-6.17 2.44-6.17 5.43a5.54 5.54 0 0 0 4.27 5.13v70.35a5.54 5.54 0 0 0-4.27 5.08zm42.4 0c0 3 2.76 5.42 6.16 5.42h21.5c3.4 0 6.15-2.43 6.15-5.42a5.53 5.53 0 0 0-4.26-5.11V168a5.53 5.53 0 0 0 4.26-5.13c0-3-2.75-5.43-6.15-5.43h-21.5c-3.4 0-6.16 2.44-6.16 5.43a5.53 5.53 0 0 0 4.27 5.13v70.35a5.53 5.53 0 0 0-4.27 5.08z" fill="#fff"/><path d="M87.5 276.23h183.68v-8.33c0-5.25-4-9.52-8.9-9.52H96.38c-4.9 0-8.88 4.27-8.88 9.52zm-7.25 9.99V291h198.19v-4.77c0-3-4.28-5.44-9.57-5.44h-179c-5.31 0-9.59 2.45-9.59 5.44zM271.5 137.5H87.17v1.5a8.19 8.19 0 0 0 8.2 8.2h167.94a8.2 8.2 0 0 0 8.19-8.2zM87.17 132h184.35s7.62-3.41 4-8.53L179.3 64.14 83.13 123.5c-3.59 5.12 4.04 8.5 4.04 8.5zM163 103.73A16.31 16.31 0 1 1 179.34 120 16.31 16.31 0 0 1 163 103.73z" fill="#8a57db"/><path d="M91.08 75.63a2.73 2.73 0 0 1-.08-3.85 3.27 3.27 0 0 0-.13-4.62 2.738 2.738 0 0 1 3.74-4 3.27 3.27 0 0 0 4.62-.14 2.741 2.741 0 0 1 4 3.75 3.27 3.27 0 0 0 .13 4.62 2.738 2.738 0 1 1-3.74 4 3.28 3.28 0 0 0-4.63.13 2.71 2.71 0 0 1-3.91.11zm186.8 156.96a2.74 2.74 0 0 1-.11-3.86 3.27 3.27 0 0 0-.13-4.62 2.738 2.738 0 1 1 3.74-4A3.28 3.28 0 0 0 286 220a2.738 2.738 0 0 1 4 3.74 3.27 3.27 0 0 0 .13 4.62 2.738 2.738 0 1 1-3.74 4 3.29 3.29 0 0 0-4.63.14 2.73 2.73 0 0 1-3.88.09zM78 51.74a2.72 2.72 0 0 1-.11-3.85 3.28 3.28 0 0 0-.13-4.63 2.738 2.738 0 0 1 3.74-4 3.27 3.27 0 0 0 4.62-.13 2.738 2.738 0 1 1 4 3.74 3.28 3.28 0 0 0 .14 4.62 2.741 2.741 0 0 1-3.75 4 3.27 3.27 0 0 0-4.62.13 2.73 2.73 0 0 1-3.89.12zM64.74 225.5a2.69 2.69 0 0 1-.85-1.9l-.25-8.48a2.73 2.73 0 0 1 2.65-2.8l8.48-.24a2.73 2.73 0 0 1 2.8 2.65l.24 8.47a2.72 2.72 0 0 1-2.65 2.8l-8.47.25a2.73 2.73 0 0 1-1.95-.75zm4.43-7.81l.09 3 3-.09-.08-3zM270.8 91.92a2.77 2.77 0 0 1-.86-1.91l-.24-8.47a2.73 2.73 0 0 1 2.65-2.81l8.47-.24a2.73 2.73 0 0 1 2.81 2.65l.24 8.47a2.73 2.73 0 0 1-2.65 2.81l-8.47.24a2.75 2.75 0 0 1-1.95-.74zm4.43-7.82l.09 3 3-.08-.08-3z" opacity=".4" fill="#8a57db"/></svg>
