<svg id="Layer_1" data-name="Layer 1" xmlns="http://www.w3.org/2000/svg" viewBox="0 0 646.46 198.19"><defs><style>.cls-1{fill:#424242;}</style></defs><path d="M111.8,93.84a.34.34,0,0,1-.09-.13.4.4,0,0,1-.11.12,8.46,8.46,0,0,1-.62.78c.24-.24.48-.47.73-.68.21.19.42.37.62.57Zm-4.21,4.35c-.15.16-.31.3-.47.46a.2.2,0,0,0-.07.06.18.18,0,0,0,.07.05c.16.16.32.3.47.46l-.43-.51C107.3,98.53,107.45,98.36,107.59,98.19Zm4.21-4.35a.34.34,0,0,1-.09-.13.4.4,0,0,1-.11.12,8.46,8.46,0,0,1-.62.78c.24-.24.48-.47.73-.68.21.19.42.37.62.57Zm0,0a.34.34,0,0,1-.09-.13.4.4,0,0,1-.11.12,8.46,8.46,0,0,1-.62.78c.24-.24.48-.47.73-.68.21.19.42.37.62.57Zm-4.64,4.87c.14-.18.29-.35.43-.52-.15.16-.31.3-.47.46C107.13,98.67,107.16,98.68,107.16,98.71Zm4.64-4.87a.34.34,0,0,1-.09-.13.4.4,0,0,1-.11.12,8.46,8.46,0,0,1-.62.78c.24-.24.48-.47.73-.68.21.19.42.37.62.57Zm-4.21,4.35c-.15.16-.31.3-.47.46a.2.2,0,0,0-.07.06.18.18,0,0,0,.07.05c.16.16.32.3.47.46l-.43-.51C107.3,98.53,107.45,98.36,107.59,98.19Zm4.21-4.35a.34.34,0,0,1-.09-.13.4.4,0,0,1-.11.12,8.46,8.46,0,0,1-.62.78c.24-.24.48-.47.73-.68.21.19.42.37.62.57Zm-.85,8.93c.23.26.44.53.64.8a.53.53,0,0,0,.12-.1Zm.85-8.93a.34.34,0,0,1-.09-.13.4.4,0,0,1-.11.12,8.46,8.46,0,0,1-.62.78c.24-.24.48-.47.73-.68.21.19.42.37.62.57Zm.66,8.93a43.06,43.06,0,0,0,3.41-3.61A35.32,35.32,0,0,0,112.46,102.77Zm3.41-4.51a5.73,5.73,0,0,1,.39.45s0,0,0-.06Zm-8.28-.07c-.15.16-.31.3-.47.46a.2.2,0,0,0-.07.06.18.18,0,0,0,.07.05c.16.16.32.3.47.46l-.43-.51C107.3,98.53,107.45,98.36,107.59,98.19Z"/><path d="M123.65,111.36a45.91,45.91,0,0,0-7.35-12.6s0,0,0-.05c-.13.14-.27.3-.39.45a35.32,35.32,0,0,0-3.41,3.61s0,0,0,0c-.24.22-.47.45-.71.66l-.76-.7c.23.26.44.53.64.8a.75.75,0,0,1,.12.14,39.26,39.26,0,0,1,0,48.46,36.37,36.37,0,0,0,4.59,4.94,45.92,45.92,0,0,0,7.35-45.75ZM111.6,93.83a46,46,0,0,0-61.77,0,39.61,39.61,0,0,0,4.55,4.88,39.27,39.27,0,0,1,52.67,0,.18.18,0,0,0,.07.05c.16.16.32.3.47.46l-.43-.51c.14-.18.29-.35.43-.52A34.2,34.2,0,0,0,111,94.63l0,0c.24-.24.48-.47.73-.68Zm-4.48,63.28a39.33,39.33,0,0,1-57.27-53.54,45.65,45.65,0,0,1-4.67-4.86,46,46,0,0,0,66.53,63.23A45.57,45.57,0,0,1,107.12,157.11ZM111,102.77c.23.26.44.53.64.8a.53.53,0,0,0,.12-.1Z"/><path d="M111.8,93.84a.34.34,0,0,1-.09-.13.4.4,0,0,1-.11.12,8.46,8.46,0,0,1-.62.78c.24-.24.48-.47.73-.68.21.19.42.37.62.57Zm30.88-70.39a45.82,45.82,0,0,0-31,12,46.61,46.61,0,0,1,4.59,4.83,39.33,39.33,0,0,1,57.27,53.54,47.59,47.59,0,0,1,4.65,4.87,46,46,0,0,0-35.54-75.26Zm-31,70.26a39.2,39.2,0,0,1,0-48.47,39.69,39.69,0,0,0-4.59-4.94,45.93,45.93,0,0,0,0,58.35s0,0,0,.06c.14-.18.29-.35.43-.52A34.2,34.2,0,0,0,111,94.63l0,0c.24-.24.48-.47.73-.68.21.19.42.37.62.57l-.53-.66A.34.34,0,0,1,111.71,93.71Zm57.32,5a39.31,39.31,0,0,1-52.68,0s0,0,0-.06l-.43-.39a5.73,5.73,0,0,1,.39.45c-.13.14-.27.3-.39.45a35.32,35.32,0,0,0-3.41,3.61s0,0,0,0c-.24.22-.47.45-.71.66l.1.1a46,46,0,0,0,61.76,0A38.61,38.61,0,0,0,169,98.71Z"/><path d="M178.22,98.71a47.59,47.59,0,0,0-4.65-4.87A46,46,0,0,0,123.66,86,45.93,45.93,0,0,0,116.3,40.3a46.61,46.61,0,0,0-4.59-4.83,46,46,0,1,0-11.95,75.89,46,46,0,1,0,78.46-12.65Zm-97.5,10.13a39.37,39.37,0,1,1,26.4-68.54,39.69,39.69,0,0,1,4.59,4.94,39.27,39.27,0,0,1,0,48.47.34.34,0,0,0,.09.13l.53.66c-.2-.2-.41-.38-.62-.57-.25.21-.49.44-.73.68l0,0a34.2,34.2,0,0,1-3.36,3.56c-.14.17-.29.34-.43.52l.43.51c-.15-.16-.31-.3-.47-.46a.18.18,0,0,1-.07-.05A39.25,39.25,0,0,1,80.72,108.84Zm62,58.46a39.16,39.16,0,0,1-26.38-10.19,36.37,36.37,0,0,1-4.59-4.94,39.18,39.18,0,0,1,0-48.46.75.75,0,0,0-.12-.14c-.2-.27-.41-.54-.64-.8l.76.7c.24-.21.47-.44.71-.66,0,0,0,0,0,0a35.32,35.32,0,0,1,3.41-3.61c.12-.15.26-.31.39-.45a5.73,5.73,0,0,0-.39-.45l.43.39s0,0,0,.06a39.28,39.28,0,0,1,52.68,0,38.61,38.61,0,0,1,4.54,4.86,39.32,39.32,0,0,1-30.89,63.73Z"/><path d="M116.3,98.65l-.43-.39a5.73,5.73,0,0,1,.39.45c-.13.14-.27.3-.39.45l.43-.4s0,0,0-.05S116.31,98.67,116.3,98.65Zm-4.59,4.82a.53.53,0,0,1-.12.1.75.75,0,0,1,.12.14.31.31,0,0,1,.1-.14c.19-.26.4-.51.61-.76C112.18,103,112,103.26,111.71,103.47Zm0,0a.53.53,0,0,1-.12.1.75.75,0,0,1,.12.14.31.31,0,0,1,.1-.14c.19-.26.4-.51.61-.76C112.18,103,112,103.26,111.71,103.47Zm4.59-4.82-.43-.39a5.73,5.73,0,0,1,.39.45c-.13.14-.27.3-.39.45l.43-.4s0,0,0-.05S116.31,98.67,116.3,98.65Zm-4.59,4.82.1.1c.19-.26.4-.51.61-.76C112.18,103,112,103.26,111.71,103.47Zm.09-9.63a.26.26,0,0,0-.09.09c.21.19.42.37.62.57Zm-.09,9.63-.76-.7c.23.26.44.53.64.8a.75.75,0,0,1,.12.14.31.31,0,0,1,.1-.14c.19-.26.4-.51.61-.76C112.18,103,112,103.26,111.71,103.47Zm-4.12-5.28A34.2,34.2,0,0,0,111,94.63,47,47,0,0,0,107.59,98.19Zm-.43.52,0,.05c.16.16.32.3.47.46Z"/><path class="cls-1" d="M173.44,93.83a46,46,0,0,0-61.75,0,9,9,0,0,0,.61.77l-.72-.66c-.24.21-.47.43-.71.66.21-.25.42-.5.61-.77A46.06,46.06,0,0,0,99.63,86a45.94,45.94,0,0,0-49.91,7.79l0,0a6.56,6.56,0,0,0,0,9.71h0a45.78,45.78,0,0,0,60,1.45c-1.08-1.08-3-3-4.77-4.68a39.29,39.29,0,0,1-47.37,1.07,3.34,3.34,0,0,1,0-5.42,39.33,39.33,0,0,1,48.22,1.76h0l0,.05c.35.3.71.6,1,.91a.08.08,0,0,1,0,0l.43-.4-.39.46.32.37-.36-.33a.08.08,0,0,1,0,0l-.08.06c1.33,1.31,3.58,3.55,4.75,4.69l.59-.54c-.17.21-.34.42-.49.63l.3.3a45.93,45.93,0,0,0,61.45-.26l0,0a6.52,6.52,0,0,0,0-9.65Zm-30.87,15A39.28,39.28,0,0,1,116.22,98.7a.06.06,0,0,1,0,0c-.12.11-.24.23-.36.33l.32-.37-.38-.46a35.25,35.25,0,0,1-3.41-3.61,46.5,46.5,0,0,1,3.41,3.61l.42.4a.06.06,0,0,1,0,0A39.36,39.36,0,0,1,165.57,96a3.34,3.34,0,0,1,0,5.4A39.18,39.18,0,0,1,142.57,108.83Z"/><path class="cls-1" d="M110.59,93.05l1.1.78,1.55-1.34,3,6.21-3.8,5.5a75.28,75.28,0,0,1-5.88-5.94C105.6,96.87,110.59,93.05,110.59,93.05Z"/><path class="cls-1" d="M213.9,146.66h-7.16V138h7.16v-6.21a28,28,0,0,1,.5-5.45,11.17,11.17,0,0,1,1.95-4.52,9.59,9.59,0,0,1,4.15-3.07,18.87,18.87,0,0,1,7.12-1.12c1.11,0,2.19,0,3.25.14a22.27,22.27,0,0,1,3.1.51l-.5,9.17a14.53,14.53,0,0,0-1.73-.54,8.28,8.28,0,0,0-1.81-.18,5.89,5.89,0,0,0-3.9,1.12c-.86.75-1.3,2.27-1.3,4.59V138h8v8.67h-8v26.43H213.9Z"/><path class="cls-1" d="M239.9,155.54a18.34,18.34,0,0,1,1.52-7.59,17.58,17.58,0,0,1,4.15-5.81,18.44,18.44,0,0,1,6.22-3.72,23.12,23.12,0,0,1,15.23,0,18.3,18.3,0,0,1,6.21,3.72,17.61,17.61,0,0,1,4.16,5.81,19.71,19.71,0,0,1,0,15.18,17.41,17.41,0,0,1-4.16,5.81,18.14,18.14,0,0,1-6.21,3.72,23,23,0,0,1-15.23,0,18.28,18.28,0,0,1-6.22-3.72,17.38,17.38,0,0,1-4.15-5.81A18.25,18.25,0,0,1,239.9,155.54Zm10.84,0A9.07,9.07,0,0,0,253,162a9.54,9.54,0,0,0,12.79,0,10.24,10.24,0,0,0,0-12.86,9.57,9.57,0,0,0-12.79,0A9.09,9.09,0,0,0,250.74,155.54Z"/><path class="cls-1" d="M323.4,173.09H313v-4.77h-.14a12.41,12.41,0,0,1-1.48,2,9.24,9.24,0,0,1-2.21,1.8,11.94,11.94,0,0,1-3,1.3,12.21,12.21,0,0,1-3.61.51,15.21,15.21,0,0,1-6.68-1.26,9.5,9.5,0,0,1-4-3.51,13.76,13.76,0,0,1-1.88-5.27,42.12,42.12,0,0,1-.47-6.57V138h10.84v17.19c0,1,0,2.06.1,3.14a10.12,10.12,0,0,0,.65,3,4.69,4.69,0,0,0,4.88,3.11,6.73,6.73,0,0,0,3.39-.76,5.15,5.15,0,0,0,2-2,8.42,8.42,0,0,0,.91-2.86,25.28,25.28,0,0,0,.21-3.32V138H323.4Z"/><path class="cls-1" d="M335.39,138h10.4v4.77h.15a8.46,8.46,0,0,1,1.44-2,10.85,10.85,0,0,1,2.23-1.8,13,13,0,0,1,3-1.3,12.26,12.26,0,0,1,3.61-.5,15,15,0,0,1,6.65,1.25,9.72,9.72,0,0,1,3.93,3.51,14.07,14.07,0,0,1,1.91,5.27,39.68,39.68,0,0,1,.51,6.58v19.35H358.36V155.9c0-1,0-2.05-.11-3.14a9.82,9.82,0,0,0-.65-3,5.29,5.29,0,0,0-1.66-2.25,5.22,5.22,0,0,0-3.21-.86,6.64,6.64,0,0,0-3.4.76,5.08,5.08,0,0,0-2,2,8.08,8.08,0,0,0-.9,2.85,25.36,25.36,0,0,0-.22,3.32v17.48H335.39Z"/><path class="cls-1" d="M418,173.09h-10v-4.62h-.15a11.6,11.6,0,0,1-1.7,1.92,12.5,12.5,0,0,1-2.45,1.76,14,14,0,0,1-3.11,1.3,12.1,12.1,0,0,1-3.5.51,18.12,18.12,0,0,1-7.08-1.33,15.6,15.6,0,0,1-5.45-3.76,16.82,16.82,0,0,1-3.5-5.74,20.91,20.91,0,0,1-1.23-7.3,22,22,0,0,1,1.12-7,19.45,19.45,0,0,1,3.17-6,15.42,15.42,0,0,1,5-4.15,14.16,14.16,0,0,1,6.71-1.55,18.54,18.54,0,0,1,6.32,1,10.16,10.16,0,0,1,4.81,3.58h.14V118.49H418Zm-10-17.55a9.09,9.09,0,0,0-2.28-6.43,9.56,9.56,0,0,0-12.78,0A10.21,10.21,0,0,0,393,162a9.53,9.53,0,0,0,12.78,0A9.08,9.08,0,0,0,408.05,155.54Z"/><path class="cls-1" d="M453.05,168.69h-.15a10.16,10.16,0,0,1-4.8,4.05,16.66,16.66,0,0,1-6.32,1.22,16.16,16.16,0,0,1-4.73-.69,11.89,11.89,0,0,1-4-2.05,10,10,0,0,1-2.75-3.4,10.38,10.38,0,0,1-1-4.69A10.69,10.69,0,0,1,430.4,158a10.15,10.15,0,0,1,3-3.47,15.19,15.19,0,0,1,4.37-2.13,32.42,32.42,0,0,1,5.09-1.12,47,47,0,0,1,5.27-.43c1.76,0,3.38-.07,4.88-.07a5.61,5.61,0,0,0-2.06-4.59,7.43,7.43,0,0,0-4.87-1.7,10.68,10.68,0,0,0-4.88,1.12,13.43,13.43,0,0,0-3.94,3.07l-5.78-5.92a19.84,19.84,0,0,1,7.08-4.22,25,25,0,0,1,8.38-1.41,22.05,22.05,0,0,1,7.84,1.18,11.51,11.51,0,0,1,4.91,3.51,13.57,13.57,0,0,1,2.57,5.67,37.38,37.38,0,0,1,.71,7.76v17.84h-10Zm-2.67-11c-.82,0-1.84,0-3.07.11a15.25,15.25,0,0,0-3.54.61,8,8,0,0,0-2.89,1.52,3.47,3.47,0,0,0-1.2,2.81,3.13,3.13,0,0,0,1.66,2.9,7.06,7.06,0,0,0,3.47.93,10.79,10.79,0,0,0,3.07-.43,9.16,9.16,0,0,0,2.64-1.23,6,6,0,0,0,1.85-2,5.91,5.91,0,0,0,.68-2.89v-2.31Z"/><path class="cls-1" d="M498.05,146.66h-9.54v11.7a21.26,21.26,0,0,0,.15,2.64,5.37,5.37,0,0,0,.65,2.06,3.35,3.35,0,0,0,1.55,1.33,7,7,0,0,0,2.78.47,18.69,18.69,0,0,0,2.28-.18,3.79,3.79,0,0,0,2.13-.83v9a16.23,16.23,0,0,1-3.75.86,33.42,33.42,0,0,1-3.83.22,20.62,20.62,0,0,1-5.06-.58,11.55,11.55,0,0,1-4.05-1.84,8.64,8.64,0,0,1-2.7-3.29,11.19,11.19,0,0,1-1-4.91V146.66h-6.94V138h6.94v-10.4h10.83V138h9.54Z"/><path class="cls-1" d="M507.14,126.94a6.32,6.32,0,1,1,1.85,4.44A6.06,6.06,0,0,1,507.14,126.94ZM508,138h10.84v35.1H508Z"/><path class="cls-1" d="M529.68,155.54A18.5,18.5,0,0,1,531.2,148a17.58,17.58,0,0,1,4.15-5.81,18.44,18.44,0,0,1,6.22-3.72,23.15,23.15,0,0,1,15.24,0,18.35,18.35,0,0,1,6.2,3.72,17.61,17.61,0,0,1,4.16,5.81,19.71,19.71,0,0,1,0,15.18,17.41,17.41,0,0,1-4.16,5.81,18.19,18.19,0,0,1-6.2,3.72,23,23,0,0,1-15.24,0,18.28,18.28,0,0,1-6.22-3.72,17.38,17.38,0,0,1-4.15-5.81A18.4,18.4,0,0,1,529.68,155.54Zm10.84,0a9.07,9.07,0,0,0,2.27,6.43,9.54,9.54,0,0,0,12.79,0,10.24,10.24,0,0,0,0-12.86,9.57,9.57,0,0,0-12.79,0A9.09,9.09,0,0,0,540.52,155.54Z"/><path class="cls-1" d="M579.38,138h10.4v4.77h.15a8.46,8.46,0,0,1,1.44-2,10.65,10.65,0,0,1,2.24-1.8,12.92,12.92,0,0,1,3-1.3,12.26,12.26,0,0,1,3.61-.5,15,15,0,0,1,6.65,1.25,9.65,9.65,0,0,1,3.93,3.51,14.08,14.08,0,0,1,1.92,5.27,40.79,40.79,0,0,1,.51,6.58v19.35H602.35V155.9c0-1,0-2.05-.11-3.14a9.82,9.82,0,0,0-.65-3,4.63,4.63,0,0,0-4.87-3.11,6.66,6.66,0,0,0-3.4.76,5,5,0,0,0-2,2,8.09,8.09,0,0,0-.91,2.85,25.39,25.39,0,0,0-.21,3.32v17.48H579.38Z"/><path d="M210.64,24.3h16.08V58.83h.22a15,15,0,0,1,7.13-5.31A27.76,27.76,0,0,1,243.45,52a21.09,21.09,0,0,1,10,2.31,22.94,22.94,0,0,1,7.45,6.17,28.58,28.58,0,0,1,4.72,8.85,32.76,32.76,0,0,1,1.66,10.45,31.12,31.12,0,0,1-1.81,10.83,25,25,0,0,1-5.21,8.53,23.46,23.46,0,0,1-8.09,5.57,26.75,26.75,0,0,1-10.51,2,18.37,18.37,0,0,1-5.26-.75,22.39,22.39,0,0,1-4.55-1.93,18.67,18.67,0,0,1-3.65-2.63,17.62,17.62,0,0,1-2.52-2.84h-.21v6.86h-14.8Zm14.8,55a13.47,13.47,0,0,0,3.38,9.55q3.36,3.65,9.49,3.64t9.48-3.64a13.47,13.47,0,0,0,3.38-9.55,13.44,13.44,0,0,0-3.38-9.54q-3.37-3.64-9.48-3.64t-9.49,3.64A13.44,13.44,0,0,0,225.44,79.31Z"/><path d="M321.72,96.36A25.65,25.65,0,0,1,312,104a29.2,29.2,0,0,1-12.23,2.68,32.54,32.54,0,0,1-11.31-1.94,27.16,27.16,0,0,1-9.22-5.51,25.82,25.82,0,0,1-6.16-8.64,27.16,27.16,0,0,1-2.26-11.26,27.16,27.16,0,0,1,2.26-11.26,25.88,25.88,0,0,1,6.16-8.63,27,27,0,0,1,9.22-5.52A32.78,32.78,0,0,1,299.74,52a25.71,25.71,0,0,1,10.14,1.94,21,21,0,0,1,7.72,5.52,25.37,25.37,0,0,1,4.88,8.63,34.89,34.89,0,0,1,1.71,11.26v5H286.88a12.7,12.7,0,0,0,4.18,7.35A11.81,11.81,0,0,0,299,94.43a12,12,0,0,0,6.7-1.77,17.63,17.63,0,0,0,4.77-4.56Zm-13.61-23a9.37,9.37,0,0,0-2.68-7,9.58,9.58,0,0,0-7.19-2.89,11.94,11.94,0,0,0-4.72.86,11.55,11.55,0,0,0-3.48,2.2,9.33,9.33,0,0,0-2.25,3.11,10.11,10.11,0,0,0-.91,3.69Z"/><path d="M364.94,70.09a9,9,0,0,0-3.32-2.84A9.81,9.81,0,0,0,357,66.13q-6.12,0-9.49,3.64a13.49,13.49,0,0,0-3.38,9.54,13.51,13.51,0,0,0,3.38,9.55q3.38,3.65,9.49,3.64a8.66,8.66,0,0,0,4.61-1.18,14.1,14.1,0,0,0,3.32-2.78l10.62,11.15a20.5,20.5,0,0,1-8.85,5.41,33.1,33.1,0,0,1-9.7,1.56,32.56,32.56,0,0,1-11.32-1.94,27.25,27.25,0,0,1-9.22-5.51,26,26,0,0,1-6.16-8.64,29.18,29.18,0,0,1,0-22.52,26,26,0,0,1,6.16-8.63,27.11,27.11,0,0,1,9.22-5.52A32.79,32.79,0,0,1,357,52a33.44,33.44,0,0,1,9.7,1.56,20.52,20.52,0,0,1,8.85,5.42Z"/><path d="M379.2,24.3h16.09V73.84l17.8-20.58h19.73l-20.7,23.48,21.23,28.63H413.09L395.5,79h-.21v26.38H379.2Z"/><path d="M436.68,53.26h15.44v7.08h.22a12.57,12.57,0,0,1,2.15-3,15.58,15.58,0,0,1,3.31-2.68,19,19,0,0,1,4.4-1.93,18.42,18.42,0,0,1,5.36-.76,22.15,22.15,0,0,1,9.87,1.89A14.34,14.34,0,0,1,483.28,59a21,21,0,0,1,2.83,7.83,58.49,58.49,0,0,1,.76,9.76v28.74H470.78V79.85c0-1.5,0-3-.16-4.66a14.75,14.75,0,0,0-1-4.46,6.89,6.89,0,0,0-7.23-4.6,9.93,9.93,0,0,0-5,1.12,7.66,7.66,0,0,0-2.95,3,12.2,12.2,0,0,0-1.34,4.24,37.13,37.13,0,0,0-.32,4.93v26H436.68Z"/></svg>