<svg xmlns="http://www.w3.org/2000/svg" viewBox="0 0 620 180"><path d="M178.1,46.8c-12.86,0-17.5,9-17.5,17.5v5.14H158a3.61,3.61,0,0,0-.38,7.21h2.94v35.43a3.87,3.87,0,0,0,3.87,3.84,3.54,3.54,0,0,0,3.85-3.2V76.42h8.22a3.6,3.6,0,0,0,0-7.2h-8.22V64c0-4.63,1.77-10.28,10-10.28a3.35,3.35,0,0,0,3.54-3.08,1.22,1.22,0,0,0,0-.27,3.87,3.87,0,0,0-3.73-3.56Zm29.3,21.36a14.84,14.84,0,0,0-12.86,6.17V72.27a3.86,3.86,0,0,0-7.71-.52,4.51,4.51,0,0,0,0,.52v39.58a3.87,3.87,0,0,0,3.85,3.86,3.54,3.54,0,0,0,3.85-3.2.29.29,0,0,1,0-.13,2.35,2.35,0,0,0,0-.53V90c0-9.25,4.9-14.66,12.86-14.66a3.53,3.53,0,0,0,3.54-3.52v0h0a3.53,3.53,0,0,0-3.52-3.54h0Zm40.9,36.6a3,3,0,0,0-2.08.76,17.68,17.68,0,0,1-11.3,4.11c-8.48,0-13.9-5.65-14.17-14.65h27.78c4.37-.5,4.37-4.62,4.37-7.2a23.14,23.14,0,0,0-3.54-12.4,17.72,17.72,0,0,0-15.64-7.23c-13.1,0-20.57,8.74-20.57,23.9s7.46,24.18,21.6,24.18a22.47,22.47,0,0,0,15.7-5.65,3.14,3.14,0,0,0,1.28-2.59,3.34,3.34,0,0,0-3.42-3.24ZM233.9,74.84c7.7,0,11.57,4.38,11.82,12.86H220.78C221.56,79.46,226.18,74.84,233.9,74.84Zm44.2,13.38c-5.65-2.06-10.27-3.55-10.27-7.73s5.13-5.14,8-5.14a13.58,13.58,0,0,1,10.27,3.87,3.55,3.55,0,0,0,4.89,0,3.34,3.34,0,0,0,1-2.57,4,4,0,0,0-.78-2.32,18.21,18.21,0,0,0-15.16-6.43c-9.52,0-15.43,4.9-15.43,12.4S268.85,92.38,276.05,95s10.3,3.35,10.3,7.46-6.18,6.43-9.78,6.43a15.72,15.72,0,0,1-11.83-4.63,4.85,4.85,0,0,0-2.57-1.29,3.35,3.35,0,0,0-3.33,3.35,4,4,0,0,0,.76,2.3,21.88,21.88,0,0,0,17,7.73c10.8,0,17.24-5.14,17.24-13.38s-8.52-12.14-15.73-14.7ZM322.6,67.9a15.47,15.47,0,0,0-12.41,5.4V48.07a3.86,3.86,0,0,0-3.84-3.82,3.53,3.53,0,0,0-3.54,3.52v0a1.31,1.31,0,0,0,0,.28v63.78a3.74,3.74,0,0,0,7.46.51,4.34,4.34,0,0,0,0-.51V88q0-13.09,12.4-13.1c8.23,0,11.05,3.54,11.05,12.4v24.6a3.88,3.88,0,0,0,3.86,3.86,3.55,3.55,0,0,0,3.55-3.54,1.22,1.22,0,0,0,0-.27V86c0-11.9-6.2-18-18.53-18Zm80.74.78a3.83,3.83,0,0,0-3.54,2.56L389,101.6l-8.75-30.35a3.84,3.84,0,0,0-4.87-2.32,4.13,4.13,0,0,0-2.32,2.32l-8.73,30.35L354,71a3.06,3.06,0,0,0-3.54-2.3,3.53,3.53,0,0,0-3.54,3.52v0h0a3,3,0,0,0,.25,1.54l14.4,39.35a3.55,3.55,0,0,0,3.54,2.57,3.85,3.85,0,0,0,3.54-2.57l8.5-28.8,8.5,28.8a3.86,3.86,0,0,0,5,2.23h0a3.91,3.91,0,0,0,2.22-2.22l14.4-39.35a3.52,3.52,0,0,0,.25-1.54,4.36,4.36,0,0,0-4.16-3.56Zm27.26-.78c-13.62,0-21.08,8.48-21.08,23.9S417,116,430.6,116s21-8.5,21-24.17-7.36-23.93-21-23.93Zm0,41.13c-9,0-13.62-5.65-13.62-17.22s4.62-17.16,13.62-17.16S444,80.55,444,91.87,439.6,109.3,430.6,109Zm49.88-40.87a14.93,14.93,0,0,0-12.92,6.17V72.27a3.86,3.86,0,1,0-7.37-2.3,3.82,3.82,0,0,0-.07,2v39.6a3.88,3.88,0,1,0,7.37,2.42,3.8,3.8,0,0,0,.07-2.19V90c0-9.25,4.9-14.66,12.86-14.66a3.6,3.6,0,0,0,.38-7.19,2.41,2.41,0,0,0-.38,0ZM509,87.7l15.43-12.4a3.64,3.64,0,0,0-2-6.62,3.27,3.27,0,0,0-2.57,1l-22.2,18V48.08a3.86,3.86,0,0,0-7.27-2.62l-.12.4a3.58,3.58,0,0,0,0,2v63.77a3.86,3.86,0,1,0,7.31,2.49,3.91,3.91,0,0,0,.08-2.22V96.44l5.14-4.1,17,21.6a4.38,4.38,0,0,0,3.08,1.77,3.68,3.68,0,0,0,3.59-3.77h0a3.74,3.74,0,0,0-.75-2.13Zm42.2.52c-5.67-2.06-10.3-3.55-10.3-7.73s5.13-5.14,8-5.14a13.64,13.64,0,0,1,10.29,3.87,3.34,3.34,0,0,0,2.57,1,3.54,3.54,0,0,0,3.08-3.54,4,4,0,0,0-.78-2.32A18.21,18.21,0,0,0,548.87,68c-9.52,0-15.43,4.9-15.43,12.4s8.23,12.08,15.43,14.65,10.3,3.35,10.3,7.46-6.18,6.43-9.78,6.43a15.75,15.75,0,0,1-11.83-4.62A4.83,4.83,0,0,0,535,103a3.35,3.35,0,0,0-3.33,3.35h0a4,4,0,0,0,.76,2.3,21.56,21.56,0,0,0,17.24,7.21c10.8,0,17.22-5.13,17.22-13.37s-8.5-11.57-15.68-14.17Z" fill="#4d4d4d"/><path d="M53.64,109.8A42.91,42.91,0,0,0,66,134.24l15-14.92a44,44,0,0,1,21.79-38Z" fill="#9b65c3"/><path d="M80.9,119.32A43.1,43.1,0,0,1,59,113.41l-5.4-3.55A42.9,42.9,0,0,0,66,134.29Z" fill="#9b65c3"/><path d="M80.9,119.32,66,134.24a43,43,0,0,0,24.43,12.4l28.35-49.12A43.66,43.66,0,0,1,80.9,119.32Z" fill="#be63c5"/><path d="M86.8,141.2a43.53,43.53,0,0,1-5.9-21.87L66,134.24a43,43,0,0,0,24.43,12.4l-3.63-5.45Z" fill="#bf63c6"/><path d="M136.7,61.73l-33.95,19.5a44.27,44.27,0,0,1-43.7,0,44.62,44.62,0,0,0-5.92,22.16,51.29,51.29,0,0,0,.52,6.43l5.4,3.54a43.19,43.19,0,0,0,21.86,5.92l56.57-56.5Z" fill="#3278b1"/><path d="M59,113.4a43.18,43.18,0,0,0,21.86,5.91,44,44,0,0,1,21.84-38L53.6,109.6a36.27,36.27,0,0,0,5.4,3.81Z" fill="#3278b2"/><path d="M59,81.27a44.67,44.67,0,0,0-5.92,22.11,51.29,51.29,0,0,0,.52,6.43l49.1-28.54a42.92,42.92,0,0,1-43.7,0Z" fill="#45a4ec"/><path d="M137.47,62.76,135.4,61a10.07,10.07,0,0,0-5.31-1.54H96.83A43.66,43.66,0,0,0,59,81.27a44.27,44.27,0,0,0,43.7,0,43.67,43.67,0,0,0-21.84,38A44,44,0,0,0,119,97.46l19.5-33.94Z" fill="#19bb7d"/><path d="M102.74,81.27l34-19.5-1.28-1L59,81.27A42.9,42.9,0,0,0,102.74,81.27Z" fill="#08c7fb"/><path d="M129.74,59.4H96.84A43.67,43.67,0,0,0,59,81.27L135.37,60.7a13.88,13.88,0,0,0-5.63-1.29Z" fill="#59f2f6"/><path d="M119,97.46l19.5-33.94-.78-1L81.16,119.08a43.42,43.42,0,0,0,5.92,21.84c1,1.77,2.32,3.54,3.54,5.3l6.16.52a43.32,43.32,0,0,0,21.87-5.92A43.24,43.24,0,0,1,119,97.45Z" fill="#da3757"/><path d="M80.9,119.32a43.53,43.53,0,0,0,5.9,21.87c1,1.77,2.32,3.54,3.54,5.3l28.35-49.13a43.64,43.64,0,0,1-37.79,22Z" fill="#d33c4e"/><path d="M119,97.46,90.6,146.6l6.43.5a43.61,43.61,0,0,0,21.86-5.91,43,43,0,0,1,.1-43.73Z" fill="#ee5a24"/><path d="M139.26,64.8a10.05,10.05,0,0,0-2.57-3.08l-33.95,19.5a43.67,43.67,0,0,0-21.84,38.1A43.94,43.94,0,0,0,119,97.46a44.33,44.33,0,0,0,0,43.73,43.7,43.7,0,0,0,21.85-37.54V70.45A11,11,0,0,0,139.26,64.8Z" fill="#8bdf55"/><path d="M136.7,61.73l-33.95,19.5a43.67,43.67,0,0,0-21.84,38.1l56.57-56.56Z" fill="#25c16f"/><path d="M80.9,119.32A43.94,43.94,0,0,0,119,97.46l19.5-33.94-.78-1Z" fill="#8bdf55"/><path d="M138.5,63.52,119,97.46a44.28,44.28,0,0,0,0,43.73l20.5-76.38Z" fill="#fb0"/><path d="M119,141.2a43.19,43.19,0,0,0,21.85-37.81V70.47a10.91,10.91,0,0,0-1.54-5.65Z" fill="#ffa800"/></svg>
