<?xml version="1.0" encoding="UTF-8"?><svg id="a" xmlns="http://www.w3.org/2000/svg" viewBox="0 0 430 144"><g><g><path d="M414.12,69.93c-.02-1-.31,.51-.1-.66,.13,.13,.24,.34,.1,.66Z" fill="#348c9b"/><path d="M413.97,66.24c-.88-2.94,0-6.81-.55-10.03-.04-.38,.48,.1,.36-.75-.68-3.12-.27-8.04,.25-11.84l.14,.23c.1-.72-.35-1.61-.29-2.37,.09,0,.13,.25,.25,.07-.27-.19-.13-1.39-.33-1.71,.11-.3,.32-.27,.44-.67l-.31-.44c-.74-1.22,.05-2.96-.33-4.63,.07,.08,.13,.25,.2,.11-.11-.67-.19-1.38-.25-2.12-.07-.73-.05-1.51-.19-2.25-.15-.74-.42-1.47-.86-2.08-.43-.61-1.05-1.07-1.71-1.22,.13-.07,.31-.22,.18-.4-.06,.07-.16,.1-.29,.13-.13,.03-.28,.04-.45,.07-.33,.05-.77,.1-1.17,.13-.36-.33-1.37,.31-2.31,.12l.08-.07c-.69,.35-1.03-.2-1.59,.22l-.44-.26c-.3,.47-1.01-.24-1.58,0l.02,.1c-.54,.11-.82-.12-1.33-.04l-.05-.06c-1.17,.12-1.86-.14-1.83,.23-.41-.29,1.14-.13,.49-.56-3.87,.38-7.85,.31-11.75,.31-.44-.15-.72-.19-.82-.33-.39,.07-1.46,.07-1.82,.26,.13,0-.25-.19-.46-.21-.71-.14-.77,.4-1.55,.24,.31-.1,.42-.22,.31-.36-.66,.29-1.55,.24-2.34,.33,.12-.06,.31-.1,.28-.21-.86,.33-1.56-.07-2.32,.14l.28-.21c-1.21-.26-.36,.44-1.4,.29,.25-.07,.16-.15,.21-.24-.98,.39-2.55,.26-3.53,.39,.06-.03,.04-.09,.04-.09-1.06,.05-2.17-.07-3.34,.1-.42-.1,.14-.52-.98-.44,.04,.43-1.91,.18-1.24,.66-.96-.07-2.48-.23-3.11-.09,.43-.16-.47-.52,.33-.56l-.6-.26c.09-.17,.62,.06,.43-.16-.4,.02-1.56,.19-1.92,.12-.74,.26-1.42,.75-2.62,.8,.56-.17-.32-.47,.06-.54l-1.67,.82c-.4,.02-.09-.34-.66-.23,.03,.11-.22,.18-.4,.27-.15-.05-1.66,.11-1.83-.31-.18-.17,.65-.09,.21-.24-.74,0-.77,.15-1.5,.15v-.06c-.5-.06-1.45,.18-.92,.41,.34,.01-.13-.25,.37-.13-.34,.24-1.2,.31-1.93,.32,.25-.07,.22-.18,.32-.3-.99,.33-2.04,.43-3.14,.57-.02,.2,.41-.36,.58-.26-1.42-.28-2.92,.39-4.1-.01,.19-.04,.1,.28,.09,.23-.68-.03-.65-.31-1.09-.21-.05-.17-.56,.05-1.02,.11-.24,.12-.12-.08,.28-.1-.64,.14-3.19,.41-4.66,.16,.03,.11-.9,.41-1.24,.4l.13-.26c-.31-.16-1.13,.02-1.19-.2-.72,.32,2.79-.27,1.81-.03-.25-.22-1.36,.42-1.15,.06-.68,0-1.34,.31-1.99,.06,.19,.04,.55-.36,0-.35-.48,.02-.55,.06-.6,.09-.02,.02-.04,.04-.1,.06-.03,.01-.07,.02-.13,.03-.05,.01-.15,.02-.2,.04l-.15,.06c-.07,.03-.14,.08-.14,.08,.03,.23-.49,.12-.2,.32-.07-.09-.24,.03-.39,.14-.08,.06-.15,.12-.22,.14-.07,.03-.14,.02-.2-.07,0,0-.04-.08-.08-.15l-.08-.16c-.11,.13-.14,.28-.13,.45,0,.16,.04,.32,.04,.46-.05,.01-.15,.05-.19,0,.21,.16,.1,.29,0,.5-.12,.19-.24,.46-.09,.68-.17,.3-.23,.73-.25,1.13-.02,.5-.06,.94-.22,1.15,.16,.67,.34,1.29,.23,2.06-.05-.15-.06-.36-.17-.41-.15,.48-.02,.6,.07,1.04-.08-.1-.3,.97-.48,1.5,.15,.67,.43,.44,.6,.51-.51,.61,.33,1.89-.13,2.66-.07-.23-.25-.98-.38-.42-.5,.61,.37,1.24,.13,2.22l.42-.24c-.26,.44,.24,1.45-.19,1.35,.15,.33-.14,1.16,.27,1.06-.35,1.62,.21,3.94-.52,4.94,.07,.23,0,.81,.21,.69,.23-.39-.16-.54,0-.68,.01,.21,.12,.25,.18,.28-.09,.5-.12,.9-.46,.42-.25,1.12,.69,1.16,.54,2.58-.17-.06-.23,.04-.21,.46l.29,.79c-.07,.92-.38,.53-.67,.55,.05,.49,.03,1.1,.25,1.32l-.36,.6c.26-.44,.17,.41,.24,.64l-.07-.23c-.12,.09-.05,.66,0,.95,.18-.07,.25-.65,.3-.97,.13,.25,.1,.64,.25,.98-.28-.11-.2,.8-.23,1.2-.06,.45,.25,.51,.24,.64-.15,.01-.02,.73-.23,.38-.05-.15,.14-.35,.01-.6-.11,.3-.36,.26-.18,.88,.14,.46,.55-.12,.38,.76-.07-.23-.18-.27-.28-.45l-.15,.82,.26,.04c-.07,.11-.09,.03-.12,.08,.27,.25,.08,1.26,.39,1.44,.03,.42-.18,.88-.21,1.27l-.02-.08c-.15,.48-.05,1.13,.12,1.54l-.06-.02c-.02,.26,.02,.89,.17,1.22-.19,.67-.97,.22-.64,.97,0,.68,.47,1.06,.63,.79-.09,.6-.03,1.28,.01,1.88,.04,.49,.13,.93,.07,1.39,.14,.09,.17,0,.32,.21,.1,.29,.26,.57,.46,.76,.19,.2,.4,.32,.59,.4,.19,.08,.34,.1,.56,.15,.42,.03,.81,.1,1.16,.23-.52,.11-.03,.26-.02,.4,.43-.23,.52,.24,.67-.16-.04-.23,0-.34-.5-.44,1.07-.12,2.69-.12,3.29,.09-.3-.11-.07-.18,.17-.25-.08,.37,.71,.42,1.31,.3l.08-.23,.39,.23c.23-.07,.25-.47,.84-.26,.03,.09,.07,.18,.17,.24,.62-.18,1.49-.49,2.16-.3l.55,.33c.29-.04,.77-.23,.26-.33,1.14,.2,1.88,.22,2.24,.51,1.97-.69,4.82-.72,7.11-.67l-.07,.17c.61,.16,.32-.29,.75-.18-.2,.16,.47,.35-.01,.55,.88,.18,1.13-.29,1.7-.37,.09-.22-.46,.14-.35-.14,.1-.08,1.22,.17,1.35-.16,.22,.13,.05,.38-.07,.51l.54-.16c.66,.39-1.5,.7-.81,1.18l.49-.05c.47,.35-1.31,.4-.07,.51,.54-.16,1-.65,.52-.8,1.12-.09,.52-.8,1.73-.77,.33,.2-.97,.05-.73,.32,.57,.27,1.14-.15,1.64-.06-.56-.13-.09-.46,.28-.53,.61,.16-.4,.32,.47,.35,.14-.19,.94-.34,.25-.47,.31-.44,.9,.12,1.38-.22,.28,.31-.9,.71,.06,.87-.15-.3,1.18-.4,.67-.84,.37,.09,.41,.32,.14,.5,.53,.18,1.3-.54,1.47,.05l.18-.3c.17,.1,.41,.17,.68,.34,.47,0,1.52-.41,1.48,.05,.15-.05,1.23-.03,.81-.34-.67-.19-.77,.23-1.14-.2,.47,.35,.97-.05,1.35-.16l.06,.18c.23-.07,.76-.03,.9-.22-.18,.1-.08,.22,.1,.27l.24-.27c.93-.13,.22,.47,1.13,.4l-.69,.21c.15-.04,.46,.21,.9,.12,.17-.25,.49-.54,.63-.73,.51-.11,.23,.28,.74,.02l-.66,.3c-.1,.08,.45,.41,1.13,.4,.44-.09,1.12-.44,.43-.58,.34,0,.83,.15,.55,.33,.78-.09-.1-.27,.57-.42,.28,.16,1.13,.4,1.65,.64l-.7,.41h.47c-.6,.33,.31,.26-.03,.6,.32,.05,.7-.06,1.01-.15-.93-.56,1.04-.76,.77-1.27,1.28-.14,.8,1.24,2.13,.44-.22-.13,.41-.52-.39-.37,.79,.06,.54-.51,1.48-.3-.69,.21,.74,.52-.26,.82,.07-.17-.56-.13-.71-.08,.33,.19-.07,.51,.75,.51,.49-.05,1.17-.06,1.08-.32-.02-.29-.76,.03-.44-.26,.99-.1,1.15,.34,1.56-.17-.62,.04-.78-.26-.77-.46l.72-.12-.14,.19c1.16,.14,.34-.35,1.47-.3l.53,.38c-.27,.33-1.64-.15-1.44,.39,.73,.02,.98-.25,1.67-.11-.15,.05-.36,.06-.52,.11,.26,.02,.52,.73,1.57,.31,.54-.16,.14-.19,.16-.39,1.18-.06,1.53-.27,2.29-.3-.16,.39,1.34,.04,.5,.44-.38-.23-2.09-.21-2.5,.17,.43,.46-.92-.07-1.18,.4,.94,.01,.9,.47,1.05,.77,.26,.02,.52-.11,.67-.15,.11-.28-.23-.28-.25-.57,1.05,.08,2.07-.08,2.65-.36,.35,.14,.24,.42-.18,.45,1.25-.08,2.59-.04,3.78,.04-.77-.46,1.33-.11,.8-.49-.64-.1-1.18-.43-.83-.64,.4,.03-.01,.2,.15,.3,.51-.25,.79,.4,1.29,0-1.14,.15-.22,.56-.43,.92,.83-.2-.04,.26,.78,.26,.82-.2,1.83-.36,2.75-.44,1.15,.34,2.91,0,3.93,0,.54,.18,.17,.59,.75,.66,.68,0-.51-.44,.5-.25l-.1,.08c.31-.09,1.85,.28,2.15-.31l-.31,.44c.19,.04,.36-.06,.52-.11,0,.14,.23,.27-.08,.37,.62,.3,1.31-.05,1.99-.06l-.44-.26c.15-.03,.28-.04,.42-.06l.2-.02c.05,0,.11-.01,.16-.02,.11,0,.21-.02,.31-.04,.1-.01,.2-.03,.29-.06,.38-.1,.77-.3,1.08-.69l.16,.2s.29-.57,.28-.58c.06,.13,.2,.11,.33-.02,.13-.13,.24-.34,.21-.55,0,0-.02,.45-.16,.91-.07,.23-.15,.46-.24,.63-.04,.09-.08,.16-.1,.21-.03,.05-.05,.08-.05,.08-.26,.12-.19-.04-.12-.21,.06-.18,.1-.38-.09-.36-.08,0-.18,.06-.3,.12-.06,.03-.11,.07-.17,.12-.06,.04-.12,.08-.18,.12-.23,.18-.47,.35-.51,.49,.2-.04,.29-.11,.36-.17,.07-.06,.13-.13,.23-.25,.31,.23-.22,.56-.5,.87,.23-.08,.58-.14,.58-.27-.09,.09-.18,.18-.28,.25-.11,.07-.23,.13-.37,.19-.14,.05-.29,.09-.46,.13-.16,.02-.38,.04-.55,.04,.25-.07,.19-.13,.07-.17-.1-.05-.23-.1-.15-.15-.06,.31-.71,.41-1.55,.32-.6-.36-1.58,.23-2.56,.13,.4-.32,.9-.57,1.5-.7-.61-.16-.68,0-1.3-.15-.3,.24-.51,.6-1.31,.74l-.04-.23c-.72,.12-.72,.46-1.65,.4-1.58-.11-3.21-.11-4.42-.14l-.04-.23c-.67,.5-2.24,.18-3.14,.41-1.54-.22-3.34,.22-4.13-.18-2.71,.18-5.09,.35-7.9,.27l.47-.34c-.51,.25-.33-.2-.82-.15,.57,.27-.69,.35-1.03,.56-1.25-.26-2.86,.02-3.97,.26l-.04-.23c-1.12,.44-2.46,.05-3.86-.02-.16-.1-.41-.32-.83-.29-.76,.38-1.15,.35-2.27,.59-.81,0-2.13-.09-2.96-.24-3.05,.53-6.17,.19-9.35,.51l-.23-.27c-3.08,.59-6.86,.05-9.49,.36l.25-.47c-.82-.14-1.88,.12-1.67,.46-.83-.14-2.06,.23-2.59-.16-.84-.09-1.03,.22-1.73,.28-1.69-.18-2.32-.14-3.91-.05l.4,.03c.17-.1,.19-.3-.21-.33-.59,.13-2.19-.13-1.59,.43-.21-.04-.43-.07-.66-.08-.12,0-.24-.01-.36-.02-.19-.01-.38-.03-.57-.04-.78-.1-1.57-.4-2.2-.84-1.29-.89-1.96-2.2-2.06-3.29-.1,.22-.28-.3-.42-.51-.1-.49-.15-1-.13-1.49v-.33l.03-.28c.01-.19,.02-.37,.04-.55,.04-.73,.06-1.42-.07-2.01,.08-.24,.26,.38,.28-.23-.06-.36-.2,0-.29-.45-.29-2.42,.29-4.9,.22-7.09-.29-3.91-.15-7.99-.2-11.73l.11,.04c-.43-1.25,.44-2.94-.21-3.94,.11-.3,.05-1.13,.27-.91-.3-1,.29-2.8-.1-4.24-.01,.13,.01,.21,.06,.36,.25-1.46-.09-2.74,.13-4.28,.05,.16,.08,.44,.2,.49,.21-.6-.47-1.41,.07-1.73,0-.34-.27-.24-.26-.03,.03-.42,.04-.85,.06-1.27v-.48l.02-.2c0-.27,.03-.54,.06-.82,.14-1.09,.48-2.19,1.17-3.21,.35-.51,.8-.99,1.37-1.38,.57-.39,1.26-.67,1.97-.77,.17-.02,.37-.04,.52-.05l.33-.02,.66-.03c.44-.02,.88-.04,1.32-.06,2.51,.32,.15,.91,2.14,.51,.16,.1,.12-.21,.14-.1,.77-.15,1.2,.6,1.73,.32-.22-.33,.35-.19,.37-.39,1.54,.22,1.85,.52,3.06,.26l-.09,.18c1.42-.49,3.07-.23,4.27-.8,7.84-.1,15.35-.42,22.99-.49,7.55,.11,14.95-.15,22.62,.15,1.8,.46,1.93,.45,3.91,.26-.08,.07-.2,.09-.07,.16,.1-.38,1.39-.03,1.58-.4,1.42,.04,2.78,.03,4.15,0,.69,0,1.37-.02,2.07-.03,.35,0,.7,0,1.06-.01h1.03l.24,.02c-.1,0-.2,0-.29,0l-.13,.02s-.05,.02-.07,.02c-.08,.03-.13,.08-.16,.12-.02,.04-.02,.08,.03,.1,.02,.01,.06,.02,.1,.03,.02,0,.05,0,.08,0h.16s.24-.04,.5-.08c.25-.02,.52-.02,.52-.02l.13,.14c.64,.12,1.37,.32,.79-.1,.79,.32,1.46,.82,1.98,1.37,.52,.55,.91,1.16,1.2,1.79,.29,.62,.48,1.26,.6,1.9,.07,.32,.09,.64,.12,.96v.48l.02,.2v.17c-.03,1.82-.09,3.63-.16,5.44-.14,3.62-.3,7.21-.26,10.8-.16,1.71-.01,4.13,.06,5.98-.5,5.49-.91,10.44-.56,16.02,0,0-.98-.73-1.2-3.03Z" fill="#348c9b"/><path d="M413.93,71.13c-.24,.17-.57,.75-.63,.16,.19,0,.49-.27,.63-.16Z" fill="#348c9b"/><path d="M397.68,72.56c-.02,.06-.24-.08-.3-.11,.21-.01,.41-.17,.58-.07-.21,.01-.18,.1-.28,.18Z" fill="#348c9b"/><path d="M393.32,72.44c.07-.17,1-.3,1.55-.32l-1.55,.32Z" fill="#348c9b"/><path d="M389.25,71.75c-.35-.14-.25-.22,.22-.22,.03,.09-.12,.13-.22,.22Z" fill="#348c9b"/><path d="M388.97,72.13c-.34,0-.5-.1-.67-.19,.01,.14,.78-.09,.67,.19Z" fill="#348c9b"/><path d="M380.15,71.65c-.21,.01-.67,.15-.87-.03,.22,.13,1.03-.21,.87,.03Z" fill="#348c9b"/><path d="M376.05,71.9c-.13-.01-.19-.04-.34,0-.24-.08,.01-.2,.22-.22l.12,.21Z" fill="#348c9b"/><polygon points="334.75 40.12 334.83 40.57 334.66 40.5 334.75 40.12" fill="#348c9b"/><path d="M353.91,27.44c.44-.11,.31,.16,.38,.18-.4,.02,.15-.21-.38-.18Z" fill="#348c9b"/><polygon points="371.54 26.6 371.4 26.6 371.45 26.26 371.54 26.6" fill="#348c9b"/></g><g><g><path d="M350.33,54.12c.06,.12,.3-.02,.12,.09-.13-.03-.23-.07-.12-.09Z" fill="#348c9b"/><path d="M367.64,53.88c-.46-.07-.5-.23-.5-.42,0-.18,.03-.38-.28-.47-.05-.03,.47-.12,.33-.18-.74-.12-.5-.69-.16-1.26l.13-.03c.06-.11-.39-.03-.36-.13,.08-.03,.13-.02,.24-.09-.26,.08-.17-.09-.37-.04,.09-.07,.29-.15,.38-.24l-.3,.08c-.73,.18-.08-.31-.5-.31,.07-.02,.13-.03,.18-.07-.52-.06-.6-.39-.9-.58,.1-.04,.28-.13,.38-.21-.29,.15-.41,.11-.5,.07,.27-.2-.33,.04-.22-.13l.07-.03c-.33,.13,.11-.19-.27-.01l.2-.18c-.41,.23,.15-.22-.08-.13l-.08,.06c-.12,.02,.06-.14-.04-.13l.04-.03c-.17-.02,0-.23-.29-.01,.21-.21,.17,.01,.49-.29-.53-.1-.73-.44-.99-.72,.08-.13,.09-.18,.18-.29-.08,.02-.16-.06-.31,.05,.01,0,.11-.15,.11-.18,.04-.15-.34,.24-.28,.06,.09-.05,.18-.13,.27-.24-.25,.16-.28,.07-.4,.09,.05-.04,.09-.05,.16-.14-.28,.19-.07-.16-.27-.05l.16-.14c.07-.28-.31,.31-.3,.13,.06-.04,.11-.11,.17-.17-.32,.24-.37,.05-.52,.09,.02-.02,.06-.07,.06-.07-.11-.03-.13-.19-.32-.11,.02-.1,.3-.42,.16-.42-.23,.36-.25,.04-.46,.49-.04-.11-.09-.31-.21-.22,.12-.12,.21-.48,.3-.47l.07-.26c.09-.15,.03,.08,.12-.12-.05,0-.24,.08-.24,0-.19,.19-.47,.6-.6,.6,.12-.13,.17-.44,.24-.49l-.25,.33c-.12,.17-.24,.34-.24,.34-.04,0,.13-.31,.03-.23-.04,.1-.09,.16-.14,.24,0-.05-.18,.04-.04-.35,.04-.16,.09-.06,.11-.21-.07-.02-.13,.11-.19,.09l.02-.05c-.02-.08-.19,.12-.22,.36,.02,.02,.07-.24,.08-.11-.11,.22-.21,.26-.27,.24,.04-.06,.08-.16,.12-.27-.19,.28-.31,.36-.44,.47-.06,.19,.13-.34,.12-.23-.05-.3-.34,.31-.35-.11,.02-.03-.06,.28-.04,.22-.05-.04,.01-.32-.05-.22,.03-.17-.06,.04-.11,.09-.04,.12,0-.08,.04-.1-.09,.13-.34,.34-.43,.09-.01,.11-.13,.4-.16,.38l.04-.26c0-.16-.1,.01-.08-.21-.1,.31,.28-.24,.16,0,0-.22-.17,.4-.11,.05-.06,0-.15,.29-.18,.04,.01,.04,.08-.36,.03-.34-.09,.04-.04,.12-.11,.2l-.05,.11c-.02,.26-.07-.04-.06,.25,0-.21-.13,.13-.1-.3l.03-.33s-.08,.35-.11,.5c0-.03-.01-.1,0-.15-.02,.51-.09-.05-.14,.35-.07-.18-.19-.02-.23-.33-.06,.16-.1,.34-.18,.24,.01-.05,.03-.06,.03-.17-.05-.15-.06-.01-.09,.07,0-.08-.1-.3-.16-.48-.05,.16,0,.43,0,.6-.1-.5-.13,.34-.24-.11,.01-.07,.06-.26,0-.38-.11-.49-.07,.38-.19,.15l.07,.41c-.07-.25-.09,.25-.14-.17,0,.15-.12-.12-.05,.28-.2-.31-.27,.27-.52-.43,0,.07-.07,.01-.01,.22,.08,.21,0-.17,.06-.02-.01,.02,0,.13,.02,.18-.06-.08-.1-.1-.14-.44-.16-.22,.07,.7-.08,.58-.04-.16-.07-.22-.09-.19l.02,.3c-.09-.04-.15-.36-.24-.63-.03,.06-.09,.06-.04,.27l-.16-.32c.12,.23,.02,.18,.02,.25v-.07c-.05-.11-.08-.02-.09,.02,.07,.16,.14,.22,.18,.25,.02,.13-.02,.11,0,.26-.09-.27-.13-.16-.17-.18-.06-.04,.05,.25,.04,.24-.05-.13-.07,0-.11-.2,0-.05,.08,.12,.05,0-.06-.09-.15-.33-.14-.14,.02,.14,.22,.51,.08,.37,0-.07-.05-.18-.07-.28l-.12-.11,.1,.24c-.03-.06-.04-.08-.05-.11,.09,.26-.06,.12,.05,.4-.02,.04-.14-.13-.18-.14v-.02c-.11-.12-.11,0-.07,.16l-.02-.05s-.06,.05,0,.2c-.14-.14-.47-.84-.37-.53-.05,.04,.15,.46,.25,.59-.17-.1-.06,.31-.34,.02,.04,.1,.09,.15,.09,.21-.18,0-.07,.41-.46,.08-.03-.11-.15-.21-.24-.32,.11,.21-.18-.16,.05,.16,.14,.18,.21,.27,.3,.32,0,.15-.09,.22-.27,.09,.09,.07,.12,.13,.15,.2-.23-.29-.32-.29-.27-.15l.14,.17-.18-.15c.03,.07,.3,.37,.12,.24-.06-.06-.12-.13-.17-.17,.08,.17,.25,.44,.08,.34l-.26-.2s.12,.21,.21,.25c-.2-.08-.27-.05-.49-.22,.38,.6,.27,.77,.11,.89l-.13-.11c-.15-.06,.21,.2,.1,.16-.12-.11-.3-.19-.43-.34-.19-.05,.17,.26,.2,.34,.17,.14-.09-.12,.13,.06,.06,.05-.2-.03,.06,.18-.12-.06-.31-.22-.41-.31l.1,.13c-.35-.18-.48-.52-.91-.76v.07c-.3-.17-.23-.34-.4-.31,.1,.14,.47,.46,.61,.52,.01,.14,.62,.51,.54,.57-.18-.09,0-.09-.23-.24-.25-.11,.06,.17-.04,.15,.13,.03,.39,.26,.42,.32-.16-.05-.24-.21-.31-.17,.15,.12,.24,.26,.38,.28,.35,.27-.14,0,.12,.21-.27-.15-.55-.46-.73-.47,.26,.15,.28,.3,.68,.51-.09-.02-.29-.14-.43-.26-.18-.06,.4,.38-.11,.08l.25,.17c-.09-.04-.17-.07-.32-.13-.03,.03,.29,.32-.1,.09,.03,.04-.03,.11,.26,.23,.2,.05-.17-.17,.22,.02-.32-.14,0,.09,.09,.18l-.16-.08c.05,.05,0,.07,.16,.17-.08-.06-.19-.12-.23-.12l.23,.15c.08,.13-.42-.21-.39-.11l-.16-.15s-.2-.06-.14,.01c.21,.13,.46,.29,.62,.39,.08,.09-.25-.11-.05,.04l-.24-.19c-.07-.05-.38-.16-.4-.1,.06,.07,.35,.29,.49,.3,0,.03-.16,0-.31-.11,.05,.1,.24,.11,.35,.23-.16-.05-.4-.09-.63-.15l-.34-.24-.02,.04c-.27-.2-.24-.08-.54-.27-.06,0,.03,.09,.1,.16,.54,.16,.65,.41,1.12,.6,.08,.15-1.15-.45-.48-.01,.13,.04,.46,.24,.35,.12-.08,.04,.45,.25,.22,.24-.17-.14-.5-.15-.74-.35,.15,.07,.14,0,.1-.03-.19-.05-.46-.21-.5-.14,.03,.06,0,.12,.26,.22,.27,.11,0-.08,.26,.07,.06,.12-.36-.04,.1,.2-.01-.07,.27,.04,.45,.12l.09,.1-.17-.09c-.17,.04,.31,.16,.23,.23l-.37-.1c-.3-.14,.19-.08-.31-.26-.04,.05,.2,.17,.05,.18-.04-.03-.04-.05-.08-.08-.02,.01-.69-.22-.34,.02,.13,.1,.17,.08,.36,.15,.02,.12,.2,.22,.21,.29-.36-.15-.08,.1-.43-.11,.23,.05,.26-.1-.08-.27-.45-.13,.09-.05-.34-.25-.04,.08-.47-.09-.75-.18-.03,.02,.08,.09,.12,.12,.26,.11,.27,.08,.54,.18-.11,.07,0,.21,.25,.36-.14-.02-.4-.12-.42-.17,.04,.14-.04,.25-.16,.33,.46,.07,.06,.15,.44,.22,.12-.02,.44,.03,.63,.13-.04,.02-.19-.06-.29-.08,.23,.12-.41-.06-.04,.11-.11-.14-.53-.19-.86-.32,.17,.14-.24-.08-.27,0,.17,.14,.29,.28,.34,.38-.36,.01-.08,.27-.09,.36-.19,0-.57-.13-.66-.09,0,.07,.44,.06,.23,.11l-.08-.03c.08,.05-.31,.12,.25,.28l-.42-.13s.05,.05,.09,.07c-.14-.03-.27-.04-.36-.09-.31,0,.02,.14,.02,.21h.26c.18,.17-.09,.19-.02,.32l-.25-.05,.14,.09c-.24-.06-.41-.03-.21,.04,0,0-.15-.07-.29-.14-.14-.07-.29-.15-.29-.15,.16-.02,.29,.11,.55,.13,.22,.02,.17-.1-.06-.17-.04,.03,.02,.05,.1,.1-.35-.06-.33-.11-.55-.19,0,.02-.1,.03,0,.06-.16-.08-.18-.13-.17-.2,.12,.08,.22,.02,.32,.06-.3-.07-.38-.16-.28-.23,.37,.02-.19-.22-.06-.3,.3,.12,.53,.23,.64,.32,.17-.02,0-.07,.18-.09-.22-.09-.57-.19-.69-.31l.23,.05c-.1-.1-.43-.19-.34-.27,.16-.14,.2-.3,.27-.42l.22,.06c-.46-.22-.1-.28-.28-.45,.26-.09-.09-.42,.32-.36-.07-.34-.13-.65,.07-.9l.29,.18c-.21-.15,.19,.05,.17-.02-.27-.05-.29-.21-.47-.33,.3-.02,.11-.3-.04-.52l.21,.1c-.33-.31,.08-.27,.22-.38,.09,.03,.3,.11,.3,.06-.29-.26-.24-.28-.38-.51,.05-.08,.2-.17,.38-.17-.26-.58,.23-.7,.21-1.19l.23,.15c-.12-.32,0-.5,.16-.64,.15-.14,.32-.24,.33-.46l.31,.35c.17,.03,.07-.25-.18-.47,.17,.03,.03-.35,.34-.11,.14,0-.05-.25-.02-.35,.28,0,.31-.09,.42-.28h-.06c.05,.1,.17,.26,.23,.25-.02-.15,.29-.06-.1-.47,.36,.13,.28-.52,.7-.27-.1-.12-.07-.17-.1-.27,.17-.11,.5,.06,.51-.24,.06,.05,.08,.25,.16,.23,.01-.07-.09-.18-.08-.28,.16-.4,.71-.02,.93-.18,.37-.46,.94-.48,1.4-.62l.02,.11c.08-.45,.44,.36,.46-.3,.05,.1,.15,.03,.15,.25,.09-.32,.38,.24,.52-.16-.02,0-.03,.01-.04,.07,.2,.22,.34-.11,.54,.1-.02,.05-.05,.09-.05,.2,.08,.21,.16-.48,.21,.06,.04,0,.02-.27,0-.26,.21,.09,.42,.07,.64,0,.22-.07,.45-.18,.68-.21,.28,.36-.09,.91,.2,.53,0,.11,.04-.2,.03-.09,.12-.14,.05,.61,.16,.35,.03-.33,.07-.17,.11-.37,.15,.25,.13,.55,.32,.33l-.05,.17c.27-.45,.41-.14,.71-.65,1.01,.17,2.1,.33,3.01,.89,.2,.17,.39,.33,.6,.49,.19,.16,.4,.32,.58,.49,.37,.34,.7,.72,.88,1.21-.22,.46-.21,.46,.09,.55-.07,.04-.09,.03-.14,.09,.31-.21,.13,.12,.44-.07,.14,.33,.41,.55,.59,.86-.06-.03-.34,.1-.29,.15l.24-.06-.09,.06c.07,.01,.26-.04,.34-.14,.37,.32,.48,.78,.53,1.24,.06,.46,.06,.91,.25,1.3-.08,.24,.14,.46,.28,.65-.15,.39-.28,.73-.33,1.06-.02,.16-.02,.31,.01,.47,.04,.16,.1,.28,.22,.49,0,0-.23,0-.52-.02-.28-.02-.59-.04-.72-.14Z" fill="#348c9b"/><path d="M350.31,53.99c.19,0,.3-.04,.54,.05-.17-.02-.38-.02-.54-.05Z" fill="#348c9b"/><path d="M352.6,52.78c-.05-.02,.08,0,.11,0,0,.02,.15,.09,.06,.07,0-.02-.09-.05-.17-.08Z" fill="#348c9b"/><path d="M352.83,52.44c.16,.06,.26,.19,.26,.24l-.26-.24Z" fill="#348c9b"/><path d="M353.61,52.34c.14,.02,.21,.06,.19,.09-.08-.03-.12-.06-.19-.09Z" fill="#348c9b"/><path d="M353.26,52.17s.1,0,.2,.01c-.13-.05,.06,.1-.2-.01Z" fill="#348c9b"/><path d="M354.01,51.67s-.11-.12,.06-.05c-.13-.04,.16,.17-.06,.05Z" fill="#348c9b"/><path d="M353.94,51.24s.04,0,0-.03c.08,.02,.18,.09,.18,.12l-.19-.09Z" fill="#348c9b"/><polygon points="358.27 47.25 358.24 47.34 358.22 47.17 358.27 47.25" fill="#348c9b"/><path d="M361.05,47.48c.07-.09-.02,.16-.03,.18-.04,0,.08-.19,.03-.18Z" fill="#348c9b"/><polygon points="362.83 47.42 362.82 47.42 363.01 47.13 362.83 47.42" fill="#348c9b"/></g><g><path d="M379.14,54.12c.06,.12,.3-.02,.12,.09-.13-.03-.23-.07-.12-.09Z" fill="#348c9b"/><path d="M396.45,53.88c-.46-.07-.5-.23-.5-.42,0-.18,.03-.38-.28-.47-.05-.03,.47-.12,.33-.17-.74-.12-.5-.69-.16-1.26l.13-.03c.06-.11-.39-.03-.36-.13,.08-.03,.13-.02,.24-.09-.26,.08-.17-.09-.37-.04,.09-.07,.29-.15,.38-.24l-.3,.08c-.73,.18-.08-.31-.5-.31,.07-.02,.13-.03,.18-.07-.52-.06-.6-.39-.9-.58,.1-.04,.28-.13,.38-.21-.29,.15-.41,.11-.5,.07,.27-.2-.33,.04-.22-.13l.07-.03c-.33,.13,.11-.19-.27-.01l.2-.18c-.41,.23,.15-.22-.08-.13l-.08,.06c-.12,.02,.06-.14-.04-.13l.04-.03c-.17-.02,0-.23-.29-.01,.21-.21,.17,.01,.49-.29-.53-.1-.73-.44-.99-.72,.08-.13,.09-.18,.18-.29-.08,.02-.16-.06-.31,.05,.01,0,.12-.15,.11-.18,.04-.15-.34,.24-.28,.06,.09-.05,.18-.13,.27-.24-.25,.16-.28,.07-.4,.09,.05-.04,.09-.05,.16-.14-.28,.19-.07-.16-.27-.05l.16-.14c.07-.28-.31,.31-.3,.13,.06-.04,.11-.11,.17-.17-.32,.24-.37,.05-.52,.09,.02-.02,.06-.07,.06-.07-.11-.03-.13-.19-.32-.11,.02-.1,.3-.42,.16-.42-.23,.36-.25,.04-.46,.49-.04-.11-.09-.31-.21-.22,.12-.12,.21-.48,.3-.47l.07-.26c.09-.15,.03,.08,.12-.12-.05,0-.24,.08-.24,0-.19,.19-.47,.6-.6,.6,.12-.13,.17-.44,.24-.49,0,0-.13,.17-.25,.33-.12,.17-.24,.34-.24,.34-.04,0,.13-.31,.03-.23-.04,.1-.09,.16-.14,.24,0-.05-.18,.04-.04-.35,.04-.16,.09-.06,.11-.21-.07-.02-.13,.11-.19,.09l.02-.05c-.02-.08-.19,.12-.22,.36,.02,.02,.07-.24,.08-.11-.11,.22-.21,.26-.27,.24,.04-.06,.08-.16,.12-.27-.19,.28-.31,.36-.44,.47-.06,.19,.13-.34,.12-.23-.05-.3-.34,.31-.35-.11,.02-.03-.06,.28-.04,.22-.05-.04,.01-.32-.05-.22,.03-.17-.06,.04-.11,.09-.04,.12,0-.08,.04-.1-.09,.13-.34,.34-.43,.09-.01,.11-.13,.4-.16,.38l.04-.26c0-.16-.1,.01-.08-.21-.1,.31,.28-.24,.16,0,0-.22-.17,.4-.11,.05-.06,0-.15,.29-.18,.04,.01,.04,.08-.36,.03-.34-.09,.04-.04,.12-.11,.2l-.05,.11c-.02,.26-.07-.04-.06,.25,0-.21-.13,.13-.1-.3l.03-.33s-.08,.35-.11,.5c0-.03-.01-.1,0-.15-.02,.51-.09-.05-.14,.35-.07-.18-.19-.02-.23-.33-.06,.16-.1,.34-.17,.24,.01-.05,.03-.06,.03-.17-.05-.15-.06-.01-.09,.07,0-.08-.1-.3-.16-.48-.05,.16,0,.43,0,.6-.1-.5-.13,.34-.24-.11,.01-.07,.06-.26,0-.38-.11-.49-.07,.38-.19,.15l.07,.41c-.07-.25-.09,.25-.14-.17,0,.15-.12-.12-.05,.28-.2-.31-.27,.27-.52-.43,0,.07-.07,.01-.01,.22,.08,.21,0-.17,.06-.02-.01,.02,0,.13,.02,.18-.06-.08-.1-.1-.14-.44-.16-.22,.07,.7-.08,.58-.04-.16-.07-.22-.09-.19l.02,.3c-.09-.04-.15-.36-.24-.63-.03,.06-.09,.06-.04,.27l-.16-.32c.12,.23,.02,.18,.02,.25v-.07c-.05-.11-.08-.02-.09,.02,.07,.16,.14,.22,.18,.25,.02,.13-.02,.11,0,.26-.09-.27-.13-.16-.17-.18-.06-.04,.05,.25,.04,.24-.05-.13-.07,0-.11-.2,0-.05,.08,.12,.05,0-.06-.09-.15-.33-.14-.14,.02,.14,.22,.51,.08,.37,0-.07-.05-.18-.07-.28l-.12-.11,.1,.24c-.03-.06-.04-.08-.05-.11,.09,.26-.06,.12,.05,.4-.02,.04-.14-.13-.18-.14v-.02c-.11-.12-.11,0-.07,.16l-.02-.05s-.06,.05,0,.2c-.14-.14-.47-.84-.37-.53-.05,.04,.15,.46,.25,.59-.17-.1-.06,.31-.34,.02,.04,.1,.09,.15,.09,.21-.18,0-.07,.41-.46,.08-.03-.11-.15-.21-.24-.32,.11,.21-.18-.16,.05,.16,.14,.18,.21,.27,.3,.32,0,.15-.09,.22-.27,.09,.09,.07,.12,.13,.15,.2-.23-.29-.32-.29-.27-.15l.14,.17-.18-.15c.03,.07,.3,.37,.12,.24-.06-.06-.12-.13-.17-.17,.08,.17,.25,.44,.08,.34l-.26-.2s.12,.21,.21,.25c-.2-.08-.27-.05-.49-.22,.38,.6,.27,.77,.11,.89l-.13-.11c-.15-.06,.21,.2,.1,.16-.12-.11-.3-.19-.43-.34-.19-.05,.17,.26,.2,.34,.17,.14-.09-.12,.13,.06,.06,.05-.2-.03,.06,.18-.12-.06-.31-.22-.41-.31l.1,.13c-.35-.18-.48-.52-.91-.76v.07c-.3-.17-.23-.34-.4-.31,.1,.14,.47,.46,.61,.52,.01,.14,.62,.51,.54,.58-.18-.09,0-.09-.23-.24-.25-.11,.06,.17-.04,.15,.13,.03,.39,.26,.42,.32-.16-.05-.24-.21-.31-.17,.15,.12,.24,.26,.38,.28,.35,.27-.14,0,.12,.21-.27-.15-.55-.46-.73-.47,.26,.15,.28,.3,.68,.51-.09-.02-.29-.14-.43-.26-.18-.06,.4,.38-.11,.08l.25,.17c-.09-.04-.17-.07-.32-.13-.03,.03,.29,.32-.1,.09,.03,.04-.03,.11,.26,.23,.2,.05-.17-.17,.22,.02-.32-.14,0,.09,.09,.18l-.16-.08c.05,.05,0,.07,.16,.17-.08-.06-.19-.12-.23-.12l.23,.15c.08,.13-.42-.21-.39-.11l-.16-.15s-.2-.06-.14,.01c.21,.13,.46,.29,.62,.39,.08,.09-.25-.11-.05,.04l-.24-.19c-.07-.05-.38-.16-.4-.1,.06,.07,.35,.29,.49,.3-.01,.03-.16,0-.31-.11,.04,.1,.24,.11,.35,.23-.16-.05-.4-.09-.63-.15l-.34-.24-.02,.04c-.27-.2-.24-.08-.54-.27-.06,0,.03,.09,.1,.16,.54,.16,.65,.41,1.12,.61,.08,.15-1.15-.45-.48-.01,.13,.04,.46,.24,.35,.12-.08,.04,.45,.25,.22,.24-.17-.14-.5-.15-.74-.35,.15,.07,.14,0,.1-.03-.19-.05-.46-.21-.5-.14,.03,.06,0,.12,.26,.22,.27,.11,0-.08,.26,.07,.06,.12-.36-.04,.1,.2-.01-.07,.27,.04,.45,.12l.09,.1-.17-.09c-.17,.04,.31,.16,.23,.23l-.37-.1c-.3-.14,.19-.08-.31-.26-.04,.05,.2,.17,.05,.18-.04-.03-.04-.05-.08-.08-.02,.01-.69-.23-.34,.02,.13,.1,.17,.08,.36,.15,.02,.12,.2,.22,.21,.29-.36-.15-.08,.1-.43-.11,.23,.05,.26-.1-.08-.27-.45-.13,.09-.05-.34-.25-.04,.08-.47-.09-.75-.18-.03,.02,.08,.09,.12,.12,.26,.11,.27,.08,.54,.18-.11,.07,0,.21,.25,.36-.14-.02-.4-.12-.42-.17,.04,.14-.04,.25-.16,.33,.46,.07,.06,.15,.44,.22,.12-.02,.44,.03,.63,.13-.04,.02-.19-.06-.29-.08,.23,.12-.41-.06-.04,.11-.11-.14-.53-.19-.86-.32,.17,.14-.24-.08-.27,0,.17,.14,.29,.28,.34,.38-.36,.01-.08,.27-.09,.36-.19,0-.57-.13-.66-.09,0,.07,.44,.06,.23,.11l-.08-.03c.08,.05-.31,.12,.25,.28l-.42-.13s.05,.05,.09,.07c-.14-.03-.27-.04-.36-.09-.31,0,.02,.14,.02,.21h.26c.18,.17-.09,.19-.02,.32l-.25-.05,.14,.09c-.24-.06-.41-.03-.21,.04l-.29-.14-.29-.15c.16-.02,.29,.11,.55,.13,.22,.02,.17-.1-.06-.17-.04,.03,.02,.05,.1,.1-.35-.06-.33-.11-.55-.19,0,.02-.1,.03,0,.06-.16-.08-.18-.13-.17-.2,.12,.08,.22,.02,.32,.06-.3-.07-.38-.16-.28-.23,.37,.02-.19-.22-.06-.3,.3,.12,.53,.23,.64,.32,.17-.02,0-.07,.18-.09-.22-.09-.57-.2-.68-.31l.23,.05c-.1-.1-.43-.19-.34-.27,.16-.14,.2-.3,.27-.42l.22,.06c-.46-.22-.1-.28-.28-.45,.26-.09-.09-.42,.32-.36-.07-.34-.13-.65,.08-.9l.29,.18c-.21-.15,.19,.05,.17-.02-.27-.05-.29-.21-.47-.33,.3-.02,.11-.3-.04-.52l.21,.1c-.33-.31,.08-.27,.22-.38,.09,.03,.3,.11,.3,.06-.29-.26-.24-.28-.38-.51,.05-.08,.2-.17,.38-.17-.26-.58,.23-.7,.21-1.19l.23,.15c-.12-.32,0-.5,.16-.64,.15-.14,.32-.24,.33-.46l.31,.35c.17,.03,.07-.25-.18-.47,.17,.03,.03-.35,.34-.11,.14,0-.05-.25-.02-.35,.28,0,.31-.09,.42-.28h-.06c.05,.1,.17,.26,.23,.25-.02-.15,.29-.06-.1-.47,.36,.13,.28-.52,.69-.27-.1-.12-.07-.17-.1-.27,.17-.11,.5,.06,.51-.24,.06,.05,.08,.25,.16,.23,.01-.07-.09-.18-.08-.28,.16-.4,.71-.02,.93-.18,.37-.46,.94-.48,1.4-.62l.02,.11c.08-.45,.44,.36,.46-.3,.05,.1,.15,.03,.15,.25,.09-.32,.38,.24,.52-.16-.02,0-.03,.01-.04,.07,.2,.22,.34-.11,.54,.1-.02,.05-.05,.09-.05,.2,.08,.21,.16-.48,.21,.06,.04,0,.02-.27,0-.26,.21,.09,.42,.07,.64,0,.22-.07,.45-.18,.68-.21,.28,.36-.09,.91,.2,.53,0,.11,.04-.2,.03-.09,.12-.14,.05,.61,.16,.35,.03-.33,.07-.17,.11-.37,.15,.25,.13,.55,.32,.33l-.05,.17c.27-.45,.41-.14,.71-.65,1.01,.17,2.1,.33,3.01,.89,.2,.17,.39,.33,.6,.49,.19,.16,.4,.32,.58,.49,.37,.34,.7,.72,.88,1.21-.22,.46-.21,.46,.09,.55-.07,.04-.09,.03-.14,.09,.31-.21,.13,.12,.44-.07,.14,.33,.41,.55,.59,.86-.06-.03-.34,.1-.29,.15l.24-.06-.09,.06c.07,.01,.26-.04,.34-.14,.37,.32,.48,.78,.53,1.24,.06,.46,.06,.91,.25,1.3-.08,.24,.14,.46,.28,.65-.15,.39-.28,.73-.33,1.06-.02,.16-.02,.31,.01,.47,.04,.16,.1,.28,.22,.49,0,0-.23,0-.52-.02-.28-.02-.59-.05-.72-.14Z" fill="#348c9b"/><path d="M379.12,53.99c.19,0,.3-.04,.54,.06-.17-.02-.38-.02-.54-.06Z" fill="#348c9b"/><path d="M381.41,52.79c-.05-.02,.08,0,.11,0,0,.02,.15,.09,.06,.07,0-.02-.09-.05-.17-.08Z" fill="#348c9b"/><path d="M381.64,52.44c.16,.06,.26,.19,.26,.24l-.26-.24Z" fill="#348c9b"/><path d="M382.42,52.34c.14,.02,.21,.06,.19,.09-.08-.03-.12-.06-.19-.09Z" fill="#348c9b"/><path d="M382.07,52.18s.1,0,.2,.01c-.13-.05,.06,.1-.2-.01Z" fill="#348c9b"/><path d="M382.82,51.67s-.11-.12,.06-.05c-.13-.04,.15,.17-.06,.05Z" fill="#348c9b"/><path d="M382.75,51.24s.04,0,0-.03c.08,.02,.18,.09,.18,.12l-.19-.09Z" fill="#348c9b"/><polygon points="387.08 47.25 387.05 47.34 387.04 47.17 387.08 47.25" fill="#348c9b"/><path d="M389.86,47.48c.07-.09-.02,.16-.03,.18-.04,0,.08-.19,.03-.18Z" fill="#348c9b"/><polygon points="391.65 47.42 391.63 47.42 391.82 47.13 391.65 47.42" fill="#348c9b"/></g></g><g><path d="M399.66,76.02c.23-.26-.32-.13,.1-.23,.04,.14,.05,.26-.1,.23Z" fill="#348c9b"/><path d="M399.05,76.5c.88,1.09,0,2.52,.55,3.7,.04,.14-.48-.04-.36,.28,.68,1.15,.27,2.97-.25,4.37l-.14-.09c-.1,.27,.35,.59,.29,.88-.09,0-.13-.09-.25-.03,.27,.07,.13,.51,.33,.63-.11,.11-.32,.1-.44,.25l.31,.16c.74,.45-.05,1.1,.33,1.71-.07-.03-.13-.09-.2-.04,.45,.99,.36,2.22,.53,3.33-.11-.04-.31-.08-.43-.02,.33,.06,.41,.4,.47,.69-.33,.13,.31,.51,.12,.85l-.07-.03c.35,.26-.2,.38,.22,.59l-.26,.16c.47,.11-.24,.37,0,.58h.1c.11,.19-.12,.3-.04,.48l-.06,.02c.12,.43-.14,.69,.23,.68-.29,.15-.13-.42-.56-.18,.38,1.43,.31,2.9,.31,4.34-.15,.16-.19,.27-.33,.3,.07,.14,.07,.54,.26,.67,0-.05-.19,.09-.21,.17-.14,.26,.4,.29,.24,.57-.1-.11-.22-.15-.36-.12,.29,.25,.24,.57,.33,.86-.06-.04-.1-.12-.21-.1,.33,.32-.07,.58,.14,.86l-.21-.1c-.26,.45,.44,.13,.29,.52-.07-.09-.15-.06-.24-.08,.39,.37,.26,.91,.39,1.36-.03-.03-.09-.03-.09-.03,.05,.46-.07,.85,.1,1.43-.1,.11-.52-.39-.44,.07,.43,.31,.18,.9,.66,1.09-.07,.39-.23,.82-.09,1.3-.08-.21-.21-.34-.33-.48-.11-.13-.21-.27-.23-.44,0,0-.26-.15-.26-.16-.17-.28,.06-.11-.16-.37,.02,.13,.19,.77,.12,.78,.19,.48,.48,1.2,.66,1.83-.02,.08-.08,.1-.19,.04,.03-.08-.11-.33-.24-.55-.13-.22-.25-.42-.22-.45,0,0,.06,.3,.08,.56,.02,.27,0,.5,0,.5-.14-.07-.26-.6-.4-.56,.08,.2,.03,.25,.01,.34-.08-.11-.62-.31-.83-.98-.12-.29,.19,.03-.01-.3-.24-.17-.21,.03-.46-.14l-.02-.08c-.09-.1-.2-.13-.27-.08-.07,.05-.11,.17,0,.39,.13,.11-.07-.36,.13-.07-.09,.23-.45,.06-.76-.15,.11,0,.11-.15,.15-.26-.4,.12-.89-.1-1.44-.32-.09,.18,.34-.21,.35-.06-.12-.17-.26-.28-.41-.37-.08-.04-.16-.08-.24-.12-.08-.04-.13-.05-.2-.07-.26-.08-.5-.17-.56-.47,.08,.01-.13,.25-.1,.2-.19-.17-.01-.4-.21-.4,.09-.15-.2-.08-.37-.13-.14,.05,.01-.09,.14-.02-.28-.02-1.19-.36-1.49-.87-.06,.1-.51,.14-.61,.06l.19-.19c0-.19-.35-.23-.24-.42-.4,.1,1,.38,.56,.37,.05-.23-.65,.05-.38-.2-.21-.14-.58-.04-.63-.38,.03,.07,.38-.18,.2-.28-.32-.17-.16,.04-.44-.05l-.21-.02c-.16,.2-.24-.21-.3,.1,.09-.2-.5-.2-.22-.52l.23-.24c-.14-.07-.41,.14-.6,.19,0-.04,0-.12,.05-.16-.32,.4-.28-.25-.65-.03-.16-.33-.66-.49-.6-.84-.29-.02-.58,0-.75-.26,.07,0,.15,.03,.22-.05-.06-.23-.17-.14-.35-.17,.07-.04-.12-.45-.17-.71-.29-.02-.38,.25-.5,.38,.11-.54-.76-.14-.72-.68,.11,0,.44,0,.34-.21,.11-.54-.59,.04-.74-.37l-.17,.39c.02-.31-.58-.12-.3-.44-.19,.05-.27-.36-.47,0-.29-.63-1.31-.68-1.18-1.49-.11,0-.24-.18-.33,.02-.02,.27,.26-.02,.21,.14-.07-.03-.15,.05-.19,.09-.1-.18-.2-.29,.14-.47-.19-.45-.75,.32-1.09-.12,.12-.12,.12-.2-.02-.27l-.41,.07c-.24-.25,.07-.43,.23-.66-.18-.07-.35-.21-.54-.08l.03-.42c-.02,.31-.22,.05-.33,.06h.11c.04-.13-.17-.19-.28-.22-.08,.16,.05,.34,.12,.45-.15,.05-.25-.06-.44-.01,.2-.21-.13-.34-.23-.44-.1-.15-.3,.1-.33,.06,.08-.12-.21-.18,.02-.27,.07,0,.02,.19,.17,.14-.03-.15,.13-.35-.16-.33-.22,.01-.29,.48-.45,.14,.11,0,.19-.09,.3-.13l-.16-.3-.16,.2c0-.08,.04-.08,.05-.12-.23,.17-.43-.2-.66,0-.14-.07-.16-.33-.26-.44h.04c-.06-.23-.31-.29-.53-.23l.04-.04c-.07-.07-.28-.17-.47-.12-.09-.3,.49-.83,.08-.73-.09-.06-.28-.05-.43,0-.15,.06-.27,.17-.26,.28-.23-.27-.58-.45-.92-.65-.33-.2-.66-.43-.71-.7-.2-.01-.21,.05-.46-.05-.35-.3-.84-.58-1.3-.87-.45-.29-.87-.58-.91-.82,.11-.04,.23-.09,.36-.12-.06,.17,.42,.02,.66,.02-.2-.14,.6-.14,.03-.21-.39,0-.55-.03-.95,.14,.32-.38,1.17-.99,1.72-1.12-.28,.07-.26-.03-.23-.14,.43,.15,.85-.08,.98-.34l-.2-.13,.43-.02c.03-.11-.35-.33,.16-.43,.1,.04,.2,.08,.3,.08,.11-.3,.35-.85,.82-.96,0,0,.12,.02,.24,.03l.23,.04c.07-.09,.09-.36-.11-.32,.46-.08,.69-.22,.97-.07,.19-.99,1.03-1.62,1.75-2.07l.08,.15c.28,0-.07-.31,.12-.3,.03,.17,.34,.18,.31,.45,.37-.04,.17-.48,.3-.67-.1-.2-.06,.21-.19-.04-.02-.09,.47-.12,.31-.42,.14,.06,.23,.3,.28,.43l.07-.25c.42,.18-.04,.89,.44,1.13l.12-.15c.35,.18-.16,.6,.28,.43,.07-.25-.08-.74-.31-.76,.28-.32-.31-.76,.07-1,.21,.09-.26,.25-.03,.42,.33,.1,.26-.37,.46-.4-.24,.02-.3-.36-.22-.49,.28,0,.06,.34,.35,.18-.07-.19,.09-.48-.2-.44-.16-.42,.34-.1,.29-.47,.26,.19,.14,.77,.52,.69-.22-.21,.12-.58-.29-.83,.16-.01,.31,.17,.33,.38,.27,.03,.08-.72,.47-.28l-.12-.29c.11,.04,.22,.05,.4,.13,.14-.1,.22-.66,.47-.28,.02-.07,.35-.29,.04-.45-.31-.01-.1,.35-.46,.09,.35,.18,.26-.24,.31-.42l.12,.13c.03-.11,.21-.19,.14-.38,0,.12,.1,.2,.18,.2l-.08-.27c.2-.31,.34,.34,.57,.08l-.09,.32c.02-.07,.26,.07,.34-.09-.09-.24-.17-.55-.24-.73,.09-.2,.23,.18,.23-.14l-.03,.38c.02,.09,.37,.23,.57,.08,.08-.16,.08-.6-.21-.56,.1-.08,.33-.06,.36,.15,.18-.24-.18-.19-.07-.46,.18,.07,.57,.08,.86,.16l.03,.49,.14-.1c.01,.4,.24,.14,.34,.5,.13-.02,.17-.2,.21-.34-.6-.25-.13-.84-.51-1.2,.3-.39,.96,.83,.9-.1-.14-.06-.18-.51-.34-.22,.27-.12-.13-.53,.27-.56-.09,.32,.52,.26,.4,.72-.08-.15-.24,.02-.26,.09,.21,.09,.28,.43,.52,.26,.12-.15,.32-.3,.14-.49-.18-.23-.21,.19-.28-.12,.24-.29,.55,.03,.37-.48-.16,.17-.39-.04-.5-.21l.15-.25,.07,.19c.43-.14-.1-.36,.27-.56l.38,.2c.11,.32-.58,.23-.21,.63,.23-.14,.15-.41,.44-.45-.02,.07-.07,.13-.09,.2,.09-.04,.58,.48,.65-.08,.07-.25-.07-.19-.18-.35,.32-.3,.31-.54,.51-.73,.18,.35,.42-.26,.41,.25-.25-.1-.75,.28-.66,.67,.4,.28-.32,.15-.12,.58,.29-.19,.54,.19,.76,.4,.09-.04,.09-.2,.11-.27-.13-.25-.23-.18-.4-.41,.36-.16,.57-.51,.59-.86,.19,.04,.32,.29,.21,.4,.33-.34,.75-.59,1.16-.78-.5-.21,.34-.37-.04-.57-.25,.05-.61-.1-.62-.34,.14-.06,.11,.17,.22,.21,0-.31,.47,.16,.39-.27-.26,.37,.26,.5,.4,.84,.13-.34,.14,.22,.38,.04,.13-.34,.34-.68,.57-.94,.54,.03,.88-.62,1.18-.85,.27,.03,.39,.44,.61,.37,.2-.15-.41-.25,0-.31l.02,.09c.04-.14,.72-.17,.47-.71l.16,.43c.08,0,.07-.13,.09-.2,.09,.11,.23,.17,.19,.32,.36,.11,.37-.32,.56-.48l-.28-.12c.23-.42,.61-.37,.9-.69l.14,.22,.11-.27c.09,.24,.37,.23,.36,0l-.16,.88c-.23-.02-.02-.36-.26-.5-.2-.12-.48,.16-.39,.39,.14-.06,.11-.11,.15-.25,.25,.26,.06,.38,.1,.64,.06-.06,.21-.03,.15-.13-.02,.23-.13,.34-.33,.49,.06-.21-.2-.12-.21-.24,.16,.27,.03,.48-.28,.59-.39-.16-.34,.53-.69,.66-.07-.34-.06-.66,.04-.89-.28,0-.2,.15-.48,.16,.05,.26,.19,.6,.04,.88l-.15-.18c-.15,.25,.05,.53-.26,.68-.54,.25-1.03,.6-1.41,.83l-.15-.18c.09,.55-.57,.63-.71,1.01-.59,.15-.87,.9-1.34,.74-.71,.73-1.32,1.38-2.22,1.91l-.06-.38c0,.31-.21-.09-.33,.06,.33,.1,0,.43,.01,.68-.53,.05-.85,.63-1.04,1.06l-.15-.18c-.08,.6-.71,.57-1.17,.81-.1-.04-.31-.17-.42-.06,0,.47-.14,.53-.34,.96-.24,.17-.7,.38-1.03,.44-.61,1.09-1.74,1.48-2.51,2.42l-.23-.17c-.58,1.14-2.03,1.52-2.65,2.33l-.2-.44c-.33,.06-.49,.5-.24,.73-.04,0-.08,.02-.12,.04-.02,0-.03,.01-.04,.03-.02,.02-.03,.06-.04,.08-.03,.05-.06,.07-.26-.02-.18,.02,.08,.21,.1,.28-.34,.02-.4,.11-.4,.22l.08-.02c-.14-.03-.42-.07-.52-.04,.13,.07-.48,.19,.54,.15-.02,0-.04,0-.06,0-.16,.05,.05,.11,.19,.15,.15,.04,.22,.06,.07,.21,.15-.08,.22-.07,.33-.12,.04,.03,.02,.11,.05,.18,0,.03,.03,.07,.06,.08,0,0,.02,0,.03,0,.03,.01,.06,.03,.08,.04,.06,.02,.12,.03,.18,.04,.03,.11-.26,.13-.09,.27,.14,.03,.12-.16,.3-.14,.89,.29,1.3,1.29,2,1.7,1.35,.6,2.49,1.6,3.64,2.36l-.08,.08c.63-.08,.63,.99,1.31,.68,.03,.15,.31,.28,.12,.41,.48-.03,.67,.83,1.33,.83-.03-.04-.07-.04-.14-.03,.29,.51,.88,.51,1.21,1.03-.08,0-.18-.03-.26,.06,.05,.3,.7-.08,.48,.43,.11,.07,.23-.17,.16-.2,.89,.9,2.17,1.39,3.3,2.04,.57,.8-.48,.77,.35,.87-.01,.12,.16-.14,.1-.05,.32,.04,0,.75,.33,.63,.13-.32,.21-.07,.34-.24,.34,.51,.25,.82,.77,.87l-.13,.12c.36-.05,.62,.07,.88,.17,.13,.05,.26,.1,.4,.12,.07,0,.15,.02,.21,0,.04-.03,.09-.07,.13-.12,.32,.16,.53,.17,.55,.04-.09-.31-.17-.45-.2-.49,.01-.01,.02,0,.03-.05v-1.04l-.02-2.08c-.01-1.39,0-2.78,.15-4.19,.46-.66,.45-.71,.26-1.44,.07,.03,.09,.08,.16,.03-.38-.04-.03-.51-.4-.58,.07-1.05-.03-2.01-.03-3.09,.04,.17,.35,.26,.32,.05l-.24-.21,.1-.03c-.06-.14-.24-.29-.36-.15-.33-2.71,.43-5.37,.34-8.02,.16-.63,.01-1.53-.06-2.21,.5-2.03,.91-3.86,.56-5.92,0,0,.98,.27,1.2,1.12Z" fill="#348c9b"/><path d="M399.35,76.28c-.17-.11-.42-.06-.41-.37,.12,.13,.34,.22,.41,.37Z" fill="#348c9b"/><path d="M393.1,78.36c.03,.05-.12,0-.15-.02,.06-.06,.02-.23,.13-.18-.06,.06,0,.12,.02,.21Z" fill="#348c9b"/><path d="M391.72,79.21c-.08-.15,.13-.46,.28-.59l-.28,.59Z" fill="#348c9b"/><path d="M390.1,79.52c-.19-.04-.2-.12-.06-.22,.06,.07,.04,.14,.06,.22Z" fill="#348c9b"/><path d="M390.23,79.89c-.1,.08-.21,.03-.31-.01,.09,.11,.18-.24,.31,.01Z" fill="#348c9b"/><path d="M387.3,81.39c-.06,.06-.11,.27-.28,.16,.14,.06,.19-.39,.28-.16Z" fill="#348c9b"/><path d="M386.21,82.47s-.08,0-.1,.08c-.12-.01-.11-.17-.06-.22l.16,.15Z" fill="#348c9b"/><polygon points="386.02 101.09 385.84 101.07 385.96 100.95 386.02 101.09" fill="#348c9b"/><path d="M396.39,108.49c.21,.02,.12,.28,.15,.33-.19-.11,.09-.19-.15-.33Z" fill="#348c9b"/><polygon points="399.89 106.51 399.9 106.57 399.55 106.29 399.89 106.51" fill="#348c9b"/></g><g><path d="M351.85,108.52c-.23,.26,.32,.13-.1,.23-.04-.14-.05-.26,.1-.23Z" fill="#348c9b"/><path d="M352.47,108.03c-.88-1.09,0-2.52-.55-3.7-.04-.14,.48,.04,.36-.28-.68-1.15-.27-2.97,.25-4.37l.14,.09c.1-.27-.35-.59-.29-.88,.09,0,.13,.09,.25,.03-.27-.07-.13-.51-.33-.63,.11-.11,.32-.1,.44-.25l-.31-.16c-.74-.45,.05-1.1-.33-1.71,.07,.03,.13,.09,.2,.04-.45-.99-.36-2.22-.53-3.33,.11,.04,.31,.08,.43,.02-.33-.06-.41-.4-.47-.69,.33-.13-.31-.51-.12-.85l.07,.03c-.35-.26,.2-.38-.22-.59l.26-.16c-.47-.11,.24-.37,0-.58h-.1c-.11-.19,.12-.3,.04-.48l.06-.02c-.12-.43,.14-.69-.23-.68,.29-.15,.13,.42,.56,.18-.38-1.43-.31-2.9-.31-4.34,.15-.16,.19-.27,.33-.3-.07-.14-.07-.54-.26-.67,0,.05,.19-.09,.21-.17,.14-.26-.4-.29-.24-.57,.1,.11,.22,.15,.36,.12-.29-.25-.24-.57-.33-.86,.06,.04,.1,.12,.21,.1-.33-.32,.07-.58-.14-.86l.21,.1c.26-.45-.44-.13-.29-.52,.07,.09,.15,.06,.24,.08-.39-.37-.26-.91-.39-1.36,.03,.03,.09,.03,.09,.03-.05-.46,.07-.85-.1-1.43,.1-.11,.52,.39,.44-.07-.43-.31-.18-.9-.66-1.09,.07-.39,.23-.82,.09-1.3,.08,.21,.21,.34,.33,.48,.11,.13,.21,.27,.23,.44,0,0,.26,.15,.26,.16,.17,.28-.06,.11,.16,.37-.02-.13-.19-.77-.12-.78-.19-.48-.48-1.2-.66-1.83,.02-.08,.08-.1,.19-.04-.03,.08,.11,.33,.24,.55,.13,.22,.25,.42,.22,.45,0,0-.06-.3-.08-.56-.02-.27,0-.5,0-.5,.14,.07,.26,.6,.4,.56-.08-.2-.03-.25-.01-.34,.08,.11,.62,.31,.83,.98,.12,.29-.19-.03,.01,.3,.24,.17,.21-.03,.46,.14l.02,.08c.09,.1,.2,.13,.27,.08,.07-.05,.11-.17,0-.39-.13-.11,.07,.36-.13,.07,.09-.23,.45-.06,.76,.15-.11,0-.11,.15-.15,.26,.4-.12,.89,.1,1.44,.32,.09-.18-.34,.21-.35,.06,.12,.17,.26,.28,.41,.37,.08,.04,.16,.08,.24,.12,.08,.04,.13,.05,.2,.07,.26,.08,.5,.17,.56,.47-.08-.01,.13-.25,.1-.2,.19,.17,.01,.4,.21,.4-.09,.15,.2,.08,.37,.13,.14-.05-.01,.09-.14,.02,.28,.02,1.19,.36,1.49,.87,.06-.1,.51-.14,.61-.06l-.19,.19c0,.19,.35,.23,.24,.42,.4-.1-1-.38-.56-.37-.05,.23,.65-.05,.38,.2,.21,.14,.58,.04,.63,.38-.03-.07-.38,.18-.2,.28,.32,.17,.16-.04,.44,.05l.21,.02c.16-.2,.24,.21,.3-.1-.09,.2,.5,.2,.22,.52l-.23,.24c.14,.07,.41-.14,.6-.19,0,.04,0,.12-.05,.16,.32-.4,.28,.25,.65,.03,.16,.33,.66,.49,.6,.84,.29,.02,.58,0,.75,.26-.07,0-.15-.03-.22,.05,.06,.23,.17,.14,.35,.17-.07,.04,.12,.45,.17,.71,.29,.02,.38-.25,.5-.38-.11,.54,.76,.14,.72,.68-.11,0-.44,0-.34,.21-.11,.54,.59-.04,.74,.37l.17-.39c-.02,.31,.58,.11,.3,.44,.19-.05,.27,.36,.47,0,.29,.63,1.31,.68,1.18,1.49,.11,0,.24,.18,.33-.02,.02-.27-.26,.02-.21-.14,.07,.03,.15-.05,.19-.09,.1,.18,.2,.29-.14,.47,.19,.45,.75-.32,1.09,.12-.12,.12-.12,.2,.02,.27l.41-.07c.24,.25-.07,.43-.23,.66,.18,.07,.35,.21,.54,.08l-.03,.42c.02-.31,.22-.05,.33-.06h-.11c-.04,.13,.17,.19,.28,.22,.08-.16-.05-.34-.12-.45,.15-.05,.25,.06,.44,.01-.2,.2,.13,.34,.23,.44,.1,.15,.3-.1,.33-.06-.08,.12,.21,.18-.02,.27-.07,0-.02-.19-.17-.14,.03,.15-.13,.35,.16,.33,.22-.01,.29-.48,.45-.14-.11,0-.19,.09-.3,.13l.16,.3,.16-.2c0,.08-.04,.08-.04,.12,.23-.17,.43,.2,.66,0,.14,.07,.16,.33,.26,.44h-.04c.06,.23,.31,.29,.53,.23l-.04,.04c.07,.07,.28,.17,.47,.12,.09,.3-.49,.83-.08,.73,.09,.06,.28,.05,.43,0,.15-.06,.27-.17,.26-.28,.23,.27,.58,.45,.92,.65,.33,.2,.66,.43,.71,.7,.2,.01,.21-.06,.46,.05,.35,.3,.84,.58,1.3,.87,.45,.29,.87,.58,.91,.82-.11,.04-.23,.09-.35,.12,.06-.17-.42-.01-.66-.02,.2,.14-.6,.14-.03,.21,.39,0,.55,.03,.95-.14-.32,.38-1.17,.99-1.72,1.12,.28-.07,.26,.03,.23,.14-.43-.15-.85,.08-.98,.34l.2,.13-.43,.02c-.03,.11,.35,.33-.16,.43-.1-.04-.2-.08-.3-.08-.11,.3-.35,.85-.82,.96,0,0-.12-.01-.24-.03-.11-.02-.23-.04-.23-.04-.07,.09-.1,.35,.11,.32-.46,.08-.69,.22-.97,.07-.19,.99-1.03,1.62-1.75,2.07l-.08-.15c-.28,0,.07,.31-.12,.31-.03-.17-.34-.18-.31-.45-.37,.04-.17,.48-.3,.67,.1,.2,.06-.21,.19,.04,.02,.09-.47,.12-.31,.42-.14-.06-.23-.3-.28-.43l-.07,.25c-.42-.18,.04-.89-.44-1.13l-.12,.15c-.35-.18,.16-.6-.28-.43-.07,.25,.08,.74,.31,.76-.28,.32,.31,.76-.07,1-.21-.09,.26-.25,.03-.42-.33-.1-.26,.37-.46,.4,.24-.02,.3,.36,.22,.49-.28,0-.06-.34-.35-.18,.07,.19-.09,.48,.2,.44,.16,.42-.34,.1-.29,.47-.26-.19-.14-.77-.52-.69,.22,.21-.12,.58,.29,.83-.16,.01-.31-.17-.33-.38-.27-.03-.07,.72-.47,.28l.12,.29c-.11-.04-.22-.05-.4-.13-.14,.1-.22,.66-.47,.28-.02,.07-.35,.29-.04,.45,.31,.01,.1-.35,.46-.09-.35-.18-.26,.24-.31,.42l-.12-.13c-.03,.11-.21,.19-.14,.37,0-.12-.1-.2-.18-.19l.08,.27c-.2,.31-.34-.34-.57-.08l.09-.32c-.02,.07-.26-.07-.34,.09,.09,.24,.17,.55,.24,.73-.09,.2-.23-.18-.24,.14l.03-.38c-.02-.09-.37-.23-.57-.08-.08,.16-.08,.6,.21,.56-.1,.08-.33,.06-.36-.15-.18,.24,.18,.19,.07,.46-.18-.07-.57-.08-.86-.16l-.03-.49-.14,.1c-.01-.4-.24-.14-.34-.5-.13,.02-.17,.2-.21,.34,.6,.25,.13,.84,.51,1.2-.3,.39-.96-.83-.9,.1,.14,.06,.18,.51,.34,.22-.27,.12,.13,.53-.27,.56,.09-.32-.52-.26-.4-.72,.08,.15,.24-.02,.26-.09-.21-.09-.28-.43-.52-.26-.12,.15-.32,.3-.14,.49,.18,.23,.21-.19,.28,.12-.24,.29-.55-.03-.37,.48,.16-.17,.39,.04,.5,.21l-.15,.25-.07-.19c-.43,.14,.1,.36-.27,.56l-.38-.2c-.11-.32,.58-.23,.21-.63-.23,.14-.15,.41-.44,.45,.02-.07,.07-.13,.09-.2-.09,.04-.58-.48-.65,.08-.07,.25,.07,.19,.18,.35-.32,.3-.31,.54-.51,.73-.18-.35-.42,.26-.41-.25,.25,.1,.75-.28,.66-.67-.4-.28,.32-.15,.12-.58-.29,.19-.54-.19-.76-.4-.09,.04-.09,.2-.11,.27,.13,.25,.23,.18,.4,.41-.36,.16-.57,.51-.59,.86-.19-.04-.32-.29-.21-.4-.33,.34-.75,.59-1.16,.78,.5,.21-.34,.37,.04,.57,.25-.05,.61,.1,.62,.34-.14,.06-.11-.17-.22-.21,0,.31-.47-.16-.39,.27,.26-.37-.26-.5-.4-.84-.13,.34-.14-.22-.38-.04-.13,.34-.34,.68-.57,.94-.54-.03-.88,.62-1.18,.85-.27-.03-.39-.44-.61-.37-.2,.15,.41,.25,0,.31l-.02-.09c-.04,.14-.72,.17-.47,.71l-.16-.43c-.08,0-.07,.13-.09,.2-.09-.11-.23-.17-.19-.32-.36-.11-.37,.32-.56,.48l.28,.12c-.23,.42-.61,.37-.9,.69l-.14-.22-.11,.27c-.09-.24-.37-.23-.36,0l.16-.88c.23,.02,.02,.36,.26,.5,.2,.12,.48-.16,.39-.39-.14,.06-.11,.11-.15,.25-.25-.26-.06-.38-.1-.64-.06,.06-.21,.03-.15,.13,.02-.23,.13-.34,.33-.49-.06,.21,.2,.12,.21,.24-.16-.27-.03-.48,.28-.59,.39,.16,.34-.53,.69-.66,.07,.34,.06,.66-.04,.89,.28,0,.2-.15,.48-.16-.05-.26-.19-.6-.04-.88l.15,.18c.15-.25-.05-.53,.26-.68,.54-.25,1.03-.6,1.41-.83l.15,.18c-.09-.55,.57-.63,.71-1,.59-.15,.87-.9,1.34-.74,.71-.73,1.32-1.38,2.22-1.91l.05,.38c0-.31,.21,.09,.33-.06-.33-.1,0-.43-.01-.68,.53-.05,.85-.63,1.04-1.06l.15,.18c.08-.6,.71-.57,1.17-.81,.1,.04,.31,.17,.42,.06,0-.47,.14-.53,.34-.96,.24-.17,.69-.38,1.03-.44,.61-1.09,1.74-1.48,2.51-2.42l.23,.17c.58-1.14,2.03-1.52,2.65-2.33l.2,.44c.33-.06,.49-.5,.24-.73,.04,0,.08-.02,.12-.04,.02,0,.03-.01,.04-.03,.02-.02,.03-.06,.04-.08,.03-.05,.06-.07,.26,.02,.18-.02-.08-.21-.1-.28,.34-.02,.4-.11,.4-.22l-.08,.02c.14,.03,.42,.07,.52,.04-.13-.07,.48-.19-.54-.15h.06c.16-.06-.05-.12-.19-.16-.15-.04-.22-.06-.07-.21-.15,.08-.22,.07-.33,.12-.04-.03-.02-.11-.05-.18,0-.03-.03-.07-.06-.08,0,0-.02,0-.03,0-.03-.01-.06-.03-.08-.04-.06-.02-.12-.03-.18-.04-.03-.11,.26-.13,.09-.27-.14-.03-.12,.16-.3,.14-.89-.29-1.3-1.29-2-1.7-1.35-.6-2.49-1.6-3.64-2.36l.08-.08c-.63,.08-.63-.99-1.31-.68-.03-.15-.31-.28-.12-.41-.48,.03-.67-.83-1.33-.83,.03,.04,.07,.04,.14,.03-.29-.51-.88-.51-1.21-1.03,.08,0,.18,.03,.26-.06-.05-.3-.7,.08-.48-.43-.11-.07-.23,.17-.16,.2-.89-.9-2.17-1.39-3.3-2.04-.57-.8,.48-.77-.35-.87,.01-.12-.16,.14-.1,.05-.32-.04,0-.75-.33-.63-.13,.32-.21,.07-.34,.24-.34-.51-.25-.82-.77-.87l.13-.12c-.36,.05-.62-.07-.88-.17-.13-.05-.26-.1-.4-.12-.07,0-.15-.02-.21,0-.04,.03-.09,.07-.13,.12-.32-.16-.53-.17-.55-.04,.09,.31,.17,.45,.2,.49-.01,.01-.02,0-.03,.05v1.04l.02,2.08c.01,1.39,0,2.78-.15,4.19-.46,.66-.45,.71-.26,1.44-.07-.03-.09-.08-.16-.03,.38,.04,.03,.51,.4,.58-.07,1.05,.03,2.01,.03,3.09-.04-.17-.35-.26-.32-.05l.24,.21-.1,.03c.06,.14,.24,.29,.36,.15,.33,2.71-.43,5.37-.34,8.02-.16,.63-.01,1.53,.06,2.21-.5,2.03-.91,3.86-.56,5.92,0,0-.98-.27-1.2-1.12Z" fill="#348c9b"/><path d="M352.16,108.25c.17,.11,.42,.06,.41,.37-.12-.13-.34-.22-.41-.37Z" fill="#348c9b"/><path d="M358.41,106.17c-.03-.05,.12,0,.15,.02-.06,.06-.02,.23-.13,.18,.06-.06,0-.12-.02-.21Z" fill="#348c9b"/><path d="M359.79,105.33c.08,.15-.13,.46-.28,.59l.28-.59Z" fill="#348c9b"/><path d="M361.41,105.02c.19,.04,.2,.12,.06,.22-.06-.07-.04-.14-.06-.22Z" fill="#348c9b"/><path d="M361.28,104.64c.1-.08,.21-.03,.31,.01-.09-.11-.18,.24-.31-.01Z" fill="#348c9b"/><path d="M364.21,103.15c.06-.06,.11-.27,.28-.16-.14-.06-.19,.4-.28,.16Z" fill="#348c9b"/><path d="M365.3,102.06s.08,0,.1-.08c.12,.01,.11,.17,.06,.22l-.16-.15Z" fill="#348c9b"/><polygon points="365.49 83.44 365.67 83.47 365.55 83.59 365.49 83.44" fill="#348c9b"/><path d="M355.12,76.05c-.21-.02-.12-.28-.15-.33,.19,.11-.09,.19,.15,.33Z" fill="#348c9b"/><polygon points="351.62 78.02 351.61 77.96 351.96 78.25 351.62 78.02" fill="#348c9b"/></g><polygon points="387.28 83 374.13 92.27 387.28 101.53 387.28 83" fill="#1a7d8e"/><polygon points="363.71 101.53 376.86 92.27 363.71 83 363.71 101.53" fill="#1a7d8e"/><g><path d="M371.95,91.86c0,.75-.6,1.35-1.35,1.35s-1.35-.6-1.35-1.35,.61-1.35,1.35-1.35,1.35,.6,1.35,1.35Z" fill="#f7f7f7"/><path d="M379.42,92.13c.15,.73,.86,1.2,1.59,1.05,.73-.14,1.2-.86,1.06-1.59-.15-.73-.86-1.2-1.59-1.06-.73,.14-1.21,.86-1.06,1.59Z" fill="#f7f7f7"/></g></g><g><path d="M51.26,65.69v.77h-1.55v-.77c0-6.75-6.99-12.03-15.45-12.03s-15.45,5.28-15.45,12.03c0,11.95,34.15,11.95,34.08,25.62,0,7.22-8.31,13.58-18.63,13.58s-18.63-6.29-18.63-13.58v-.78h1.55v.78c0,6.67,7.76,12.03,17.08,12.03s17.08-5.43,17.08-12.03c0-12.19-34-12.03-34.08-25.62,0-7.38,7.45-13.58,17-13.58s17,6.21,17,13.58Z" fill="#fff"/><path d="M34.27,106.6c-11.22,0-20.34-6.86-20.34-15.29v-2.49h4.98v2.49c0,5.59,7.04,10.32,15.37,10.32s15.37-4.82,15.37-10.32c0-4.75-7.74-7.64-15.22-10.43-9.25-3.45-18.81-7.03-18.86-15.18,0-8.44,8.39-15.3,18.71-15.3s18.71,6.86,18.71,15.29v2.49h-4.97v-2.49c0-5.69-6.16-10.32-13.74-10.32s-13.74,4.63-13.74,10.32c0,4.59,7.67,7.46,15.09,10.24,9.36,3.51,19.03,7.13,18.99,15.39,0,8.28-9.32,15.28-20.34,15.28Z" fill="#1a7d8e"/></g><g><path d="M63.76,60.56h-.77v-1.55h1.63v1.55h-.85Zm-.77,7.84v-.78h1.55v37.26h-1.55v-36.48Z" fill="#fff"/><path d="M66.25,106.6h-4.98v-40.68h4.98v40.68Zm.07-44.32h-5.05v-4.97h5.05v4.97Z" fill="#1a7d8e"/></g><g><path d="M102.26,76.97c1.78-5.51,6.43-9.34,11.87-9.34,6.99,0,12.65,6.29,12.65,14.36v22.12l.07,.85h-1.47l-.07-.77-.08-22.2c0-7.14-4.89-12.81-11.1-12.81s-11.1,5.67-11.1,12.81v22.12l.08,.85h-1.48l-.07-.77-.07-21.42h0v-.77c0-7.14-4.89-12.81-11.09-12.81s-11.1,5.67-11.1,12.81v22.9h-1.55v-37.26h1.55v7.4c2.15-4.45,6.31-7.4,11.1-7.4,5.45,0,10.1,3.83,11.87,9.34Z" fill="#fff"/><path d="M128.73,106.67h-4.9l-.23-2.48-.08-22.2c0-6.23-4.12-11.1-9.39-11.1s-9.39,4.87-9.39,11.1v22.04l.25,2.65h-4.91l-.23-2.48-.08-22.2c0-6.22-4.12-11.1-9.38-11.1s-9.39,4.87-9.39,11.1v24.61h-4.98v-40.68h4.98v3.86c2.56-2.45,5.87-3.86,9.39-3.86,4.82,0,9.25,2.69,11.87,6.98,2.63-4.28,7.05-6.98,11.87-6.98,8.05,0,14.36,7.06,14.36,16.07v22.04l.23,2.64Z" fill="#1a7d8e"/></g><g><path d="M140.75,78.63c2.72-6.58,8.72-11.06,15.6-11,9.31,0,17,8.23,17,18.63s-7.69,18.63-17.08,18.63c-6.82,0-12.8-4.41-15.52-10.85v24.51h-1.55v-50.92h1.55v11h0Zm0,7.63c0,9.47,6.99,17.08,15.52,17.08s15.53-7.61,15.53-17.08-6.91-17.08-15.45-17.08c-8.54-.08-15.45,7.53-15.6,17.08Z" fill="#fff"/><path d="M142.46,120.25h-4.98v-54.34h4.98v6.62c3.52-4.18,8.55-6.65,13.9-6.61,10.3,0,18.69,9.12,18.69,20.34s-8.43,20.34-18.79,20.34c-5.32,0-10.31-2.45-13.81-6.56v20.21Zm0-33.99c0,8.47,6.2,15.35,13.81,15.35s13.82-6.89,13.82-15.37-6.16-15.37-13.74-15.37h-.11c-7.47,0-13.63,6.87-13.78,15.38Z" fill="#1a7d8e"/></g><g><path d="M182.67,52.1v-.77h1.55v53.56h-1.55V52.1Z" fill="#fff"/><rect x="180.95" y="49.62" width="4.97" height="56.98" fill="#1a7d8e"/></g><g><path d="M199.19,60.56h-.77v-1.55h1.63v1.55h-.85Zm-.77,7.84v-.78h1.55v37.26h-1.55v-36.48Z" fill="#fff"/><path d="M201.68,106.6h-4.98v-40.68h4.98v40.68Zm.07-44.32h-5.05v-4.97h5.05v4.97Z" fill="#1a7d8e"/></g><g><path d="M241.16,78.01c6.61,1.29,11.59,6.62,11.59,12.9,0,7.22-6.6,13.19-14.67,13.19h-21.81c-.47,0-.77-.31-.77-.77,.01-8.04,.02-16.09,.04-24.14h-.04l.04-.74,.04-24.72c0-.46,.31-.77,.77-.77l18.55-.08c8.15,0,14.75,5.98,14.75,13.2,0,5.23-3.47,9.81-8.49,11.94Zm-24.07-.22l17.81-.08c7.22,0,13.19-5.2,13.19-11.64s-5.98-11.64-13.19-11.64h-17.85l.04,23.36Zm0,1.47c.01,7.79,.03,15.58,.04,23.36l20.96-.07c7.14,0,13.12-5.2,13.12-11.64s-5.98-11.64-13.12-11.64h-21Z" fill="#2b2b2b"/><path d="M238.08,104.3h-21.81c-.57,0-.96-.4-.96-.96,.01-7.99,.02-15.98,.04-23.97h0l-.03-.18,.04-.74,.04-24.71c0-.57,.4-.96,.96-.96l18.55-.08c8.24,0,14.94,6.01,14.94,13.39,0,4.96-3.15,9.57-8.07,11.87,6.51,1.52,11.17,6.88,11.17,12.96,0,7.38-6.66,13.38-14.86,13.38Zm-22.39-25.24l.03,.14c-.02,8.05-.03,16.09-.04,24.14,0,.36,.22,.58,.58,.58h21.81c7.98,0,14.48-5.83,14.48-13,0-6.08-4.81-11.42-11.44-12.71l-.61-.12,.57-.24c5.09-2.16,8.37-6.77,8.37-11.76,0-7.17-6.53-13.01-14.56-13.01l-18.55,.08c-.36,0-.59,.22-.59,.58l-.04,24.72-.03,.6Zm1.24,23.77l-.04-23.74h21.19c7.34,0,13.31,5.31,13.31,11.83s-5.97,11.83-13.31,11.83l-21.15,.08Zm.34-23.36l.04,22.98,20.77-.07c7.13,0,12.93-5.14,12.93-11.45s-5.8-11.45-12.93-11.45h-20.81Zm-.38-1.47l-.04-23.74h18.04c7.38,0,13.38,5.31,13.38,11.83s-6,11.83-13.38,11.83l-18,.08Zm.34-23.36l.04,22.98,17.62-.08c7.17,0,13-5.14,13-11.45s-5.83-11.45-13-11.45h-17.66Z" fill="#2b2b2b"/></g><g><path d="M259.74,86.26c0-10.4,7.76-18.63,17.07-18.63s17.08,8.23,17.08,18.63-7.69,18.63-17.08,18.63-17.07-8.23-17.07-18.63Zm1.55,0c0,9.47,6.99,17.08,15.52,17.08s15.53-7.61,15.53-17.08-6.91-17.08-15.53-17.08-15.52,7.61-15.52,17.08Z" fill="#2b2b2b"/><path d="M276.81,105.08c-9.52,0-17.26-8.44-17.26-18.82s7.74-18.82,17.26-18.82,17.27,8.44,17.27,18.82-7.75,18.82-17.27,18.82Zm0-37.26c-9.31,0-16.88,8.27-16.88,18.44s7.57,18.44,16.88,18.44,16.89-8.27,16.89-18.44-7.58-18.44-16.89-18.44Zm0,35.71c-8.66,0-15.71-7.75-15.71-17.27s7.05-17.27,15.71-17.27,15.72,7.75,15.72,17.27-7.05,17.27-15.72,17.27Zm0-34.15c-8.45,0-15.33,7.58-15.33,16.89s6.88,16.89,15.33,16.89,15.34-7.57,15.34-16.89-6.88-16.89-15.34-16.89Z" fill="#2b2b2b"/></g><g><path d="M306.92,69.18v25.92c.08,5.44,4.11,8.23,11.02,8.23h.77v1.55h-.77c-8.15,0-12.5-3.57-12.57-9.79v-25.92h-6.83v-1.55h6.83v-8.93h1.55v8.93h11.8v1.55h-11.8Z" fill="#2b2b2b"/><path d="M318.91,105.08h-.96c-8.15,0-12.69-3.54-12.76-9.97v-25.73h-6.83v-1.93h6.83v-8.93h1.93v8.93h11.8v1.93h-11.8v25.73c.08,5.18,3.92,8.04,10.83,8.04h.96v1.93Zm-20.18-36.09h6.83v26.11c.07,6.19,4.47,9.59,12.38,9.59h.58v-1.17h-.58c-7.15,0-11.13-2.99-11.21-8.42v-26.11h11.8v-1.17h-11.8v-8.93h-1.17v8.93h-6.83v1.17Z" fill="#2b2b2b"/></g></svg>