<svg xmlns="http://www.w3.org/2000/svg" width="64" height="64" fill-rule="nonzero"><path d="M3 22.56l6.304 17.184h4.928l3.68-11.36 3.712 11.36h4.928l6.272-17.216H27.96l-3.776 12.32-3.776-12.32h-4.832l-3.712 12.32-3.84-12.32L3 22.56zM47.096 16v9.056c-1.248-1.76-3.136-2.72-5.568-2.72-4.8 0-8 3.488-8 8.736 0 5.312 3.232 8.864 8.128 8.864 2.368 0 4.224-.96 5.44-2.72v2.528h4.896V16h-4.896zm-4.288 19.968c-2.592 0-4.32-1.952-4.352-4.768.032-2.784 1.792-4.768 4.352-4.768 2.528 0 4.288 1.952 4.288 4.768s-1.76 4.768-4.288 4.768z" fill="#ffd761"/><path d="M58.296 34.944c1.44 0 2.464 1.024 2.464 2.528 0 1.472-1.024 2.56-2.464 2.56-1.408 0-2.464-1.088-2.464-2.56 0-1.504 1.056-2.528 2.464-2.528z" id="." fill="#6366f1"/></svg>
