<svg xmlns="http://www.w3.org/2000/svg" viewBox="0 0 272 64"><path d="M2 24.7l6.3 17.2h4.9l3.7-11.4 3.7 11.4h4.9l6.3-17.2H27L23.2 37l-3.8-12.3h-4.8L10.9 37 7 24.7H2zm44.1-6.5v9.1c-1.2-1.8-3.1-2.7-5.6-2.7-4.8 0-8 3.5-8 8.7 0 5.3 3.2 8.9 8.1 8.9 2.4 0 4.2-1 5.4-2.7V42h5V18.2h-4.9zm-4.3 19.9c-2.6 0-4.3-2-4.4-4.8 0-2.8 1.8-4.8 4.4-4.8 2.5 0 4.3 2 4.3 4.8s-1.8 4.8-4.3 4.8z" fill="#ffd761"/><path d="M57.3 37.1c-1.4 0-2.5 1-2.5 2.5s1.1 2.6 2.5 2.6 2.5-1.1 2.5-2.6-1.1-2.5-2.5-2.5zM74 24.5c-2.3 0-4.2 1-5.4 2.7v-2.5h-4.9v23.4h4.9v-8.7c1.2 1.7 3.1 2.7 5.5 2.7 4.8 0 8-3.5 8-8.7 0-5.3-3.3-8.9-8.1-8.9zM72.8 38c-2.5 0-4.3-1.9-4.3-4.8 0-2.8 1.8-4.7 4.3-4.7s4.3 2 4.3 4.7c0 2.8-1.8 4.8-4.3 4.8zm24-13.3v8.5c0 2.5-1.4 4.4-3.8 4.4-2 0-3.2-1.3-3.2-3.5v-9.4h-4.9v10.8c0 4.1 2.4 6.6 6.2 6.6 2.6 0 4.6-1.1 5.8-3.2v3h4.9V24.7h-5zm20.2-.2c-2.3 0-4.2 1-5.4 2.7v-2.5h-4.9v23.4h4.9v-8.7c1.2 1.7 3.1 2.7 5.5 2.7 4.8 0 8-3.5 8-8.7 0-5.3-3.3-8.9-8.1-8.9zM115.8 38c-2.5 0-4.3-1.9-4.3-4.8 0-2.8 1.8-4.7 4.3-4.7s4.3 2 4.3 4.7c0 2.8-1.7 4.8-4.3 4.8zm15-21c-1.6 0-2.7 1.2-2.7 2.8s1.1 2.8 2.7 2.8 2.7-1.2 2.7-2.8-1.1-2.8-2.7-2.8zm-2.5 7.7v17.2h4.9V24.7h-4.9zm9.9-6.5v23.7h4.9V18.2h-4.9zm24.2 4.3c1.6 0 2.7-1.2 2.7-2.8S164 17 162.4 17s-2.7 1.2-2.7 2.8 1.1 2.7 2.7 2.7zm-13.5 1.3v1.5h-2.3v3.4h2.3v13.2h4.9V28.7h4.1v-3.4h-4.1V24c0-1.4.9-2 2-2 .8 0 1.7.3 2.5.7l.2-4.1a8.43 8.43 0 0 0-3.3-.7c-3.3 0-6.3 2-6.3 5.9zm11 18.1h4.9V24.7h-4.9v17.2zm14.6-14.1v-3.1h-4.9v17.2h4.9v-8.3c0-2.9 2.2-4.8 5.7-4.5v-4.6c-2.6 0-4.5 1.2-5.7 3.3zm19.2 1.9l1.7-3.4c-1.9-1.2-4.4-1.9-6.7-1.9-3.7 0-6.8 1.8-6.8 5.4 0 6 8.9 4.6 8.9 7.3 0 .9-.9 1.3-2.2 1.3-1.9 0-4.2-.8-6-2.1l-1.6 3.3c2 1.6 4.7 2.4 7.5 2.4 3.9 0 7-1.9 7-5.4 0-6.1-9.1-4.8-9.1-7.4 0-.9.8-1.3 2-1.3 1.5.2 3.5.8 5.3 1.8h0zm14.8 7.6c-.9.4-1.7.6-2.3.6-1.1 0-1.7-.5-1.7-2v-7.1h4.7v-3.4h-4.7v-4.7h-4.9v4.7h-2.4v3.4h2.4v8c0 3.6 2.3 5.3 5.4 5.3 1.6 0 3.1-.4 4.5-1.2l-1-3.6zm5.4-.2c-1.4 0-2.5 1-2.5 2.5s1.1 2.6 2.5 2.6 2.5-1.1 2.5-2.6c-.1-1.5-1.1-2.5-2.5-2.5zm13.9-12.6c-5.5 0-9.2 3.5-9.2 8.8 0 5.2 3.7 8.8 9.2 8.8s9.2-3.6 9.2-8.8c0-5.3-3.7-8.8-9.2-8.8zm0 4.1c2.5 0 4.3 1.9 4.3 4.7s-1.8 4.7-4.3 4.7c-2.6 0-4.3-1.9-4.3-4.7s1.7-4.7 4.3-4.7zm17.4-.8v-3.1h-4.9v17.2h4.9v-8.3c0-2.9 2.2-4.8 5.7-4.5v-4.6c-2.6 0-4.5 1.2-5.7 3.3zm19.6-3.1V27c-1.2-1.6-3-2.5-5.3-2.5-4.4 0-7.4 3.3-7.4 8.2 0 5 3.1 8.3 7.5 8.3 2.3 0 4-.9 5.2-2.5v2c0 2.3-1.8 3.8-4.6 3.8-2 0-3.8-.6-5.3-1.7L253 46c2 1.3 4.6 2.3 7.5 2.3 5.5 0 9.2-3.1 9.2-8V24.7h-4.9 0zm-4 12.6c-2.4 0-4-1.8-4.1-4.4 0-2.6 1.7-4.5 4.1-4.5s4 1.8 4 4.5c0 2.5-1.6 4.4-4 4.4z" fill="#6366f1"/></svg>
