<svg width="119" height="119" viewBox="0 0 119 119" fill="none" xmlns="http://www.w3.org/2000/svg">
<path d="M47.9651 50.2021V54.5894H96.2254V89.6878H65.5143V94.0751H105V89.6878H100.613V50.2021H47.9651ZM56.7441 56.7831C54.419 56.7912 52.1914 57.7181 50.5469 59.3618C48.9024 61.0055 47.9743 63.2326 47.9651 65.5577C47.9651 70.3815 51.9224 74.3323 56.7441 74.3323C59.068 74.323 61.294 73.3955 62.9369 71.7518C64.5797 70.1081 65.5062 67.8816 65.5143 65.5577C65.5143 60.7382 61.5613 56.7831 56.7441 56.7831ZM69.9016 58.9767V63.364H80.8698V58.9767H69.9016ZM85.2571 58.9767V63.364H91.8381V58.9767H85.2571ZM56.7441 61.1704C59.1878 61.1704 61.127 63.1074 61.127 65.5577C61.127 68.0146 59.19 69.945 56.7441 69.945C54.2872 69.945 52.3524 68.0146 52.3524 65.5577C52.3524 63.1074 54.2894 61.1704 56.7441 61.1704V61.1704ZM69.9016 67.7513V72.1386H91.8381V67.7513H69.9016ZM47.9651 76.5259V94.0751H52.3524V80.9132H58.9333V94.0751H63.3206V82.3567L67.8483 84.7521C69.1316 85.4322 70.6738 85.43 71.9548 84.7521V84.7565L79.6984 80.661L77.6518 76.7782L69.906 80.8738L63.1144 77.2893C62.1666 76.7886 61.1109 76.5266 60.0389 76.5259H47.9651Z" fill="#818CF8"/>
<path d="M24.2911 46.5785L41.9045 34.8285L66.5231 35.6059L61.5531 39.4327L61.8881 40.6007L64.2686 51.5471L61.0841 54.9883L50.774 59.588L35.8556 62.2227L32.3483 59.6891L29.2 48.7101L24.2911 46.5785Z" fill="#111827"/>
<path d="M41.8072 32.4563L41.2943 32.7879L21.0139 46.7384L16.3952 49.8829L19.6384 49.9824L24.1419 65.6875C23.249 66.6175 22.8515 67.9611 23.2323 69.2893C23.5053 70.2414 24.1454 71.046 25.0116 71.5261C25.8779 72.0063 26.8994 72.1227 27.8514 71.8497C28.8035 71.5767 29.6081 70.9366 30.0883 70.0704C30.5684 69.2041 30.6848 68.1826 30.4118 67.2306C30.0309 65.9024 28.9818 64.9736 27.7317 64.6581L23.5833 50.1915L27.5102 50.3377L30.1479 59.5364C30.57 61.0082 31.8174 61.9714 33.1254 62.5092C34.432 63.0417 35.9264 63.2542 37.669 63.3295C41.1568 63.4754 45.5318 62.8949 50.1553 61.569C54.7789 60.2432 58.7973 58.4189 61.6767 56.4432C63.1151 55.4577 64.2698 54.4856 65.0951 53.3399C65.9199 52.1924 66.4673 50.7145 66.0453 49.2427L63.4075 40.044L67.9737 36.9126L72.5925 33.7681L67.0069 33.5478L42.4161 32.4662L41.8072 32.4563ZM42.8854 36.2165L61.3207 37.0003L46.1022 47.4345L27.6669 46.6507L42.8854 36.2165ZM31.454 50.5432L46.5716 51.1848L47.18 51.1929L47.6929 50.8613L60.1714 42.3065L62.4556 50.2721C62.4607 50.29 62.5276 50.4962 62.0868 51.1063C61.6483 51.7176 60.7927 52.5748 59.5885 53.4019C57.1823 55.0495 53.4247 56.7466 49.126 57.9793C44.8273 59.212 40.7418 59.7658 37.8253 59.6406C36.3699 59.5781 35.1878 59.3033 34.4925 59.019C33.793 58.734 33.7428 58.525 33.7377 58.507L31.4535 50.5414L31.454 50.5432Z" fill="#FFD761"/>
</svg>
