<svg width="119" height="119" viewBox="0 0 119 119" fill="none" xmlns="http://www.w3.org/2000/svg">
<path d="M69.789 36.4636V37.5136H70.839H81.6863C84.2847 37.5136 86.7767 38.5458 88.614 40.3832C90.4514 42.2205 91.4836 44.7125 91.4836 47.3109V76.2371C91.4836 78.8355 90.4514 81.3275 88.614 83.1648C86.7767 85.0022 84.2847 86.0344 81.6863 86.0344H31.0655C28.467 86.0344 25.9751 85.0022 24.1377 83.1648C22.3004 81.3275 21.2681 78.8355 21.2681 76.2371V47.3109C21.2681 44.7125 22.3004 42.2205 24.1377 40.3832C25.9751 38.5458 28.467 37.5136 31.0655 37.5136H41.9128H42.9628V36.4636V31.0399C42.9628 28.921 43.8045 26.8888 45.3028 25.3905C46.8011 23.8922 48.8333 23.0505 50.9522 23.0505H61.7995C63.9185 23.0505 65.9506 23.8922 67.4489 25.3905C68.9472 26.8888 69.789 28.921 69.789 31.0399V36.4636ZM68.2732 43.6951V42.6451H67.2232H45.5286H44.4786V43.6951V79.8529V80.9029H45.5286H67.2232H68.2732V79.8529V43.6951ZM63.6074 37.5136H64.6574V36.4636V31.0399C64.6574 30.282 64.3563 29.555 63.8204 29.0191C63.2844 28.4831 62.5575 28.182 61.7995 28.182H50.9522C50.1943 28.182 49.4673 28.4831 48.9314 29.0191C48.3954 29.555 48.0943 30.282 48.0943 31.0399V36.4636V37.5136H49.1443H63.6074ZM39.347 43.6951V42.6451H38.297H31.0655C29.828 42.6451 28.6413 43.1367 27.7663 44.0117C26.8913 44.8867 26.3997 46.0735 26.3997 47.3109V76.2371C26.3997 77.4745 26.8913 78.6613 27.7663 79.5363C28.6413 80.4113 29.828 80.9029 31.0655 80.9029H38.297H39.347V79.8529V43.6951ZM73.4047 79.8529V80.9029H74.4547H81.6863C82.9237 80.9029 84.1105 80.4113 84.9855 79.5363C85.8605 78.6613 86.3521 77.4745 86.3521 76.2371V47.3109C86.3521 46.0735 85.8605 44.8867 84.9855 44.0117C84.1105 43.1367 82.9237 42.6451 81.6863 42.6451H74.4547H73.4047V43.6951V79.8529Z" fill="#818CF8" stroke="#111827" stroke-width="2.1"/>
<path d="M59.1227 71.0921L79.7988 64.4907L103.838 72.2131L97.8592 74.5797V75.8252L97.1119 87.2843L93.0016 89.7753L81.5425 91.3946L66.0977 89.7753L63.3575 86.2878V74.5797L59.1227 71.0921Z" fill="#111827"/>
<path d="M80.3733 62.126L79.7741 62.3078L55.8483 70.3239L50.4086 72.1174L53.5763 73.1318V89.8799C52.4336 90.5441 51.6623 91.7557 51.6623 93.1721C51.6623 94.1874 52.0656 95.1611 52.7835 95.879C53.5014 96.5969 54.4751 97.0002 55.4904 97.0002C56.5057 97.0002 57.4794 96.5969 58.1973 95.879C58.9152 95.1611 59.3185 94.1874 59.3185 93.1721C59.3185 91.7557 58.5472 90.5441 57.4045 89.8799V74.4526L61.2326 75.7063V85.5158C61.2326 87.0854 62.1896 88.3869 63.3266 89.2866C64.4635 90.1804 65.8761 90.8121 67.572 91.3786C70.9675 92.5079 75.4426 93.1721 80.3733 93.1721C85.3039 93.1721 89.779 92.5098 93.1745 91.3767C94.8704 90.8121 96.283 90.1804 97.4199 89.2846C98.5569 88.3869 99.5139 87.0854 99.5139 85.5158V75.7063L104.898 73.9109L110.338 72.1174L104.896 70.322L80.9704 62.3078L80.3733 62.126ZM80.3733 66.1359L98.3176 72.1174L80.3733 78.0988L62.4289 72.1174L80.3733 66.1359ZM65.0607 77.0231L79.7761 81.927L80.3733 82.1069L80.9724 81.9251L95.6858 77.0212V85.5158C95.6858 85.535 95.6934 85.757 95.0867 86.2336C94.4818 86.7121 93.3965 87.3151 91.9763 87.7898C89.1397 88.7334 84.9574 89.344 80.3733 89.344C75.7891 89.344 71.6068 88.7353 68.7683 87.7878C67.3519 87.3151 66.2647 86.7102 65.6598 86.2336C65.0512 85.7551 65.0607 85.535 65.0607 85.5158V77.0212V77.0231Z" fill="#FFD761"/>
</svg>
