<svg width="119" height="119" viewBox="0 0 119 119" fill="none" xmlns="http://www.w3.org/2000/svg">
<path d="M89.666 69.571L102.387 76.8629L70.8576 91.3098L59.9643 83.9315L89.666 69.571Z" fill="#3128B3"/>
<path d="M58.0461 39.4282L70.7668 47.4241V91.4013L58.0461 84.1323V39.4282Z" fill="#1F1887"/>
<path d="M70.7672 47.6733L58.0007 39.3841L89.757 24.2999L100.842 35.6121L70.7672 47.6733Z" fill="#3128B3"/>
<path d="M89.6661 24.1636L102.387 32.1594V76.8635L89.6661 69.5946V24.1636Z" fill="#2A18A3"/>
<path d="M89.6661 69.5942L102.387 61.2349V76.8631L89.6661 69.5942Z" fill="#87DAE1"/>
<circle cx="46.9251" cy="51.3722" r="2.4825" fill="#FFD761"/>
<circle cx="37.6298" cy="56.337" r="2.4825" fill="#818CF8"/>
<circle cx="28.3342" cy="60.4786" r="2.4825" fill="#FFD761"/>
<circle cx="46.9251" cy="59.6549" r="2.4825" fill="#FFD761"/>
<circle cx="37.6298" cy="64.6197" r="2.4825" fill="#818CF8"/>
<circle cx="19.0955" cy="64.6197" r="2.4825" fill="#818CF8"/>
<circle cx="28.3342" cy="68.7608" r="2.4825" fill="#FFD761"/>
<circle cx="46.9251" cy="67.9351" r="2.4825" fill="#FFD761"/>
<circle cx="37.6298" cy="72.9" r="2.4825" fill="#818CF8"/>
<circle cx="46.9251" cy="76.2179" r="2.4825" fill="#FFD761"/>
</svg>
