<svg width="119" height="119" viewBox="0 0 119 119" fill="none" xmlns="http://www.w3.org/2000/svg">
<path d="M56.9585 80.3342C71.1334 80.3342 82.6244 68.8432 82.6244 54.6683C82.6244 40.4935 71.1334 29.0024 56.9585 29.0024C42.7836 29.0024 31.2926 40.4935 31.2926 54.6683C31.2926 68.8432 42.7836 80.3342 56.9585 80.3342Z" stroke="#818CF8" stroke-width="3.5" stroke-linecap="round" stroke-linejoin="round"/>
<path d="M33.0037 46.113H80.9133M33.0037 63.2236H80.9133M55.5326 29.0024C50.7284 36.7011 48.1813 45.5936 48.1813 54.6683C48.1813 63.743 50.7284 72.6356 55.5326 80.3342M58.3844 29.0024C63.1886 36.7011 65.7356 45.5936 65.7356 54.6683C65.7356 63.743 63.1886 72.6356 58.3844 80.3342" stroke="#818CF8" stroke-width="3.5" stroke-linecap="round" stroke-linejoin="round"/>
<path d="M73.8534 72.1418L74.6259 67.7001L89.6889 66.8311L92.5857 71.1762L91.2339 76.3903L87.6612 81.0251L80.3228 82.2804L75.3018 78.5146L73.8534 72.1418Z" fill="#111827"/>
<path d="M99.0807 62.1598L83.0428 56.8138C82.7706 56.73 82.4796 56.73 82.2075 56.8138L66.1862 62.1598H66.1528L65.9857 62.2433H65.969L65.802 62.3435C65.802 62.3602 65.7852 62.3602 65.7685 62.377L65.6349 62.4939L65.5179 62.6275C65.5179 62.6443 65.5012 62.6443 65.5012 62.661L65.401 62.8113C65.401 62.828 65.401 62.828 65.3843 62.8447L65.3175 62.9951L65.2674 63.1789V63.229C65.2509 63.2944 65.2452 63.3622 65.2506 63.4294V76.7944C65.2506 77.1489 65.3915 77.4888 65.6421 77.7395C65.8927 77.9901 66.2327 78.1309 66.5871 78.1309C66.9416 78.1309 67.2816 77.9901 67.5322 77.7395C67.7828 77.4888 67.9236 77.1489 67.9236 76.7944V65.2838L73.5369 67.1549C72.4824 68.8429 71.9264 70.7946 71.9331 72.7849C71.9337 74.5951 72.3939 76.3754 73.2705 77.9591C74.1471 79.5428 75.4114 80.8781 76.945 81.8397C73.7581 83.0453 71.0374 85.2335 69.1766 88.0878C68.9869 88.3877 68.9227 88.7502 68.9977 89.097C69.0727 89.4439 69.2809 89.7474 69.5776 89.9422C69.7231 90.0387 69.8864 90.1053 70.0579 90.1382C70.2294 90.1711 70.4057 90.1696 70.5766 90.1339C70.7476 90.0981 70.9097 90.0288 71.0537 89.93C71.1976 89.8311 71.3205 89.7047 71.4152 89.558C72.6283 87.6894 74.2893 86.1537 76.247 85.0905C78.2048 84.0273 80.3973 83.4704 82.6251 83.4704C84.8529 83.4704 87.0454 84.0273 89.0032 85.0905C90.9609 86.1537 92.6219 87.6894 93.835 89.558C93.957 89.7432 94.1232 89.8952 94.3186 90.0002C94.514 90.1052 94.7325 90.1599 94.9543 90.1594C95.2103 90.1621 95.461 90.0863 95.6727 89.9422C95.9693 89.7474 96.1775 89.4439 96.2525 89.097C96.3275 88.7502 96.2633 88.3877 96.0736 88.0878C94.2128 85.2335 91.4921 83.0453 88.3052 81.8397C89.8388 80.8781 91.1031 79.5428 91.9797 77.9591C92.8563 76.3754 93.3165 74.5951 93.3171 72.7849C93.3238 70.7946 92.7678 68.8429 91.7133 67.1549L99.0807 64.6991C99.3481 64.6112 99.5809 64.4412 99.746 64.2132C99.911 63.9852 99.9999 63.7109 99.9999 63.4294C99.9999 63.148 99.911 62.8737 99.746 62.6457C99.5809 62.4177 99.3481 62.2477 99.0807 62.1598V62.1598ZM82.6251 80.8039C80.4983 80.8039 78.4587 79.9591 76.9548 78.4552C75.451 76.9514 74.6061 74.9117 74.6061 72.7849C74.6094 71.0738 75.1531 69.4074 76.1598 68.0237L82.2075 70.0451C82.4787 70.1344 82.7715 70.1344 83.0428 70.0451L89.0904 68.0237C90.0971 69.4074 90.6409 71.0738 90.6441 72.7849C90.6441 74.9117 89.7992 76.9514 88.2954 78.4552C86.7915 79.9591 84.7519 80.8039 82.6251 80.8039Z" fill="#FFD761"/>
<path d="M24.921 41.5785L25.4822 38.352L36.4244 37.7207L38.5287 40.8771L37.5467 44.6648L34.9514 48.0317L29.6206 48.9435L25.9732 46.2079L24.921 41.5785Z" fill="#111827"/>
<path d="M43.2471 34.327L31.5967 30.4436C31.399 30.3827 31.1876 30.3827 30.9899 30.4436L19.3516 34.327H19.3273L19.206 34.3877H19.1938L19.0725 34.4605C19.0725 34.4727 19.0603 34.4727 19.0482 34.4848L18.9511 34.5698L18.8662 34.6669C18.8662 34.679 18.854 34.679 18.854 34.6911L18.7812 34.8003C18.7812 34.8125 18.7812 34.8125 18.7691 34.8246L18.7205 34.9338L18.6841 35.0673V35.1037C18.6721 35.1513 18.668 35.2005 18.672 35.2494V44.9581C18.672 45.2155 18.7743 45.4625 18.9563 45.6446C19.1384 45.8266 19.3854 45.9289 19.6428 45.9289C19.9003 45.9289 20.1473 45.8266 20.3294 45.6446C20.5114 45.4625 20.6137 45.2155 20.6137 44.9581V36.5965L24.6914 37.9557C23.9253 39.1819 23.5214 40.5996 23.5263 42.0455C23.5268 43.3604 23.861 44.6537 24.4978 45.8041C25.1346 46.9546 26.0531 47.9245 27.1671 48.6231C24.852 49.4989 22.8757 51.0885 21.5239 53.1619C21.3861 53.3798 21.3394 53.6431 21.3939 53.895C21.4484 54.147 21.5997 54.3675 21.8152 54.509C21.9209 54.579 22.0395 54.6274 22.1641 54.6513C22.2887 54.6752 22.4168 54.6742 22.5409 54.6482C22.6651 54.6222 22.7829 54.5719 22.8874 54.5001C22.992 54.4283 23.0813 54.3364 23.1501 54.2299C24.0313 52.8725 25.2379 51.7569 26.6601 50.9846C28.0822 50.2123 29.6749 49.8077 31.2933 49.8077C32.9116 49.8077 34.5043 50.2123 35.9265 50.9846C37.3487 51.7569 38.5552 52.8725 39.4364 54.2299C39.5251 54.3644 39.6458 54.4748 39.7877 54.5511C39.9297 54.6274 40.0884 54.6671 40.2495 54.6667C40.4355 54.6687 40.6176 54.6136 40.7714 54.509C40.9869 54.3675 41.1381 54.147 41.1926 53.895C41.2471 53.6431 41.2004 53.3798 41.0626 53.1619C39.7109 51.0885 37.7345 49.4989 35.4195 48.6231C36.5335 47.9245 37.4519 46.9546 38.0887 45.8041C38.7255 44.6537 39.0598 43.3604 39.0602 42.0455C39.0651 40.5996 38.6612 39.1819 37.8952 37.9557L43.2471 36.1717C43.4413 36.1079 43.6105 35.9843 43.7304 35.8187C43.8503 35.6531 43.9148 35.4538 43.9148 35.2494C43.9148 35.0449 43.8503 34.8457 43.7304 34.68C43.6105 34.5144 43.4413 34.3909 43.2471 34.327V34.327ZM31.2933 47.8707C29.7483 47.8707 28.2667 47.2569 27.1742 46.1645C26.0818 45.0721 25.4681 43.5904 25.4681 42.0455C25.4704 40.8024 25.8654 39.5919 26.5967 38.5867L30.9899 40.0552C31.1869 40.12 31.3996 40.12 31.5967 40.0552L35.9898 38.5867C36.7211 39.5919 37.1161 40.8024 37.1185 42.0455C37.1185 43.5904 36.5048 45.0721 35.4123 46.1645C34.3199 47.2569 32.8382 47.8707 31.2933 47.8707Z" fill="#FFD761"/>
</svg>
