<svg width="119" height="119" viewBox="0 0 119 119" fill="none" xmlns="http://www.w3.org/2000/svg">
<path d="M27.4243 54.0361L32.8017 53.7531L32.6472 55.2884C32.5797 55.9774 32.6348 56.6728 32.8099 57.3425C33.4945 59.8963 35.7544 61.6123 38.4334 61.6122C41.1125 61.6122 43.3724 59.8962 44.0568 57.3425C44.2318 56.6728 44.2869 55.9774 44.2195 55.2885L44.065 53.7531L49.4424 54.0361L49.5037 54.0377C49.9671 54.0372 50.4114 53.8529 50.7391 53.5252C51.0668 53.1975 51.2511 52.7532 51.2517 52.2898L51.2514 45.5328L49.9696 44.3735L46.8712 44.6852C46.4574 44.7269 46.0396 44.6953 45.6368 44.592C44.1161 44.1844 43.0943 42.8292 43.0943 41.2197C43.0943 39.6102 44.1159 38.2553 45.6367 37.8473C46.0398 37.7439 46.4579 37.7122 46.872 37.7539L49.9695 38.0656L51.2513 36.9063L51.2513 29.5666C51.2513 29.337 51.2061 29.1097 51.1183 28.8976C51.0304 28.6856 50.9017 28.4929 50.7393 28.3305C50.577 28.1682 50.3843 28.0395 50.1723 27.9516C49.9602 27.8638 49.7329 27.8186 49.5033 27.8186L31.4416 27.8185C30.6764 27.8185 29.9188 27.9692 29.2119 28.262C28.5049 28.5548 27.8626 28.984 27.3216 29.525C26.7805 30.0661 26.3513 30.7084 26.0585 31.4153C25.7657 32.1222 25.615 32.8799 25.615 33.645L25.6152 52.2896C25.6158 52.753 25.8001 53.1973 26.1278 53.5249C26.4555 53.8526 26.8997 54.0369 27.3631 54.0375L27.4243 54.0361ZM27.9456 33.645C27.9456 33.1859 28.0361 32.7313 28.2117 32.3071C28.3874 31.883 28.6449 31.4976 28.9696 31.173C29.2942 30.8483 29.6796 30.5908 30.1037 30.4151C30.5279 30.2394 30.9825 30.149 31.4416 30.149L48.9211 30.1491L48.9209 35.6181L47.0986 35.4346L47.0874 35.4336C46.3985 35.3661 45.7031 35.4212 45.0334 35.5962C42.4795 36.2808 40.7636 38.5407 40.7636 41.2198C40.7636 43.8989 42.4795 46.1587 45.0333 46.8432C45.703 47.0183 46.3984 47.0733 47.0873 47.0058L48.9208 46.8214L48.9208 51.6751L42.8305 51.3547L41.6098 52.635L41.8986 55.5052C41.9402 55.9189 41.9087 56.3366 41.8054 56.7394C41.3977 58.2601 40.0425 59.2819 38.4331 59.2819C36.8237 59.282 35.4685 58.2604 35.0607 56.7394C34.9574 56.3367 34.9258 55.9188 34.9675 55.5051L35.2564 52.635L34.0357 51.3546L27.9453 51.6752L27.9456 33.645Z" fill="#818CF8" stroke="#818CF8"/>
<path d="M48.2787 29.7005L48.5617 35.078L47.0264 34.9234C46.3374 34.856 45.642 34.9111 44.9723 35.0861C42.4185 35.7707 40.7025 38.0306 40.7026 40.7097C40.7026 43.3887 42.4186 45.6486 44.9724 46.3331C45.642 46.5081 46.3374 46.5631 47.0263 46.4957L48.5617 46.3413L48.2787 51.7187L48.2771 51.78C48.2776 52.2434 48.462 52.6877 48.7897 53.0154C49.1173 53.343 49.5616 53.5274 50.025 53.5279L56.782 53.5277L57.9413 52.2458L57.6296 49.1474C57.5879 48.7337 57.6195 48.3159 57.7228 47.9131C58.1305 46.3923 59.4857 45.3705 61.0951 45.3705C62.7046 45.3705 64.0595 46.3922 64.4675 47.913C64.5709 48.316 64.6026 48.7342 64.5609 49.1482L64.2492 52.2458L65.4085 53.5276L72.7482 53.5276C72.9778 53.5276 73.2051 53.4824 73.4172 53.3945C73.6293 53.3067 73.822 53.1779 73.9843 53.0156C74.1466 52.8533 74.2754 52.6606 74.3632 52.4485C74.451 52.2364 74.4963 52.0091 74.4962 51.7796L74.4963 33.7178C74.4964 32.9527 74.3457 32.195 74.0528 31.4881C73.76 30.7812 73.3308 30.1389 72.7898 29.5978C72.2488 29.0568 71.6064 28.6276 70.8995 28.3348C70.1926 28.042 69.4349 27.8913 68.6698 27.8913L50.0252 27.8915C49.5618 27.8921 49.1175 28.0764 48.7899 28.4041C48.4622 28.7317 48.2779 29.176 48.2773 29.6394L48.2787 29.7005ZM68.6698 30.2219C69.1289 30.2219 69.5835 30.3123 70.0077 30.488C70.4318 30.6637 70.8172 30.9212 71.1419 31.2458C71.4665 31.5704 71.724 31.9558 71.8997 32.38C72.0754 32.8041 72.1658 33.2587 72.1658 33.7178L72.1657 51.1974L66.6967 51.1971L66.8802 49.3749L66.8812 49.3636C66.9487 48.6747 66.8936 47.9793 66.7186 47.3096C66.034 44.7557 63.7741 43.0399 61.095 43.0399C58.4159 43.0399 56.1562 44.7558 55.4716 47.3096C55.2966 47.9792 55.2415 48.6747 55.309 49.3636L55.4934 51.197L50.6397 51.197L50.9602 45.1067L49.6798 43.886L46.8097 44.1748C46.396 44.2165 45.9782 44.1849 45.5754 44.0816C44.0547 43.674 43.0329 42.3187 43.0329 40.7093C43.0328 39.0999 44.0544 37.7448 45.5754 37.337C45.9781 37.2336 46.396 37.2021 46.8097 37.2438L49.6798 37.5326L50.9602 36.312L50.6396 30.2216L68.6698 30.2219Z" fill="#818CF8" stroke="#818CF8"/>
<path d="M80.1964 63.2528L75.0975 64.9846L74.8296 63.465C74.7076 62.7836 74.4658 62.1292 74.1155 61.5322C72.7636 59.26 70.1228 58.2218 67.5443 58.9489C64.9658 59.6761 63.2564 61.9409 63.2907 64.5846C63.3041 65.2766 63.4398 65.9609 63.6916 66.6056L64.257 68.0415L59.0046 69.2285L58.9452 69.2436C58.4993 69.3699 58.1217 69.6679 57.8953 70.0722C57.6688 70.4765 57.612 70.9541 57.7372 71.4003L59.5713 77.9036L61.1196 78.6715L64.0172 77.5306C64.4041 77.3782 64.8148 77.2952 65.2305 77.2853C66.8048 77.2649 68.156 78.292 68.5928 79.841C69.0296 81.3901 68.4141 82.9714 67.0611 83.7768C66.7012 83.9858 66.3074 84.1297 65.8975 84.202L62.8317 84.7427L61.9126 86.2063L63.9046 93.2706C63.9669 93.4915 64.0721 93.698 64.2142 93.8783C64.3563 94.0586 64.5325 94.2091 64.7328 94.3213C64.9331 94.4334 65.1535 94.5051 65.3815 94.532C65.6094 94.559 65.8405 94.5409 66.0614 94.4785L83.4453 89.5767C84.1817 89.3691 84.87 89.0184 85.4709 88.5447C86.0718 88.071 86.5736 87.4836 86.9475 86.8161C87.3214 86.1485 87.5601 85.4138 87.6501 84.6539C87.7401 83.8941 87.6795 83.124 87.4718 82.3875L82.4115 64.4428C82.2852 63.9969 81.9872 63.6194 81.5829 63.3929C81.1786 63.1665 80.701 63.1097 80.2548 63.2349L80.1964 63.2528ZM85.2287 83.0201C85.3533 83.462 85.3896 83.9241 85.3357 84.38C85.2817 84.8359 85.1384 85.2767 84.9141 85.6772C84.6897 86.0778 84.3887 86.4302 84.0282 86.7144C83.6676 86.9986 83.2546 87.209 82.8127 87.3336L65.9893 92.0775L64.5052 86.8137L66.3089 86.4958L66.32 86.4936C67.0013 86.3716 67.6557 86.1299 68.2528 85.7797C70.525 84.4277 71.5631 81.7869 70.836 79.2084C70.1089 76.6298 67.8441 74.9206 65.2004 74.9548C64.5083 74.9681 63.8241 75.1038 63.1793 75.3558L61.4648 76.0308L60.1475 71.3593L66.0962 70.0148L66.9236 68.4513L65.8666 65.7672C65.7143 65.3803 65.6313 64.9697 65.6214 64.554C65.601 62.9797 66.6281 61.6285 68.1771 61.1917C69.7261 60.7548 71.3076 61.3703 72.1129 62.7235C72.3216 63.0831 72.4654 63.4767 72.5376 63.8862L73.0385 66.727L74.5608 67.628L80.3356 65.6665L85.2287 83.0201Z" fill="#818CF8" stroke="#818CF8"/>
<path d="M51.8202 74.5466L51.5371 69.1691L53.0725 69.3236C53.7614 69.3911 54.4569 69.336 55.1266 69.1609C57.6804 68.4764 59.3963 66.2165 59.3963 63.5374C59.3962 60.8583 57.6803 58.5984 55.1265 57.914C54.4568 57.739 53.7615 57.6839 53.0726 57.7514L51.5371 57.9058L51.8201 52.5284L51.8218 52.4671C51.8212 52.0037 51.6369 51.5594 51.3092 51.2317C50.9815 50.904 50.5373 50.7197 50.0738 50.7192L43.3168 50.7194L41.7952 52.5284L42.4693 55.0997C42.5109 55.5134 42.4794 55.9312 42.376 56.334C41.9684 57.8547 40.6132 58.8765 39.0037 58.8765C37.3943 58.8765 36.0393 57.8549 35.6313 56.3341C35.5279 55.931 35.4963 55.5129 35.5379 55.0988L35.8497 52.0013L34.6903 50.7195L27.3506 50.7195C27.1211 50.7195 26.8938 50.7647 26.6817 50.8526C26.4696 50.9404 26.2769 51.0692 26.1146 51.2315C25.9523 51.3938 25.8235 51.5865 25.7357 51.7986C25.6478 52.0107 25.6026 52.238 25.6026 52.4675L25.6025 70.5292C25.6025 71.2944 25.7532 72.0521 26.046 72.759C26.3388 73.4659 26.768 74.1082 27.3091 74.6492C27.8501 75.1903 28.4924 75.6195 29.1993 75.9123C29.9063 76.2051 30.6639 76.3558 31.4291 76.3558L50.0737 76.3556C50.5371 76.355 50.9813 76.1707 51.309 75.843C51.6367 75.5153 51.821 75.0711 51.8216 74.6077L51.8202 74.5466ZM31.429 74.0252C30.9699 74.0252 30.5153 73.9348 30.0912 73.7591C29.667 73.5834 29.2816 73.3259 28.957 73.0013C28.6324 72.6766 28.3749 72.2912 28.1992 71.8671C28.0235 71.4429 27.9331 70.9883 27.9331 70.5292L27.9331 53.0497L33.4021 53.05L33.2186 54.8722L33.2177 54.8835C33.1502 55.5724 33.2052 56.2678 33.3803 56.9375C34.0648 59.4913 36.3247 61.2072 39.0038 61.2072C41.683 61.2072 43.9427 59.4913 44.6272 56.9375C44.8023 56.2678 44.8574 55.5724 44.7899 54.8835L44.6055 53.0501L49.4592 53.0501L49.1387 59.1404L50.419 60.3611L53.2892 60.0722C53.7029 60.0306 54.1207 60.0622 54.5235 60.1655C56.0442 60.5731 57.0659 61.9283 57.066 63.5378C57.066 65.1472 56.0444 66.5023 54.5235 66.9101C54.1207 67.0135 53.7029 67.045 53.2892 67.0033L50.419 66.7145L49.1387 67.9351L49.4592 74.0255L31.429 74.0252Z" fill="#818CF8" stroke="#818CF8"/>
<path d="M91.9166 81.233L94.7278 84.7764L97.0109 86.4279L95.5081 98.6249L88.1689 99.2937L84.3644 99.2817L82.0204 98.5361L80.9808 97.0886L80.3513 94.3723L79.8135 90.5L79.41 88.4204L74.5544 87.4669L72.6745 84.1905L75.275 81.6183L86.0223 82.9426L85.4682 80.4384L85.9548 76.4894L88.5198 75.0293L90.7076 75.8064L91.9166 81.233Z" fill="#111827"/>
<path d="M101.46 98.5006L102.791 87.7C102.875 86.55 102.052 85.6106 101.037 85.4716L96.199 84.8756C94.9471 83.6433 94.1487 82.0487 92.9475 80.8173C92.5234 80.3842 92.2109 79.9222 92.0099 79.4314C91.3752 77.6833 92.1186 75.8308 91.09 74.3729C88.8248 73.0519 85.7828 74.1346 84.6982 76.2881C83.8371 78.0498 84.0361 79.9369 84.6247 81.659C81.7697 81.3024 78.9114 80.9737 76.054 80.6371C73.7079 80.5242 71.8575 81.8852 71.5678 84.1086C71.2979 86.352 73.0303 88.2211 75.0833 88.5149L78.4428 88.9289C78.4734 89.6034 78.6179 90.2294 78.8764 90.8069C78.518 92.1651 78.7818 93.5725 79.494 94.6516C78.9685 102.681 89.9973 99.2379 93.9242 99.6012L99.2153 100.253C100.373 100.34 101.321 99.5207 101.46 98.5006ZM94.2545 97.6127C91.1159 97.2944 79.8368 100.709 81.6993 94.0536C80.6425 93.3041 80.4082 91.6176 81.2294 90.6705C80.303 89.5007 80.1637 88.1573 81.3094 87.2529C80.3016 87.1287 79.3056 87.0003 78.3216 86.8677C77.3376 86.7351 76.3416 86.6067 75.3338 86.4825C74.1834 86.3162 73.4883 85.3715 73.6003 84.3591C73.7739 83.1673 74.7745 82.5211 75.8077 82.636C79.7168 83.1174 83.5743 83.5593 87.2003 84.0056C87.1967 81.3462 84.5101 77.4047 87.9551 75.7345C88.4969 75.5466 88.9185 75.4904 89.4401 75.6532C89.5242 75.709 89.5691 75.76 89.5748 75.8062C89.5804 75.8524 89.5882 75.9272 89.5982 76.0307C89.6815 78.1486 89.7422 80.2635 91.1849 81.8364C92.7917 83.4156 93.574 85.6866 95.5012 86.8018L95.5852 86.8122L94.2544 97.6127L94.2545 97.6127Z" fill="#FFD761"/>
</svg>
