<svg width="119" height="119" viewBox="0 0 119 119" fill="none" xmlns="http://www.w3.org/2000/svg">
<path d="M33.3613 68.4651C33.1853 68.4659 33.011 68.4316 32.8485 68.3641C32.6859 68.2966 32.5385 68.1974 32.4149 68.0722C32.1641 67.8211 32.0232 67.4807 32.0232 67.1258C32.0232 66.7709 32.1641 66.4305 32.4149 66.1793L38.6113 59.9829L32.4149 53.7865C32.1783 53.5326 32.0495 53.1968 32.0556 52.8498C32.0618 52.5029 32.2023 52.1718 32.4477 51.9264C32.6931 51.6811 33.0241 51.5405 33.3711 51.5344C33.718 51.5283 34.0538 51.6571 34.3077 51.8936L41.4506 59.0365C41.7014 59.2876 41.8423 59.628 41.8423 59.9829C41.8423 60.3378 41.7014 60.6782 41.4506 60.9293L34.3077 68.0722C34.1841 68.1974 34.0367 68.2966 33.8741 68.3641C33.7116 68.4316 33.5373 68.4659 33.3613 68.4651Z" fill="#FFC800"/>
<path d="M40.5041 61.3226H20.8613C20.5061 61.3226 20.1654 61.1815 19.9142 60.9303C19.6631 60.6792 19.522 60.3385 19.522 59.9833C19.522 59.6281 19.6631 59.2875 19.9142 59.0363C20.1654 58.7851 20.5061 58.644 20.8613 58.644H40.5041C40.8593 58.644 41.2 58.7851 41.4511 59.0363C41.7023 59.2875 41.8434 59.6281 41.8434 59.9833C41.8434 60.3385 41.7023 60.6792 41.4511 60.9303C41.2 61.1815 40.8593 61.3226 40.5041 61.3226Z" fill="#FFC800"/>
<path d="M80.6207 81.4285C82.5932 81.4285 84.1922 79.8295 84.1922 77.8571C84.1922 75.8846 82.5932 74.2856 80.6207 74.2856C78.6483 74.2856 77.0493 75.8846 77.0493 77.8571C77.0493 79.8295 78.6483 81.4285 80.6207 81.4285Z" fill="#818CF8"/>
<path d="M80.6207 45.7141C82.5932 45.7141 84.1922 44.1152 84.1922 42.1427C84.1922 40.1703 82.5932 38.5713 80.6207 38.5713C78.6483 38.5713 77.0493 40.1703 77.0493 42.1427C77.0493 44.1152 78.6483 45.7141 80.6207 45.7141Z" fill="#818CF8"/>
<path d="M93.1207 52.8571C91.5414 52.8618 90.0083 53.3903 88.7616 54.3598C87.5149 55.3292 86.625 56.6849 86.2314 58.2143H78.5814C78.3285 57.2072 77.8573 56.2681 77.201 55.4635C76.5448 54.6588 75.7197 54.0082 74.7841 53.5579C73.8486 53.1076 72.8254 52.8685 71.7871 52.8576C70.7489 52.8466 69.7209 53.0641 68.7761 53.4946L63.1028 46.4054C64.036 45.1798 64.5439 43.6832 64.5493 42.1429C64.5493 40.7301 64.1303 39.3491 63.3455 38.1745C62.5606 36.9999 61.4451 36.0843 60.1399 35.5437C58.8347 35.0031 57.3985 34.8616 56.0129 35.1373C54.6273 35.4129 53.3546 36.0932 52.3556 37.0921C51.3567 38.091 50.6764 39.3638 50.4008 40.7494C50.1252 42.1349 50.2666 43.5711 50.8073 44.8763C51.3479 46.1815 52.2634 47.2971 53.4381 48.0819C54.6127 48.8668 55.9937 49.2857 57.4064 49.2857C58.4133 49.2834 59.4081 49.066 60.3243 48.6482L65.9957 55.7375C65.0582 56.9607 64.5501 58.4589 64.5501 60C64.5501 61.5411 65.0582 63.0393 65.9957 64.2625L60.3243 71.3518C59.4081 70.934 58.4133 70.7166 57.4064 70.7143C55.9937 70.7143 54.6127 71.1332 53.4381 71.9181C52.2634 72.7029 51.3479 73.8185 50.8073 75.1237C50.2666 76.4289 50.1252 77.8651 50.4008 79.2506C50.6764 80.6362 51.3567 81.909 52.3556 82.9079C53.3546 83.9069 54.6273 84.5871 56.0129 84.8628C57.3985 85.1384 58.8347 84.9969 60.1399 84.4563C61.4451 83.9157 62.5606 83.0001 63.3455 81.8255C64.1303 80.6509 64.5493 79.2699 64.5493 77.8571C64.544 76.3167 64.0362 74.8201 63.1028 73.5946L68.7743 66.5054C69.7192 66.9362 70.7473 67.154 71.7858 67.1432C72.8243 67.1324 73.8477 66.8934 74.7835 66.443C75.7193 65.9927 76.5446 65.342 77.2009 64.5372C77.8573 63.7323 78.3286 62.793 78.5814 61.7857H86.2314C86.5677 63.076 87.259 64.2461 88.2269 65.1633C89.1948 66.0804 90.4004 66.7078 91.7069 66.9741C93.0134 67.2405 94.3684 67.1352 95.6181 66.6702C96.8677 66.2051 97.962 65.399 98.7765 64.3433C99.5911 63.2877 100.093 62.0248 100.226 60.698C100.359 59.3713 100.117 58.0339 99.5282 56.8376C98.9392 55.6414 98.0265 54.6343 96.8939 53.9307C95.7613 53.2271 94.4541 52.8552 93.1207 52.8571V52.8571ZM53.835 42.1429C53.835 41.4365 54.0444 40.746 54.4369 40.1587C54.8293 39.5714 55.3871 39.1136 56.0397 38.8433C56.6923 38.573 57.4104 38.5023 58.1032 38.6401C58.796 38.7779 59.4323 39.118 59.9318 39.6175C60.4313 40.117 60.7714 40.7533 60.9092 41.4461C61.047 42.1389 60.9763 42.857 60.706 43.5096C60.4357 44.1622 59.9779 44.72 59.3906 45.1124C58.8033 45.5048 58.1128 45.7143 57.4064 45.7143C56.4595 45.7133 55.5516 45.3368 54.8821 44.6672C54.2125 43.9976 53.8359 43.0898 53.835 42.1429V42.1429ZM57.4064 81.4286C56.7 81.4286 56.0095 81.2191 55.4222 80.8267C54.8349 80.4342 54.3772 79.8765 54.1068 79.2239C53.8365 78.5713 53.7658 77.8532 53.9036 77.1604C54.0414 76.4676 54.3816 75.8312 54.881 75.3318C55.3805 74.8323 56.0169 74.4921 56.7097 74.3543C57.4024 74.2165 58.1205 74.2873 58.7731 74.5576C59.4257 74.8279 59.9835 75.2856 60.3759 75.873C60.7684 76.4603 60.9778 77.1508 60.9778 77.8571C60.9769 78.8041 60.6003 79.7119 59.9307 80.3815C59.2612 81.0511 58.3533 81.4276 57.4064 81.4286ZM71.6921 63.5714C70.9858 63.5714 70.2953 63.362 69.7079 62.9695C69.1206 62.5771 68.6629 62.0193 68.3926 61.3667C68.1222 60.7141 68.0515 59.996 68.1893 59.3033C68.3271 58.6105 68.6673 57.9741 69.1667 57.4746C69.6662 56.9751 70.3026 56.635 70.9954 56.4972C71.6882 56.3594 72.4063 56.4301 73.0589 56.7004C73.7114 56.9707 74.2692 57.4285 74.6617 58.0158C75.0541 58.6031 75.2636 59.2936 75.2636 60C75.2626 60.9469 74.886 61.8548 74.2165 62.5243C73.5469 63.1939 72.639 63.5705 71.6921 63.5714V63.5714ZM93.1207 63.5714C92.4143 63.5714 91.7238 63.362 91.1365 62.9695C90.5492 62.5771 90.0914 62.0193 89.8211 61.3667C89.5508 60.7141 89.4801 59.996 89.6179 59.3033C89.7557 58.6105 90.0958 57.9741 90.5953 57.4746C91.0948 56.9751 91.7312 56.635 92.4239 56.4972C93.1167 56.3594 93.8348 56.4301 94.4874 56.7004C95.14 56.9707 95.6978 57.4285 96.0902 58.0158C96.4827 58.6031 96.6921 59.2936 96.6921 60C96.6912 60.9469 96.3146 61.8548 95.645 62.5243C94.9755 63.1939 94.0676 63.5705 93.1207 63.5714V63.5714Z" fill="#818CF8"/>
</svg>
