<svg width="119" height="119" viewBox="0 0 119 119" fill="none" xmlns="http://www.w3.org/2000/svg">
<path d="M27.6325 67.5462V30.5292C27.6325 28.6084 28.3955 26.7662 29.7538 25.4079C31.112 24.0497 32.9542 23.2866 34.8751 23.2866H84.1248C86.0457 23.2866 87.8879 24.0497 89.2461 25.4079C90.6044 26.7662 91.3674 28.6084 91.3674 30.5292V67.5462M27.6325 67.5462H91.3674M27.6325 67.5462L22.2729 86.5001C21.9685 87.577 21.9178 88.7098 22.1248 89.8096C22.3318 90.9094 22.7908 91.9463 23.4659 92.8389C24.1409 93.7314 25.0136 94.4555 26.0155 94.9541C27.0174 95.4527 28.1212 95.7124 29.2403 95.7127H89.7596C90.8787 95.7124 91.9825 95.4527 92.9844 94.9541C93.9862 94.4555 94.8589 93.7314 95.534 92.8389C96.2091 91.9463 96.6681 90.9094 96.8751 89.8096C97.082 88.7098 97.0313 87.577 96.7269 86.5001L91.3674 67.5462" stroke="#818CF8" stroke-width="4"/>
<path d="M55.8785 84.8491H63.1211" stroke="#818CF8" stroke-width="4" stroke-linecap="round" stroke-linejoin="round"/>
<path d="M54.5125 50.7479C54.2273 50.7483 53.952 50.6438 53.7389 50.4543L47.8438 45.2139L54.0663 39.6823C54.2982 39.4839 54.5988 39.3844 54.9033 39.4053C55.2078 39.4261 55.492 39.5657 55.6947 39.7939C55.8974 40.0221 56.0024 40.3207 55.9872 40.6255C55.9721 40.9304 55.8379 41.2171 55.6135 41.424L51.3506 45.2139L55.2861 48.7114C55.4629 48.8683 55.5878 49.0753 55.6442 49.3048C55.7006 49.5344 55.6859 49.7756 55.602 49.9966C55.518 50.2176 55.3689 50.4078 55.1743 50.542C54.9797 50.6762 54.7489 50.748 54.5125 50.7479V50.7479ZM64.9339 50.7456L71.1564 45.2139L65.2613 39.9735C65.0303 39.7684 64.7273 39.6634 64.4189 39.6816C64.1105 39.6999 63.822 39.8399 63.6168 40.0708C63.4116 40.3018 63.3066 40.6048 63.3248 40.9132C63.3431 41.2216 63.4831 41.5101 63.7141 41.7153L67.6496 45.2139L63.3867 49.0027C63.1556 49.2079 63.0154 49.4964 62.9971 49.8049C62.9787 50.1135 63.0837 50.4166 63.2888 50.6477C63.494 50.8789 63.7826 51.019 64.0911 51.0374C64.3996 51.0557 64.7028 50.9508 64.9339 50.7456V50.7456ZM59.4838 52.3965L61.8139 38.4159C61.8437 38.2631 61.8425 38.1059 61.8106 37.9535C61.7786 37.8012 61.7164 37.6568 61.6277 37.5289C61.5389 37.4009 61.4255 37.2921 61.294 37.2088C61.1625 37.1255 61.0156 37.0693 60.8621 37.0437C60.7085 37.0181 60.5514 37.0235 60.4 37.0596C60.2486 37.0958 60.1059 37.1619 59.9805 37.2541C59.855 37.3462 59.7493 37.4626 59.6696 37.5963C59.5899 37.73 59.5378 37.8784 59.5164 38.0326L57.1863 52.0132C57.1565 52.166 57.1576 52.3232 57.1896 52.4755C57.2216 52.6279 57.2838 52.7723 57.3725 52.9002C57.4612 53.0281 57.5747 53.1369 57.7062 53.2203C57.8377 53.3036 57.9845 53.3597 58.1381 53.3853C58.2916 53.411 58.4488 53.4055 58.6002 53.3694C58.7516 53.3333 58.8942 53.2672 59.0197 53.175C59.1451 53.0828 59.2508 52.9664 59.3305 52.8327C59.4102 52.699 59.4624 52.5507 59.4838 52.3965V52.3965Z" fill="#FFD761"/>
</svg>
