<svg width="119" height="119" viewBox="0 0 119 119" fill="none" xmlns="http://www.w3.org/2000/svg">
<path d="M63.0001 80.5003H27.9992C27.0709 80.5003 26.1807 80.1315 25.5243 79.4751C24.8679 78.8187 24.4991 77.9285 24.4991 77.0002V31.4991C24.4991 30.5708 24.8679 29.6806 25.5243 29.0242C26.1807 28.3678 27.0709 27.999 27.9992 27.999H91.0007C91.929 27.999 92.8193 28.3678 93.4757 29.0242C94.1321 29.6806 94.5008 30.5708 94.5008 31.4991V77.0002C94.5008 77.9285 94.1321 78.8187 93.4757 79.4751C92.8193 80.1315 91.929 80.5003 91.0007 80.5003H77.0004M38.4995 41.9994H80.5005M38.4995 54.2497H48.9997M38.4995 66.4999H45.4996" stroke="#818CF8" stroke-width="4" stroke-linecap="round" stroke-linejoin="round"/>
<path d="M70.0003 75.2486C72.7851 75.2486 75.4559 74.1423 77.4251 72.1731C79.3942 70.2039 80.5005 67.5331 80.5005 64.7483C80.5005 61.9635 79.3942 59.2927 77.4251 57.3235C75.4559 55.3543 72.7851 54.248 70.0003 54.248C67.2154 54.248 64.5446 55.3543 62.5755 57.3235C60.6063 59.2927 59.5 61.9635 59.5 64.7483C59.5 67.5331 60.6063 70.2039 62.5755 72.1731C64.5446 74.1423 67.2154 75.2486 70.0003 75.2486V75.2486Z" stroke="#FFD761" stroke-width="4"/>
<path d="M70.0002 87.5L77.0003 91.0001V72.5757C77.0003 72.5757 75.0053 75.2497 70.0002 75.2497C64.995 75.2497 63 72.6247 63 72.6247V91.0001L70.0002 87.5Z" stroke="#FFD761" stroke-width="4" stroke-linecap="round" stroke-linejoin="round"/>
</svg>
