<?xml version="1.0" encoding="UTF-8"?><svg id="a" xmlns="http://www.w3.org/2000/svg" viewBox="0 0 970 720"><g><path d="M76.24,480.38c-.04-.36-.08-.72-.12-1.08-15.62-149.14,72.84-298.33,213.16-352.94,128.26-49.92,303.68-71.19,417.26,23.09,48.55,40.3,82.32,97.51,95.86,159.01,8.62,39.18,11.1,80.22,3.21,119.74-6.39,32.03-23.77,89.96-58.05,101.69-12.09,4.14-25.27,3.02-37.99,1.86-78.05-7.14-154.35-14.67-232.65-12.57-67.8,1.82-135.49,8-202.5,18.52-30.15,4.73-60.13,9.11-90.07,14.22-25.43,4.34-55.46,9.29-78.17-6.45-20.25-14.05-27.24-40.5-29.94-65.07Z" fill="#1f2937"/><g><g><line x1="244.69" y1="206.78" x2="757.11" y2="206.78" fill="none" stroke="#4b5563" stroke-miterlimit="10" stroke-width="2"/><rect x="244.69" y="169.8" width="512.42" height="349.02" rx="7.37" ry="7.37" fill="none" stroke="#fff" stroke-miterlimit="10" stroke-width="2"/><rect x="244.69" y="169.8" width="512.42" height="349.02" rx="7.37" ry="7.37" fill="none" stroke="#4b5563" stroke-miterlimit="10" stroke-width="2"/><g><circle cx="275.63" cy="188.67" r="5.16" fill="#fe9184"/><circle cx="295.68" cy="188.67" r="5.16" fill="#fad780"/><circle cx="315.74" cy="188.67" r="5.16" fill="#00c77d"/></g></g><g><g><rect x="580.09" y="387.95" width="226.05" height="106.81" rx="6.96" ry="6.96" fill="#374151"/><rect x="580.09" y="387.95" width="226.05" height="106.81" rx="6.96" ry="6.96" fill="none" stroke="#4b5563" stroke-miterlimit="10" stroke-width="2"/></g><g><g><rect x="601.2" y="406.68" width="85.19" height="66.96" rx="9.89" ry="9.89" transform="translate(1287.6 880.33) rotate(180)" fill="#374151"/><g><path d="M632.45,435.39c0-7.41,6.03-13.44,13.44-13.44s13.44,6.03,13.44,13.44-6.03,13.44-13.44,13.44-13.44-6.03-13.44-13.44Zm3.05,0c0,5.73,4.66,10.39,10.39,10.39s10.39-4.66,10.39-10.39-4.66-10.39-10.39-10.39-10.39,4.66-10.39,10.39Z" fill="#fdfdf3"/><rect x="632.69" y="444.3" width="5.61" height="3.05" transform="translate(-129.11 579.93) rotate(-45)" fill="#fdfdf3"/><rect x="621.17" y="449.1" width="15.37" height="6.74" rx="2.13" ry="2.13" transform="translate(-135.75 577.19) rotate(-45)" fill="#fdfdf3"/></g></g><g><line x1="702.12" y1="426.6" x2="780.14" y2="426.6" fill="none" stroke="#d1d5db" stroke-miterlimit="10" stroke-width="2"/><line x1="702.12" y1="440.22" x2="740.16" y2="440.22" fill="none" stroke="#d1d5db" stroke-miterlimit="10" stroke-width="2"/><line x1="702.12" y1="453.84" x2="780.14" y2="453.84" fill="none" stroke="#d1d5db" stroke-miterlimit="10" stroke-width="2"/></g></g></g><g><g><rect x="82.13" y="284.05" width="182.86" height="141.71" rx="8.95" ry="8.95" fill="#374151"/><rect x="82.13" y="284.05" width="182.86" height="141.71" rx="8.95" ry="8.95" fill="none" stroke="#4b5563" stroke-miterlimit="10" stroke-width="2"/></g><g><line x1="110.34" y1="343.2" x2="200.56" y2="343.2" fill="none" stroke="#d1d5db" stroke-miterlimit="10" stroke-width="2"/><line x1="110.34" y1="370.44" x2="200.56" y2="370.44" fill="none" stroke="#d1d5db" stroke-miterlimit="10" stroke-width="2"/><line x1="110.34" y1="356.82" x2="148.38" y2="356.82" fill="none" stroke="#d1d5db" stroke-miterlimit="10" stroke-width="2"/></g></g><g><rect x="387.9" y="269.05" width="217.97" height="69.81" rx="5.21" ry="5.21" fill="#6366f1"/><g><line x1="475.15" y1="296.63" x2="581.33" y2="296.63" fill="none" stroke="#fff" stroke-miterlimit="10" stroke-width="2"/><line x1="475.15" y1="310.24" x2="508.8" y2="310.24" fill="none" stroke="#fff" stroke-miterlimit="10" stroke-width="2"/></g><g><circle cx="434.05" cy="303.9" r="4.42" fill="#fff"/><path d="M449.09,300.31c-3.08-3.9-8.67-9.59-15.04-9.59s-11.96,5.69-15.04,9.59c-1.66,2.1-1.66,5.07,0,7.18,1.52,1.93,3.66,4.29,6.2,6.19v-9.79h0c0-4.88,3.96-8.84,8.84-8.84s8.84,3.96,8.84,8.84-3.96,8.84-8.84,8.84c-1.61,0-3.12-.44-4.42-1.19v4.65c1.41,.55,2.89,.88,4.42,.88,6.37,0,11.96-5.69,15.04-9.59,1.66-2.1,1.66-5.07,0-7.18Z" fill="#fff"/></g></g><g><polygon points="640.64 456 662.14 464.95 656.12 468.26 664.04 476.4 658.72 481.48 650.99 472.67 646.67 478.08 640.64 456" fill="#faefeb"/><polygon points="640.72 455.92 662.16 465.02 656.12 468.29 663.99 476.48 658.64 481.52 650.97 472.67 646.61 478.04 640.72 455.92" fill="none" stroke="#4f3b32" stroke-miterlimit="10" stroke-width=".61"/></g></g></g><path d="M540.32,410.11s-8.59,27.44-9.23,72.44c-4.93,4.05-9.75,8.22-38.36,14.87-28.6,6.65-12.61,3.51-29.01,7.73-8.52,2.19-6.56,2.67-6.56,2.67,7.69,10.35,13.09,21.5,10.89,32.41,0,0,36.71-4.79,58.05-12.74,21.34-7.96,41.82-6.53,32.25-44.89-9.57-38.36-18.03-72.48-18.03-72.48Z" fill="#ffd593"/><path d="M537.38,456.7s-2.13,37.19-.86,40.44,3.57,18.39,8.91,22.66l2.83-.36s-3.15-47.13-10.88-62.74Z" fill="#966f22" opacity=".3"/><path d="M641.33,280.45c16.11,15.08,27.61,35.03,32.6,56.52,2.6,11.21,3.46,22.73,4.32,34.21,.76,10.18,1.52,20.37,2.27,30.55,1.72,23.17,3.45,46.35,3.97,69.58,.41,18.08,.09,36.31,3.53,54.06,1.91,9.86,11.06,52.52,12.94,62.38-14.81-.07-45.43-4.21-60.24-4.28-30.68-.14-47.82,9.48-77,0-7.13-19.46-20.86-79.15-24.67-99.52-11.33-60.48,11.8-119.64,40.34-172.07-5.93,13.93-6.19,30.66-4.95,45.74,1.41-10.56,8.69-21.14,15.13-29.62,5.84-7.69,13.37-13.9,20.83-20.02,10.87-8.93,20.05-18.6,30.93-27.53Z" fill="#ffd593"/><path d="M563.73,587.76l-2.58-12.08s159.99,83.33,126.55-48.26l14.42,62.45-138.39-2.11Z" fill="#966f22" opacity=".3"/><g><path d="M734.7,585.51l-652.09-25.76c-.44-.02-.87-.02-1.31-.01l-49.1,1.08c-15.68,.34-18.61,22.48-3.56,26.89l288.21,84.43c1.89,.55,3.87,.69,5.82,.41l413.44-59.74c16.52-2.39,15.26-26.63-1.42-27.29Z" fill="#1f2937"/><path d="M322.68,672.54v-23.39s419.31-61.4,419.31-61.4c0,0,15.69,21.92-5.87,25.04-21.57,3.12-413.44,59.74-413.44,59.74Z" fill="#4b5563"/><path d="M322.68,649.16L26.12,562.26s-12.64,10.72-1.6,23.52l298.16,86.76v-23.39Z" fill="#374151"/></g><path d="M427.83,521.2l32.6-8.33s11.73,17.52,7.41,27.69l-46.8,4.33s8.61-12.77,6.78-23.69Z" fill="#c18465"/><path d="M427.79,520.89s-1.36,.03-3.94,.22c-6.98,.51-22.84,2.18-44.49,7.55-14.63,6.88-26.5,20.13-26.5,20.13,0,0,1.78,6.32,11.96,.37,3.72-2.17,8.52-2.54,13.12-2.14,8.01,.71,15.4,3.76,15.4,3.76,0,0,19.48-3.57,30.07-5.69,10.59-2.12,4.37-24.19,4.37-24.19Z" fill="#c18465"/><path d="M325.9,545.54l128.08,4.59s8.07-.65,12.82,9.81c4.94,10.9,30.1,43.47,30.1,43.47l-199.75-7.74,28.76-50.13Z" fill="#6b7280" stroke="#374151" stroke-miterlimit="10"/><polygon points="342.38 549.82 327.4 585.14 424.4 589.87 412.3 553.16 342.38 549.82" fill="#4b5563"/><path d="M297.13,595.67l-84.38-129.73c-.61-.86-.4-1.55,.55-1.84l39.28-24.28c.63-.17,2.04,.41,2.43,.99l70.88,104.72-27.13,46.63" fill="#1f2937" stroke="#6b7280" stroke-miterlimit="10"/><path d="M295.94,584.84l-75.53-116.15c-.61-.86-.42-1.55,.52-1.84l31.63-21.25c.63-.18,2.05,.39,2.46,.99l65.38,97.57-24.45,40.68Z" fill="#3a3a3a"/><path d="M377.94,547.01s11.85-8.36,26.9-5.54c15.05,2.82,18.58,3.6,18.58,3.6l-10.46,2.03-17.11,.77-12.03,.04-5.87-.91Z" fill="#995334" opacity=".3"/><path d="M631.54,277.49c1.08,1.28,2.19,2.58,2.78,4.15,2.09,5.44-2.53,10.96-6.72,15.01-15.78,15.24-31.09,31.03-44.56,48.35-5.76,7.4-11.45,15.32-19.69,19.81-3.76-5.73,.45-13.08,3.58-19.17,5.88-11.41,7.95-24.34,9.95-37.03,.43-2.76,.87-5.56,.51-8.33-.74-5.68-5.37-10.83-11.06-11.5,5.9-3.7,11.36-8.43,14.63-14.59s4.04-13.91,.78-20.07c-2.23-4.21-25.53-10.35-28.3-14.22-4.98-6.95-77.93-83.86,14.12-32.19,7.45,4.18,18.69,.48,26.03,4.85,6.66,3.97,9.09,12.31,10.47,19.93,3.49,19.23,15.11,30.44,27.46,44.99Z" fill="#c18465"/><path d="M520.27,188.92c-5.15,4.23-2.56,12.38-.38,18.68,5.2,15.03,5.3,31.76,.3,46.85-.52,1.58-1.11,3.26-.66,4.87,1.15,4.16,7.44,3.66,10.93,1.11,1.15,6.04,1.93,6.82,4.37,11.49,1.16,1.85,2.39,1.63,2.71,1.53-.56,.95-.23,2.16,.1,2.72,1.85,3.07,4.61,7.89,4.91,11.41,.21,2.38-.11,4.99,1.22,6.97,2.45,3.65,8.04,2.38,12.09,.68,4.44-1.86,8.93-3.79,13.17-6.09,4.58-2.48,8.87-5.39,12.5-9.12,6.99-7.17,11.02-18.15,7.28-27.45,1.81-7.23-.21-7.15,2.46-14.11s3.06-20.29-2.73-24.98c-3.45-2.79-8.94-6.11-13.35-5.66-8.64,.88-18.67,14.45-8.84,21.22,4.45,3.06,.73,5.33,5.82,9.51-1.12,2.47-4.26-1.18-6-3.26-2.91-3.47-7.83-6.26-7.83-12.18s-6.17-4.91-10.07-9.04c-6.89,3.93-6.11,5.26-12.04-.02-5.93-5.28-9.33-12.77-12.39-20.09-.75-1.79-5.08-3.87-3.57-5.08Z" fill="#c18465"/><path d="M689.94,270.12c4.01,4.18,7.19,8.83,8.96,13.85,4.38,12.42,1.82,29.63-8.04,39.03-6.15,5.86-15.49,7.57-23.79,5.78-8.3-1.79-15.65-6.69-21.82-12.54-3.5-3.32-6.72-7.02-8.94-11.3-3.32-6.41-4.24-13.75-5.1-20.91-1.02-8.45-2.04-16.91-3.06-25.36-9.66-.78-19.15-3.58-27.68-8.19-3.74-2.02-7.6-4.81-8.45-8.97-.49-2.4,.12-4.87,.53-7.29,1.23-7.15,.54-15.07-4-20.73-4.54-5.66-13.69-7.85-19.27-3.23-4.16,3.44-5.27,9.55-4.14,14.82,1.13,5.27,4.12,9.93,7.05,14.46-7.2-4.61-13.71-10.3-19.24-16.82-2.77-3.27-15.66-3.54-18.7-6.55-7.94-7.86-8.76-15.55-15.22-24.66-.69-.97-1.33-2.01-1.6-3.17-.4-1.71,.05-3.51,.7-5.15,2.14-5.31,6.39-9.44,10.52-13.4,9.42-9.02,19.19-18.27,31.38-22.9,8.92-3.39,18.63-4.09,28.17-4.11,8.4-.01,16.99,.52,24.72,3.81,9.16,3.9,16.3,11.31,23.16,18.52,3.31,3.48,6.64,6.99,9.29,10.99,10.03,15.16,8.89,35.32,3.19,52.58-1.37,4.15-5.46,12.19-2.87,16.44,2.04,3.35,8.61,3.67,11.91,4.87,10.6,3.88,23.49,10.86,32.34,20.11Z" fill="#111827"/><path d="M590.67,259.52s2.59,24.42-16.24,33.51c0,0-2.98-2.73-5.72-3.7,1.9-.97,19.51-8.89,22.08-30" fill="#995334"/><path d="M536.12,220.69c-11.4-5.08-14.79,0-14.79,0-.13,.2-.12,.49,.03,.68,.19,.24,.55,.33,.84,.37,.69,.11,1.41,.05,2.1-.03,1.2-.14,2.37-.42,3.54-.68,.6-.13,1.2-.26,1.81-.35s1.19-.07,1.78-.09c.73-.02,1.47-.02,2.2,0,.44,0,.86,.06,1.29,.12,.29,.04,.57,.1,.86,.09,.05,0,.36,0,.34-.11Z" fill="#211f21"/><circle cx="528.95" cy="230.57" r="2.69" fill="#211f21"/><path d="M526.5,229.63c2.48-5.46,10.28,.95,10.28,.95-3.77-.9-7.38-1.53-10.28-.95Z" fill="#211f21"/><path d="M551.4,529.23l-104.96,15.46s-14.24,1.87-22.99,.76c-8.74-1.11-22.33-3.17-38.26,3.2-15.93,6.37-22.61,19.46-22.61,19.46,0,0-.09,4.39,5.24,2.67,4.86-1.57,2.33-10.61,23.06-14.1,0,0-34.28,17.62-24.37,25.31,1.3,1.01,10.52-8.81,13.46-10.86,6.12-4.28,13.67-5.66,13.67-5.66,0,0-14.81,2.84-23.74,17.41-.39,.63-.22,1.47,.38,1.91,1.45,1.04,4.13,2.49,6.06,.7,7.38-6.87,11.3-14.28,21.13-13.31,0,0-11.65,6.5-17.1,13.13-5.45,6.64,9.52,2.86,15.1-1.49s24.12-12.79,34.83-9.81,19.34,2.04,27.32-2.01c7.98-4.05,85.91,6.1,138.33-5.38,52.42-11.48,2.4-.54,2.4-.54,0,0,12.1,2.28,22.52-14.75,10.43-17.03,23.36-51.99,23.36-51.99" fill="#c18465"/><path d="M534.83,271.93s6.63-.66,9.56-4.39c0,0,.02,5.64-6.74,8.63,0,0-.95-1.3-.1-2.72,0,0-1.72,.83-2.71-1.53Z" fill="#a80e2b"/><path d="M694.85,554.7c-11.87-33.51-13.54-69.78-10.9-104.96,1.44-26.48-.33-53.09-3.98-79.33-1.24-8.76-2.69-17.49-4.57-26.14,2.04,8.61,3.66,17.32,5.06,26.06,4.01,26.26,5.87,52.9,4.5,79.46-.48,8.86-1.19,17.65-1.23,26.49-.05,26.44,2.76,53.23,11.13,78.42h0Z" fill="#0c0801"/><path d="M534.83,433.89c3.55-18.1,7.74-36.09,13.32-53.68,6.12-17.41,14.07-34.12,22.04-50.74,0,0-5.52,12.68-5.52,12.68-5.39,12.7-11.16,25.3-15.58,38.38-5.68,17.51-9.95,35.48-14.27,53.37h0Z" fill="#0c0801"/><path d="M624.67,299.5c-13.39,14.63-29.42,31.6-41.97,46.72-2.59,2.36-17.46,25.86-18.96,14.56-.36-3.15,0-6.31,.35-9.43-.18,3.12-.44,6.28,.02,9.38,.7,4.94,4.12,1.73,6.15-.36,4.31-4.57,7.69-9.88,11.72-14.71,13.31-16.2,27.84-31.35,42.68-46.14h0Z" fill="#0c0801"/><path d="M615.48,258.16s9.93,13.26,16.05,19.33" fill="none" stroke="#0c0801" stroke-miterlimit="10"/><path d="M565.92,290.76c3.96-2.64,8.7,.35,10.44,4.25,1.72,3.75,2.15,7.86,1.73,11.9-.62-1.9-1.01-3.79-1.59-5.69-1.38-5.15-4.15-11.71-10.57-10.46h0Z" fill="#0c0801"/><path d="M576.2,221.81c1.79-2.17,5.25-4.11,7.87-2.03,2.29,2.1,2.26,5.5,2.02,8.23-.2,1.8-.62,3.56-1.28,5.25-.17-1.81-.19-3.57-.28-5.29-.36-6.49-1.46-9.37-8.33-6.16h0Z" fill="#0c0801"/><g><path d="M482.72,570.1c5.12-21.37-.13-28.92-.13-28.92l-4.48,.63" fill="#995334" opacity=".3"/><path d="M481.29,579.13s-3.87-2.51-4.06-8.01c0,0,3.9-1.02,6.09,.18l-2.03,7.84Z" fill="#966f22"/><path d="M635.46,345.46s18.92,4.5,24.82,33.85,4.81,74.2-2.85,110.26c-7.66,36.05,3.97,71.76-77.23,82.41-76.01,9.97-88.45,6.07-98.86,7.21,0,0,7.37-38.16-4.68-41.48,0,0,85.03-13.09,105.39-25.58s-22.03-133.83,19.23-159.13c0,0,15.92-14.2,34.19-7.54Z" fill="#ffd593"/><path d="M481.02,541.13l-4.48,.63s-1.64-3.84,.37-4.12,3.23,1.45,4.11,3.48Z" fill="#966f22"/><path d="M587.86,503.7c1.22-7.37,.38-14.84,.04-22.25-.39-7.43-.86-14.85-1.72-22.22-1.68-14.76-5.57-29.37-5.04-44.35,.2-7.46,.83-14.86,.68-22.29-.01-3.72,.07-7.51,.96-11.19,.87-3.67,2.38-7.13,3.96-10.5,3.16-6.73,7.21-13.29,13.09-17.98,5.74-4.43,12.52-9.13,20.07-8.74-3.74-.29-7.35,1.15-10.63,2.81-3.29,1.72-6.35,3.86-9.17,6.25-5.73,4.75-9.64,11.25-12.69,17.97-1.54,3.37-2.95,6.81-3.79,10.38-.85,3.57-.92,7.28-.9,10.99,.18,7.45-.42,14.91-.58,22.32-.59,14.92,3.3,29.47,4.81,44.24,.77,7.41,1.14,14.85,1.44,22.29,.17,7.41,.85,14.93-.54,22.28h0Z" fill="#0c0801"/><path d="M657.91,487.23c-1.74,14.23-3.08,28.58-6.51,42.54-3.94,14.21-15.98,24.38-28.82,30.62-21.68,10.63-46.01,13.15-69.53,16.97-4.74,.67-9.55,1.09-14.34,1.12-19.14-.15-38.24,.11-57.37,.71,9.55-.45,19.11-.91,28.67-1.16,9.55-.3,19.14-.26,28.68-.38,9.56-.09,18.97-1.88,28.38-3.43,18.52-3.12,38.18-6.17,55.11-14.62,12.67-6.14,24.64-16,28.65-29.99,3.51-13.87,5.14-28.21,7.07-42.38h0Z" fill="#0c0801"/><path d="M638.89,346.81c9.43,4.66,15.95,13.83,19.58,23.5,2.84,7.3,3.75,15.25,4.16,23.03,1.22,23.29,2.22,46.91-.96,70.07,2.33-23.23,1.15-46.74,0-70.02-.35-7.71-1.26-15.55-3.93-22.82-3.45-9.64-9.72-18.77-18.87-23.76h0Z" fill="#0c0801"/><path d="M476.65,537.66c25.36-4.93,53.23-10.05,78.19-16.07,8.56-2.19,17.32-4.08,25.33-7.93-2.88,1.68-6.03,2.83-9.16,3.96-13.68,4.62-27.84,7.68-41.93,10.72-17.39,3.56-34.86,6.75-52.43,9.32h0Z" fill="#0c0801"/></g><path d="M468.22,537.56c1.62-10.52-6.03-22.33-12.04-30.5,0,0,.46-.13,.46-.13l17.32-4.92c6.03-1.7,20.15-5.63,25.96-7.41,8.56-2.79,17.01-5.9,25.47-8.97-16.64,6.95-33.73,12.73-51.17,17.3-5.79,1.58-11.58,3.16-17.41,4.62l.17-.51c5.85,8.23,13.15,20.07,11.25,30.51h0Z" fill="#0c0801"/><g><g><path d="M256.01,450.62l60.11,87.33c2.35,3.42,3.93,6.77,3.51,7.47l-22.68,37.75c-.55,.92-3.14-1.7-5.76-5.82l-65.76-103.73c-2.06-3.25-3.16-6.27-2.47-6.76l28.61-20.55c.54-.39,2.51,1.54,4.43,4.32Z" fill="#2b454e"/><path d="M256.01,450.62l1.93,2.81-30.42,23.48-2.09-3.29c-2.06-3.25-3.16-6.27-2.47-6.76l28.61-20.55c.54-.39,2.51,1.54,4.43,4.32Z" fill="#00c77d"/></g><g><path d="M226.45,471.02c.81,1.26,1.24,2.45,.98,2.66-.27,.2-1.14-.67-1.94-1.94-.8-1.27-1.24-2.45-.97-2.64s1.13,.67,1.94,1.93Z" fill="#a8a8a8"/><path d="M228.4,469.57c.8,1.25,1.24,2.43,.98,2.63-.26,.2-1.13-.66-1.93-1.92-.8-1.25-1.23-2.42-.97-2.62,.26-.19,1.12,.66,1.92,1.91Z" fill="#ececec"/><path d="M230.32,468.14c.8,1.24,1.24,2.41,.98,2.6s-1.12-.66-1.92-1.9c-.8-1.24-1.23-2.4-.97-2.59,.26-.19,1.11,.66,1.91,1.89Z" fill="#fff"/></g><g><path d="M238.5,487.53l-.49,.42c-.14,.12-.44-.09-.68-.46l-.31-.49c-.24-.37-.32-.77-.18-.89l.49-.41c.14-.12,.44,.09,.68,.46l.31,.49c.24,.37,.32,.77,.18,.89Z" fill="#ececec"/><path d="M251.45,476.49l-11.74,10.01c-.14,.12-.44-.09-.68-.46l-.31-.48c-.24-.37-.32-.76-.18-.88l11.78-9.9c.12-.1,.41,.09,.64,.44l.3,.45c.23,.35,.32,.71,.19,.82Z" fill="#ececec"/><path d="M262.26,467.28l-2.78,2.37c-.11,.1-.39-.09-.62-.43l-.29-.44c-.22-.33-.31-.68-.2-.78l2.79-2.35c.11-.09,.38,.09,.61,.42l.29,.43c.22,.33,.31,.67,.2,.76Z" fill="#ececec"/><path d="M253.65,474.62l-1.21,1.03c-.12,.1-.41-.09-.64-.44l-.3-.45c-.23-.35-.31-.71-.19-.81l1.22-1.02c.12-.1,.4,.09,.63,.43l.3,.45c.23,.34,.32,.7,.19,.81Z" fill="#ffc800"/><path d="M271.65,495.35l-1.13,1.16c-.11,.12-.4-.08-.64-.44l-.31-.47c-.24-.36-.34-.74-.23-.86l1.14-1.15c.11-.11,.4,.08,.64,.44l.31,.47c.24,.36,.34,.74,.23,.86Z" fill="#ececec"/><path d="M258.66,470.35l-4.08,3.48c-.12,.1-.4-.09-.63-.43l-.3-.45c-.23-.34-.31-.7-.19-.8l4.1-3.44c.12-.1,.39,.09,.62,.43l.29,.44c.23,.33,.31,.68,.2,.78Z" fill="#a8a8a8"/><path d="M242.63,491.61l-.48,.43c-.14,.12-.44-.09-.68-.46l-.31-.49c-.24-.38-.32-.78-.19-.9l.48-.42c.14-.12,.44,.09,.68,.46l.31,.49c.24,.37,.32,.77,.19,.89Z" fill="#ececec"/><path d="M250.37,484.77l-6.57,5.81c-.13,.12-.44-.09-.68-.46l-.31-.49c-.24-.37-.32-.77-.19-.89l6.59-5.75c.13-.11,.42,.09,.66,.45l.31,.47c.23,.36,.32,.74,.2,.85Z" fill="#a8a8a8"/><path d="M269.74,497.32l-1.94,2c-.12,.12-.41-.08-.65-.44l-.32-.48c-.24-.36-.34-.76-.22-.88l1.95-1.98c.12-.12,.4,.08,.64,.44l.31,.47c.24,.36,.34,.75,.23,.87Z" fill="#a8a8a8"/><path d="M258.68,500.4l-6.15,6.09c-.13,.13-.44-.08-.69-.46l-.32-.51c-.25-.39-.34-.81-.21-.93l6.17-6.03c.13-.12,.42,.08,.67,.45l.32,.49c.24,.37,.34,.78,.22,.9Z" fill="#a8a8a8"/><path d="M251.23,491.62l-4.25,3.91c-.13,.12-.44-.08-.68-.46l-.32-.49c-.24-.38-.33-.78-.19-.9l4.26-3.86c.13-.12,.43,.09,.67,.45l.31,.48c.24,.37,.33,.76,.2,.88Z" fill="#ffc800"/><path d="M260.31,483.28l-8.1,7.44c-.13,.12-.42-.08-.66-.45l-.31-.48c-.24-.37-.33-.76-.2-.87l8.13-7.36c.12-.11,.4,.09,.64,.44l.3,.46c.23,.35,.33,.72,.21,.83Z" fill="#a8a8a8"/><path d="M266.82,500.33l-10.99,11.31c-.13,.13-.44-.07-.69-.47l-.33-.51c-.25-.39-.35-.82-.22-.95l11.03-11.19c.12-.12,.41,.08,.65,.44l.32,.48c.24,.37,.34,.76,.23,.88Z" fill="#ffc800"/><path d="M262.93,473.66l-5.63,4.98c-.12,.11-.4-.09-.63-.44l-.3-.45c-.23-.35-.32-.71-.2-.81l5.65-4.93c.11-.1,.39,.09,.62,.42l.3,.44c.23,.33,.32,.69,.21,.79Z" fill="#ffc800"/><path d="M256.51,479.34l-5.25,4.65c-.13,.11-.42-.09-.65-.45l-.31-.47c-.23-.36-.32-.74-.19-.85l5.27-4.6c.12-.11,.41,.09,.64,.44l.3,.45c.23,.35,.32,.71,.2,.82Z" fill="#ececec"/><path d="M262.82,480.97l-1.4,1.28c-.12,.11-.4-.09-.63-.43l-.3-.45c-.23-.35-.32-.71-.21-.82l1.4-1.27c.12-.11,.4,.09,.63,.43l.3,.45c.23,.34,.33,.71,.21,.82Z" fill="#ececec"/><path d="M245.82,496.59l-.48,.44c-.14,.12-.44-.08-.69-.46l-.32-.5c-.24-.38-.33-.79-.19-.91l.48-.43c.14-.12,.44,.08,.68,.46l.32,.49c.24,.38,.33,.79,.2,.91Z" fill="#ececec"/><path d="M264.92,510.68l-4.86,5.2c-.13,.14-.44-.07-.69-.47l-.33-.52c-.25-.39-.35-.82-.22-.96l4.88-5.14c.12-.13,.43,.07,.67,.46l.33,.5c.25,.38,.35,.8,.23,.93Z" fill="#ececec"/><path d="M277.09,505.94l-4.95,5.5c-.12,.13-.42-.07-.66-.45l-.33-.5c-.25-.38-.36-.79-.24-.92l4.97-5.44c.11-.12,.4,.07,.65,.44l.32,.48c.25,.37,.35,.76,.24,.89Z" fill="#ffc800"/><path d="M271.8,503.33l-6.01,6.43c-.12,.13-.42-.07-.67-.45l-.33-.5c-.25-.38-.35-.79-.23-.92l6.04-6.36c.12-.12,.41,.08,.65,.44l.32,.48c.24,.37,.35,.76,.23,.89Z" fill="#ffc800"/><path d="M271.27,512.4l-5.49,6.1c-.12,.14-.43-.07-.69-.46l-.33-.52c-.25-.39-.36-.82-.23-.96l5.51-6.03c.12-.13,.42,.07,.67,.45l.33,.5c.25,.38,.36,.79,.24,.93Z" fill="#ececec"/><path d="M264.98,519.39l-1.55,1.72c-.13,.14-.44-.07-.7-.47l-.34-.52c-.26-.4-.36-.83-.23-.97l1.56-1.71c.13-.14,.43,.07,.69,.46l.33,.52c.25,.39,.36,.83,.23,.97Z" fill="#a8a8a8"/><path d="M278.94,503.88l-.95,1.05c-.11,.12-.4-.07-.64-.44l-.32-.48c-.24-.36-.35-.76-.24-.88l.95-1.04c.11-.12,.4,.07,.64,.44l.32,.47c.24,.36,.35,.75,.24,.88Z" fill="#a8a8a8"/><path d="M266,493.15l-6.51,6.44c-.12,.12-.42-.08-.67-.45l-.32-.49c-.24-.37-.34-.77-.21-.89l6.53-6.38c.12-.11,.4,.08,.64,.44l.31,.47c.24,.36,.34,.74,.22,.86Z" fill="#ececec"/><path d="M271.33,487.87l-4.56,4.52c-.12,.11-.4-.08-.64-.44l-.31-.47c-.24-.36-.34-.74-.22-.85l4.58-4.47c.11-.11,.39,.08,.63,.43l.31,.45c.23,.35,.34,.72,.22,.83Z" fill="#ffc800"/><path d="M251.35,507.65l-.47,.47c-.13,.13-.45-.08-.69-.47l-.33-.51c-.25-.39-.34-.81-.21-.94l.47-.46c.13-.13,.44,.08,.69,.47l.33,.51c.25,.39,.34,.81,.21,.94Z" fill="#ececec"/><path d="M254.66,512.83l-.47,.48c-.13,.14-.45-.07-.7-.47l-.33-.52c-.25-.39-.35-.82-.21-.96l.47-.48c.13-.13,.44,.07,.69,.47l.33,.51c.25,.39,.35,.82,.22,.96Z" fill="#ececec"/><path d="M258.94,517.07l-.46,.49c-.13,.14-.44-.07-.7-.47l-.33-.52c-.25-.4-.35-.83-.22-.97l.46-.49c.13-.14,.44,.07,.69,.47l.33,.52c.25,.4,.35,.83,.22,.97Z" fill="#a8a8a8"/><path d="M276.18,498.65l-3.49,3.73c-.11,.12-.4-.08-.65-.44l-.32-.48c-.24-.37-.35-.76-.23-.88l3.51-3.69c.11-.12,.39,.08,.64,.43l.32,.47c.24,.36,.35,.74,.24,.86Z" fill="#a8a8a8"/><path d="M282.78,506.56l-3.4,3.9c-.11,.13-.4-.07-.65-.44l-.32-.49c-.25-.37-.36-.77-.25-.9l3.41-3.86c.11-.12,.39,.07,.64,.43l.32,.47c.24,.36,.36,.76,.25,.88Z" fill="#a8a8a8"/><path d="M262.32,522.34l-.46,.51c-.13,.14-.44-.07-.7-.47l-.34-.53c-.26-.4-.36-.84-.23-.99l.46-.5c.13-.14,.44,.07,.7,.47l.34,.52c.26,.4,.36,.84,.23,.98Z" fill="#ececec"/><path d="M286.27,502.63l-2.46,2.82c-.11,.12-.39-.07-.64-.43l-.32-.47c-.24-.36-.36-.75-.25-.87l2.47-2.79c.1-.12,.38,.07,.63,.43l.32,.46c.24,.35,.35,.74,.25,.86Z" fill="#ececec"/><path d="M268.62,532.19l-.45,.53c-.13,.15-.44-.06-.71-.47l-.34-.54c-.26-.41-.37-.87-.24-1.02l.45-.53c.13-.15,.44,.06,.7,.47l.34,.54c.26,.41,.37,.86,.25,1.01Z" fill="#ececec"/><path d="M275.81,523.63l-6.1,7.26c-.13,.15-.44-.06-.7-.47l-.34-.53c-.26-.41-.37-.86-.25-1l6.12-7.19c.12-.14,.42,.07,.68,.46l.34,.51c.26,.39,.37,.82,.25,.96Z" fill="#a8a8a8"/><path d="M285.09,540.89l-5.66,7.58c-.12,.16-.44-.05-.71-.47l-.36-.56c-.27-.42-.39-.9-.27-1.06l5.68-7.5c.12-.15,.42,.05,.69,.46l.35,.53c.27,.41,.39,.86,.27,1.02Z" fill="#a8a8a8"/><path d="M277.13,531.43l-3.94,4.88c-.12,.15-.44-.06-.7-.47l-.35-.54c-.26-.41-.38-.87-.25-1.02l3.95-4.83c.12-.15,.43,.06,.69,.46l.34,.53c.26,.4,.38,.85,.26,.99Z" fill="#ffc800"/><path d="M285.51,521.05l-7.48,9.26c-.12,.15-.43-.06-.69-.46l-.34-.52c-.26-.4-.38-.84-.26-.99l7.51-9.17c.11-.13,.4,.07,.66,.44l.33,.5c.25,.38,.37,.8,.26,.93Z" fill="#a8a8a8"/><path d="M293.12,540.07l-10.07,14.03c-.12,.17-.44-.05-.72-.48l-.36-.56c-.28-.43-.4-.91-.28-1.08l10.12-13.89c.11-.15,.41,.05,.68,.45l.35,.52c.27,.4,.39,.85,.28,1Z" fill="#ffc800"/><path d="M287.42,509.8l-5.2,6.2c-.11,.13-.4-.07-.66-.44l-.33-.49c-.25-.38-.36-.79-.25-.92l5.23-6.14c.1-.12,.39,.07,.64,.43l.32,.48c.25,.36,.36,.76,.26,.88Z" fill="#ffc800"/><path d="M281.49,516.86l-4.86,5.79c-.12,.14-.42-.06-.68-.46l-.34-.51c-.26-.39-.37-.82-.25-.96l4.88-5.73c.11-.13,.41,.07,.66,.45l.33,.49c.25,.38,.37,.79,.25,.92Z" fill="#ececec"/><path d="M287.58,518.49l-1.29,1.6c-.11,.13-.4-.06-.66-.44l-.33-.5c-.25-.38-.37-.79-.26-.93l1.3-1.58c.11-.13,.4,.07,.65,.44l.33,.49c.25,.38,.37,.79,.26,.92Z" fill="#ececec"/><path d="M272.12,537.64l-.44,.55c-.13,.16-.44-.06-.71-.47l-.35-.55c-.27-.42-.38-.88-.25-1.03l.44-.54c.13-.15,.44,.06,.71,.47l.35,.54c.27,.41,.38,.88,.25,1.03Z" fill="#ececec"/><path d="M274.76,544.3l-.44,.57c-.13,.16-.45-.05-.72-.48l-.35-.56c-.27-.42-.39-.9-.26-1.06l.44-.56c.13-.16,.44,.05,.71,.47l.35,.55c.27,.42,.39,.89,.26,1.05Z" fill="#a8a8a8"/><path d="M280.51,536.89l-4.66,6c-.12,.16-.44-.05-.71-.47l-.35-.55c-.27-.42-.39-.89-.26-1.04l4.68-5.93c.12-.15,.43,.06,.69,.46l.35,.53c.26,.41,.38,.86,.27,1.01Z" fill="#ececec"/><path d="M292.56,521.38l-4.09,5.27c-.11,.14-.41-.06-.66-.45l-.34-.51c-.26-.39-.38-.81-.27-.95l4.11-5.22c.1-.13,.39,.06,.65,.44l.33,.49c.25,.38,.37,.79,.27,.92Z" fill="#a8a8a8"/><path d="M294.08,528.84l-8.24,11.04c-.11,.15-.42-.05-.69-.46l-.35-.53c-.27-.41-.39-.86-.27-1.01l8.28-10.93c.1-.14,.4,.06,.66,.44l.34,.5c.26,.38,.38,.81,.28,.95Z" fill="#ececec"/><path d="M287.53,527.85l-6.09,7.85c-.12,.15-.43-.06-.69-.46l-.35-.53c-.26-.4-.38-.85-.26-1l6.12-7.77c.11-.14,.41,.06,.66,.45l.34,.51c.26,.39,.38,.82,.27,.96Z" fill="#ffc800"/><path d="M278.35,549.92l-.44,.58c-.12,.17-.45-.05-.72-.48l-.36-.56c-.27-.43-.39-.91-.27-1.07l.44-.58c.12-.16,.44,.05,.72,.48l.36,.56c.27,.43,.39,.91,.27,1.07Z" fill="#ececec"/></g></g><path d="M295.96,595.67s-1.67,4.92,0,5.49,200.22,7.24,200.22,7.24c0,0,2.2-4.97-1.11-6.36s-199.11-6.36-199.11-6.36Z" fill="#4b5563" stroke="#374151" stroke-miterlimit="10" stroke-width=".99"/><path d="M562.03,361.93c.37,6.52-3.32,12.47-5.59,18.6-2.43,6.57-3.26,13.6-4.08,20.56-.26,2.24-.5,4.63,.54,6.62s3.88,3.2,5.61,1.77c1.13-.94,1.36-2.55,1.53-4.01,1.87-15.97,6.25-31.64,12.95-46.25" fill="#ffdeb3"/><path d="M553.54,387.3c-.75,4.75-1.79,9.44-2.9,14.12-.67,3.28-2.51,7.23,.28,9.86,.81,.79,2.04,1.23,3.2,.83-1.08,.63-2.51,.3-3.51-.45-2.17-1.54-2.25-4.6-1.75-6.95,1.3-5.88,2.82-11.68,4.68-17.41h0Z" fill="#0c0801"/></svg>