<svg xmlns="http://www.w3.org/2000/svg" xmlns:xlink="http://www.w3.org/1999/xlink" width="524" height="391"><style><![CDATA[.B{fill:#ececec}.C{fill:#a8a8a8}.D{fill:#ffc800}.E{stroke-width:2}.F{stroke:#4b5563}.G{fill:#374151}.H{fill:#966f22}.I{fill:#0c0801}.J{fill:#1f2937}.K{fill:#ffd593}.L{fill:#4b5563}.M{fill:#c18465}.N{fill:#995334}]]></style><defs><path id="A" d="M.373.095h486.803v312.379H.373z"/><path id="B" d="M0 .031h482.787v75.116H0z"/><path id="C" d="M483.581 288.603H154.155c-2.693 0-4.876-2.178-4.876-4.866V62.949c0-2.687 2.183-4.866 4.876-4.866h329.426c2.693 0 4.876 2.178 4.876 4.866v220.788c0 2.687-2.183 4.866-4.876 4.866z"/><path id="D" d="M173.651 69.762c0 1.963-1.591 3.554-3.554 3.554s-3.554-1.591-3.554-3.554 1.591-3.554 3.554-3.554 3.554 1.591 3.554 3.554"/><path id="E" d="M202.815 305.867l84.644 3.062s5.336-.435 8.471 6.54c3.267 7.269 19.892 28.987 19.892 28.987l-132.016-5.159 19.008-33.43z"/><path id="F" d="M184.484 339.373L128.6 253.236c-.403-.573-.265-1.032.365-1.218l26.014-16.124c.415-.113 1.352.269 1.611.656l46.943 69.535-17.967 30.96"/></defs><g fill="none" fill-rule="evenodd"><g transform="translate(36.558 .2)"><mask id="G" fill="#fff"><use xlink:href="#A"/></mask><path d="M1.628 262.321l-.077-.716C-8.782 162.986 49.728 64.329 142.531 28.218 227.364-4.79 343.38-18.855 418.498 43.484c32.113 26.65 54.447 64.48 63.399 105.147 5.704 25.908 7.343 53.043 2.126 79.177-4.228 21.178-15.718 59.485-38.395 67.245-7.997 2.737-16.71 2-25.127 1.229-51.622-4.721-102.084-9.703-153.873-8.313-44.844 1.203-89.611 5.293-133.929 12.246l-59.573 9.404c-16.822 2.869-36.682 6.145-51.699-4.268-13.396-9.289-18.017-26.782-19.799-43.031" mask="url(#G)" class="J"/></g><g class="E"><path d="M149.279 81.948h339.178" class="F"/><use xlink:href="#C" stroke="#fff"/><use xlink:href="#C" class="F"/></g><use xlink:href="#D" fill="#fe9184"/><use xlink:href="#D" x="13.202" fill="#fad780"/><use xlink:href="#D" x="26.403" fill="#00c77d"/><path d="M516.355 272.355H376.273c-2.54 0-4.599-2.075-4.599-4.635v-61.816c0-2.56 2.059-4.635 4.599-4.635h140.081c2.54 0 4.599 2.075 4.599 4.635v61.816c0 2.56-2.059 4.635-4.599 4.635" class="G"/><path d="M516.355 272.355H376.273c-2.54 0-4.599-2.075-4.599-4.635v-61.816c0-2.56 2.059-4.635 4.599-4.635h140.081c2.54 0 4.599 2.075 4.599 4.635v61.816c0 2.56-2.059 4.635-4.599 4.635z" class="E F"/><path d="M391.475 259.154h43.669a6.6 6.6 0 0 0 6.599-6.597v-31.488a6.6 6.6 0 0 0-6.599-6.597h-43.669a6.6 6.6 0 0 0-6.599 6.597v31.488a6.6 6.6 0 0 0 6.599 6.597" class="G"/><g fill="#fdfdf3"><path d="M408.273 233.766a7.08 7.08 0 0 0 7.069 7.069 7.08 7.08 0 0 0 7.069-7.069 7.08 7.08 0 0 0-7.069-7.069 7.08 7.08 0 0 0-7.069 7.069m-2.071 0c0-5.04 4.1-9.14 9.14-9.14s9.139 4.1 9.139 9.14-4.1 9.14-9.139 9.14-9.14-4.1-9.14-9.14"/><path d="M407.63 241.89l2.633-2.633-1.429-1.429-2.633 2.633z"/><path d="M404.681 240.271l-5.177 5.177c-.548.549-.548 1.439 0 1.987l1.152 1.152c.549.549 1.439.549 1.988 0l5.177-5.176c.548-.549.548-1.439 0-1.988l-1.152-1.152c-.549-.549-1.439-.549-1.988 0"/></g><path d="M451.899 227.165h51.791m-51.791 9.14h25.388m-25.388 9.139h51.791" stroke="#d1d5db" class="E"/><path d="M156.568 226.657H47.548c-3.266 0-5.913-2.641-5.913-5.899V139.13c0-3.258 2.647-5.899 5.913-5.899h109.02c3.265 0 5.913 2.641 5.913 5.899v81.628c0 3.258-2.647 5.899-5.913 5.899" class="G"/><g class="E"><path d="M156.568 226.657H47.548c-3.266 0-5.913-2.641-5.913-5.899V139.13c0-3.258 2.647-5.899 5.913-5.899h109.02c3.265 0 5.913 2.641 5.913 5.899v81.628c0 3.258-2.647 5.899-5.913 5.899z" class="F"/><g stroke="#d1d5db"><path d="M60.93 172.328h59.915M60.93 190.607h59.915"/><path d="M60.93 181.467h25.388"/></g></g><path d="M384.476 168.774H247.168c-1.903 0-3.447-1.527-3.447-3.41v-38.877c0-1.884 1.543-3.41 3.447-3.41h137.308c1.904 0 3.447 1.527 3.447 3.41v38.877c0 1.883-1.543 3.41-3.447 3.41" fill="#6366f1"/><path d="M301.605 141.863h70.07m-70.07 8.124h22.341" stroke="#fff" class="E"/><path d="M275.202 143.386a3.05 3.05 0 0 1 3.047 3.047 3.05 3.05 0 0 1-3.047 3.047 3.05 3.05 0 0 1-3.047-3.047 3.05 3.05 0 0 1 3.047-3.047m9.339.189c-2.018-2.556-5.675-6.281-9.848-6.281s-7.829 3.726-9.848 6.281c-1.087 1.377-1.087 3.323 0 4.7.997 1.264 2.396 2.813 4.059 4.056v-6.409h0a5.79 5.79 0 0 1 5.788-5.786 5.79 5.79 0 0 1 5.788 5.789 5.79 5.79 0 0 1-5.788 5.789 5.75 5.75 0 0 1-2.894-.781v3.048c.925.36 1.894.576 2.894.576 4.172 0 7.829-3.726 9.848-6.282 1.087-1.377 1.087-3.323 0-4.7" fill="#fff"/><path fill="#faefeb" d="M411.279 246.967l13.993 6.069-3.92 2.241 5.16 5.514-3.462 3.438-5.03-5.963-2.815 3.661z"/><path stroke="#4f3b32" stroke-width=".611" d="M411.279 246.967l14.035 6.137-3.956 2.204 5.154 5.524-3.505 3.398-5.021-5.969-2.854 3.624z"/><path d="M344.871 216.502s-5.711 18.204-6.139 48.057c-3.283 2.683-6.488 5.452-25.516 9.863s-8.387 2.327-19.302 5.127c-5.667 1.454-4.366 1.77-4.366 1.77 5.115 6.869 8.705 14.266 7.241 21.501 0 0 24.42-3.175 38.618-8.452s27.822-4.333 21.456-29.78l-11.992-48.086" class="K"/><path d="M343.069 246.967s-1.423 24.536-.575 26.683 2.39 12.137 5.962 14.953l1.892-.238s-2.109-31.096-7.279-41.397" class="H"/><path d="M411.578 131.2a74.71 74.71 0 0 1 21.492 37.357c1.715 7.406 2.283 15.024 2.846 22.607l1.498 20.191c1.136 15.314 2.273 30.636 2.616 45.989.268 11.949.063 23.996 2.327 35.729l8.526 41.228c-9.76-.046-29.946-2.784-39.706-2.83-20.221-.096-31.522 6.264-50.753 0-4.702-12.864-13.748-52.308-16.264-65.775-7.466-39.974 7.782-79.071 26.59-113.723-3.906 9.206-4.081 20.261-3.264 30.231.931-6.979 5.726-13.968 9.972-19.577 3.848-5.082 8.815-9.183 13.733-13.233 7.167-5.903 13.219-12.29 20.386-18.193" class="K"/><path d="M360.181 334.293l-1.709-7.927s106.032 54.683 83.872-31.67l9.555 40.981-91.718-1.384z" class="H"/><g transform="translate(0 315.006)"><mask id="H" fill="#fff"><use xlink:href="#B"/></mask><path d="M474.059 17.174L42.269.042l-.866-.007L8.893.75C-1.49.979-3.429 15.698 6.538 18.63l190.844 56.149c1.25.368 2.564.462 3.854.275L475 35.323c10.94-1.587 10.104-17.711-.941-18.149" mask="url(#H)" class="J"/></g><path d="M201.07 390.154v-15.405l277.644-40.447s10.391 14.443-3.89 16.496L201.07 390.154" class="L"/><path d="M201.07 374.649L5.063 317.037s-8.357 7.107-1.055 15.594l197.062 57.522v-15.504z" class="G"/><g class="M"><path d="M270.534 290.086l21.493-5.545s7.73 11.669 4.886 18.441l-30.852 2.885s5.676-8.505 4.472-15.78"/><path d="M270.955 289.619l-2.604.144c-4.616.336-15.113 1.436-29.438 4.974-9.677 4.535-17.533 13.267-17.533 13.267s1.176 4.166 7.911.241c2.458-1.432 5.636-1.677 8.681-1.409 5.297.465 10.191 2.48 10.191 2.48l19.897-3.752c7.009-1.396 2.894-15.944 2.894-15.944"/></g><use xlink:href="#E" fill="#6b7280"/><use xlink:href="#E" stroke="#374151"/><path d="M213.994 308.913l-9.878 23.284 63.977 3.12-7.98-24.198z" class="L"/><use xlink:href="#F" class="J"/><use xlink:href="#F" stroke="#6b7280"/><path d="M182.955 332.27l-49.693-77.071c-.402-.571-.273-1.03.339-1.218l20.807-14.099c.414-.119 1.351.261 1.616.654l43.015 64.741-16.084 26.994z" fill="#3a3a3a"/><path d="M237.628 307.243s7.942-6.043 18.021-4.002l12.444 2.606-7.01 1.468-11.462.555-8.057.027-3.936-.654z" class="N"/><g class="M"><path d="M405.031 129.241c.717.844 1.446 1.711 1.843 2.745 1.381 3.604-1.672 7.258-4.447 9.94-10.445 10.091-20.583 20.548-29.5 32.011-3.814 4.902-7.579 10.143-13.032 13.115-2.488-3.792.297-8.662 2.373-12.694 3.891-7.558 5.266-16.12 6.588-24.516.288-1.827.576-3.683.336-5.516-.491-3.76-3.557-7.17-7.323-7.612 3.907-2.453 7.524-5.585 9.685-9.661s2.672-9.208.517-13.286c-1.473-2.788-16.9-6.854-18.736-9.418-3.294-4.601-51.59-55.526 9.346-21.314 4.933 2.77 12.374.318 17.235 3.214 4.408 2.627 6.018 8.15 6.933 13.2 2.308 12.735 10.004 20.158 18.182 29.792"/><path d="M332.004 70.27c-3.378 2.788-1.676 8.149-.247 12.297a48.67 48.67 0 0 1 .195 30.843c-.344 1.039-.726 2.148-.435 3.202.755 2.74 4.882 2.41 7.169.733.755 3.978 1.264 4.489 2.864 7.563.761 1.217 1.571 1.074 1.78 1.008-.366.627-.153 1.423.067 1.789 1.216 2.018 3.022 5.196 3.222 7.513.136 1.567-.073 3.281.8 4.588 1.605 2.403 5.27 1.566 7.929.448 2.913-1.226 5.858-2.496 8.64-4.009 3.002-1.633 5.815-3.549 8.194-6 4.584-4.722 7.226-11.949 4.777-18.067 1.188-4.759-.135-4.705 1.615-9.286s2.006-13.354-1.792-16.442c-2.261-1.839-5.863-4.02-8.758-3.723-5.669.582-12.242 9.51-5.798 13.966 2.918 2.018.476 3.511 3.819 6.261-.733 1.629-2.793-.774-3.936-2.144-1.907-2.287-5.138-4.119-5.138-8.017 0-3.965-4.043-3.231-6.604-5.947-4.521 2.589-4.009 3.464-7.895-.011s-6.117-8.403-8.123-13.223c-.489-1.176-3.334-2.545-2.343-3.341"/></g><path d="M444.586 124.31c2.658 2.775 4.769 5.857 5.945 9.195 2.906 8.245 1.207 19.662-5.335 25.905-4.077 3.892-10.275 5.026-15.783 3.836s-10.385-4.443-14.473-8.322c-2.323-2.204-4.458-4.658-5.932-7.501-2.203-4.251-2.812-9.123-3.385-13.878l-2.031-16.83c-6.407-.515-12.704-2.378-18.361-5.433-2.481-1.339-5.044-3.192-5.608-5.954-.326-1.595.079-3.233.354-4.837.814-4.744.358-10-2.654-13.754s-9.079-5.213-12.786-2.144c-2.757 2.282-3.496 6.335-2.745 9.835s2.733 6.591 4.68 9.596c-4.777-3.061-9.095-6.838-12.766-11.165-1.84-2.169-10.387-2.347-12.407-4.349-5.267-5.216-5.812-10.321-10.1-16.368-.458-.645-.881-1.335-1.06-2.106-.264-1.137.031-2.332.466-3.416 1.416-3.523 4.236-6.263 6.978-8.89 6.249-5.987 12.731-12.126 20.82-15.2 5.918-2.249 12.359-2.716 18.69-2.725 5.57-.008 11.274.348 16.399 2.531 6.079 2.588 10.811 7.504 15.365 12.292 2.197 2.31 4.406 4.636 6.165 7.295 6.656 10.062 5.899 23.44 2.114 34.897-.91 2.753-3.624 8.087-1.907 10.912 1.353 2.226 5.711 2.433 7.899 3.234 7.032 2.574 15.582 7.21 21.458 13.345" fill="#111827"/><path d="M377.69 117.108s1.666 16.194-10.454 22.216c0 0-1.917-1.812-3.686-2.451 1.223-.642 12.56-5.892 14.217-19.89" class="N"/><g fill="#211f21"><path d="M342.224 90.925c-7.774-3.061-10.09-.001-10.092 0-.091.121-.082.295.019.407.132.146.373.196.57.225.47.069.963.031 1.433-.017.816-.083 1.615-.255 2.415-.411.41-.08.821-.155 1.236-.211.397-.054.814-.044 1.218-.054a34.75 34.75 0 0 1 1.503-.002c.297 0 .586.035.879.074.194.027.387.061.585.057.033-.001.243-.002.233-.069m-7.107 6.764a2.031 2.031 0 1 0 4.062 0 2.031 2.031 0 1 0-4.062 0"/><path d="M336.132 97.078c1.712-3.521 7.109.61 7.109.61-2.604-.579-5.1-.986-7.109-.61"/></g><path d="M352.065 295.056l-69.258 10.167s-9.399 1.232-15.167.503-14.736-2.087-25.246 2.101-14.921 12.798-14.921 12.798-.059 2.887 3.456 1.758c3.209-1.03 1.537-6.977 15.213-9.27 0 0-22.619 11.589-16.079 16.645.86.665 6.941-5.79 8.883-7.143 4.04-2.815 9.018-3.722 9.018-3.722s-9.772 1.868-15.663 11.447a.94.94 0 0 0 .252 1.253c.955.684 2.728 1.639 4 .46 4.872-4.516 7.453-9.391 13.94-8.754 0 0-7.689 4.273-11.282 8.637s6.285 1.879 9.965-.98 15.918-8.412 22.984-6.453 12.758 1.342 18.024-1.322 56.683 4.011 91.271-3.538l1.584-.357s7.981 1.498 14.861-9.698 15.41-34.187 15.41-34.187" class="M"/><path d="M341.209 125.156s4.226-.463 6.093-3.095c0 0 .015 3.977-4.298 6.093 0 0-.605-.92-.065-1.917 0 0-1.099.586-1.73-1.081" fill="#a80e2b"/><path d="M447.837 311.96c-4.071-11.021-6.232-22.647-7.385-34.295-.617-5.83-.774-11.696-.782-17.553.005-5.857.467-11.722.772-17.546.689-11.667.283-23.377-.68-35.025-.512-5.823-1.174-11.636-2.023-17.424-.839-5.79-1.825-11.563-3.103-17.28 1.386 5.693 2.483 11.452 3.432 17.231.918 5.786 1.638 11.6 2.215 17.428 1.072 11.661 1.475 23.399.836 35.104-.328 5.86-.806 11.667-.832 17.516-.022 5.839.149 11.684.684 17.504.507 5.82 1.285 11.622 2.405 17.364.562 2.87 1.168 5.735 1.912 8.567.733 2.834 1.541 5.654 2.55 8.409m-106.629-79.21c1.144-5.989 2.469-11.941 3.901-17.868s3.039-11.814 4.899-17.633c.952-2.902 2.081-5.754 3.251-8.564l3.597-8.408c2.471-5.573 5.021-11.11 7.709-16.581l-3.643 8.384-3.599 8.399-3.508 8.435c-1.153 2.822-2.249 5.649-3.18 8.543-1.904 5.776-3.494 11.658-5.035 17.55l-2.239 8.86-2.153 8.884m59.915-89.365l-11.321 12.255-11.171 12.38-5.423 6.321-5.174 6.536-2.793 3.128c-.503.49-1.02.969-1.604 1.382a4.35 4.35 0 0 1-.95.527c-.343.124-.773.195-1.147 0s-.563-.554-.696-.887c-.123-.343-.199-.692-.242-1.042-.094-.699-.104-1.398-.096-2.095.031-1.394.162-2.778.328-4.156l-.151 4.156c.016.69.051 1.382.167 2.056.118.645.307 1.401.836 1.676.54.243 1.208-.16 1.733-.541.545-.402 1.042-.882 1.523-1.372.952-.997 1.836-2.065 2.692-3.153l5.105-6.598 5.393-6.378a490.83 490.83 0 0 1 11.297-12.289l11.694-11.909" class="I"/><path d="M395.031 115.967s6.285 9.057 10.155 13.202" stroke="#0c0801"/><path d="M361.519 137.935c1.098-.725 2.695-.88 4.007-.237 1.327.624 2.255 1.8 2.877 3.007a12.95 12.95 0 0 1 1.097 3.842c.195 1.303.171 2.619.041 3.917-.218-.626-.376-1.251-.538-1.871a7.82 7.82 0 0 0-.251-.923l-.259-.913c-.335-1.216-.778-2.372-1.273-3.477-.557-1.063-1.227-2.049-2.185-2.692-.23-.18-.507-.266-.766-.408-.276-.089-.557-.203-.86-.237-.598-.118-1.237-.114-1.891-.007m7.11-45.496c.404-.454.905-.828 1.454-1.158.56-.312 1.183-.585 1.915-.668a3.1 3.1 0 0 1 2.223.538c.622.473.958 1.098 1.178 1.691.397 1.205.39 2.395.254 3.539a12.22 12.22 0 0 1-.907 3.336l-.201-3.364c-.067-1.093-.19-2.175-.5-3.13-.166-.468-.4-.885-.713-1.174-.315-.28-.737-.432-1.269-.451-1.069-.025-2.273.387-3.434.839" class="I"/><path d="M306.37 322.115c3.033-14.257-.079-19.295-.079-19.295l-2.655.424" class="N"/><path d="M306.342 328.208s-2.582-1.512-2.706-4.833c0 0 2.602-.616 4.062.107l-1.356 4.726z" class="H"/><path d="M407.614 174.008s12.509 2.969 16.408 22.331 3.179 48.955-1.885 72.742 2.627 47.344-51.061 54.369c-50.253 6.577-58.479 4.007-65.36 4.758 0 0 4.873-25.176-3.096-27.366 0 0 56.217-8.634 69.676-16.874s-14.565-88.294 12.714-104.982c0 0 10.527-9.371 22.604-4.977" class="K"/><path d="M305.667 303.37l-2.67.466s-.978-2.817.218-3.024 1.925 1.068 2.452 2.558" class="H"/><g class="I"><path d="M377.11 278.448c.8-4.879.247-9.82.026-14.727-.258-4.914-.561-9.826-1.123-14.708-.556-4.881-1.441-9.716-2.187-14.589-.753-4.865-1.262-9.814-1.107-14.759.128-4.939.543-9.834.443-14.751-.009-2.459.044-4.971.631-7.405.569-2.431 1.554-4.718 2.59-6.948 1.043-2.232 2.208-4.417 3.608-6.45 1.391-2.036 3.049-3.901 4.955-5.451 1.892-1.562 3.933-2.944 6.117-4.048 1.093-.548 2.227-1.018 3.402-1.351s2.401-.515 3.615-.382c-1.216-.11-2.435.1-3.596.449s-2.282.844-3.358 1.41c-2.15 1.14-4.153 2.553-6.001 4.138-3.749 3.145-6.31 7.443-8.306 11.89-1.009 2.23-1.932 4.505-2.481 6.873-.559 2.365-.605 4.82-.586 7.273.12 4.932-.276 9.866-.382 14.768-.157 4.907.313 9.795 1.048 14.654.71 4.861 1.621 9.71 2.102 14.623.503 4.907.747 9.83.942 14.749.114 4.905.559 9.879-.35 14.742m45.338-11.17c-.7 6.297-1.478 12.586-2.454 18.85-.506 3.129-1.018 6.26-1.855 9.337-.878 3.069-2.323 5.97-4.214 8.542s-4.194 4.828-6.724 6.758c-2.521 1.952-5.284 3.561-8.121 4.988-5.699 2.833-11.783 4.776-17.937 6.284-6.168 1.515-12.44 2.417-18.669 3.494l-9.383 1.463c-3.134.447-6.313.723-9.484.745-12.658-.099-25.294.076-37.941.47l18.96-.77 9.488-.176 9.483-.079c3.155-.039 6.289-.318 9.414-.777 3.125-.443 6.243-.963 9.36-1.493l9.347-1.617c3.108-.557 6.213-1.124 9.275-1.881 6.125-1.481 12.176-3.396 17.827-6.187 2.816-1.403 5.548-2.993 8.047-4.902 2.515-1.883 4.797-4.086 6.682-6.599s3.329-5.356 4.22-8.371c.855-3.031 1.384-6.164 1.944-9.276 1.068-6.241 1.941-12.518 2.735-18.803"/><path d="M410.264 174.867c1.54.726 2.956 1.713 4.25 2.831 1.28 1.133 2.511 2.342 3.559 3.708 2.141 2.695 3.789 5.776 4.982 9.015.651 1.605 1.045 3.294 1.489 4.965.293 1.704.694 3.393.812 5.121l.258 2.58.161 2.575.292 5.153c.297 6.875.503 13.758.43 20.642-.099 6.877-.324 13.781-1.349 20.588.385-3.417.596-6.849.702-10.283.125-3.434.161-6.87.144-10.306-.032-6.873-.232-13.744-.579-20.608l-.263-5.148-.146-2.573c-.063-.855-.162-1.702-.241-2.553-.106-1.71-.494-3.378-.772-5.062-.436-1.647-.796-3.322-1.408-4.916-1.121-3.216-2.697-6.283-4.762-8.989-2.05-2.702-4.555-5.127-7.56-6.739M303.636 300.789l17.179-3.414 17.146-3.557a476.13 476.13 0 0 0 17.067-3.908l8.452-2.287c2.794-.835 5.587-1.729 8.195-3.082-1.259.762-2.609 1.351-3.968 1.902l-2.056.78-2.077.718-8.422 2.475c-5.649 1.519-11.351 2.81-17.057 4.064l-17.188 3.406-17.272 2.904m-6.264-.001c.341-1.816.16-3.683-.256-5.465s-1.07-3.511-1.828-5.178c-.767-1.665-1.649-3.276-2.598-4.842l-3.08-4.541-.191-.251.304-.086 11.438-3.269 11.441-3.247 5.698-1.682 5.625-1.922 11.191-4.044c-3.669 1.512-7.366 2.955-11.077 4.364-3.715 1.388-7.469 2.72-11.276 3.84l-11.435 3.3-11.496 3.072.112-.337c1.105 1.487 2.108 3.031 3.049 4.619s1.789 3.229 2.527 4.921c.729 1.694 1.351 3.443 1.733 5.252.387 1.801.508 3.69.118 5.495"/></g><path d="M157.003 243.754l39.672 57.57c1.553 2.254 2.597 4.465 2.32 4.926l-14.97 24.883c-.366.607-2.074-1.118-3.799-3.837l-43.396-68.382c-1.36-2.143-2.086-4.134-1.631-4.46l18.884-13.547c.355-.255 1.659 1.015 2.922 2.847" fill="#2b454e"/><path d="M157.135 243.769l1.284 1.862-20.195 15.554-1.384-2.18c-1.368-2.154-2.098-4.155-1.641-4.482l18.997-13.615c.357-.256 1.669 1.02 2.939 2.862" fill="#00c77d"/><path d="M137.41 256.375c.532.83.823 1.612.647 1.744s-.752-.438-1.286-1.272-.819-1.608-.642-1.737.749.437 1.28 1.265" class="C"/><path d="M138.422 256.376c.533.83.826 1.612.652 1.743s-.75-.439-1.284-1.274-.821-1.609-.646-1.736.746.438 1.277 1.266" class="B"/><path d="M140.45 255.362c.533.83.828 1.611.656 1.742s-.747-.441-1.282-1.275-.823-1.608-.65-1.735.743.44 1.275 1.268" fill="#fff"/><g class="B"><path d="M145.179 267.899l-.276.365c-.078.104-.251-.077-.385-.405l-.176-.429c-.134-.326-.179-.675-.101-.777l.277-.361c.079-.102.25.079.384.404l.176.426c.134.326.18.674.102.777"/><path d="M153.306 260.353l-7.32 6.902c-.085.081-.274-.061-.422-.317l-.194-.335c-.147-.255-.198-.526-.112-.605l7.341-6.826c.077-.072.256.063.398.302l.188.313c.143.239.197.493.12.565m8.123-6.056l-2.125 1.791c-.088.074-.299-.07-.47-.321l-.225-.329c-.171-.251-.239-.514-.151-.587l2.132-1.772c.086-.072.292.07.463.317l.223.323c.17.246.239.505.153.577"/></g><path d="M155.327 259.393l-1.004.755c-.101.077-.338-.066-.527-.319l-.248-.331c-.19-.252-.261-.517-.16-.593l1.008-.747c.1-.075.334.068.523.318l.248.328c.19.25.262.514.161.59" class="D"/><path d="M167.519 272.556l-.954.791c-.096.08-.339-.054-.542-.298l-.265-.319c-.202-.244-.288-.506-.191-.585l.958-.782c.095-.078.336.054.537.296l.264.317c.202.243.288.503.193.582" class="B"/><path d="M158.39 256.074l-2.342 2.048c-.069.06-.231-.054-.362-.255l-.171-.264c-.131-.201-.181-.411-.111-.471l2.349-2.025c.067-.058.225.055.354.25l.169.257c.129.196.181.402.114.46" class="C"/><path d="M148.227 270.94l-.272.369c-.077.105-.25-.075-.386-.401l-.178-.427c-.135-.326-.183-.674-.105-.779l.273-.365c.077-.103.249.076.384.4l.178.425c.135.325.183.673.106.778" class="B"/><path d="M153.304 265.427l-4.238 3.859c-.086.079-.283-.057-.437-.305l-.202-.324c-.154-.247-.208-.511-.121-.589l4.251-3.817c.082-.074.271.058.423.296l.198.312c.152.238.208.492.127.567m12.192 8.364l-1.221 1.584c-.074.096-.257-.062-.409-.351l-.199-.379c-.152-.289-.215-.599-.141-.694l1.226-1.567c.072-.093.253.063.404.348l.198.374c.151.285.215.593.143.687m-7.117 2.8l-4.17 3.862c-.09.083-.299-.049-.467-.295l-.22-.322c-.168-.245-.231-.51-.141-.593l4.185-3.821c.085-.078.288.051.452.287l.216.31c.165.237.231.492.146.571" class="C"/><path d="M154.314 270.604l-3.104 2.742c-.098.086-.32-.058-.496-.323l-.231-.346c-.176-.264-.239-.547-.142-.633l3.113-2.712c.094-.082.311.06.485.317l.229.337c.174.258.24.534.146.617" class="D"/><path d="M159.401 265.388l-5.259 4.915c-.082.077-.276-.056-.43-.298l-.203-.316c-.155-.242-.212-.499-.129-.576l5.276-4.862c.077-.071.262.058.413.288l.198.302c.151.23.212.475.135.547" class="C"/><path d="M164.479 275.664l-7.239 7.833c-.086.094-.29-.051-.456-.323l-.217-.355c-.165-.271-.228-.565-.142-.658l7.265-7.75c.078-.084.271.054.43.308l.209.332c.16.254.227.529.149.613m-3.041-16.508l-3.33 3.027c-.07.064-.239-.054-.375-.264l-.179-.275c-.137-.21-.189-.432-.118-.495l3.341-2.994c.067-.06.23.055.364.258l.176.266c.134.203.189.417.122.478" class="D"/><path d="M157.37 262.286l-3.273 2.941c-.079.071-.261-.056-.408-.282l-.191-.296c-.146-.227-.2-.466-.121-.536l3.283-2.91c.075-.066.252.057.396.277l.188.287c.144.22.2.453.125.52m4.058 1.066l-1.074.858c-.09.072-.308-.058-.487-.291l-.234-.304c-.178-.232-.25-.478-.159-.549l1.077-.849c.089-.07.305.059.482.288l.233.301c.178.23.251.474.161.545m-11.167 10.628l-.269.375c-.076.107-.249-.071-.386-.396l-.179-.426c-.137-.324-.186-.672-.109-.777l.27-.37c.076-.105.249.072.385.394l.179.423c.136.323.186.671.11.777m12.187 8.879l-3.177 3.683c-.084.098-.287-.05-.452-.33l-.217-.366c-.165-.279-.23-.583-.146-.68l3.188-3.644c.081-.092.278.052.44.322l.214.355c.163.271.23.566.15.659" class="B"/><path d="M170.576 279.716l-3.207 3.782c-.076.089-.269-.05-.43-.309l-.211-.341c-.161-.26-.23-.543-.154-.631l3.22-3.743c.072-.085.26.051.418.303l.208.329c.159.252.229.525.157.611m-3.051-1.157l-4.16 3.925c-.085.08-.293-.045-.466-.277l-.226-.305c-.172-.232-.243-.485-.158-.564l4.176-3.884c.08-.075.282.046.45.271l.221.293c.169.224.241.467.162.542" class="D"/><path d="M166.514 284.731l-3.259 3.845c-.074.088-.256-.043-.408-.291l-.198-.325c-.151-.248-.212-.518-.138-.605l3.271-3.804c.071-.082.247.045.395.284l.194.313c.148.239.212.501.142.583" class="B"/><path d="M162.444 288.663l-1.079.932c-.089.076-.305-.037-.483-.252l-.233-.282c-.178-.216-.249-.451-.16-.527l1.083-.922c.088-.075.302.037.478.25l.232.279c.177.214.25.448.163.523m9.156-9.961l-.43.735c-.05.086-.181-.052-.292-.306l-.145-.334c-.111-.254-.16-.529-.109-.614l.431-.727c.05-.084.18.052.29.304l.145.331c.111.253.16.526.11.611" class="C"/><path d="M163.464 271.427l-4.231 3.953c-.081.075-.275-.048-.433-.277l-.207-.299c-.158-.228-.22-.474-.139-.548l4.245-3.912c.076-.07.263.05.418.269l.203.288c.155.219.22.455.144.526" class="B"/><path d="M167.527 268.401l-3.179 2.918c-.081.074-.281-.052-.447-.283l-.217-.301c-.166-.23-.234-.476-.153-.549l3.191-2.888c.077-.07.272.054.435.278l.214.292c.163.224.233.463.156.534" class="D"/><path d="M153.307 281.076l-.263.385c-.075.11-.248-.063-.387-.385l-.182-.422c-.139-.321-.19-.67-.115-.778l.264-.381c.075-.108.247.064.385.384l.181.419c.139.32.191.669.116.777m3.049 3.041l-.26.391c-.074.111-.247-.059-.387-.38l-.183-.419c-.139-.32-.193-.669-.118-.778l.261-.387c.074-.109.246.06.386.378l.183.417c.14.319.193.667.12.777" class="B"/><path d="M158.387 287.158l-.256.395c-.073.112-.247-.056-.388-.376l-.185-.419c-.141-.319-.197-.667-.123-.778l.257-.391c.072-.11.245.058.386.375l.185.416c.141.318.197.666.124.778m12.19-12.477l-2.225 2.725c-.073.089-.258-.055-.413-.323l-.203-.349c-.155-.267-.221-.555-.148-.642l2.233-2.697c.071-.085.252.057.404.317l.201.342c.153.261.221.542.151.628m4.063 6.069l-2.201 2.748c-.072.09-.261-.05-.421-.312l-.21-.343c-.16-.262-.231-.546-.159-.635l2.21-2.719c.07-.086.254.051.413.307l.207.335c.159.255.231.533.162.62" class="C"/><path d="M161.434 291.214l-.252.4c-.071.114-.245-.053-.388-.371l-.186-.416c-.142-.317-.199-.666-.127-.778l.253-.396c.071-.111.244.054.386.37l.186.414c.142.317.2.665.128.778m15.243-13.626l-1.335 1.851c-.058.08-.212-.048-.345-.285l-.174-.31c-.133-.237-.193-.494-.135-.572l1.34-1.832c.056-.077.209.049.339.281l.172.305c.131.233.192.485.136.563m-11.177 19.707l-.246.409c-.07.116-.244-.046-.388-.362l-.19-.413c-.144-.315-.204-.663-.134-.778l.247-.404c.07-.114.243.047.387.36l.188.411c.145.313.205.661.136.777" class="B"/><path d="M170.573 291.931l-4.136 4.765c-.085.098-.298-.039-.476-.307l-.233-.35c-.177-.267-.252-.562-.166-.659l4.152-4.716c.081-.091.286.043.46.299l.227.337c.174.257.251.54.171.632m6.095 11.17l-4.052 4.761c-.087.102-.317-.031-.511-.298l-.256-.349c-.194-.266-.281-.565-.193-.667l4.072-4.713c.082-.095.304.035.494.29l.25.336c.191.256.279.543.197.64" class="C"/><path d="M170.578 297.192l-2.246 3.56c-.071.112-.25-.042-.402-.343l-.198-.394c-.151-.301-.216-.635-.145-.746l2.256-3.524c.068-.106.244.045.393.337l.195.383c.149.294.215.619.147.726" class="D"/><path d="M176.67 289.817l-5.149 5.865c-.081.092-.293-.038-.473-.291l-.235-.332c-.18-.253-.258-.532-.177-.624l5.171-5.806c.076-.085.278.042.452.282l.229.315c.174.241.255.505.18.591" class="C"/><path d="M181.752 302.193l-6.218 9.727c-.075.116-.273-.031-.443-.329l-.223-.39c-.17-.298-.246-.632-.172-.747l6.248-9.63c.067-.103.254.037.417.314l.214.364c.164.277.243.587.176.692m-4.062-19.548l-3.241 3.9c-.069.083-.252-.042-.408-.279l-.205-.31c-.156-.237-.227-.495-.158-.577l3.255-3.861c.065-.078.242.044.396.273l.201.3c.153.228.225.478.16.556" class="D"/><path d="M173.623 286.805l-3.179 3.8c-.077.091-.275-.043-.442-.299l-.219-.335c-.167-.256-.241-.537-.163-.627l3.192-3.761c.073-.086.265.045.43.292l.215.324c.165.248.239.52.167.606m4.059 1.87l-1.001.919c-.084.077-.311-.037-.508-.255l-.257-.285c-.196-.218-.287-.456-.202-.533l1.006-.91c.083-.075.308.038.503.253l.256.282c.195.216.287.453.204.529m-10.154 12.678l-.242.413c-.069.117-.243-.043-.388-.357l-.191-.412c-.146-.314-.207-.661-.138-.778l.243-.409c.069-.116.242.043.387.355l.19.409c.146.313.208.661.14.778" class="B"/><path d="M169.562 305.408l-.239.419c-.068.119-.242-.038-.389-.351l-.192-.409c-.146-.312-.209-.66-.141-.778l.24-.415c.068-.117.241.04.387.35l.191.407c.146.31.21.659.143.777" class="C"/><path d="M173.621 300.045l-3.113 3.757c-.082.1-.296-.033-.475-.296l-.235-.344c-.179-.263-.257-.556-.175-.654l3.127-3.719c.079-.094.286.036.463.29l.231.333c.177.254.257.538.178.633" class="B"/><path d="M181.747 289.936l-3.058 3.714c-.081.099-.303-.042-.495-.315l-.251-.356c-.192-.272-.282-.571-.2-.669l3.072-3.677c.078-.093.294.045.482.309l.248.345c.189.264.28.555.202.649" class="C"/><path d="M181.752 294.89l-5.213 6.884c-.073.095-.268-.034-.436-.287l-.22-.332c-.168-.254-.245-.536-.173-.63l5.238-6.815c.066-.086.252.037.414.277l.214.313c.163.239.242.504.176.592" class="B"/><path d="M177.686 294.892l-4.138 4.851c-.079.093-.289-.035-.468-.285l-.235-.328c-.179-.25-.259-.527-.179-.62l4.156-4.803c.075-.087.276.038.452.278l.229.313c.175.24.257.505.183.592" class="D"/><path d="M171.594 309.464l-.235.423c-.067.12-.241-.035-.389-.346l-.193-.408c-.147-.311-.213-.659-.145-.778l.237-.419c.066-.118.24.036.387.345l.193.405c.147.31.213.658.146.777" class="B"/><path d="M183.28 339.378s-1.1 3.144 0 3.504 132.071 4.62 132.071 4.62 1.449-3.173-.734-4.062-131.337-4.062-131.337-4.062" class="L"/><path d="M183.28 339.378s-1.1 3.144 0 3.504 132.071 4.62 132.071 4.62 1.449-3.173-.734-4.062-131.337-4.062-131.337-4.062z" stroke="#374151" stroke-width=".992"/><path d="M359.123 184.776c.253 4.295-2.265 8.213-3.812 12.247-1.659 4.325-2.225 8.958-2.779 13.539-.178 1.472-.338 3.047.368 4.362s2.646 2.11 3.827 1.164c.772-.618.928-1.682 1.044-2.643 1.273-10.513 4.263-20.831 8.825-30.454" fill="#ffdeb3"/><path d="M353.986 201.27l-.973 4.583-1.164 4.542c-.385 1.513-1.005 3.001-.858 4.467.069.732.421 1.417 1.064 1.907.6.507 1.501.795 2.356.535-.794.408-1.85.192-2.583-.289-.759-.476-1.254-1.276-1.397-2.083-.169-.814-.048-1.633.11-2.408l.593-2.28 1.331-4.507 1.521-4.467" class="I"/></g></svg>
