<?xml version="1.0" encoding="UTF-8"?><svg id="a" xmlns="http://www.w3.org/2000/svg" xmlns:xlink="http://www.w3.org/1999/xlink" viewBox="0 0 970 720"><defs><clipPath id="b"><path d="M916.27,313.7h-72.6c-3.67,0-6.64-2.97-6.64-6.64v-55.43c0-3.67,2.97-6.64,6.64-6.64h72.6c3.67,0,6.64,2.97,6.64,6.64v55.43c0,3.67-2.97,6.64-6.64,6.64Z" fill="#ffd761"/></clipPath></defs><g><path d="M76.34,480.38c-.04-.36-.08-.72-.12-1.08-15.62-149.14,72.84-298.33,213.16-352.94,128.26-49.92,303.68-71.19,417.26,23.09,48.55,40.3,82.32,97.51,95.86,159.01,8.62,39.18,11.1,80.22,3.21,119.74-6.39,32.03-23.77,89.96-58.05,101.69-12.09,4.14-25.27,3.02-37.99,1.86-78.05-7.14-154.35-14.67-232.65-12.57-67.8,1.82-135.49,8-202.5,18.52-30.15,4.73-60.13,9.11-90.07,14.22-25.43,4.34-55.46,9.29-78.17-6.45-20.25-14.05-27.24-40.5-29.94-65.07Z" fill="#1f2937"/><g><g><line x1="244.78" y1="206.78" x2="757.21" y2="206.78" fill="none" stroke="#4b5563" stroke-miterlimit="10" stroke-width="2"/><rect x="244.78" y="169.8" width="512.42" height="349.02" rx="7.37" ry="7.37" fill="none" stroke="#fff" stroke-miterlimit="10" stroke-width="2"/><rect x="244.78" y="169.8" width="512.42" height="349.02" rx="7.37" ry="7.37" fill="none" stroke="#4b5563" stroke-miterlimit="10" stroke-width="2"/><g><circle cx="275.73" cy="188.67" r="5.16" fill="#fe9184"/><circle cx="295.78" cy="188.67" r="5.16" fill="#fad780"/><circle cx="315.83" cy="188.67" r="5.16" fill="#00c77d"/></g></g><g><g><rect x="580.19" y="387.95" width="226.05" height="106.81" rx="6.96" ry="6.96" fill="#374151"/><rect x="580.19" y="387.95" width="226.05" height="106.81" rx="6.96" ry="6.96" fill="none" stroke="#4b5563" stroke-miterlimit="10" stroke-width="2"/></g><g><g><rect x="601.3" y="406.68" width="85.19" height="66.96" rx="9.89" ry="9.89" transform="translate(1287.79 880.33) rotate(180)" fill="#374151"/><g><path d="M632.55,435.39c0-7.41,6.03-13.44,13.44-13.44s13.44,6.03,13.44,13.44-6.03,13.44-13.44,13.44-13.44-6.03-13.44-13.44Zm3.05,0c0,5.73,4.66,10.39,10.39,10.39s10.39-4.66,10.39-10.39-4.66-10.39-10.39-10.39-10.39,4.66-10.39,10.39Z" fill="#fdfdf3"/><rect x="632.79" y="444.3" width="5.61" height="3.05" transform="translate(-129.08 580) rotate(-45)" fill="#fdfdf3"/><rect x="621.27" y="449.1" width="15.37" height="6.74" rx="2.13" ry="2.13" transform="translate(-135.73 577.26) rotate(-45)" fill="#fdfdf3"/></g></g><g><line x1="702.22" y1="426.6" x2="780.24" y2="426.6" fill="none" stroke="#d1d5db" stroke-miterlimit="10" stroke-width="2"/><line x1="702.22" y1="440.22" x2="740.26" y2="440.22" fill="none" stroke="#d1d5db" stroke-miterlimit="10" stroke-width="2"/><line x1="702.22" y1="453.84" x2="780.24" y2="453.84" fill="none" stroke="#d1d5db" stroke-miterlimit="10" stroke-width="2"/></g></g></g><g><g><rect x="82.23" y="284.05" width="182.86" height="141.71" rx="8.95" ry="8.95" fill="#374151"/><rect x="82.23" y="284.05" width="182.86" height="141.71" rx="8.95" ry="8.95" fill="none" stroke="#4b5563" stroke-miterlimit="10" stroke-width="2"/></g><g><line x1="110.43" y1="343.2" x2="200.66" y2="343.2" fill="none" stroke="#d1d5db" stroke-miterlimit="10" stroke-width="2"/><line x1="110.43" y1="370.44" x2="200.66" y2="370.44" fill="none" stroke="#d1d5db" stroke-miterlimit="10" stroke-width="2"/><line x1="110.43" y1="356.82" x2="148.47" y2="356.82" fill="none" stroke="#d1d5db" stroke-miterlimit="10" stroke-width="2"/></g></g><g><rect x="388" y="269.05" width="217.97" height="69.81" rx="5.21" ry="5.21" fill="#6366f1"/><g><line x1="475.25" y1="296.63" x2="581.43" y2="296.63" fill="none" stroke="#fff" stroke-miterlimit="10" stroke-width="2"/><line x1="475.25" y1="310.24" x2="508.89" y2="310.24" fill="none" stroke="#fff" stroke-miterlimit="10" stroke-width="2"/></g><g><circle cx="434.15" cy="303.9" r="4.42" fill="#fff"/><path d="M449.19,300.31c-3.08-3.9-8.67-9.59-15.04-9.59s-11.96,5.69-15.04,9.59c-1.66,2.1-1.66,5.07,0,7.18,1.52,1.93,3.66,4.29,6.2,6.19v-9.79h0c0-4.88,3.96-8.84,8.84-8.84s8.84,3.96,8.84,8.84-3.96,8.84-8.84,8.84c-1.61,0-3.12-.44-4.42-1.19v4.65c1.41,.55,2.89,.88,4.42,.88,6.37,0,11.96-5.69,15.04-9.59,1.66-2.1,1.66-5.07,0-7.18Z" fill="#fff"/></g></g><g><polygon points="640.74 456 662.24 464.95 656.21 468.26 664.14 476.4 658.82 481.48 651.09 472.67 646.77 478.08 640.74 456" fill="#faefeb"/><polygon points="640.82 455.92 662.26 465.02 656.22 468.29 664.09 476.48 658.74 481.52 651.07 472.67 646.71 478.04 640.82 455.92" fill="none" stroke="#4f3b32" stroke-miterlimit="10" stroke-width=".61"/></g></g></g><path d="M466.33,488.64c15.07-.61,28.89-11.84,32.6-26.46-.25,1.61-.87,3.94-1.41,5.51,0,0-1.13,2.62-1.13,2.62l-1.36,2.52c-5.9,9.77-17.18,16.42-28.7,15.81h0Z" fill="#0c0801"/><path d="M779.76,413.07s.13-.79,2.23-1.06l-2.23,4.93s-.66-.58,0-3.88Z" fill="#db995d"/><polygon points="809.83 422.11 806.21 427.38 804.75 435.27 807.29 434.53 810.25 426.72 809.83 422.11" fill="#db995d"/><g><g><path d="M916.27,313.7h-72.6c-3.67,0-6.64-2.97-6.64-6.64v-55.43c0-3.67,2.97-6.64,6.64-6.64h72.6c3.67,0,6.64,2.97,6.64,6.64v55.43c0,3.67-2.97,6.64-6.64,6.64Z" fill="#ffd761"/><g clip-path="url(#b)"><path d="M806.4,365.76c.4,2.81,2.79,7.21,4.14,9.69,2.28,4.18,8.94,4.51,12.89,7.18,1.5,1.01,3.09,2.06,4.9,2.16,2.94,.16,5.34-2.2,7.33-4.37,3-3.28,5.99-6.56,8.99-9.84-.91-1.12-1.82-2.24-2.72-3.36-.74-.91-1.51-1.89-1.66-3.06s.61-2.53,1.79-2.57c-1.91,0-3.96-.04-5.51-1.15s-2.1-3.75-.56-4.88c-1.26-.24-2.53-.68-3.44-1.58s-1.36-2.36-.8-3.51c.45-.92,1.42-1.44,2.23-2.06,3-2.25,4.36-6.06,5.12-9.72,.76-3.67,1.11-7.49,2.73-10.87,1.4-2.91,3.66-5.29,5.65-7.83,2.81-3.57,5.13-7.52,6.89-11.7,.91-2.17,1.62-4.83,.23-6.72-.31-.43-.75-.8-1.27-.87-.8-.11-1.52,.48-2.1,1.04-9.68,9.22-17.81,19.92-25.88,30.57-2.67,3.52-3.61-.15-6.28,3.37-.57-3.03,2.15-16.71-.9-18.06-4.09,2.29-11.29,20.05-10.53,27.84,.59,6.02-2.07,14.31-1.22,20.32Z" fill="#0f74d8"/></g></g><g><path d="M873.24,274.62c0-6.11,4.97-11.07,11.07-11.07s11.07,4.97,11.07,11.07-4.97,11.07-11.07,11.07-11.07-4.97-11.07-11.07Zm2.51,0c0,4.72,3.84,8.56,8.56,8.56s8.56-3.84,8.56-8.56-3.84-8.56-8.56-8.56-8.56,3.84-8.56,8.56Z" fill="#fdfdf3"/><rect x="873.43" y="281.96" width="4.62" height="2.51" transform="translate(56.23 702.19) rotate(-45)" fill="#fdfdf3"/><rect x="863.94" y="285.92" width="12.66" height="5.55" rx="1.76" ry="1.76" transform="translate(50.76 699.93) rotate(-45)" fill="#fdfdf3"/></g></g><path d="M815.5,407.45s-7.09,17.25-10.23,28.42c0,0-14.96,14.1-29.81-9.9l23.24-49.6,16.8,31.08Z" fill="#c18465"/><g><path d="M797.85,379.37c5.82-19.43,5.5-40.92,15.47-58.59,.57-1.01,1.32-2.11,2.47-2.27,1.42-.19,2.62,1.25,2.76,2.67s-.42,2.81-.86,4.17c-1.47,4.49-1.63,9.4-.46,13.98,4.24-5.66,8.56-11.3,12.8-16.96,2.44-3.25,4.9-6.53,7.97-9.2,1.99-1.73,4.23-3.19,5.93-5.21,2.36-2.8,4.13-6.9,7.78-7.28,.54-.06,1.19,.04,1.46,.52,.13,.23,.14,.52,.14,.78-.04,6.32-4.19,11.77-8.02,16.8-3.84,5.03-7.73,10.78-7.13,17.08,1.38-1.39,2.76-2.75,4.62-3.39,1.79-.61,4.04-.71,5.3,.7,1.82,2.02,.24,5.21,.51,7.92,.28,2.79,2.59,5.6,1.29,8.08,2.41,1.91,4.31,4.87,3.86,7.92-.67,4.6-4.96,8.88-8.47,11.51-3.9,2.93-6.56,7.01-10.17,10.32-1.4,1.29-2.88,2.5-4.13,3.93-1.33,1.51-2.39,3.24-3.44,4.96-4.01,6.54-8.01,13.09-12.02,19.63-10.82-4.14-18.6-15.23-18.8-26.81-.01-.6,.03-1.27,.47-1.67s1.38-.14,1.3,.46" fill="#c18465"/><path d="M849.87,353.6c-.19,2.97-2.15,5.69-4.74,7.1-1.25,.77-2.58,1.37-3.58,2.29-4.12,3.56,.21,8.02,4.49,5.66,2.21-1.14,3.55-3.47,4.77-5.58,.2-.3,.48-.61,.85-.67-.36,.11-.57,.43-.72,.74-1.02,2.36-2.21,4.78-4.53,6.17-3.64,2.53-9.35-.7-6.98-5.24,1.1-2.06,3.41-3.08,5.31-4.04,2.55-1.21,4.49-3.58,5.12-6.44h0Z" fill="#47332b"/><path d="M804.04,366.67c.4,2.81,2.79,7.21,4.14,9.69,2.28,4.18,8.94,4.51,12.89,7.18,1.5,1.01,3.09,2.06,4.9,2.16,2.94,.16,5.34-2.2,7.33-4.37,3-3.28,5.99-6.56,8.99-9.84-.91-1.12-1.82-2.24-2.72-3.36-.74-.91-1.51-1.89-1.66-3.06s.61-2.53,1.79-2.57c-1.91,0-3.96-.04-5.51-1.15s-2.1-3.75-.56-4.88c-1.26-.24-2.53-.68-3.44-1.58s-1.36-2.36-.8-3.51c.45-.92,1.42-1.44,2.23-2.06,3-2.25,4.36-6.06,5.12-9.72s1.11-7.49,2.73-10.87c1.4-2.91,3.66-5.29,5.65-7.83,2.81-3.57,5.13-7.52,6.89-11.7,.91-2.17,1.62-4.83,.23-6.72-.31-.43-.75-.8-1.27-.87-.8-.11-1.52,.48-2.1,1.04-9.68,9.22-17.81,19.92-25.88,30.57-2.67,3.52-3.61-.15-6.28,3.37-.57-3.03,2.15-16.71-.9-18.06-4.09,2.29-11.29,20.05-10.53,27.84,.59,6.02-2.07,14.31-1.22,20.32Z" fill="#cc866e"/><path d="M846.8,343.76c-1.01,3.32-2.93,6.35-5.42,8.77-1.8,1.88-4.2,3-6.02,4.78-.56,.56-1.06,1.28-1.28,1.92-.08,.3-.03,.46,.18,.72,2.15,1.76,5.43,2.11,8.02,1.15,2.62-1.08,6.99-3.86,5.31-7.2,1.2,1.44,.33,3.57-.76,4.83-2.38,2.62-5.98,4.4-9.56,3.61-6.28-1.42-4.68-4.5-.53-7.39,1.46-.96,2.85-1.86,4.12-2.99,2.56-2.25,4.56-5.09,5.94-8.21h0Z" fill="#47332b"/><path d="M838.14,336.58c.41,3.52,.54,7.77-2.35,10.36-1.39,1.28-3.04,2.05-4.23,3.3-.65,.68-1.45,1.49-1.81,2.34,0,.03,.04,.15,.17,.29,2.81,3.21,6.88,4.03,9.53,.19,2.29-2.77,4.31-5.74,6.15-8.82-1.98,4.05-4.15,8.21-7.46,11.35-2.42,1.93-5.94,.8-7.98-1.07-.78-.71-1.96-1.72-1.06-2.82,1.43-2.39,4.13-3.79,6.19-5.33,2.83-2.32,2.83-6.39,2.85-9.79h0Z" fill="#47332b"/><path d="M817.49,343.16c1.97,1.23,2.86,3.57,3.75,5.61,2.59,6.37,3.16,13.56,1.61,20.26,0,0-.93-.18-.93-.18,.56-3.42,2.53-6.29,3.4-9.55,.71-3.26,1.56-6.64,3.45-9.46-1.58,3.03-2.2,6.3-2.78,9.64-.71,3.38-2.67,6.3-3.13,9.52,0,0-.93-.18-.93-.18,.46-2.19,.73-4.41,.82-6.64,.13-4.47-.54-8.98-2-13.22-.78-2.08-1.43-4.37-3.25-5.8h0Z" fill="#47332b"/></g><path d="M617.06,293.18s-3.01,6.84,9.47,25.3c28.06,41.51-20.99,108.71-51.16,38.12-30.16-70.59-22.86-56.76-22.86-56.76,0,0,10.77-12.85,11.29-47.43s53.26,40.77,53.26,40.77Z" fill="#c18465"/><path d="M626.53,313.29s46.54,11.58,65.74,27.87,32.75,107.92,32.75,107.92l4.1,21.27s23.44-13.8,32.1-31.7c9.4-19.43,18.88-25.84,18.91-25.86-1.63,1.1,.71,9.42,1.17,10.7,1.11,3.1,2.99,5.88,5.56,7.95,2.16,1.74,4.71,2.79,7.37,3.49,5.48,1.45,10.6,2.87,13.71-3.34,1.46-2.9,1.68-6.25,1.89-9.49,2.36,3.63-2.33,13.57-2.33,13.57l-8.55,17.01s-36.53,62.87-62,80.94c-25.48,18.07-41.29-37.73-41.29-37.73" fill="#ffd593"/><path d="M569.56,270.51s19.87,29.39,48.53,23.65l-4.8-5.42c2.44-3.48-14.8,3.39-43.73-18.23Z" fill="#995334"/><path d="M622.89,167.62s6.54,15.68,7.14,32.82c.46,13.16,3.94,25.98,5.14,39.06,1.19,12.95-.41,27.73-6.8,39.25-2.94,5.3-7.26,10.02-13.21,11.83-10.56,3.21-21.48-3.08-30.2-8.36-13.49-8.16-25.29-19.24-31.96-33.64-.14-.29-2.8-1-3.17-1.11-2.83-.86-5.6-2.12-7.97-3.9-7.19-5.37-7.33-17.6-7.48-26.03-.06-3.28-.26-5.41,2.95-6.07,2.83-.58,5.63-4.54,7.79-2.6,2.04,1.83,6.4,6.06,7.98,8.3s8.81,12.53,8.63,15.26c.71-6.6-11.23-20.33-11.34-27-.11-6.43,1.12-8.78-.06-15.11,0,0,39.38-5.24,51.17-26.06l21.39,3.36Z" fill="#c18465"/><path d="M594,227.15c-4.13,.12-7.79,1.75-11.7,2.88-2.04,.64-2.07,.59-.47-.86,1.44-1.17,3.07-2.09,4.86-2.62,2.34-.69,5.23-.92,7.31,.6h0Z" fill="#1d1d1b"/><path d="M629.23,218.59c-4.13-.14-7.88,1.27-11.86,2.15-2.07,.51-2.11,.46-.41-.89,1.51-1.08,3.19-1.9,5.01-2.31,2.37-.54,5.28-.59,7.26,1.06h0Z" fill="#1d1d1b"/><circle cx="623.83" cy="221.17" r="2.8" fill="#1d1d1b"/><circle cx="588.65" cy="229.63" r="2.8" fill="#1d1d1b"/><path d="M587.89,215.36s5.96,.56,3.5-1.93-10.65-2.69-20.79,7.28c0,0,14.41-5.28,17.29-5.35Z" fill="#1d1d1b"/><path d="M619.96,207.81s-7.65,3.16-6.85,.53,8.73-5.77,15.97-2.46c0,0,1.49,1.73-.74,1.7s-4.16-1.13-8.38,.23Z" fill="#1d1d1b"/><path d="M603.54,215.44c1.22,5.26,2.77,10.48,5.09,15.37,1.15,2.43,2.49,4.77,4.05,6.96,1.22,1.71,4.46,4.16,4.04,6.48-.38,2.1-3.43,2.94-5.22,3.32-2.54,.54-5.74,.44-8-.99" fill="none" stroke="#1d1d1b" stroke-miterlimit="10"/><path d="M622.49,256.41s-13.72,9.32-23.97,5.94c0,0,17.2,14.56,23.97-5.94Z" fill="#a80e2b"/><path d="M616.95,278.83s-3.72-3.44-8.48,2.1" fill="none" stroke="#9e7949" stroke-miterlimit="10"/><path d="M549.98,223.52c-3.54-2.63-7.78,1.01-5.98,4.87,1.31,3.4,5.65,6.08,5.02,10.21-.16-3.07-2.6-5.01-4.39-7.23-1.24-1.6-2.32-3.61-1.92-5.73,.57-3.35,5.07-4.75,7.27-2.12h0Z" fill="#1d1d1b"/><path d="M633.61,230.37c-.37-4.82-.86-9.64-1.39-14.45-.84-7.57-1.68-14.98-2.65-22.51-.95-7.35-2.98-14.7-5.15-21.78-1.23-4.01-2.57-7.82-4.72-11.42-2.04-3.41-4.62-6.48-7.7-9-3.85-3.14-8-6.08-12.35-8.5-7.91-4.4-16.8-6.32-25.82-5.99-7.98,.29-15.85,2.16-23.38,4.76-39.72,13.72-30.4,39.51-30.4,39.51,0,0-15.25-1.6-10.84,29.98,1.38,9.89,4.89,19.37,10.86,27.4,7.01,9.43,15.34,18.08,22.85,27.14,0,0-48.44,11.11-57.02,35.02-8.58,23.91,7.08,57.34,42.91,28.88,26.46-21.02,21.99-20.31,33-40.45,2.07-3.78,1.53-24.95,1.53-24.95,0,0-7.81-12.61-11.28-16.56-1.19-7.59-14.82-9.78-14.2-25.25,.59-14.85,23.42-8.79,21.65,21.66,0,0,9.22-13.31,3.74-31.1,.23,1.19-5.2-11.74,1.97-16.62,69.74,21.89,53.84-10.02,59.58,1.65,3.95,12.8,7.33,22.78,7.33,22.78" fill="#111827"/><path d="M691.14,412.22s-1.41,17.32-3.86,51.15c-2.46,33.83-4.61,83.25-10.25,98.5-5.65,15.25-5.1,25.98-5.1,25.98,0,0-119.22,34.19-177.38,18.38,0,0,23.8-32.04,6.86-142.86-14.27-93.36-1.85-144.94-1.85-144.94,0,0,27.54-4.98,55.79-16.85,0,0,23.43,80.15,56.18,77.89,32.75-2.26,11.01-68.05,11.01-68.05,0,0,39.62,8.79,56.26,20.97s19.13,53.85,12.35,79.83Z" fill="#ffd593"/><g><path d="M225.44,610.32l652.09-25.76c.44-.02,.87-.02,1.31-.01l49.1,1.08c15.68,.34,18.61,22.48,3.56,26.89l-288.21,84.43c-1.89,.55-3.87,.69-5.82,.41l-413.44-59.74c-16.52-2.39-15.26-26.63,1.42-27.29Z" fill="#1f2937"/><path d="M637.46,697.35v-23.39l-419.31-61.4s-15.69,21.92,5.87,25.04,413.44,59.74,413.44,59.74Z" fill="#374151"/><path d="M637.46,673.97l296.56-86.9s12.64,10.72,1.6,23.52l-298.16,86.76v-23.39Z" fill="#4b5563"/></g><path d="M542.05,606.19l164.99-30.69c5.19-1.7,9.22-.35,9.22-.35l9.89,2.64,3.32,1.59-18.06,53.66-169.36-26.84Z" fill="#6b7280" stroke="#374151" stroke-miterlimit="10"/><polygon points="723.44 580.91 620.48 608.14 665.88 618.3 715.86 604.93 723.44 580.91" fill="#4b5563"/><path d="M620.51,586.18s1.95-.04,4.02-2.77l-5.93-1.21,1.91,3.98Z" fill="#db995d"/><path d="M591.45,529.31c41.12,13.53,80.63,6.97,91.94-16.98l-8.66,55.37-87.48,3.31-25.45-50.96" fill="#fdc280"/><path d="M630.32,551.89s39.49,20.02,51.97,21.02-11.29,20.01-11.29,20.01l-52.39-10.73s-3.61-28.05,11.72-30.31Z" fill="#c18465"/><path d="M524.11,365.3s14.2,40.46,10.25,84.51-21.08,44.15,14.14,65.15l-45.33,17.09-5.6-44.05s7.91-29.53,10.73-38.2c2.82-8.67,3.95-48.19,4.52-52.15,.56-3.96,11.29-32.35,11.29-32.35Z" fill="#fdc280"/><path d="M526.81,402.91c-6.92,51.57-27.83,83.09-7.77,94.57,12.54,7.18,19.4,12.01,22.78,14.63,1.95,1.51,4.37,1.99,6.67,2.85,52.54,19.71,87.64,36.93,87.64,36.93-16.38-4.52-15.62,34.29-15.62,34.29,0,0-22.59-4.36-36.76-9.27-43.24-4.55-136.72-57.04-138.41-72.09s7.91-91.11,17.51-132.86c5.91-25.69,19.94-41.75,29.86-50.3,6.34-5.47,15.97-4.32,20.89,2.45,8.69,11.95,18.97,35.82,13.21,78.79Z" fill="#ffd593"/><g><path d="M731.3,557.75c.09-.71,.18-1.42,.27-2.13,7.11,5.64,14.22,11.28,21.33,16.92,1.14,.9,2.38,1.85,3.83,1.91s3.02-1.26,2.62-2.66c-.11-.39-.35-.73-.6-1.05-7.76-10.42-19.19-18.05-31.79-21.23-4.74-1.19-9.9-1.74-14.38,.22-8.63,3.78-11.47,15.18-19.61,19.91-5.66,3.29-31.45,2.26-31.24,16.55,.07,4.71,4.74,5.43,9.26,6.74s18.91,2.04,23.09-.11c3.9-2.01,6.66-5.72,10.4-8.01,4-2.45,7.66-4.93,12.15-6.29,4.98-1.5,10.44-.39,15.14,1.84,4.7,2.24,8.79,5.53,12.96,8.63,.95,.71,2.67,1.18,2.98,.04,.55,.93,1.95,1.05,2.86,.48s1.42-1.63,1.7-2.67c1.29-4.76-1.01-9.73-3.71-13.87-3.87-5.94-8.7-11.25-14.24-15.67" fill="#c18465"/><path d="M751.01,584.14c-2.77-3.23-5.13-6.83-6.99-10.66-1.37-2.82-2.53-5.87-4.84-8-1.92-1.77-4.44-2.71-6.9-3.61-4.67-1.71-9.39-3.44-14.33-4" fill="none" stroke="#47332b" stroke-miterlimit="10"/><path d="M750.07,586.18c-6.4-4.2-9.86-11.92-16.32-16.03-4.67-2.98-10.37-3.73-15.87-4.41" fill="none" stroke="#47332b" stroke-miterlimit="10"/></g><path d="M611.52,379.47l-7.31-.87,7.31,62.98s10.15,9.41,11.38,0l-4.07-64.05-7.31,1.93Z" fill="#ffdeb3"/><path d="M694.56,387.4s-2.93,51.55,.62,70.19,13.98,67.62,13.98,67.62l-23.25-52.38s-3.99-40.77,8.65-85.43Z" fill="#fdc280"/><path d="M620.52,584.19c-40.57-5.31-79.72-19.04-116.37-36.95-18.17-9.2-36.42-19.03-51.75-32.61-2.81-2.82-6.23-5.75-7.06-9.81,.91,4.02,4.38,6.87,7.22,9.62,9.24,8.03,19.75,14.47,30.34,20.56,42.7,23.73,89.24,41.56,137.62,49.18h0Z" fill="#47332b"/><path d="M513.61,324.12c23.17,32.55,15.67,78.62,6.34,114.9-2.83,11.14-7.93,27.03-9.21,38.37,.94-11.32,5.76-27.38,8.46-38.56,8.91-36.31,16.54-81.74-5.59-114.71h0Z" fill="#47332b"/><path d="M503.85,588.69c2.59-8.08,4.13-16.46,4.47-24.94,.01-.57,.04-1.13,.07-1.7,1.15,9.05-.45,18.49-4.54,26.65h0Z" fill="#47332b"/><path d="M691.31,404.84c-1.09,7.83-2.3,15.52-3.68,23.31,0-7.9,1.25-15.79,3.68-23.31h0Z" fill="#47332b"/><path d="M685.31,492.72c-1.34,20.2-3.37,40.47-6.04,60.54,1.34-20.2,3.37-40.47,6.04-60.54h0Z" fill="#47332b"/><path d="M578.41,352.78c3.01,3.77,4.81,8.34,7.72,12.13,8.37,11.86,24.3,18.59,36.82,8.8,5.84-4.52,6.87-12.31,6.91-19.25,.29-11.98-1.67-23.97-5.61-35.29,4.43,11.19,6.62,23.27,6.47,35.3,.03,7.17-1.11,15.3-7.14,20-13.16,10.06-29.33,3.26-37.85-9.29-2.82-3.95-4.5-8.52-7.32-12.42h0Z" fill="#47332b"/><path d="M627.55,279.55c6.84-11.35,7.16-25,6.72-37.87,0,0-.13-5.61-.13-5.61,1.79,14.58,2.56,31.06-6.59,43.48h0Z" fill="#47332b"/><path d="M551.97,248.4c5.07,6.14,9.59,12.68,13.53,19.61-5.08-6.14-9.58-12.69-13.53-19.61h0Z" fill="#47332b"/><path d="M676.06,330.55c11.47,4.38,23.77,12.92,26.32,25.44,2.82,8.19,6.83,19.67,9.54,27.77,1.82,8.02,3.63,16.04,5.35,24.08,1.71,8.03,3.48,16.05,4.89,24.13-3.03-13.58-7.99-34.2-11.14-47.96-2.72-7.79-6.74-19.69-9.48-27.8-2.56-12.62-14.35-20.78-25.48-25.66h0Z" fill="#47332b"/><path d="M798.95,452.69c-12.32,20.56-25.35,40.76-40.22,59.58-8.85,10.32-22.8,30.21-38.47,24.13-7.63-3.19-12.47-10.49-15.77-17.73-4.51-11.05-13.56-33.35-17.97-44.44,4.71,10.99,14.05,33.11,18.67,44.13,3.29,6.97,8.05,14.17,15.4,17.2,14.76,5.87,28.96-14.03,37.42-23.85,14.88-18.76,28.16-38.76,40.93-59.01h0Z" fill="#47332b"/><path d="M779.11,415.66c-6.55,8.08-13.7,16.48-19.67,24.95-7.64,11.31-17.28,21.33-28.04,29.7,9.06-7.97,17.46-16.84,24.65-26.53,6.84-10.02,14.79-19.25,23.06-28.12h0Z" fill="#47332b"/><path d="M637.76,552.39s1.47,1.06,3.16,4.59l-11.12-5.09s5.59-.82,7.96,.5" fill="#db995d"/><path d="M914.98,442.57l-4.14-1.23-132.61,14.02s-10.83,1.98-14.22,10.12" fill="#6b7280" stroke="#374151" stroke-miterlimit="10"/><g opacity=".2"><path d="M592.44,310.97c-9.93-1.05-18.64-9.43-24.52-17-.83-1.19-1.67-2.37-2.43-3.61,1.1,.95,2.13,1.96,3.16,2.95,7.24,6.69,14.46,13.99,23.78,17.65h0Z" fill="#995334"/></g><path d="M861.56,596.48l57.59-146.56c1.48-3.77-1.58-7.77-5.61-7.32l-132.19,14.7c-7.65,.85-14.1,6.1-16.48,13.42l-55.36,169.91,152.05-44.15Z" fill="#4b5563" stroke="#374151" stroke-miterlimit="10"/><polyline points="764.22 464.83 707.94 636.51 710.17 638.61 765.2 469.72" fill="#6b7280" stroke="#374151" stroke-miterlimit="10"/><path d="M707.64,631.61l-166.53-25.38s-2.4,1.22-2.57,6.69l169.45,27.91-.35-9.22Z" fill="#4b5563" stroke="#374151" stroke-miterlimit="10"/><path d="M621.22,407.59c1.97,8.76,2.25,17.87,1.14,26.77-.3,2.23-.68,4.44-1.16,6.64-.25,1.79-1.12,4.02-3.34,3.78-5.08-1.05-8.74-6.31-9.4-11.13,.97,4.29,3.97,8.14,7.96,9.94,.96,.4,2.08,.55,2.77-.01,.71-.56,.9-1.68,1.11-2.76,.45-2.18,.79-4.38,1.06-6.58,1.21-8.83,1.02-17.8-.15-26.64h0Z" fill="#47332b"/></svg>