<svg xmlns="http://www.w3.org/2000/svg" xmlns:xlink="http://www.w3.org/1999/xlink" width="545" height="387"><style><![CDATA[.B{stroke-width:2}.C{fill:#c18465}.D{stroke:#374151}.E{stroke:#4b5563}.F{fill:#374151}.G{fill:#47332b}.H{fill:#4b5563}.I{fill:#db995d}.J{fill:#ffd593}.K{fill:#6b7280}.L{fill:#fdc280}]]></style><defs><path id="A" d="M0 .209h462.947v296.624H0z"/><path d="M4.573.316C2.254.316.376 2.184.376 4.489h0v34.839c0 2.304 1.879 4.173 4.197 4.173h0 45.896c2.318 0 4.197-1.869 4.197-4.173h0V4.489c0-2.305-1.879-4.173-4.198-4.173h0" id="B"/><path id="C" d="M.517.03h458.437v71.074H.517z"/><path id="D" d="M424.811 273.348H111.777a4.63 4.63 0 0 1-4.634-4.626V58.821a4.63 4.63 0 0 1 4.634-4.626h313.034a4.63 4.63 0 0 1 4.634 4.626v209.901a4.63 4.63 0 0 1-4.634 4.626z"/><path id="E" d="M129.851 66.042c0 1.79-1.453 3.24-3.246 3.24s-3.246-1.45-3.246-3.24 1.453-3.24 3.246-3.24 3.246 1.45 3.246 3.24"/><path id="F" d="M257.59 53.705a1.76 1.76 0 0 0 2.13 1.286 1.76 1.76 0 1 0-.846-3.417 1.76 1.76 0 0 0-1.285 2.132"/><path id="G" d="M207.877 295.549l103.738-19.313c3.263-1.071 5.795-.218 5.795-.218l6.222 1.662 2.088.998-11.356 33.762-106.487-16.891z"/><path id="H" d="M442.36 192.593l-2.604-.774-83.378 8.822s-6.809 1.245-8.939 6.368"/><path id="I" d="M408.775 289.441l36.213-92.219c.932-2.374-.993-4.889-3.526-4.607l-83.118 9.247c-4.811.535-8.864 3.838-10.364 8.444l-34.807 106.914 95.603-27.778z"/><path id="J" d="M347.573 206.6l-35.391 108.03 1.403 1.32 34.599-106.274"/><path id="K" d="M311.994 311.543l-104.709-15.972s-1.511.768-1.618 4.21l106.545 17.562-.218-5.8z"/></defs><g fill="none" fill-rule="evenodd"><g transform="translate(0 .454)"><mask id="L" fill="#fff"><use xlink:href="#A"/></mask><path d="M1.193 249.21l-.073-.68C-8.706 154.885 46.936 61.203 135.192 26.914 215.867-4.429 326.198-17.785 397.635 41.41c30.539 25.306 51.779 61.228 60.292 99.843 5.424 24.601 6.984 50.368 2.022 75.184-4.021 20.11-14.948 56.485-36.514 63.854-7.605 2.599-15.891 1.899-23.896 1.167-49.092-4.483-97.081-9.213-146.332-7.893a995.54 995.54 0 0 0-127.366 11.628l-56.654 8.929c-15.997 2.724-34.885 5.835-49.166-4.053-12.739-8.821-17.135-25.431-18.828-40.86" fill="#1f2937" mask="url(#L)"/><g class="B"><path d="M107.143 77.415h322.301" class="E"/><use xlink:href="#D" stroke="#fff"/><use xlink:href="#D" class="E"/></g><use xlink:href="#E" fill="#fe9184"/><use xlink:href="#E" x="12.613" fill="#fad780"/><use xlink:href="#E" x="25.227" fill="#00c77d"/><path d="M455.902 258.236H322.483c-2.419 0-4.38-1.958-4.38-4.373v-58.321c0-2.415 1.961-4.373 4.38-4.373h133.419c2.419 0 4.38 1.958 4.38 4.373v58.321c0 2.415-1.961 4.373-4.38 4.373" class="F"/><path d="M455.902 258.236H322.483c-2.419 0-4.38-1.958-4.38-4.373v-58.321c0-2.415 1.961-4.373 4.38-4.373h133.419c2.419 0 4.38 1.958 4.38 4.373v58.321c0 2.415-1.961 4.373-4.38 4.373z" class="B E"/><path d="M337.602 244.976h41.146c3.434 0 6.218-2.779 6.218-6.207v-29.628c0-3.428-2.784-6.207-6.218-6.207h-41.146c-3.434 0-6.218 2.779-6.218 6.207v29.628c0 3.428 2.784 6.207 6.218 6.207" class="F"/><g fill="#fdfdf3"><path d="M352.956 220.96c0 3.599 2.933 6.527 6.538 6.527s6.538-2.928 6.538-6.527-2.933-6.527-6.538-6.527-6.538 2.928-6.538 6.527m-1.915 0c0-4.653 3.792-8.439 8.453-8.439s8.453 3.786 8.453 8.439-3.792 8.439-8.453 8.439-8.453-3.786-8.453-8.439"/><path d="M352.384 229.428l2.496-2.492-1.354-1.352-2.496 2.492z"/><path d="M349.746 227.719l-4.939 4.931a1.34 1.34 0 0 0 0 1.893l1.099 1.097c.524.523 1.373.523 1.897 0l4.939-4.93a1.34 1.34 0 0 0 0-1.894l-1.099-1.097c-.524-.523-1.373-.523-1.897 0"/></g><path d="M394.857 215.442h49.074m-49.074 8.55h23.926m-23.926 8.55h49.074" stroke="#d1d5db" class="B"/><path d="M114.29 214.912H10.53c-3.108 0-5.627-2.515-5.627-5.618v-77.742c0-3.103 2.519-5.619 5.627-5.619h103.76c3.108 0 5.627 2.515 5.627 5.619v77.742c0 3.102-2.52 5.618-5.627 5.618" class="F"/><g class="B"><path d="M114.29 214.912H10.53c-3.108 0-5.627-2.515-5.627-5.618v-77.742c0-3.103 2.519-5.619 5.627-5.619h103.76c3.108 0 5.627 2.515 5.627 5.619v77.742c0 3.102-2.52 5.618-5.627 5.618z" class="E"/><g stroke="#d1d5db"><path d="M22.641 163.074h56.748m-56.748 17.1h56.748"/><path d="M22.641 171.624h23.926"/></g></g><path d="M331.044 160.346H200.501c-1.81 0-3.277-1.465-3.277-3.271v-37.292c0-1.807 1.467-3.271 3.277-3.271h130.543c1.81 0 3.277 1.464 3.277 3.271v37.292c0 1.806-1.467 3.271-3.277 3.271" fill="#6366f1"/><path d="M252.101 133.827h66.786m-66.786 8.55h21.161" stroke="#fff" class="B"/><path d="M226.251 135.619a2.78 2.78 0 1 1-2.78 2.775 2.78 2.78 0 0 1 2.78-2.775m9.459.522c-1.939-2.451-5.451-6.023-9.459-6.023s-7.521 3.572-9.459 6.023c-1.044 1.32-1.044 3.186 0 4.506.958 1.212 2.301 2.697 3.899 3.889v-6.145h0c.001-3.064 2.49-5.548 5.56-5.548s5.56 2.485 5.56 5.551-2.489 5.551-5.56 5.551c-1.014 0-1.962-.276-2.78-.749v2.922c.889.345 1.82.552 2.78.552 4.008 0 7.521-3.572 9.459-6.023 1.044-1.32 1.044-3.186 0-4.506" fill="#fff"/><path fill="#faefeb" d="M356.188 233.897l13.523 5.625-3.788 2.077 4.987 5.111-3.346 3.187-4.861-5.526-2.72 3.393z"/><path stroke="#4f3b32" stroke-width=".611" d="M356.241 233.849l13.485 5.714-3.802 2.052 4.953 5.143-3.368 3.164-4.824-5.558-2.742 3.374z"/><path d="M246.49 254.394c2.375-.107 4.707-.61 6.89-1.474s4.236-2.046 6.039-3.54c1.834-1.455 3.417-3.218 4.712-5.171s2.269-4.13 2.863-6.427l-.354 1.748-.531 1.709-.711 1.647-.857 1.58c-1.242 2.056-2.873 3.869-4.725 5.401-1.884 1.493-3.995 2.716-6.267 3.504l-1.725.512-1.761.356-1.785.168a80.45 80.45 0 0 1-1.786-.013" fill="#0c0801"/><path d="M443.63 206.945s.082-.498 1.403-.663l-1.403 3.098s-.414-.365 0-2.435m18.912 5.675l-2.278 3.306-.917 4.958 1.598-.467 1.866-4.905z" class="I"/><path d="M529.491 144.547h-45.663c-2.306 0-4.176-1.866-4.176-4.169v-34.802c0-2.302 1.869-4.169 4.176-4.169h45.663c2.306 0 4.176 1.867 4.176 4.169v34.802c0 2.303-1.87 4.169-4.176 4.169" fill="#ffd761"/></g><g transform="translate(479 101.454)"><mask id="M" fill="#fff"><use xlink:href="#B"/></mask><path d="M-18.987 76.226c.251 1.764 1.761 4.529 2.618 6.094 1.44 2.629 5.652 2.834 8.146 4.513.946.637 1.955 1.295 3.095 1.356 1.859.098 3.376-1.382 4.631-2.749l5.683-6.186-1.722-2.113c-.468-.575-.955-1.191-1.049-1.924s.388-1.592 1.132-1.617c-1.207.002-2.503-.023-3.481-.726s-1.327-2.359-.353-3.067c-.795-.153-1.6-.426-2.177-.991s-.862-1.483-.503-2.205c.287-.577.895-.908 1.412-1.295 1.894-1.414 2.754-3.807 3.237-6.112s.699-4.709 1.726-6.83c.884-1.827 2.312-3.326 3.572-4.921 1.773-2.245 3.243-4.726 4.356-7.357.577-1.361 1.025-3.035.145-4.226-.198-.268-.475-.502-.806-.548-.507-.071-.958.302-1.329.654C3.224 41.769-1.911 48.497-7.018 55.192c-1.687 2.213-2.282-.095-3.97 2.118-.358-1.903 1.357-10.503-.571-11.353-2.584 1.439-7.137 12.605-6.654 17.498.374 3.785-1.312 8.997-.774 12.771" fill="#0f74d8" mask="url(#M)"/></g><g transform="translate(86 33.454)"><g fill="#fdfdf3"><path d="M417.695 86.917c0 2.972 2.416 5.389 5.385 5.389s5.385-2.417 5.385-5.389-2.416-5.389-5.385-5.389-5.385 2.417-5.385 5.389m-1.578 0c0-3.842 3.123-6.968 6.962-6.968s6.963 3.126 6.963 6.968-3.124 6.968-6.963 6.968-6.962-3.126-6.962-6.968"/><path d="M417.224 93.908l2.055-2.057-1.115-1.116-2.055 2.057z"/><path d="M415.051 92.497l-4.068 4.071c-.431.432-.431 1.131 0 1.563l.905.906c.432.432 1.131.432 1.562 0l4.068-4.071c.431-.432.431-1.132 0-1.564l-.905-.905c-.431-.432-1.131-.432-1.562 0"/></g><g class="C"><path d="M379.812 170.493s-4.458 10.853-6.433 17.884c0 0-9.409 8.87-18.745-6.232l14.615-31.209 10.563 19.557z"/><path d="M368.715 152.825c3.662-12.224 3.459-25.749 9.726-36.864.359-.636.832-1.327 1.556-1.426.892-.122 1.645.785 1.739 1.681s-.264 1.767-.543 2.623c-.922 2.825-1.024 5.913-.291 8.794l8.048-10.672c1.532-2.046 3.08-4.11 5.009-5.786 1.25-1.087 2.658-2.01 3.727-3.276 1.486-1.762 2.599-4.344 4.891-4.583.342-.036.749.024.917.324.082.148.088.325.087.493-.023 3.979-2.633 7.407-5.045 10.57s-4.861 6.786-4.485 10.747c.87-.872 1.739-1.733 2.903-2.131 1.125-.385 2.54-.446 3.334.439 1.144 1.274.15 3.276.319 4.98.175 1.752 1.628 3.524.809 5.083 1.518 1.201 2.709 3.068 2.428 4.984-.424 2.897-3.118 5.586-5.323 7.245-2.452 1.844-4.126 4.41-6.394 6.494-.881.809-1.808 1.576-2.597 2.475-.835.953-1.501 2.04-2.162 3.121l-7.557 12.352c-6.805-2.603-11.696-9.583-11.823-16.872-.006-.376.018-.8.297-1.052s.869-.087.82.286"/></g><path d="M401.423 136.609c-.064.916-.399 1.81-.909 2.596-.519.781-1.272 1.411-2.072 1.875-.786.485-1.62.863-2.248 1.44-.629.562-1.121 1.338-1.046 2.119.043.774.694 1.448 1.455 1.716.761.289 1.657.114 2.415-.276.77-.397 1.401-1.046 1.917-1.778a13.19 13.19 0 0 0 .738-1.138l.346-.593c.126-.189.302-.384.535-.42-.224.069-.357.271-.453.468l-.281.622-.629 1.231c-.479.788-1.109 1.531-1.937 2.03-.813.499-1.864.739-2.846.417-.941-.312-1.8-1.141-1.888-2.229-.045-.528.108-1.047.346-1.485.244-.438.565-.817.935-1.131.752-.63 1.609-1 2.404-1.413 1.605-.76 2.826-2.255 3.217-4.051" class="G"/><path d="M372.609 144.835c.25 1.766 1.751 4.534 2.604 6.1 1.432 2.632 5.622 2.837 8.102 4.517.941.637 1.944 1.297 3.078 1.357 1.849.098 3.358-1.383 4.606-2.752l5.652-6.193-1.713-2.115c-.466-.575-.95-1.192-1.043-1.926s.386-1.594 1.125-1.619c-1.2.002-2.49-.023-3.463-.727s-1.32-2.362-.351-3.07c-.791-.154-1.591-.426-2.165-.992s-.857-1.484-.5-2.207c.285-.578.89-.909 1.405-1.296 1.884-1.416 2.74-3.811 3.219-6.119s.695-4.714 1.717-6.837c.879-1.829 2.299-3.33 3.553-4.926 1.764-2.247 3.226-4.731 4.333-7.365.573-1.363 1.019-3.039.144-4.23-.197-.269-.472-.503-.802-.549-.504-.071-.953.303-1.322.654-6.088 5.8-11.196 12.535-16.275 19.238-1.678 2.216-2.27-.095-3.949 2.121-.356-1.905 1.35-10.514-.568-11.365-2.571 1.441-7.098 12.619-6.618 17.516.372 3.789-1.305 9.007-.77 12.784" fill="#cc866e"/><g class="G"><path d="M399.492 130.417c-.312 1.038-.781 2.031-1.347 2.966-.581.926-1.275 1.786-2.062 2.554-.771.786-1.711 1.408-2.579 2.018-.433.311-.852.627-1.208.992-.349.352-.664.804-.805 1.21-.052.187-.021.293.114.452.133.151.35.277.576.401.45.242.936.415 1.437.525 1 .222 2.072.16 3.031-.199a7.91 7.91 0 0 0 2.637-1.699c.371-.362.673-.808.839-1.306.165-.491.176-1.068-.135-1.525.369.413.433 1.036.296 1.57-.131.543-.409 1.046-.775 1.471-.748.822-1.659 1.471-2.679 1.937-1.042.469-2.222.542-3.335.335-.558-.108-1.098-.302-1.605-.566-.245-.135-.511-.272-.746-.524-.115-.125-.223-.284-.274-.479s-.035-.402.013-.566c.445-1.185 1.386-1.897 2.278-2.518.919-.602 1.795-1.173 2.591-1.885a13.77 13.77 0 0 0 2.135-2.371c.64-.86 1.157-1.808 1.601-2.795"/><path d="M394.052 125.9c.13 1.126.2 2.267.055 3.415a5.96 5.96 0 0 1-.481 1.677 4.64 4.64 0 0 1-1.049 1.428c-.876.807-1.909 1.291-2.662 2.077a7.77 7.77 0 0 0-1.038 1.255c-.073.106-.104.191-.098.215-.004.021.026.092.106.184a5.47 5.47 0 0 0 .564.565c.797.703 1.824 1.215 2.853 1.182a2.5 2.5 0 0 0 1.427-.482c.424-.305.79-.715 1.148-1.146l2.032-2.699 1.837-2.852c-.46 1.038-1.005 2.036-1.578 3.02l-1.911 2.831c-.341.458-.711.924-1.203 1.292-.484.376-1.106.603-1.726.632-1.257.053-2.401-.536-3.294-1.304a6.25 6.25 0 0 1-.628-.642c-.097-.122-.238-.302-.245-.571.001-.265.124-.438.204-.564.331-.489.707-.944 1.138-1.345.857-.828 1.922-1.324 2.754-2.009.841-.682 1.34-1.707 1.547-2.798.24-1.089.235-2.231.246-3.363m-12.984 4.146c.621.366 1.077.964 1.432 1.586l.492.96.434.986c.538 1.332.943 2.722 1.207 4.14.243 1.421.368 2.867.333 4.312a20.12 20.12 0 0 1-.531 4.296l-.585-.111c.179-1.093.592-2.104 1.01-3.078.409-.981.873-1.919 1.129-2.93l.792-3.079c.352-1.009.802-1.983 1.376-2.876-.468.951-.856 1.937-1.121 2.954-.264 1.01-.422 2.069-.629 3.113-.445 2.126-1.679 3.962-1.969 5.989l-.585-.111c.287-1.376.458-2.776.516-4.18s-.045-2.818-.261-4.209a21.35 21.35 0 0 0-.997-4.11c-.491-1.307-.898-2.752-2.044-3.649"/></g><path d="M255.043 98.595s-1.893 4.304 5.954 15.919c17.644 26.117-13.198 68.401-32.165 23.985s-14.376-35.717-14.376-35.717 6.774-8.083 7.097-29.842 33.49 25.654 33.49 25.654" class="C"/><path d="M260.997 111.247s29.262 7.288 41.334 17.536 20.594 67.907 20.594 67.907l2.579 13.386s14.74-8.683 20.185-19.944c5.91-12.225 11.871-16.261 11.887-16.271-1.026.693.445 5.93.733 6.733.699 1.951 1.878 3.699 3.498 5.002 1.359 1.092 2.961 1.752 4.633 2.197 3.444.915 6.664 1.803 8.622-2.1.917-1.828 1.059-3.933 1.186-5.973 1.487 2.285-1.464 8.541-1.464 8.541l-5.375 10.703s-22.966 39.561-38.985 50.931-25.96-23.74-25.96-23.74" class="J"/><path d="M225.178 84.325s12.496 18.49 30.511 14.882l-3.016-3.41c1.532-2.188-9.308 2.132-27.495-11.472" fill="#995334"/><path d="M258.707 19.585s4.113 9.863 4.489 20.65c.289 8.278 2.474 16.345 3.232 24.575.75 8.149-.261 17.451-4.278 24.699-1.847 3.333-4.567 6.306-8.305 7.444-6.64 2.02-13.503-1.941-18.988-5.259-8.485-5.134-15.903-12.109-20.096-21.167-.086-.185-1.759-.627-1.996-.699-1.781-.539-3.519-1.336-5.014-2.453-4.521-3.38-4.608-11.078-4.7-16.378-.036-2.061-.162-3.402 1.857-3.818 1.783-.367 3.541-2.855 4.896-1.639 1.281 1.15 4.027 3.814 5.018 5.223s5.541 7.884 5.425 9.603c.448-4.155-7.06-12.79-7.131-16.989-.068-4.044.702-5.523-.036-9.508 0 0 24.763-3.295 32.177-16.395l13.45 2.112z" class="C"/><g fill="#1d1d1b"><path d="M240.54 57.046c-.782.004-1.481.129-2.179.277s-1.373.337-2.052.548l-2.062.654-1.063.333-1.12.289c.252-.306.538-.567.825-.831l.936-.685c.662-.398 1.364-.746 2.12-.965.748-.23 1.541-.358 2.34-.327.787.04 1.622.203 2.255.707m22.156-5.389c-.781-.044-1.487.037-2.191.141a22.77 22.77 0 0 0-2.083.42l-2.098.525-1.081.266-1.136.218c.27-.289.572-.532.875-.778l.977-.625c.686-.357 1.408-.661 2.176-.831.761-.183 1.56-.262 2.355-.181.783.089 1.606.303 2.208.845"/><use xlink:href="#F"/><use xlink:href="#F" x="-22.116" y="5.323"/><path d="M236.703 49.626s3.746.353 2.199-1.216-6.7-1.695-13.071 4.583c0 0 9.061-3.322 10.873-3.366m20.161-4.755s-4.813 1.986-4.306.335 5.491-3.631 10.041-1.551c0 0 .939 1.087-.467 1.069s-2.616-.713-5.268.147"/></g><path d="M246.538 49.674c.766 3.311 1.743 6.594 3.201 9.671.724 1.527 1.566 3 2.545 4.378.766 1.079 2.804 2.619 2.537 4.079-.242 1.324-2.154 1.849-3.28 2.087-1.6.339-3.61.275-5.031-.624" stroke="#1d1d1b"/><path d="M258.455 75.456s-8.627 5.866-15.07 3.735c0 0 10.812 9.16 15.07-3.735" fill="#a80e2b"/><path d="M254.97 89.56s-2.338-2.166-5.329 1.321" stroke="#9e7949"/><path d="M212.861 54.759c-.974-.766-2.379-.72-3.2.037-.416.369-.708.865-.785 1.401-.087.537.013 1.099.228 1.627.414 1.08 1.244 1.963 1.986 2.956.37.498.712 1.034.944 1.624.218.593.323 1.234.224 1.844-.058-1.253-.77-2.263-1.551-3.161l-1.208-1.39c-.386-.497-.733-1.038-.98-1.642-.233-.605-.36-1.291-.228-1.964s.523-1.282 1.063-1.676a2.59 2.59 0 0 1 1.864-.515c.639.086 1.247.382 1.642.86" fill="#1d1d1b"/><path d="M265.451 59.068l-.877-9.092-1.667-14.165c-.599-4.622-1.874-9.249-3.24-13.706-.772-2.523-1.613-4.919-2.966-7.188-1.281-2.147-2.904-4.079-4.841-5.662-2.419-1.978-5.031-3.823-7.767-5.347-4.972-2.769-10.565-3.979-16.237-3.77-5.02.184-9.968 1.359-14.701 2.996-24.973 8.634-19.115 24.861-19.115 24.861s-9.587-1.007-6.815 18.862c.868 6.226 3.073 12.188 6.828 17.244 4.406 5.932 9.645 11.378 14.367 17.076 0 0-30.46 6.993-35.852 22.038s4.452 36.078 26.98 18.169c16.638-13.226 13.827-12.78 20.751-25.453 1.298-2.377.962-15.702.962-15.702s-4.911-7.935-7.091-10.419c-.747-4.775-9.321-6.153-8.931-15.888.373-9.342 14.726-5.53 13.615 13.63 0 0 5.795-8.374 2.354-19.567.148.748-3.27-7.385 1.236-10.456 43.851 13.774 33.85-6.307 37.459 1.036l4.609 14.335" fill="#111827"/><path d="M301.621 173.499l-2.43 32.183c-1.545 21.287-2.897 52.386-6.447 61.98s-3.209 16.345-3.209 16.345-74.958 21.514-111.531 11.565c0 0 14.966-20.163 4.314-89.89-8.974-58.745-1.163-91.203-1.163-91.203s17.319-3.133 35.076-10.601c0 0 14.731 50.433 35.325 49.012s6.923-42.817 6.923-42.817 24.913 5.532 35.376 13.195 12.026 33.887 7.765 50.232" class="J"/><g transform="translate(0 281.897)"><mask id="N" fill="#fff"><use xlink:href="#C"/></mask><path d="M8.805 16.25L418.818.04l.822-.007 30.87.677c9.859.216 11.7 14.143 2.237 16.918L271.528 70.755a8.62 8.62 0 0 1-3.659.26L7.911 33.423c-10.388-1.502-9.594-16.758.893-17.172" fill="#1f2937" mask="url(#N)"/></g><path d="M267.869 352.911v-14.715L4.218 299.562s-9.868 13.796 3.693 15.757l259.957 37.592" class="F"/><path d="M267.869 338.196l186.468-54.677s7.95 6.745 1.004 14.8l-187.472 54.592v-14.715z" class="H"/><use xlink:href="#G" class="K"/><use xlink:href="#G" class="D"/><path d="M321.928 279.641l-64.735 17.134 28.547 6.392 31.426-8.413z" class="H"/><path d="M257.212 282.961s1.223-.023 2.525-1.744l-3.727-.764 1.202 2.507z" class="I"/><path d="M238.941 247.171c25.853 8.514 50.699 4.386 57.81-10.682l-5.442 34.838-55.007 2.08-16.001-32.065" class="L"/><path d="M263.378 261.384s24.829 12.595 32.677 13.226-7.1 12.594-7.1 12.594l-32.944-6.751s-2.268-17.648 7.367-19.07" class="C"/><path d="M196.595 143.973s8.929 25.458 6.444 53.173-13.256 27.78 8.891 40.997l-28.499 10.755-3.523-27.716 6.746-24.037c1.776-5.456 2.486-30.325 2.841-32.815s7.101-20.359 7.101-20.359" class="L"/><path d="M198.296 167.636c-4.35 32.448-17.496 52.282-4.883 59.507 7.883 4.515 12.196 7.558 14.321 9.206 1.224.948 2.746 1.251 4.195 1.795 33.034 12.403 55.107 23.24 55.107 23.24-10.297-2.843-9.823 21.577-9.823 21.577s-14.203-2.744-23.114-5.834c-27.189-2.864-85.964-35.888-87.03-45.36s4.971-57.33 11.007-83.597c3.715-16.166 12.54-26.27 18.778-31.652 3.986-3.439 10.043-2.718 13.136 1.543 5.461 7.521 11.93 22.537 8.306 49.576" class="J"/><path d="M326.871 265.071l.169-1.338 13.41 10.643c.716.568 1.498 1.162 2.411 1.199s1.9-.793 1.649-1.673c-.07-.245-.223-.457-.375-.662-4.881-6.556-12.065-11.357-19.987-13.358-2.977-.752-6.228-1.096-9.04.137-5.424 2.378-7.211 9.55-12.331 12.529-3.556 2.07-19.777 1.424-19.644 10.411.043 2.961 2.982 3.415 5.822 4.244s11.89 1.286 14.519-.072c2.45-1.265 4.186-3.6 6.537-5.043 2.515-1.545 4.815-3.105 7.64-3.958 3.131-.946 6.565-.247 9.517 1.16s5.528 3.477 8.15 5.432c.595.444 1.678.741 1.876.025.344.586 1.225.663 1.801.302s.89-1.024 1.068-1.679c.813-2.996-.635-6.124-2.33-8.725a42.03 42.03 0 0 0-8.953-9.861" class="C"/><path d="M339.265 281.671a31.17 31.17 0 0 1-4.393-6.708c-.86-1.777-1.592-3.695-3.044-5.033-1.208-1.114-2.794-1.706-4.337-2.273-2.934-1.078-5.902-2.165-9.007-2.517m20.191 17.821c-4.026-2.641-6.2-7.497-10.259-10.087-2.936-1.874-6.522-2.347-9.979-2.775" stroke="#47332b"/><path d="M251.557 152.89l-4.593-.544 4.593 39.631s6.381 5.922 7.155 0l-2.561-40.303-4.594 1.216z" fill="#ffdeb3"/><path d="M303.77 157.879s-1.84 32.439.39 44.165 8.791 42.551 8.791 42.551l-14.621-32.957s-2.506-25.652 5.439-53.759" class="L"/><g class="G"><path d="M257.215 281.707a186.28 186.28 0 0 1-15.19-2.596 223.81 223.81 0 0 1-14.943-3.801c-9.874-2.875-19.55-6.409-29.025-10.406-4.729-2.02-9.403-4.167-14.012-6.449s-9.161-4.678-13.6-7.276c-4.441-2.592-8.799-5.337-12.959-8.366-2.068-1.53-4.091-3.126-5.978-4.878-.939-.879-1.845-1.796-2.66-2.794-.401-.503-.789-1.019-1.106-1.581-.319-.554-.602-1.151-.672-1.795.084.642.377 1.23.705 1.776.326.552.722 1.059 1.132 1.551.831.977 1.752 1.873 2.704 2.73 1.915 1.708 3.962 3.259 6.054 4.742 4.184 2.969 8.56 5.661 13.02 8.196 8.925 5.065 18.167 9.567 27.617 13.567a277.89 277.89 0 0 0 28.916 10.522 227.41 227.41 0 0 0 14.873 3.964c4.998 1.168 10.042 2.144 15.124 2.894m-67.222-163.644a38.27 38.27 0 0 1 3.292 5.269c.961 1.837 1.822 3.734 2.526 5.688 1.45 3.896 2.374 7.973 2.991 12.081s.833 8.276.814 12.429-.3 8.308-.806 12.429c-1 8.247-2.739 16.382-4.83 24.403l-3.231 12.003c-1.073 3.996-2.1 8.02-2.56 12.141.358-4.132 1.287-8.193 2.262-12.218l3.06-12.045c1.991-8.034 3.729-16.142 4.676-24.359.523-4.099.82-8.228.858-12.359.047-4.13-.182-8.263-.72-12.357-.555-4.088-1.421-8.15-2.802-12.045a45.81 45.81 0 0 0-2.374-5.722 38.31 38.31 0 0 0-3.156-5.338m-6.136 166.476l1.166-4.115.869-4.165.556-4.218.157-2.128.061-1.068.044-1.073c.104.71.151 1.426.203 2.143l.018 2.155c-.028 1.439-.185 2.874-.419 4.295-.249 1.418-.576 2.824-1.025 4.191-.442 1.369-.969 2.709-1.629 3.983M301.73 168.856l-1.1 7.342-1.214 7.324c-.031-2.49.216-4.968.594-7.422.397-2.451.926-4.885 1.72-7.244m-3.775 55.293l-.711 9.546-.877 9.53-1.022 9.516-.562 4.753-.629 4.746.322-4.777.388-4.77.878-9.53 1.024-9.515 1.19-9.5m-67.213-88.051c1.891 2.374 3.024 5.247 4.852 7.634 1.775 2.418 3.961 4.553 6.517 6.095 2.547 1.53 5.478 2.502 8.449 2.389 2.951-.086 5.907-1.077 8.186-2.947 1.148-.921 2.081-2.091 2.747-3.398.662-1.314 1.051-2.762 1.273-4.233s.299-2.976.326-4.481l-.06-4.512c-.143-3.006-.517-6.003-1.102-8.96l-1.024-4.405-1.34-4.327c1.117 2.81 1.991 5.715 2.665 8.669.649 2.959 1.081 5.968 1.283 8.996l.121 4.549c-.018 1.516-.085 3.039-.304 4.556s-.611 3.025-1.302 4.418-1.68 2.638-2.886 3.614c-2.418 1.957-5.501 2.961-8.571 3.032-3.092.091-6.142-.914-8.715-2.549-2.591-1.633-4.77-3.844-6.514-6.328-1.77-2.487-2.829-5.359-4.603-7.813m30.897-46.078c1.207-2.022 2.12-4.191 2.767-6.431.639-2.243 1.054-4.546 1.27-6.869.231-2.324.27-4.666.261-7.011l-.072-3.521-.08-3.529.387 3.51.248 3.526c.124 2.355.101 4.726-.119 7.085-.235 2.357-.674 4.705-1.436 6.953a26.12 26.12 0 0 1-1.359 3.282c-.546 1.049-1.152 2.069-1.868 3.005m-47.521-19.6c1.621 1.915 3.085 3.94 4.511 5.991l3.993 6.347c-1.622-1.915-3.086-3.939-4.511-5.99l-3.993-6.348m78.02 51.688c1.867.678 3.661 1.559 5.385 2.552s3.371 2.138 4.879 3.451 2.876 2.8 3.987 4.481c.551.843 1.026 1.735 1.43 2.662a16.31 16.31 0 0 1 .877 2.901l-.01-.038 3.016 8.729 2.983 8.741.006.016.003.014 3.353 15.126 1.605 7.578 1.469 7.607-1.728-7.55-1.766-7.541-3.512-15.087.008.03-2.994-8.738-2.962-8.748-.006-.019-.004-.019c-.368-1.916-1.123-3.747-2.165-5.408-1.052-1.657-2.367-3.144-3.829-4.467-1.469-1.316-3.065-2.496-4.747-3.543-1.686-1.039-3.445-1.968-5.278-2.73m77.272 76.858c-2.563 4.323-5.212 8.595-7.915 12.833a416.75 416.75 0 0 1-8.383 12.537c-2.873 4.127-5.856 8.179-8.988 12.119-3.149 3.921-6.41 7.783-10.187 11.158-1.9 1.658-4.002 3.19-6.43 4.059-1.21.425-2.491.694-3.786.69-1.293.006-2.586-.248-3.783-.725-2.411-.959-4.386-2.713-5.993-4.666-1.612-1.97-2.901-4.174-3.923-6.492l-5.683-13.972-5.617-13.991 5.9 13.876 5.841 13.892c1.032 2.265 2.327 4.422 3.901 6.341 1.576 1.903 3.497 3.582 5.783 4.48a9.57 9.57 0 0 0 3.572.671c1.22-.001 2.431-.259 3.586-.67 2.32-.839 4.354-2.325 6.219-3.967 3.735-3.313 7.003-7.148 10.155-11.042 3.145-3.909 6.112-7.961 9.04-12.04 2.917-4.087 5.748-8.237 8.52-12.426 2.786-4.18 5.521-8.396 8.172-12.665"/><path d="M356.935 175.658l-3.619 4.429-3.589 4.448-3.496 4.513-1.662 2.312-1.624 2.362c-2.286 3.078-4.801 5.966-7.473 8.697-2.681 2.719-5.479 5.337-8.534 7.625 1.443-1.247 2.848-2.533 4.198-3.875a109.47 109.47 0 0 0 3.986-4.085c2.587-2.786 5.094-5.659 7.315-8.732.57-.76 1.083-1.545 1.639-2.334a67.27 67.27 0 0 1 1.699-2.314c1.164-1.517 2.345-3.017 3.579-4.473 2.453-2.924 4.969-5.792 7.581-8.573"/></g><path d="M268.056 261.698s.922.667 1.988 2.891l-6.994-3.205s3.514-.517 5.007.315" class="I"/><use xlink:href="#H" class="K"/><use xlink:href="#H" class="D"/><path d="M239.559 109.788c-.918-.018-1.822-.259-2.695-.546-.869-.303-1.719-.669-2.532-1.101-.824-.415-1.592-.922-2.367-1.418l-2.191-1.666-2.037-1.841-1.879-1.993-1.714-2.129-1.525-2.268 1.988 1.859 1.958 1.856 4.013 3.548a44.88 44.88 0 0 0 4.25 3.209l2.281 1.381c.781.432 1.587.819 2.45 1.109" fill="#995334"/><use xlink:href="#I" class="H"/><use xlink:href="#I" class="D"/><use xlink:href="#J" class="K"/><use xlink:href="#J" class="D"/><use xlink:href="#K" class="H"/><use xlink:href="#K" class="D"/><path d="M257.659 170.585l.736 4.161.35 4.219c.078 1.411.043 2.826-.015 4.237l-.354 4.226-.732 4.176-.264 1.056c-.124.355-.319.734-.663.997-.34.262-.782.359-1.173.327s-.759-.152-1.096-.306c-2.613-1.296-4.445-3.896-4.813-6.698.316 1.371.933 2.658 1.809 3.73.854 1.08 1.966 1.976 3.197 2.524.604.251 1.305.347 1.744-.006.446-.35.567-1.057.7-1.739l.669-4.14c.391-2.77.525-5.571.511-8.371s-.241-5.6-.604-8.391" class="G"/></g></g></svg>
