<?xml version="1.0" encoding="UTF-8"?><svg id="a" xmlns="http://www.w3.org/2000/svg" xmlns:xlink="http://www.w3.org/1999/xlink" viewBox="0 0 970 720"><defs><clipPath id="b"><path d="M250.83,389.76l-160.46,24.02c-28.8,4.31-53.85-17.7-53.85-49.19V207.48c0-31.49,25.05-53.5,53.85-49.19l160.46,24.04c17.89,2.68,31.86,23.54,31.86,46.48v114.46c0,22.94-13.96,43.8-31.86,46.48Z" fill="none"/></clipPath></defs><g><path d="M76.34,480.38c-.04-.36-.08-.72-.12-1.08-15.62-149.14,72.84-298.33,213.16-352.94,128.26-49.92,303.68-71.19,417.26,23.09,48.55,40.3,82.32,97.51,95.86,159.01,8.62,39.18,11.1,80.22,3.21,119.74-6.39,32.03-23.77,89.96-58.05,101.69-12.09,4.14-25.27,3.02-37.99,1.86-78.05-7.14-154.35-14.67-232.65-12.57-67.8,1.82-135.49,8-202.5,18.52-30.15,4.73-60.13,9.11-90.07,14.22-25.43,4.34-55.46,9.29-78.17-6.45-20.25-14.05-27.24-40.5-29.94-65.07Z" fill="#1f2937"/><g><g><line x1="244.78" y1="206.78" x2="757.21" y2="206.78" fill="none" stroke="#4b5563" stroke-miterlimit="10" stroke-width="2"/><rect x="244.78" y="169.8" width="512.42" height="349.02" rx="7.37" ry="7.37" fill="none" stroke="#fff" stroke-miterlimit="10" stroke-width="2"/><rect x="244.78" y="169.8" width="512.42" height="349.02" rx="7.37" ry="7.37" fill="none" stroke="#4b5563" stroke-miterlimit="10" stroke-width="2"/><g><circle cx="275.73" cy="188.67" r="5.16" fill="#fe9184"/><circle cx="295.78" cy="188.67" r="5.16" fill="#fad780"/><circle cx="315.83" cy="188.67" r="5.16" fill="#00c77d"/></g></g><g><g><rect x="580.19" y="387.95" width="226.05" height="106.81" rx="6.96" ry="6.96" fill="#374151"/><rect x="580.19" y="387.95" width="226.05" height="106.81" rx="6.96" ry="6.96" fill="none" stroke="#4b5563" stroke-miterlimit="10" stroke-width="2"/></g><g><g><rect x="601.3" y="406.68" width="85.19" height="66.96" rx="9.89" ry="9.89" transform="translate(1287.79 880.33) rotate(180)" fill="#374151"/><g><path d="M632.55,435.39c0-7.41,6.03-13.44,13.44-13.44s13.44,6.03,13.44,13.44-6.03,13.44-13.44,13.44-13.44-6.03-13.44-13.44Zm3.05,0c0,5.73,4.66,10.39,10.39,10.39s10.39-4.66,10.39-10.39-4.66-10.39-10.39-10.39-10.39,4.66-10.39,10.39Z" fill="#fdfdf3"/><rect x="632.79" y="444.3" width="5.61" height="3.05" transform="translate(-129.08 580) rotate(-45)" fill="#fdfdf3"/><rect x="621.27" y="449.1" width="15.37" height="6.74" rx="2.13" ry="2.13" transform="translate(-135.73 577.26) rotate(-45)" fill="#fdfdf3"/></g></g><g><line x1="702.22" y1="426.6" x2="780.24" y2="426.6" fill="none" stroke="#d1d5db" stroke-miterlimit="10" stroke-width="2"/><line x1="702.22" y1="440.22" x2="740.26" y2="440.22" fill="none" stroke="#d1d5db" stroke-miterlimit="10" stroke-width="2"/><line x1="702.22" y1="453.84" x2="780.24" y2="453.84" fill="none" stroke="#d1d5db" stroke-miterlimit="10" stroke-width="2"/></g></g></g><g><rect x="388" y="269.05" width="217.97" height="69.81" rx="5.21" ry="5.21" fill="#6366f1"/><g><line x1="475.25" y1="296.63" x2="581.43" y2="296.63" fill="none" stroke="#fff" stroke-miterlimit="10" stroke-width="2"/><line x1="475.25" y1="310.24" x2="508.89" y2="310.24" fill="none" stroke="#fff" stroke-miterlimit="10" stroke-width="2"/></g><g><circle cx="434.15" cy="303.9" r="4.42" fill="#fff"/><path d="M449.19,300.31c-3.08-3.9-8.67-9.59-15.04-9.59s-11.96,5.69-15.04,9.59c-1.66,2.1-1.66,5.07,0,7.18,1.52,1.93,3.66,4.29,6.2,6.19v-9.79h0c0-4.88,3.96-8.84,8.84-8.84s8.84,3.96,8.84,8.84-3.96,8.84-8.84,8.84c-1.61,0-3.12-.44-4.42-1.19v4.65c1.41,.55,2.89,.88,4.42,.88,6.37,0,11.96-5.69,15.04-9.59,1.66-2.1,1.66-5.07,0-7.18Z" fill="#fff"/></g></g><g><polygon points="640.74 456 662.24 464.95 656.21 468.26 664.14 476.4 658.82 481.48 651.09 472.67 646.77 478.08 640.74 456" fill="#faefeb"/><polygon points="640.82 455.92 662.26 465.02 656.22 468.29 664.09 476.48 658.74 481.52 651.07 472.67 646.71 478.04 640.82 455.92" fill="none" stroke="#4f3b32" stroke-miterlimit="10" stroke-width=".61"/></g></g></g><g><path d="M237.03,392.65l-15.47,2.32-150.17,22.5c-24.83,3.72-46.24-15.74-46.24-43.45v-110.41c0-27.71,32.46-51.69,57.29-49.61l154.59,17.02c15.36,1.29,27.42,18.97,27.42,39.34v81.16c0,20.37-12.07,38.84-27.42,41.14Z" fill="#374151" stroke="#1d1d1b" stroke-miterlimit="10"/><path d="M252.03,389.65l-15.47,2.32-150.17,22.5c-24.83,3.72-46.24-15.74-46.24-43.45v-110.41c0-27.71,21.41-48.58,46.24-46.5l165.63,13.91c15.36,1.29,27.42,18.97,27.42,39.34v81.16c0,20.37-12.07,38.84-27.42,41.14Z" fill="#374151" stroke="#111827" stroke-miterlimit="10"/><g clip-path="url(#b)"><g><g><g><g><path d="M201.9,338.67c-1.51,16.1-13.53,28.73-26.93,27.78-13.59-.96-23.14-15.42-21-32.09,.04-.33,.09-.68,.15-1l8.52-44.19,1.08-5.62,5.19-26.9,37.49,7.96-1.66,27.17-.36,5.95-2.48,40.94Z" fill="#c18465" stroke="#2e2e2e" stroke-linecap="round" stroke-linejoin="round" stroke-width=".74"/><path d="M203.14,317.89c-11.73,.13-24.3-8.65-31.86-24.21-3.12-6.39-5-13.19-5.73-19.89l3.37-17.43,37.49,7.97-1.66,27.16-.34,5.95-1.26,20.44Z" fill="#995334"/></g><path d="M178.58,182.15c18.11,.25,33.9,14.64,39.95,33.86,1.27,3.96,2.12,8.19,2.5,12.55,1.09,6.2,1.6,12.52,1.43,18.77-.06,2.3,.16,4.62,.8,6.8,3.87,13.19-4.68,32.9-9.85,43.74-1.58,3.32-3.16,4.33-5.77,6.5-2.94,2.44-6.68,2.96-10.03,1.53-10.86-4.62-20.45-12.33-30.65-20.18-4.57-3.52-6.82-9.41-8.18-15.84-.32-.26-.65-.49-.96-.77-9.53-8.37-16.29-21.27-17.64-36.16-2.57-28.3,15.21-51.11,38.42-50.79Z" fill="#c18465"/><path d="M178.58,182.15c18.11,.25,33.9,14.64,39.95,33.86,1.27,3.96,2.12,8.19,2.5,12.55,1.09,6.2,1.6,12.52,1.43,18.77-.06,2.3,.16,4.62,.8,6.8,3.87,13.19-4.68,32.9-9.85,43.74-1.58,3.32-3.16,4.33-5.77,6.5-2.94,2.44-6.68,2.96-10.03,1.53-10.86-4.62-20.45-12.33-30.65-20.18-4.57-3.52-6.82-9.41-8.18-15.84-.32-.26-.65-.49-.96-.77-9.53-8.37-16.29-21.27-17.64-36.16-2.57-28.3,15.21-51.11,38.42-50.79Z" fill="none" stroke="#2e2e2e" stroke-linecap="round" stroke-linejoin="round" stroke-width=".74"/><path d="M140.16,232.94c1.35,14.89,8.12,27.8,17.64,36.16,3.48-2.42,6.06-6.45,6.57-11.08,.29-2.86-.14-5.79-.11-8.67,.03-2.9,.61-6,2.51-7.75,1.6-1.47,3.9-1.84,5.16-3.68,2.11-3.15-.23-8.01,.17-12.1,.32-3.25,2.43-5.79,4.89-7.09,2.44-1.31,5.19-1.6,7.88-1.87,8.97-.9,17.81-1.78,26.48-.52,2.47,.36,5.05,.87,7.19-.35-6.05-19.21-21.84-33.61-39.95-33.86-23.2-.32-40.98,22.49-38.42,50.79Z" fill="#111827"/><path d="M178.07,224.2c8.1-3.1,16.97-1.53,25.17,.88,5.3,1.56,10.57,3.48,15.77,3.23,5.13-.24,10.32-3.06,12.38-8.71,2.05-5.62-.38-14.12-5.36-15.78,3.29-4.22,3.34-11.95,.12-17.07-3.25-5.17-9.46-7.06-13.66-4.1-.3-2.6-2.29-4.75-4.35-5.54-2.08-.8-4.22-.53-6.3-.21-9.35,1.41-18.94,3.58-27.47,8.86-8.72,5.4-16.24,14.36-18.87,26.04-1.36,6.06-1.67,26.6,5.63,29.73,3.64,1.56,4.45-5.95,6.47-8.91,2.69-3.94,6.42-6.87,10.47-8.42Z" fill="#111827"/><g><g><path d="M159.76,271.51c-3.71,1.23-8.69-2.62-11.83-9.56-3.6-7.95-3.37-16.83,.51-19.73,3.84-2.88,9.77,1.24,13.24,9.1,1.41,3.2,2.21,6.53,2.4,9.55" fill="#c18465" stroke="#2e2e2e" stroke-linecap="round" stroke-linejoin="round" stroke-width=".74"/><path d="M164.08,260.87c.02,.36,.04,.71,.04,1.06" fill="#c18465" stroke="#2e2e2e" stroke-linecap="round" stroke-linejoin="round" stroke-width=".74"/></g><path d="M151.4,246.23c-1.67,.65-2.93,2.61-3.17,4.98-.24,2.36,.53,5.02,1.97,6.72" fill="none" stroke="#2e2e2e" stroke-linecap="round" stroke-linejoin="round" stroke-width=".74"/></g><g><g><path d="M196.14,240.66c-1.67-1.17-3.48-1.73-5.3-1.99-1.83-.25-3.68-.16-5.47,.24-1.8,.4-3.55,1.12-5.18,2.15-1.75,1.11-3.06,2.52-4.26,4.38,3.29-.66,6.34-2.11,9.61-2.56,3.01-.42,6.24-.19,9.22,.56,.66,.14,1.27,.12,1.76-.49,.29-.35,.34-.92,.21-1.4-.1-.39-.32-.7-.6-.89Z" fill="#2e2e2e"/><path d="M210.39,238.15c-.35,.62-.25,1.51,.22,2.06,.7,.83,1.43,.24,2.13-.18,1.5-.9,2.84-2.02,4.43-2.68,.93-.39,1.88-.68,2.85-.87,.72-.14,1.98,.1,2.45-.65-1.07-1.08-2.41-1.63-3.74-1.86-1.26-.2-2.51-.08-3.7,.32-1.19,.4-2.33,1.09-3.33,2.1-.48,.5-.93,1.08-1.31,1.75Z" fill="#2e2e2e"/></g><g><path d="M206.86,249.12s5,13.55,6.63,16.81c.74,1.48,.55,3.46-.38,4.72-1.67,2.25-4.31,3.77-6.68,3.93" fill="none" stroke="#2e2e2e" stroke-linecap="round" stroke-linejoin="round" stroke-width=".74"/><path d="M207.65,271.01c-1.3-.28-2.68,.24-3.62,1.37" fill="none" stroke="#2e2e2e" stroke-linecap="round" stroke-linejoin="round" stroke-width=".74"/></g><g><g><path d="M196.3,254.27c-1.72-5.82-6.92-6.07-11.62-3.49-1.54,.74-3.11,1.6-4.84,2.11,1.34-1.18,2.62-2.33,4.1-3.36,2.18-1.57,5.26-2.77,8.05-1.91,2.77,.8,4.83,3.89,4.3,6.65h0Z" fill="#2e2e2e"/><path d="M192.12,251.19c-.15-1.73-1.42-3.04-2.85-2.93-1.44,.11-2.49,1.6-2.34,3.34,.15,1.74,1.44,3.05,2.87,2.93,1.43-.12,2.47-1.61,2.32-3.33Z" fill="#2e2e2e"/></g><g><path d="M216.94,247.85c.1-1.48-.78-2.84-1.98-3.03-1.2-.2-2.26,.85-2.36,2.34-.1,1.49,.79,2.85,1.99,3.04,1.2,.19,2.25-.86,2.35-2.35Z" fill="#2e2e2e"/><path d="M210.17,250.72c-.13-5.62,7.04-10.07,11.42-5.78-5.02-1.26-8.88,1.67-11.42,5.78h0Z" fill="#2e2e2e"/></g></g><g><path d="M211.97,287.61c-3.77,2.65-8.71,2.69-12.58,.05" fill="none" stroke="#2e2e2e" stroke-linecap="round" stroke-linejoin="round" stroke-width=".74"/><path d="M213.94,280.42c-1.1,1.43-2.68,2.29-4.29,2.33-.61,1.07-1.93,1.05-2.78,.25-3.29,1.09-6.99,1.27-10.37,.31" fill="none" stroke="#2e2e2e" stroke-linecap="round" stroke-linejoin="round" stroke-width=".74"/></g></g><path d="M189.69,285.26c-.1-5.26,5.06-10.41,10.51-9.17,2.89,.65,5.03,3.36,7.49,4.31,0,0-.3,.07-.3,.07,2.18-2.08,3.4-6,7.45-5.13,3.32,.63,5.96,4.19,4.92,7.46-.07,.23-.36,.32-.54,.17-2.03-1.53-3.34-2.41-5.45-2.93-.83-.26-1.54-.67-2.58-.66-1.26-.04-2.57,.54-3.4,1.5-.08,.09-.2,.11-.3,.07-2.97-1.13-6.22,.24-8.81,1.56-1.03,.36-2.15,.81-3.53,1.38-1.39,.56-2.93,1.25-5.02,1.73-.22,.05-.45-.12-.45-.35h0Z" fill="#111827"/></g><g><g><path d="M257.17,402.18c11.11-14.79,17.73-29.45,15.08-33.19-2.67-3.77-13.85,4.79-25.29,19.57-11.83,15.29-19.26,31.15-16.25,34.92,2.98,3.74,14.98-6.02,26.46-21.31Z" fill="#312e81"/><path d="M304.08,459.05h0c6.15-9.18,5.98-23.23-.37-31.54l-59.11-77.34c-9.4-12.3-24.97-12.8-33.85-.52h0c-8.66,11.98-7.19,30.92,3.2,41.75l67.93,70.83c6.73,7.02,16.37,5.52,22.21-3.19Z" fill="#c18465" stroke="#2e2e2e" stroke-linecap="round" stroke-linejoin="round" stroke-width=".9"/><path d="M230.39,422.92c-2.02-4.61,5.28-19.73,16.57-34.35,11.45-14.79,22.63-23.36,25.3-19.57,.06,.09,.09,.16,.14,.28l.11-.15-25.89-34.97c-10.72-14.48-29.41-14.59-40.63,.63-2.16,2.93-3.87,6.17-5.13,9.65-4.5,12.47-2.92,27.17,4.35,37.44l25.18,41.04Z" fill="#4338ca"/></g><path d="M255.2,370.11l-14.33,188.14-129.11,48.93-30.43-205.01c-5.18-34.87,16.82-69.6,47.73-77.75l27.63-4.41s8.1,34.96,25.09,33.45c16.27-1.44,21.36-35.58,21.36-35.58l5.07,1.14s2.26-1.02,9.91,1.9h.02c15.16,5.76,37.06,19.02,37.06,49.19Z" fill="#4338ca"/><g><path d="M80.51,437.71c20.36,8.14,38.55,9.24,41.46,2.84,2.88-6.36-10.21-18.16-30.04-26.75-20.8-9.01-41.19-11.17-44.63-4.35-3.46,6.87,11.84,19.72,33.21,28.26Z" fill="#312e81"/><path d="M26.26,562.57h0c14.47,3.66,32.78-9.04,40.95-27.81l63.34-145.5c8.35-19.19,3.13-40.24-11.7-46.38h0c-14.63-6.06-33.22,4.58-41.17,24.28L14.75,523.12c-7.51,18.62-2.4,35.92,11.51,39.44Z" fill="#c18465" stroke="#2e2e2e" stroke-linecap="round" stroke-linejoin="round" stroke-width=".9"/><path d="M47.86,408.61c4.7-5.78,24.18-3.41,44.05,5.18,19.84,8.6,32.95,20.4,30.04,26.78-.07,.14-.13,.24-.23,.39l.2,.08,24.79-57.19c9.32-21.52,2.45-45.85-15.5-53.66-3.49-1.52-7.11-2.33-10.82-2.46-13.47-.47-27.47,8.06-35.57,22.61l-36.96,58.29Z" fill="#4338ca"/></g></g></g><path d="M164.37,258.02s15.72,45.23,25.67,26.16c0,0,7.75,15.42,15.7,7.95,0,0,12.71,.75,13.86-11.04,0,0,3.16-6.43,4.52-16.57,0,0,6.27,29.39-7,43.24-13.77,14.37-44.03,2.07-50.93-16.85-7.02-19.26-1.82-32.89-1.82-32.89Z" fill="#111827"/></g></g></g><path d="M558.47,292.54s3.01,6.84-9.47,25.3c-28.06,41.51,20.99,108.71,51.16,38.12,30.16-70.59,22.86-56.76,22.86-56.76,0,0-10.77-12.85-11.29-47.43-.51-34.58-53.26,40.77-53.26,40.77Z" fill="#c18465"/><path d="M486.15,409.39s1.41,17.32,3.86,51.15,4.61,83.25,10.25,98.5c5.65,15.25,5.1,25.98,5.1,25.98,0,0,112.35,22.02,170.52,6.21,0,0-16.94-19.88,0-130.69,14.27-93.36,1.85-144.94,1.85-144.94,0,0-27.54-4.98-55.79-16.85,0,0-23.43,80.15-56.18,77.89s-11.01-68.05-11.01-68.05c0,0-39.62,8.79-56.26,20.97-16.64,12.18-19.13,53.85-12.35,79.83Z" fill="#ffd593"/><g><path d="M734.8,585.51l-652.09-25.76c-.44-.02-.87-.02-1.31-.01l-49.1,1.08c-15.68,.34-18.61,22.48-3.56,26.89l288.21,84.43c1.89,.55,3.87,.69,5.82,.41l413.44-59.74c16.52-2.39,15.26-26.63-1.42-27.29Z" fill="#1f2937"/><path d="M322.78,672.54v-23.39s419.31-61.4,419.31-61.4c0,0,15.69,21.92-5.87,25.04-21.57,3.12-413.44,59.74-413.44,59.74Z" fill="#4b5563"/><path d="M322.78,649.16L26.22,562.26s-12.64,10.72-1.6,23.52l298.16,86.76v-23.39Z" fill="#374151"/></g><path d="M598.13,270.98s-12.23,33.3-41.42,34.62l3.35-6.41c-3.2-2.79,15.18-.27,38.06-28.21Z" fill="#995334"/><path d="M521.63,183.93s-2.58,16.79,.96,33.57c2.72,12.88,2.43,26.16,4.4,39.15,1.96,12.86,7.07,26.82,16.04,36.47,4.12,4.44,9.46,7.98,15.67,8.31,11.02,.58,20.1-8.16,27.3-15.37,11.14-11.16,19.36-24.89,22.38-40.47,.06-.32,3.04-1.51,3.37-1.71,2.54-1.51,4.92-3.41,6.8-5.7,5.69-6.94,2.88-18.85,1-27.06-.73-3.19-1.05-5.31-4.32-5.18-2.89,.12-6.56-3.05-8.18-.66-1.54,2.27-4.76,7.42-5.75,9.98s-5.54,14.28-4.71,16.89c-2.28-6.24,6.01-22.43,4.52-28.93-1.44-6.26-3.19-8.25-3.58-14.68,0,0-39.49,4.39-55.94-12.99l-19.96,8.4Z" fill="#c18465"/><path d="M567.87,233.81c1.65-1.98,4.52-2.45,6.95-2.34,1.87,.08,3.67,.58,5.35,1.38,1.88,1.01,1.91,1.08-.25,.95-4.07-.15-8.01-.86-12.05,.02h0Z" fill="#1d1d1b"/><path d="M527.72,234.93c1.52-2.08,4.36-2.73,6.79-2.77,1.87-.03,3.7,.35,5.42,1.04,1.94,.9,1.98,.96-.19,.96-4.07,.1-8.04-.36-12.02,.76h0Z" fill="#1d1d1b"/><circle cx="533.59" cy="236.14" r="2.8" fill="#1d1d1b"/><circle cx="573.65" cy="234.93" r="2.8" fill="#1d1d1b"/><path d="M567.08,221.86s-5.65,1.98-3.86-1.04c1.79-3.01,9.69-5.18,21.93,2.07,0,0-15.26-1.66-18.07-1.04Z" fill="#1d1d1b"/><path d="M534.14,222.24s8.19,1.22,6.78-1.13-9.86-3.5-16.09,1.45c0,0-1.04,2.03,1.13,1.47s3.77-2.1,8.19-1.79Z" fill="#1d1d1b"/><path d="M551.91,225.69c.08,5.4-.17,10.84-1.25,16.14-.53,2.63-1.27,5.23-2.26,7.73-.77,1.96-3.33,5.11-2.36,7.26,.88,1.95,4.03,2.03,5.86,1.97,2.6-.09,5.68-.96,7.53-2.89" fill="none" stroke="#1d1d1b" stroke-miterlimit="10"/><path d="M543.37,270.02s15.56,5.75,24.69,0c0,0-13.19,18.26-24.69,0Z" fill="#a80e2b"/><path d="M554.14,290.45s2.78-4.24,8.73,0" fill="none" stroke="#9e7949" stroke-miterlimit="10"/><path d="M605.94,220.73c2.2-2.64,6.69-1.23,7.27,2.12,.4,2.12-.68,4.13-1.92,5.73-1.79,2.23-4.23,4.16-4.39,7.23-.64-4.13,3.7-6.8,5.02-10.21,1.8-3.86-2.44-7.5-5.98-4.87h0Z" fill="#1d1d1b"/><path d="M526.3,247.42s-10.81-63.88-1.73-76.26c9.07-12.38,17.28-7.9,17.28-7.9,0,0,2.67-24.32,43.81-22.13,41.14,2.19,62.5,42.66,56.13,79.2l-11.71,34.77s42.4,3.75,56.47,24.89c14.07,21.15,6.91,57.36-34.71,38.34-30.74-14.04-31.46-21.48-35.69-32.89-1.5-4.04-1.35-21.84-1.35-21.84,0,0-4.5-10.83-5.24-19.25-.67-7.65,12.04-13.06,7.72-27.92-4.15-14.27-24.85-2.9-15.81,26.23,0,0-12.15-10.7-11.11-29.28,.18,3.85-41.18-12.65-48-26.44,0,0-11.12,1.21-14.83,12.76s-2.15,37.82-2.15,37.82" fill="#111827"/><g><path d="M378.4,377.92c-4.34-9.76-6.56-20.52-12.25-29.56-2.45-3.88-5.48-7.35-8.5-10.8-6.17-7.05-12.34-14.1-18.5-21.15-.73-.83-1.59-1.73-2.79-1.49-.74,.15-1.33,.74-1.61,1.45-.54,1.39-.06,2.81,.44,4.14,3.59,9.61,8.42,18.75,14.33,27.14-2.27-6.09-9.66-10.03-15.38-13.13-5.72-3.1-14.03-5.63-19.07-9.74-3.87-3.15-6.05-4.6-10.12-7.5-3.11-2.22-5.57-5.93-9.32-4.61-.55,.19-1.12,.46-1.4,.97-.73,1.3,.63,2.94,1.58,3.69,10.31,8.1,20.63,16.2,30.94,24.3-10.64-4.91-19.13-12.04-29.42-17.64-12.47-9.43-5.08,4.3-8.93,1.75-1.69-1.12-3.63-.55-4.09,1.43-.55,2.37,1.55,4.46,3.45,5.99,2.54,2.05,5.08,4.09,7.62,6.14-2.31-1.03-5.55-1.96-7.88-.99,4.59,5.97,9.72,11.54,15.3,16.6,10.81,9.81,23.22,17.68,35.7,25.26,2.93,1.78,5.89,3.56,8.41,5.89,2.05,1.9,3.78,4.12,5.49,6.32,1.1,1.42,2.2,2.83,3.3,4.25" fill="#c18465"/><path d="M295.08,339.14c4.28,2.02,7.75,5.28,11.37,8.23,3.25,2.53,7.77,6.22,11.14,8.51-8.42-4.28-15.18-10.92-22.51-16.74h0Z" fill="#844a30"/><path d="M322.49,356.95c2.61-7.08,7.13-14.54,14.66-17.03-7.03,3.41-11.12,10.38-14.66,17.03h0Z" fill="#844a30"/><path d="M320.99,349.33c-3.43-6.25-10.75-7.81-16.54-11.19-4.47-2.65-7.95-6.44-11.87-9.71-1.3-1.08-2.71-2.01-4.27-2.71,1.63,.5,3.14,1.37,4.55,2.34,4.1,2.99,7.69,6.74,12.08,9.26,5.6,3.35,13.33,5.36,16.04,12.02h0Z" fill="#844a30"/><path d="M345.34,341.38c3.18,3.63,5.47,8.04,6.57,12.74-2.36-4.22-4.5-8.37-6.57-12.74h0Z" fill="#844a30"/><path d="M326.75,341.63c-10.64-4.91-19.13-12.04-29.42-17.64-11.42-8.64-7.37,.2-8.18,2.07" fill="#c18465"/></g><path d="M397.53,410.24s-.13-.79-2.23-1.06l2.23,4.93s.66-.58,0-3.88Z" fill="#db995d"/><polygon points="367.46 419.28 371.08 424.55 372.54 432.44 370 431.7 367.03 423.89 367.46 419.28" fill="#db995d"/><path d="M354.8,395.14s14.08,26.73,17.22,37.9c0,0,14.96,14.1,29.81-9.9l-23.44-45.21-23.59,17.21Z" fill="#c18465"/><path d="M550.76,310.46s-46.54,11.58-65.74,27.87-32.75,107.92-32.75,107.92l-4.1,21.27s-23.44-13.8-32.1-31.7c-9.4-19.43-18.88-25.84-18.91-25.86,1.63,1.1-.71,9.42-1.17,10.7-1.11,3.1-2.99,5.88-5.56,7.95-2.16,1.74-4.71,2.79-7.37,3.49-5.48,1.45-10.6,2.87-13.71-3.34-1.46-2.9-1.68-6.25-1.89-9.49-2.36,3.63,2.33,13.57,2.33,13.57l8.55,17.01s36.53,62.87,62,80.94c25.48,18.07,41.29-37.73,41.29-37.73" fill="#ffd593"/><path d="M556.77,583.36s-1.95-.04-4.02-2.77l5.93-1.21-1.91,3.98Z" fill="#db995d"/><path d="M585.83,526.48c-41.12,13.53-80.63,6.97-91.94-16.98l8.66,55.37,87.48,3.31,25.45-50.96" fill="#fdc280"/><path d="M546.97,549.06s-39.49,20.02-51.97,21.02c-12.48,1,11.29,20.01,11.29,20.01l52.39-10.73s3.61-28.05-11.72-30.31Z" fill="#c18465"/><path d="M653.18,362.47s-14.2,40.46-10.25,84.51c3.95,44.05,21.08,44.15-14.14,65.15l45.33,17.09,5.6-44.05s-7.91-29.53-10.73-38.2c-2.82-8.67-3.95-48.19-4.52-52.15-.56-3.96-11.29-32.35-11.29-32.35Z" fill="#fdc280"/><path d="M650.48,400.08c6.92,51.57,27.83,83.09,7.77,94.57-12.54,7.18-19.4,12.01-22.78,14.63-1.95,1.51-4.37,1.99-6.67,2.85-52.54,19.71-87.64,36.93-87.64,36.93,16.38-4.52,15.62,34.29,15.62,34.29,0,0,22.59-4.36,36.76-9.27,43.24-4.55,136.72-57.04,138.41-72.09,1.69-15.05-7.91-91.11-17.51-132.86-5.91-25.69-19.94-41.75-29.86-50.3-6.34-5.47-15.97-4.32-20.89,2.45-8.69,11.95-18.97,35.82-13.21,78.79Z" fill="#ffd593"/><g><path d="M445.99,554.92c-.09-.71-.18-1.42-.27-2.13-7.11,5.64-14.22,11.28-21.33,16.92-1.14,.9-2.38,1.85-3.83,1.91s-3.02-1.26-2.62-2.66c.11-.39,.35-.73,.6-1.05,7.76-10.42,19.19-18.05,31.79-21.23,4.74-1.19,9.9-1.74,14.38,.22,8.63,3.78,11.47,15.18,19.61,19.91,5.66,3.29,31.45,2.26,31.24,16.55-.07,4.71-4.74,5.43-9.26,6.74-4.52,1.32-18.91,2.04-23.09-.11-3.9-2.01-6.66-5.72-10.4-8.01-4-2.45-7.66-4.93-12.15-6.29-4.98-1.5-10.44-.39-15.14,1.84s-8.79,5.53-12.96,8.63c-.95,.71-2.67,1.18-2.98,.04-.55,.93-1.95,1.05-2.86,.48s-1.42-1.63-1.7-2.67c-1.29-4.76,1.01-9.73,3.71-13.87,3.87-5.94,8.7-11.25,14.24-15.67" fill="#c18465"/><path d="M426.28,581.31c2.77-3.23,5.13-6.83,6.99-10.66,1.37-2.82,2.53-5.87,4.84-8,1.92-1.77,4.44-2.71,6.9-3.61,4.67-1.71,9.39-3.44,14.33-4" fill="none" stroke="#47332b" stroke-miterlimit="10"/><path d="M427.22,583.36c6.4-4.2,9.86-11.92,16.32-16.03,4.67-2.98,10.37-3.73,15.87-4.41" fill="none" stroke="#47332b" stroke-miterlimit="10"/></g><path d="M565.77,376.64l7.31-.87-7.31,62.98s-10.15,9.41-11.38,0l4.07-64.05,7.31,1.93Z" fill="#ffdeb3"/><path d="M482.73,384.57s2.93,51.55-.62,70.19-13.98,67.62-13.98,67.62l23.25-52.38s3.99-40.77-8.65-85.43Z" fill="#fdc280"/><path d="M556.77,581.36c48.38-7.62,94.91-25.45,137.62-49.18,10.59-6.09,21.1-12.53,30.33-20.56,2.85-2.75,6.32-5.6,7.22-9.62-.83,4.06-4.26,6.99-7.06,9.81-15.32,13.58-33.57,23.41-51.75,32.61-36.65,17.91-75.8,31.64-116.37,36.95h0Z" fill="#47332b"/><path d="M663.68,321.29c-22.13,32.97-14.51,78.39-5.59,114.71,2.71,11.18,7.51,27.17,8.46,38.56-1.26-11.28-6.4-27.22-9.21-38.37-9.33-36.28-16.83-82.35,6.34-114.9h0Z" fill="#47332b"/><path d="M673.44,585.86c-4.09-8.15-5.69-17.6-4.54-26.65,.05,.97,.1,2.41,.17,3.4,.41,7.91,1.97,15.69,4.37,23.24h0Z" fill="#47332b"/><path d="M485.97,402.02c2.43,7.51,3.68,15.41,3.68,23.31-1.38-7.78-2.59-15.48-3.68-23.31h0Z" fill="#47332b"/><path d="M491.98,489.89c2.68,20.06,4.7,40.33,6.05,60.54-2.68-20.07-4.7-40.34-6.05-60.54h0Z" fill="#47332b"/><path d="M598.87,349.95c-2.82,3.9-4.51,8.46-7.32,12.42-8.52,12.55-24.69,19.35-37.85,9.29-6.03-4.71-7.17-12.84-7.14-20-.15-12.03,2.05-24.12,6.47-35.3-3.94,11.31-5.89,23.31-5.61,35.29,.04,6.94,1.07,14.73,6.91,19.25,12.51,9.79,28.45,3.06,36.82-8.8,2.91-3.79,4.71-8.36,7.72-12.13h0Z" fill="#47332b"/><path d="M501.23,327.72c-11.12,4.88-22.91,13.05-25.48,25.66-2.75,8.15-6.74,19.97-9.48,27.8-3.16,13.81-8.09,34.3-11.14,47.96,1.41-8.09,3.18-16.11,4.89-24.13,1.71-8.04,3.53-16.06,5.35-24.08,2.7-8.05,6.73-19.62,9.54-27.77,2.55-12.53,14.85-21.05,26.32-25.44h0Z" fill="#47332b"/><path d="M378.34,449.86c12.76,20.25,26.05,40.25,40.93,59.01,8.47,9.82,22.65,29.72,37.42,23.85,7.35-3.03,12.11-10.23,15.4-17.2,4.59-11.01,13.99-33.16,18.67-44.13-4.45,11.1-13.43,33.38-17.97,44.44-3.3,7.24-8.15,14.54-15.77,17.73-15.66,6.08-29.62-13.8-38.47-24.13-14.87-18.82-27.9-39.02-40.21-59.58h0Z" fill="#47332b"/><path d="M398.17,412.83c8.27,8.87,16.22,18.1,23.06,28.12,7.19,9.69,15.59,18.55,24.65,26.53-10.76-8.36-20.4-18.38-28.04-29.7-5.96-8.47-13.13-16.88-19.67-24.95h0Z" fill="#47332b"/><path d="M539.53,549.56s-1.47,1.06-3.16,4.59l11.12-5.09s-5.59-.82-7.96,.5" fill="#db995d"/><polygon points="350.21 577.13 363.55 572.54 534.3 604.33 367.03 630.15 350.21 577.13" fill="#6b7280" stroke="#374151" stroke-miterlimit="10"/><g><path d="M350.21,575.94l9.89-2.64s4.03-1.36,9.22,.35l164.99,30.69" fill="#6b7280" stroke="#374151" stroke-miterlimit="10"/><path d="M161.38,440.71l4.14-1.23,132.61,14.02s10.83,1.98,14.22,10.12" fill="#6b7280" stroke="#374151" stroke-miterlimit="10"/><path d="M214.79,594.63l-57.59-146.56c-1.48-3.77,1.58-7.77,5.61-7.32l132.19,14.7c7.65,.85,14.1,6.1,16.48,13.42l55.36,169.91-152.05-44.15Z" fill="#4b5563" stroke="#374151" stroke-miterlimit="10"/><polyline points="312.13 462.97 368.41 634.66 366.18 636.75 311.16 467.86" fill="#6b7280" stroke="#374151" stroke-miterlimit="10"/><path d="M368.71,629.75l166.53-25.38s2.4,1.22,2.57,6.69l-169.45,27.91,.35-9.22Z" fill="#4b5563" stroke="#374151" stroke-miterlimit="10"/><polygon points="352.91 579.05 455.87 606.28 410.47 616.44 360.49 603.07 352.91 579.05" fill="#4b5563"/></g><path d="M553.64,410.25c.4,9.3,.64,18.8,.69,28.12,.14,1.77-.5,4.19,1.31,4.4,3.59,.41,7.34-1.82,9.06-5.01-1.44,3.48-5.17,6.04-9.19,5.77-1.17-.07-2.01-1.19-2.01-2.31-.28-10.28-.44-20.72,.14-30.97h0Z" fill="#47332b"/><path d="M597.47,511.13c10.02-4.37,19.13-10.79,26.38-18.97,2.44-2.7,4.64-5.61,6.67-8.64,0,0,.25,.15,.25,.15-.61,1.01-1.9,1.47-2.96,1.13,1.08,.22,2.23-.35,2.7-1.27l.25,.15c-1.77,3.22-3.92,6.22-6.27,9.05-7.14,8.39-16.52,15-27.03,18.41h0Z" fill="#0c0801"/></svg>