<svg xmlns="http://www.w3.org/2000/svg" xmlns:xlink="http://www.w3.org/1999/xlink" width="524" height="391"><style><![CDATA[.B{fill:#fff}.C{fill:#c18465}.D{stroke:#2e2e2e}.E{stroke-linejoin:round}.F{stroke-width:.736}.G{stroke-linecap:round}.H{fill:#2e2e2e}.I{stroke:#374151}.J{fill:#374151}.K{fill:#111827}.L{stroke-width:2}.M{fill:#4b5563}.N{fill:#6b7280}.O{stroke:#4b5563}.P{fill:#4338ca}.Q{fill:#ffd593}.R{fill:#db995d}.S{fill:#fdc280}.T{stroke-width:.901}]]></style><defs><path id="A" d="M.395.095h486.972v312.548H.395z"/><path d="M.449 32.947v103.942c0 20.834 16.574 35.398 35.629 32.546h0l106.162-15.892c11.837-1.771 21.076-15.573 21.076-30.752h0V47.063c0-15.178-9.239-28.981-21.076-30.755h0L36.078.405a32.1 32.1 0 0 0-4.753-.357h0C14.349.048.449 13.868.449 32.947h0z" id="B"/><path d="M.449 32.947v103.942c0 20.834 16.574 35.398 35.629 32.546h0l106.162-15.892c11.837-1.771 21.076-15.573 21.076-30.752h0V47.063c0-15.178-9.239-28.981-21.076-30.755h0L36.078.405a32.1 32.1 0 0 0-4.753-.357h0C14.349.048.449 13.868.449 32.947" id="C"/><path id="D" d="M.022.031H482.41v74.732H.022z"/><path id="E" d="M479.671 287.897H150.392c-2.692 0-4.874-2.182-4.874-4.874V61.853c0-2.692 2.182-4.874 4.874-4.874h329.279c2.692 0 4.874 2.182 4.874 4.874v221.17c0 2.692-2.182 4.874-4.874 4.874z"/><path id="F" d="M169.404 69.461c0 1.886-1.528 3.414-3.414 3.414s-3.414-1.528-3.414-3.414 1.528-3.414 3.414-3.414 3.414 1.528 3.414 3.414"/><path id="G" d="M342.419 63.154a1.85 1.85 0 1 1-3.702 0 1.85 1.85 0 1 1 3.702 0"/><path id="H" d="M219.236 288.759l8.827-3.036 112.975 21.035-110.668 17.08z"/><path id="I" d="M219.236 287.97l6.547-1.748s2.664-.896 6.097.23l109.158 20.307"/><path id="J" d="M94.303 198.504l2.74-.814 87.734 9.277s7.165 1.309 9.406 6.696"/><path id="K" d="M129.644 300.336L91.54 203.371c-.981-2.496 1.045-5.141 3.71-4.844l87.46 9.723a12.98 12.98 0 0 1 10.905 8.878l36.626 112.416-100.597-29.208z"/><path id="L" d="M194.043 213.231l37.24 113.59-1.477 1.387L193.4 216.465"/><path id="M" d="M231.481 323.576l110.179-16.794s1.59.808 1.703 4.426l-112.112 18.466.23-6.098z"/></defs><g fill="none" fill-rule="evenodd"><g transform="translate(3.97 .567)"><g transform="translate(32.419)"><mask id="N" class="B"><use xlink:href="#A"/></mask><path d="M1.65 262.463l-.077-.717C-8.763 163.074 49.767 64.363 142.603 28.233c84.862-33.026 200.918-47.098 276.063 15.275 32.124 26.664 54.466 64.515 63.421 105.204 5.706 25.922 7.346 53.072 2.126 79.22-4.23 21.19-15.723 59.518-38.409 67.282-8 2.738-16.716 2.001-25.136 1.23-51.64-4.724-102.119-9.708-153.926-8.317a1045.47 1045.47 0 0 0-133.975 12.252l-59.594 9.409c-16.828 2.871-36.695 6.148-51.717-4.27-13.4-9.294-18.024-26.796-19.805-43.054" fill="#1f2937" mask="url(#N)"/></g><g class="L"><path d="M145.518 81.445h339.027" class="O"/><use xlink:href="#E" stroke="#fff"/><use xlink:href="#E" class="O"/></g><use xlink:href="#F" fill="#fe9184"/><use xlink:href="#F" x="13.268" fill="#fad780"/><use xlink:href="#F" x="26.536" fill="#00c77d"/><path d="M512.376 271.974H372.033a4.61 4.61 0 0 1-4.607-4.607v-61.452a4.61 4.61 0 0 1 4.607-4.607h140.343a4.61 4.61 0 0 1 4.607 4.607v61.452a4.61 4.61 0 0 1-4.607 4.607" class="J"/><path d="M512.376 271.974H372.033a4.61 4.61 0 0 1-4.607-4.607v-61.452a4.61 4.61 0 0 1 4.607-4.607h140.343a4.61 4.61 0 0 1 4.607 4.607v61.452a4.61 4.61 0 0 1-4.607 4.607z" class="L O"/><path d="M387.936 258.002h43.281a6.54 6.54 0 0 0 6.541-6.541v-31.218a6.54 6.54 0 0 0-6.541-6.54h-43.281a6.54 6.54 0 0 0-6.541 6.54v31.218a6.54 6.54 0 0 0 6.541 6.541" class="J"/><g fill="#fdfdf3"><path d="M404.087 232.697a6.89 6.89 0 0 0 6.877 6.877 6.89 6.89 0 0 0 6.877-6.877 6.89 6.89 0 0 0-6.877-6.877 6.89 6.89 0 0 0-6.877 6.877m-2.015 0c0-4.903 3.989-8.892 8.892-8.892s8.892 3.989 8.892 8.892-3.989 8.892-8.892 8.892-8.892-3.989-8.892-8.892"/><path d="M403.486 241.619l2.625-2.625-1.424-1.424-2.625 2.625z"/><path d="M400.711 239.819l-5.196 5.196a1.41 1.41 0 0 0 0 1.995l1.156 1.156a1.41 1.41 0 0 0 1.995 0l5.196-5.195a1.41 1.41 0 0 0 0-1.995l-1.156-1.156a1.41 1.41 0 0 0-1.995 0"/></g><path d="M448.162 226.882h51.621m-51.621 9.009h25.168m-25.168 9.009h51.621" stroke="#d1d5db" class="L"/><path d="M381.038 168.829H243.72a3.45 3.45 0 0 1-3.447-3.447v-39.294a3.45 3.45 0 0 1 3.447-3.447h137.318c1.904 0 3.447 1.543 3.447 3.447v39.294a3.45 3.45 0 0 1-3.447 3.447" fill="#6366f1"/><path d="M297.998 140.886h70.252m-70.252 9.009h22.259" stroke="#fff" class="L"/><path d="M270.806 142.774c1.615 0 2.924 1.309 2.924 2.924s-1.309 2.924-2.924 2.924-2.924-1.309-2.924-2.924 1.309-2.924 2.924-2.924m9.95.55c-2.039-2.582-5.734-6.346-9.95-6.346s-7.911 3.764-9.95 6.346c-1.098 1.391-1.098 3.357 0 4.748 1.008 1.277 2.421 2.842 4.101 4.098v-6.475h0a5.85 5.85 0 0 1 5.849-5.846 5.85 5.85 0 0 1 5.849 5.849 5.85 5.85 0 0 1-5.849 5.849c-1.067 0-2.064-.29-2.924-.789v3.079c.935.364 1.914.582 2.924.582 4.216 0 7.911-3.765 9.95-6.347 1.098-1.391 1.098-3.357 0-4.748" class="B"/><path fill="#faefeb" d="M407.486 246.328l14.225 5.927-3.985 2.189 5.245 5.385-3.52 3.358-5.114-5.823-2.861 3.575z"/><path stroke="#4f3b32" stroke-width=".611" d="M407.542 246.277l14.185 6.021-3.999 2.162 5.21 5.419-3.542 3.334-5.075-5.856-2.885 3.556z"/><path d="M140.389 204.42l-10.233 1.533-99.353 14.883C14.374 223.297.208 210.42.208 192.086v-73.05c0-18.333 21.473-34.202 37.901-32.822l102.279 11.263c10.16.853 18.143 12.55 18.143 26.026V177.2c0 13.476-7.983 25.698-18.143 27.22" class="J"/><path d="M140.389 204.42l-10.233 1.533-99.353 14.883C14.374 223.297.208 210.42.208 192.086v-73.05c0-18.333 21.473-34.202 37.901-32.822l102.279 11.263c10.16.853 18.143 12.55 18.143 26.026V177.2c0 13.476-7.983 25.698-18.143 27.22z" stroke="#1d1d1b"/><path d="M150.313 202.435l-10.233 1.533-99.353 14.883c-16.428 2.461-30.594-10.416-30.594-28.75v-73.05c0-18.333 14.167-32.143 30.594-30.764l109.586 9.204c10.16.853 18.143 12.55 18.143 26.026v53.697c0 13.476-7.983 25.698-18.143 27.22" class="J"/><path d="M150.313 202.435l-10.233 1.533-99.353 14.883c-16.428 2.461-30.594-10.416-30.594-28.75v-73.05c0-18.333 14.167-32.143 30.594-30.764l109.586 9.204c10.16.853 18.143 12.55 18.143 26.026v53.697c0 13.476-7.983 25.698-18.143 27.22z" stroke="#111827"/></g><g transform="translate(11.247 49.527)"><mask id="O" class="B"><use xlink:href="#B"/></mask><path d="M109.869 119.742c-.998 10.649-8.952 19.008-17.819 18.379-8.991-.638-15.312-10.202-13.895-21.229a10.68 10.68 0 0 1 .098-.661l5.637-29.234.715-3.72 3.437-17.797 24.805 5.263-1.097 17.977-.238 3.935-1.643 27.087z" mask="url(#O)" class="C"/><mask id="P" class="B"><use xlink:href="#C" href="#B"/></mask><path d="M109.869 119.742c-.998 10.649-8.952 19.008-17.819 18.379-8.991-.638-15.312-10.202-13.895-21.229a10.68 10.68 0 0 1 .098-.661l5.637-29.234.715-3.72 3.437-17.797 24.805 5.263-1.097 17.977-.238 3.935-1.643 27.087z" mask="url(#P)" class="D E F"/><mask id="Q" class="B"><use xlink:href="#D" href="#B"/></mask><path d="M110.688 105.993c-7.763.087-16.079-5.721-21.081-16.018a40.07 40.07 0 0 1-3.794-13.158l2.232-11.529 24.801 5.272-1.1 17.972-.226 3.94-.832 13.521z" fill="#995334" mask="url(#Q)"/><mask id="R" class="B"><use xlink:href="#C"/></mask><path d="M94.437 16.184c11.979.165 22.426 9.689 26.43 22.4.84 2.622 1.401 5.416 1.652 8.303.721 4.105 1.06 8.281.948 12.416-.042 1.519.105 3.058.528 4.502 2.561 8.729-3.1 21.766-6.516 28.939-1.045 2.195-2.092 2.865-3.819 4.298-1.943 1.613-4.42 1.955-6.637 1.013-7.184-3.054-13.532-8.157-20.28-13.351-3.022-2.326-4.515-6.226-5.415-10.481-.208-.173-.429-.328-.634-.507-6.303-5.537-10.78-14.073-11.674-23.927-1.698-18.726 10.065-33.816 25.417-33.605" mask="url(#R)" class="C"/><mask id="S" class="B"><use xlink:href="#F" href="#B"/></mask><path d="M94.437 16.184c11.979.165 22.426 9.689 26.43 22.4.84 2.622 1.401 5.416 1.652 8.303.721 4.105 1.06 8.281.948 12.416-.042 1.519.105 3.058.528 4.502 2.561 8.729-3.1 21.766-6.516 28.939-1.045 2.195-2.092 2.865-3.819 4.298-1.943 1.613-4.42 1.955-6.637 1.013-7.184-3.054-13.532-8.157-20.28-13.351-3.022-2.326-4.515-6.226-5.415-10.481-.208-.173-.429-.328-.634-.507-6.303-5.537-10.78-14.073-11.674-23.927-1.698-18.726 10.065-33.816 25.417-33.605z" mask="url(#S)" class="D E F"/><mask id="T" class="B"><use xlink:href="#G" href="#C"/></mask><path d="M69.02 49.789c.893 9.854 5.371 18.39 11.674 23.927a10.4 10.4 0 0 0 4.345-7.333c.194-1.893-.093-3.829-.075-5.735.017-1.919.406-3.972 1.66-5.125 1.056-.973 2.584-1.215 3.413-2.437 1.398-2.083-.154-5.3.111-8.006.211-2.15 1.606-3.828 3.232-4.689 1.614-.869 3.431-1.06 5.214-1.237 5.933-.595 11.781-1.178 17.516-.341 1.632.24 3.342.578 4.756-.23-4.003-12.71-14.45-22.234-26.43-22.4-15.351-.211-27.115 14.878-25.417 33.605" mask="url(#T)" class="K"/><mask id="U" class="B"><use xlink:href="#H" href="#C"/></mask><path d="M94.103 44.009c5.36-2.051 11.231-1.015 16.652.581 3.507 1.033 6.995 2.303 10.435 2.14 3.391-.16 6.829-2.025 8.192-5.763 1.356-3.716-.251-9.341-3.546-10.439 2.177-2.793 2.213-7.909.08-11.296-2.153-3.417-6.26-4.674-9.039-2.711-.196-1.722-1.512-3.141-2.879-3.668-1.374-.529-2.794-.35-4.169-.142-6.185.936-12.532 2.372-18.176 5.864-5.772 3.571-10.745 9.503-12.484 17.231-.902 4.011-1.107 17.599 3.722 19.672 2.409 1.034 2.946-3.94 4.283-5.897 1.78-2.604 4.251-4.547 6.928-5.571" mask="url(#U)" class="K"/><mask id="V" class="B"><use xlink:href="#I" href="#C"/></mask><path d="M81.983 75.307c-2.453.814-5.751-1.731-7.83-6.324-2.382-5.261-2.23-11.132.337-13.054 2.541-1.903 6.463.819 8.762 6.021.936 2.115 1.462 4.321 1.591 6.321" mask="url(#V)" class="C"/><path d="M81.983 75.307c-2.453.814-5.751-1.731-7.83-6.324-2.382-5.261-2.23-11.132.337-13.054 2.541-1.903 6.463.819 8.762 6.021.936 2.115 1.462 4.321 1.591 6.321" mask="url(#V)" class="D E F G"/><mask id="W" class="B"><use xlink:href="#J" href="#C"/></mask><path d="M84.843 68.271l.028.701" mask="url(#W)" class="C"/><path d="M84.843 68.271l.028.701" mask="url(#W)" class="D E F G"/><mask id="X" class="B"><use xlink:href="#K" href="#C"/></mask><path d="M76.454 58.581c-1.105.427-1.936 1.729-2.097 3.293s.353 3.323 1.3 4.445" mask="url(#X)" class="D E F G"/><mask id="Y" class="B"><use xlink:href="#L" href="#C"/></mask><path d="M106.055 54.9c-1.104-.771-2.302-1.143-3.504-1.319-1.21-.164-2.433-.103-3.62.162-1.194.265-2.351.74-3.425 1.422-1.155.734-2.027 1.667-2.82 2.897 2.176-.433 4.197-1.397 6.356-1.697 1.989-.276 4.126-.123 6.103.372.434.095.838.079 1.165-.322.191-.233.223-.609.138-.926-.068-.257-.214-.464-.394-.59" mask="url(#Y)" class="H"/><mask id="Z" class="B"><use xlink:href="#M" href="#C"/></mask><path d="M115.482 53.24a1.26 1.26 0 0 0 .145 1.361c.464.546.947.158 1.407-.118.995-.599 1.876-1.336 2.928-1.776.614-.257 1.246-.449 1.888-.572.476-.092 1.31.065 1.619-.43-.709-.715-1.596-1.077-2.472-1.229a5.11 5.11 0 0 0-2.447.212 5.6 5.6 0 0 0-2.201 1.391c-.315.331-.618.714-.867 1.161" mask="url(#Z)" class="H"/><mask id="a" class="B"><use xlink:href="#N" href="#C"/></mask><path d="M113.145 60.497s3.307 8.964 4.384 11.122a3.14 3.14 0 0 1-.255 3.121c-1.104 1.488-2.853 2.493-4.422 2.598" mask="url(#a)" class="D E F G"/><mask id="b" class="B"><use xlink:href="#O" href="#C"/></mask><path d="M113.67 74.98c-.857-.185-1.775.161-2.396.904" mask="url(#b)" class="D E F G"/><mask id="c" class="B"><use xlink:href="#P" href="#C"/></mask><path d="M106.159 63.903c-.299-1.143-.963-2.053-1.795-2.666s-1.825-.807-2.845-.67c-1.025.114-2.03.54-3.049 1.026s-2.058 1.06-3.199 1.393l2.715-2.222c.965-.679 2.104-1.25 3.385-1.418.638-.069 1.309-.034 1.943.155.633.2 1.231.551 1.675 1.013.91.9 1.391 2.212 1.169 3.388" mask="url(#c)" class="H"/><mask id="d" class="B"><use xlink:href="#Q" href="#C"/></mask><path d="M103.397 61.865c-.097-1.141-.941-2.011-1.888-1.941s-1.644 1.059-1.546 2.208.95 2.017 1.899 1.939 1.632-1.065 1.534-2.206" mask="url(#d)" class="H"/><mask id="e" class="B"><use xlink:href="#R" href="#C"/></mask><path d="M119.818 59.656c.067-.981-.517-1.879-1.309-2.008s-1.495.564-1.563 1.551.523 1.886 1.317 2.01 1.487-.572 1.554-1.553" mask="url(#e)" class="H"/><mask id="f" class="B"><use xlink:href="#S" href="#C"/></mask><path d="M115.336 61.553c-.006-.856.255-1.705.689-2.468.44-.759 1.078-1.434 1.878-1.89a4.42 4.42 0 0 1 2.645-.564c.898.097 1.749.476 2.34 1.098-.837-.165-1.61-.224-2.344-.131a5.41 5.41 0 0 0-2.034.666c-.621.353-1.189.83-1.706 1.389-.525.557-.984 1.198-1.468 1.9" mask="url(#f)" class="H"/><mask id="g" class="B"><use xlink:href="#T" href="#C"/></mask><path d="M116.528 85.962c-2.493 1.754-5.762 1.78-8.32.036" mask="url(#g)" class="D E F G"/><mask id="h" class="B"><use xlink:href="#U" href="#C"/></mask><path d="M117.83 81.208c-.726.949-1.771 1.516-2.836 1.54-.404.71-1.277.695-1.838.163-2.175.719-4.621.84-6.861.208" mask="url(#h)" class="D E F G"/><mask id="i" class="B"><use xlink:href="#V" href="#C"/></mask><path d="M101.787 84.409c-.013-.725.118-1.377.336-1.994a6.14 6.14 0 0 1 .928-1.725c.784-1.059 1.983-1.966 3.457-2.347.731-.186 1.516-.175 2.234-.002.723.165 1.364.518 1.925.883 1.116.769 1.987 1.551 3.03 1.97l-.197.043c.657-.561 1.063-1.333 1.726-2.173.339-.403.778-.812 1.352-1.05.566-.247 1.245-.307 1.854-.173 1.135.243 2.169.945 2.771 1.891.604.939.794 2.035.485 3.043-.038.12-.165.188-.285.151-.025-.007-.048-.019-.068-.034l-.005-.005-2.015-1.346c-.565-.29-1.075-.457-1.594-.591-.218-.06-.404-.148-.674-.246-.264-.093-.628-.191-1.034-.19a2.94 2.94 0 0 0-2.247.989c-.045.053-.116.07-.178.05l-.019-.006c-1.053-.345-2.279-.362-3.357-.025-.533.148-1.008.371-1.402.563l-1.068.494-2.337.914c-.919.367-1.938.828-3.321 1.148-.13.03-.26-.051-.29-.181-.003-.017-.006-.034-.006-.05" mask="url(#i)" class="K"/><mask id="j" class="B"><use xlink:href="#W" href="#C"/></mask><path d="M146.435 161.763c7.351-9.787 11.728-19.483 9.978-21.956-1.765-2.494-9.162 3.168-16.732 12.95-7.827 10.114-12.743 20.609-10.753 23.105 1.974 2.476 9.909-3.984 17.506-14.098" fill="#312e81" mask="url(#j)"/><mask id="k" class="B"><use xlink:href="#X" href="#C"/></mask><path d="M177.472 199.388h0c4.067-6.071 3.96-15.371-.243-20.869l-39.109-51.167c-6.219-8.136-16.521-8.471-22.398-.343-5.732 7.927-4.76 20.457 2.115 27.625l44.942 46.864c4.455 4.645 10.832 3.651 14.692-2.11" mask="url(#k)" class="C"/><mask id="l" class="B"><use xlink:href="#Y" href="#B"/></mask><path d="M177.472 199.388h0c4.067-6.071 3.96-15.371-.243-20.869l-39.109-51.167c-6.219-8.136-16.521-8.471-22.398-.343-5.732 7.927-4.76 20.457 2.115 27.625l44.942 46.864c4.455 4.645 10.832 3.651 14.692-2.11z" mask="url(#l)" class="D E T"/><mask id="m" class="B"><use xlink:href="#Z" href="#B"/></mask><path d="M128.714 175.483c-1.338-3.05 3.492-13.055 10.962-22.724 7.574-9.783 14.974-15.454 16.74-12.945a1.11 1.11 0 0 1 .094.182l.074-.101-17.132-23.139c-7.095-9.577-19.457-9.651-26.883.417-1.432 1.941-2.564 4.083-3.393 6.382-2.975 8.248-1.932 17.974 2.877 24.773l16.66 27.154z" mask="url(#m)" class="P"/><mask id="n" class="B"><use xlink:href="#a" href="#C"/></mask><path d="M145.132 140.546l-9.48 124.474-85.419 32.374-20.136-135.64c-3.425-23.07 11.129-46.05 31.58-51.439l18.279-2.918s5.36 23.128 16.601 22.134c10.761-.952 14.129-23.537 14.129-23.537l3.356.751s1.497-.672 6.558 1.257l.014-.001c10.031 3.81 24.517 12.585 24.517 32.546" mask="url(#n)" class="P"/><mask id="o" class="B"><use xlink:href="#b" href="#C"/></mask><path d="M29.553 185.268c13.474 5.387 25.506 6.115 27.428 1.879 1.908-4.206-6.752-12.013-19.876-17.699-13.764-5.964-27.255-7.388-29.525-2.879-2.288 4.543 7.833 13.045 21.974 18.699" fill="#312e81" mask="url(#o)"/><mask id="p" class="B"><use xlink:href="#c" href="#C"/></mask><path d="M-6.339 267.878h0c9.575 2.423 21.687-5.984 27.093-18.401l41.906-96.266c5.526-12.694 2.071-26.623-7.738-30.686-9.681-4.01-21.979 3.028-27.239 16.065l-41.634 103.192c-4.971 12.323-1.586 23.767 7.613 26.096" mask="url(#p)" class="C"/><mask id="q" class="B"><use xlink:href="#d" href="#B"/></mask><path d="M-6.339 267.878h0c9.575 2.423 21.687-5.984 27.093-18.401l41.906-96.266c5.526-12.694 2.071-26.623-7.738-30.686-9.681-4.01-21.979 3.028-27.239 16.065l-41.634 103.192c-4.971 12.323-1.586 23.767 7.613 26.096z" mask="url(#q)" class="D E T"/><mask id="r" class="B"><use xlink:href="#e" href="#B"/></mask><path d="M7.953 166.014c3.108-3.824 15.996-2.255 29.146 3.425 13.126 5.692 21.798 13.499 19.875 17.717a1.97 1.97 0 0 1-.154.255l.133.052 16.4-37.84c6.168-14.241 1.621-30.336-10.252-35.503a19.5 19.5 0 0 0-7.159-1.628c-8.915-.309-18.178 5.332-23.534 14.959L7.953 166.014z" mask="url(#r)" class="P"/><mask id="s" class="B"><use xlink:href="#f" href="#C"/></mask><path d="M85.039 66.383s10.4 29.926 16.982 17.306c0 0 5.127 10.202 10.386 5.261 0 0 8.409.499 9.169-7.307 0 0 2.088-4.256 2.993-10.963 0 0 4.146 19.448-4.633 28.61-9.112 9.509-29.132 1.369-33.695-11.147-4.646-12.741-1.203-21.759-1.203-21.759" mask="url(#s)" class="K"/></g><g transform="translate(0 38.279)"><path d="M357.029 100.468s1.992 4.525-6.265 16.738c-18.566 27.461 13.888 71.922 33.845 25.219s15.127-37.555 15.127-37.555-7.128-8.498-7.468-31.378-35.24 26.975-35.24 26.975" class="C"/><path d="M309.176 177.784l2.556 33.839c1.626 22.382 3.048 55.082 6.784 65.17s3.377 17.186 3.377 17.186 74.335 14.571 112.818 4.11c0 0-11.208-13.15 0-86.466 9.443-61.768 1.223-95.897 1.223-95.897s-18.224-3.294-36.909-11.146c0 0-15.5 53.029-37.17 51.534s-7.285-45.021-7.285-45.021-26.215 5.817-37.224 13.874-12.654 35.631-8.171 52.817" class="Q"/><g transform="translate(0 277.217)"><mask id="t" class="B"><use xlink:href="#D"/></mask><path d="M473.689 17.086L42.256.042 41.39.035 8.908.747C-1.466.974-3.404 15.618 6.554 18.535L197.24 74.396c1.249.366 2.562.459 3.851.273l273.539-39.527c10.931-1.579 10.096-17.62-.94-18.056" fill="#1f2937" mask="url(#t)"/></g><path d="M201.09 351.886v-15.472l277.426-40.623s10.383 14.506-3.887 16.568L201.09 351.886" class="M"/><path d="M201.09 336.414L4.88 278.923s-8.365 7.093-1.056 15.561l197.266 57.402v-15.472z" class="J"/><path d="M383.264 86.207s-8.089 22.033-27.401 22.908l2.218-4.243c-2.118-1.846 10.045-.179 25.182-18.665" fill="#995334"/><path d="M332.652 28.614s-1.708 11.107.634 22.211c1.798 8.522 1.605 17.309 2.911 25.9 1.294 8.507 4.678 17.745 10.613 24.126 2.729 2.934 6.259 5.28 10.365 5.496 7.293.382 13.301-5.396 18.063-10.17 7.368-7.386 12.812-16.468 14.804-26.774.04-.21 2.008-1 2.232-1.133 1.682-1 3.256-2.253 4.5-3.773 3.764-4.593 1.906-12.471.66-17.905-.484-2.113-.695-3.514-2.861-3.427-1.913.077-4.339-2.018-5.415-.434-1.018 1.499-3.149 4.912-3.804 6.601s-3.667 9.447-3.114 11.173c-1.508-4.127 3.978-14.84 2.989-19.143-.953-4.145-2.113-5.46-2.366-9.715 0 0-26.126 2.902-37.009-8.593l-13.204 5.559z" class="C"/><g fill="#1d1d1b"><path d="M363.247 61.615c.519-.674 1.332-1.051 2.125-1.291.808-.234 1.649-.304 2.472-.259.827.032 1.632.209 2.409.448l1.129.462 1.053.64c-.421.032-.82.008-1.216-.011l-1.17-.071-2.271-.147-2.235-.04c-.749.025-1.495.075-2.295.269m-26.563.741c.477-.705 1.264-1.132 2.041-1.42.791-.284 1.628-.406 2.451-.412.827-.021 1.641.107 2.431.297l1.157.392 1.09.573c-.419.058-.818.06-1.215.065l-1.172.001c-.772.008-1.528-.022-2.276-.005l-2.233.099c-.746.071-1.487.167-2.274.41"/><use xlink:href="#G"/><use xlink:href="#G" x="26.503" y="-0.798"/><path d="M362.721 53.707s-3.736 1.307-2.553-.685 6.414-3.425 14.509 1.37c0 0-10.094-1.098-11.956-.685m-21.794.249s5.417.81 4.483-.747-6.526-2.317-10.648.957c0 0-.685 1.346.748.973s2.492-1.389 5.417-1.183"/></g><path d="M352.688 56.245c.055 3.573-.113 7.171-.825 10.68-.353 1.742-.84 3.458-1.493 5.112-.51 1.295-2.202 3.382-1.56 4.805.582 1.29 2.668 1.342 3.878 1.3 1.719-.059 3.757-.632 4.981-1.909" stroke="#1d1d1b"/><path d="M347.034 85.574s10.294 3.804 16.336 0c0 0-8.727 12.084-16.336 0" fill="#a80e2b"/><path d="M354.159 99.086s1.841-2.802 5.777 0" stroke="#9e7949"/><path d="M388.433 52.959c.415-.502 1.055-.812 1.727-.904.677-.085 1.404.115 1.962.542a2.91 2.91 0 0 1 1.119 1.761c.14.709.006 1.43-.24 2.066-.259.635-.625 1.203-1.031 1.726l-1.271 1.462c-.822.945-1.571 2.006-1.632 3.323-.105-.641.007-1.315.236-1.939.243-.62.604-1.184.993-1.707.781-1.045 1.655-1.974 2.09-3.11.226-.554.331-1.145.24-1.71-.081-.563-.389-1.085-.826-1.473-.864-.797-2.342-.844-3.367-.039" fill="#1d1d1b"/><path d="M335.746 70.617s-7.151-42.261-1.148-50.452 11.435-5.227 11.435-5.227 1.768-16.09 28.986-14.64 41.35 28.223 37.139 52.402l-7.747 23.004s28.051 2.479 37.361 16.47 4.573 37.948-22.963 25.369c-20.337-9.29-20.816-14.212-23.614-21.757-.99-2.671-.891-14.447-.891-14.447s-2.979-7.165-3.468-12.734c-.444-5.061 7.965-8.637 5.106-18.474-2.744-9.439-16.439-1.919-10.461 17.356 0 0-8.036-7.081-7.351-19.375.121 2.547-27.249-8.367-31.755-17.491 0 0-7.358.798-9.813 8.442s-1.42 25.021-1.42 25.021" class="K"/><path d="M237.888 156.962c-2.875-6.458-4.338-13.574-8.107-19.554-1.618-2.567-3.626-4.863-5.624-7.146l-12.243-13.991c-.48-.549-1.054-1.147-1.846-.983-.491.101-.883.489-1.065.956-.358.922-.039 1.86.289 2.738a79.64 79.64 0 0 0 9.482 17.954c-1.505-4.031-6.389-6.637-10.173-8.687s-9.28-3.724-12.615-6.443c-2.561-2.087-4.003-3.047-6.694-4.965-2.06-1.469-3.682-3.922-6.168-3.051-.363.127-.738.307-.926.642-.48.859.414 1.943 1.047 2.44l20.47 16.076c-7.04-3.247-12.656-7.967-19.467-11.67-8.25-6.237-3.361 2.846-5.906 1.158-1.119-.742-2.399-.362-2.703.945-.365 1.567 1.027 2.949 2.283 3.96l5.042 4.064c-1.526-.681-3.67-1.295-5.215-.658a83.95 83.95 0 0 0 10.122 10.985c7.153 6.493 15.365 11.698 23.621 16.714 1.939 1.178 3.897 2.358 5.564 3.896 1.359 1.254 2.498 2.723 3.632 4.184l2.18 2.812" class="C"/><g fill="#844a30"><path d="M182.762 131.301c1.388.705 2.709 1.532 3.958 2.476.633.466 1.197 1.026 1.774 1.508l1.788 1.462 3.643 2.866 3.728 2.763c-1.398-.681-2.699-1.543-3.983-2.411l-3.771-2.731-1.815-1.468-1.725-1.545-3.598-2.92m18.136 11.786a26.92 26.92 0 0 1 1.54-3.499 21.59 21.59 0 0 1 2.067-3.236c.794-1.008 1.688-1.951 2.714-2.731 1.02-.784 2.158-1.422 3.377-1.803a14.77 14.77 0 0 0-3.144 2.088c-.947.822-1.801 1.747-2.57 2.74-.777.986-1.466 2.044-2.124 3.122l-1.859 3.319"/><path d="M199.907 138.043c-.535-.993-1.266-1.855-2.118-2.566-.84-.726-1.78-1.329-2.763-1.847l-6.06-2.991c-1.955-1.19-3.689-2.67-5.344-4.195l-2.511-2.232c-.859-.713-1.796-1.332-2.824-1.796 1.082.328 2.077.908 3.012 1.546.926.657 1.786 1.394 2.648 2.115 1.717 1.445 3.424 2.904 5.345 4.014 1.891 1.156 4.013 1.954 5.974 3.113.977.583 1.914 1.248 2.734 2.044.803.806 1.503 1.738 1.908 2.795m16.11-5.26c1.082 1.186 1.941 2.541 2.681 3.952.722 1.42 1.331 2.906 1.669 4.475l-2.236-4.183-2.114-4.245"/></g><path d="M203.717 132.948c-7.04-3.247-12.656-7.967-19.467-11.67-7.558-5.714-4.877.133-5.411 1.37" class="C"/><path d="M250.544 178.345s-.087-.525-1.475-.699l1.475 3.264s.435-.385 0-2.566m-19.893 5.981l2.396 3.483.965 5.224-1.681-.492-1.962-5.169z" class="R"/><path d="M222.277 168.352s9.314 17.683 11.392 25.076c0 0 9.901 9.326 19.725-6.553l-15.506-29.913-15.61 11.39z" class="C"/><path d="M351.923 112.328s-30.79 7.663-43.493 18.439-21.67 71.402-21.67 71.402l-2.713 14.075s-15.51-9.13-21.239-20.97c-6.219-12.854-12.491-17.097-12.509-17.109 1.079.728-.468 6.235-.771 7.08-.735 2.052-1.976 3.89-3.681 5.259-1.43 1.149-3.116 1.843-4.875 2.31-3.624.962-7.012 1.896-9.072-2.208-.965-1.922-1.115-4.135-1.248-6.281-1.565 2.402 1.54 8.981 1.54 8.981l5.657 11.253s24.166 41.596 41.022 53.552 27.316-24.961 27.316-24.961" class="Q"/><path d="M355.905 292.879s-1.287-.024-2.657-1.833l3.922-.803-1.265 2.637z" class="R"/><path d="M375.132 255.247c-27.204 8.952-53.347 4.611-60.83-11.232l5.726 36.631 57.881 2.187 16.837-33.715" class="S"/><path d="M349.418 270.192s-26.126 13.244-34.384 13.907 7.471 13.242 7.471 13.242l34.665-7.098s2.386-18.556-7.752-20.051" class="C"/><path d="M419.69 146.739s-9.396 26.768-6.78 55.91 13.949 29.21-9.355 43.107l29.988 11.309 3.707-29.142-7.098-25.274c-1.868-5.737-2.615-31.886-2.989-34.503s-7.472-21.407-7.472-21.407" class="S"/><path d="M417.899 171.619c4.577 34.118 18.41 54.973 5.138 62.569-8.295 4.748-12.833 7.947-15.069 9.679-1.288.997-2.89 1.315-4.414 1.888-34.759 13.041-57.986 24.436-57.986 24.436 10.835-2.989 10.337 22.687 10.337 22.687s14.945-2.885 24.321-6.135c28.609-3.012 90.456-37.735 91.576-47.695s-5.231-60.281-11.582-87.9c-3.909-16.998-13.195-27.622-19.759-33.281-4.195-3.616-10.567-2.858-13.822 1.622-5.747 7.908-12.554 23.697-8.74 52.127" class="Q"/><path d="M282.607 274.068l-.177-1.407-14.11 11.191c-.753.597-1.577 1.222-2.537 1.261s-1.999-.834-1.735-1.759c.074-.258.235-.481.395-.696a38.1 38.1 0 0 1 21.031-14.045c3.133-.791 6.553-1.153 9.513.144 5.708 2.5 7.588 10.041 12.975 13.174 3.741 2.177 20.81 1.497 20.67 10.946-.046 3.114-3.137 3.591-6.126 4.463s-12.511 1.352-15.278-.076c-2.578-1.331-4.405-3.785-6.878-5.302-2.646-1.624-5.067-3.264-8.039-4.162-3.294-.994-6.908-.26-10.014 1.22s-5.817 3.656-8.576 5.712c-.626.467-1.766.779-1.974.026-.362.616-1.289.697-1.896.318s-.937-1.076-1.124-1.766c-.855-3.151.668-6.44 2.452-9.174 2.562-3.928 5.756-7.443 9.421-10.369" class="C"/><path d="M269.566 291.523a32.77 32.77 0 0 0 4.622-7.053c.904-1.868 1.675-3.886 3.203-5.292 1.272-1.171 2.94-1.794 4.564-2.39 3.087-1.133 6.211-2.276 9.478-2.646m-21.246 18.737c4.236-2.777 6.524-7.883 10.795-10.606 3.09-1.97 6.863-2.467 10.5-2.918" stroke="#47332b"/><path d="M361.857 156.114l4.833-.572-4.833 41.671s-6.714 6.226-7.529 0l2.695-42.377 4.834 1.279z" fill="#ffdeb3"/><path d="M306.916 161.36s1.936 34.108-.41 46.438-9.251 44.741-9.251 44.741l15.385-34.653s2.637-26.972-5.724-56.525" class="S"/><g fill="#47332b"><path d="M355.903 291.561c5.347-.79 10.655-1.815 15.914-3.043a239.02 239.02 0 0 0 15.651-4.168c10.337-3.121 20.499-6.819 30.426-11.063 9.943-4.205 19.668-8.939 29.06-14.265 4.693-2.665 9.297-5.496 13.7-8.618 2.201-1.559 4.355-3.191 6.37-4.986 1.002-.901 1.972-1.843 2.846-2.87.431-.517.848-1.051 1.192-1.631.346-.574.654-1.192.742-1.867-.074.677-.372 1.305-.707 1.888-.333.59-.742 1.133-1.164 1.662-.857 1.049-1.812 2.013-2.799 2.938-1.986 1.842-4.114 3.521-6.29 5.13-4.377 3.185-8.963 6.071-13.636 8.796-4.671 2.732-9.463 5.25-14.311 7.651a289.93 289.93 0 0 1-14.744 6.781c-9.969 4.203-20.151 7.918-30.541 10.94-5.195 1.507-10.438 2.852-15.724 3.997-5.29 1.125-10.622 2.046-15.984 2.729m70.732-172.067a40.33 40.33 0 0 0-3.321 5.613c-.959 1.95-1.812 3.955-2.498 6.016-1.453 4.096-2.364 8.367-2.948 12.665-.566 4.304-.807 8.65-.758 12.993.04 4.343.353 8.684.903 12.995.997 8.64 2.825 17.166 4.92 25.612l3.219 12.665c1.026 4.232 2.004 8.502 2.38 12.847-.484-4.334-1.565-8.564-2.694-12.766l-3.399-12.621c-2.201-8.434-4.03-16.988-5.083-25.659a111.47 111.47 0 0 1-.848-13.069c-.021-4.367.208-8.745.856-13.068s1.622-8.605 3.147-12.702c.742-2.055 1.647-4.048 2.658-5.981 1-1.939 2.165-3.791 3.464-5.54m6.459 175.043c-.695-1.34-1.249-2.75-1.714-4.188-.472-1.438-.816-2.916-1.078-4.407-.247-1.494-.412-3.002-.441-4.516l.019-2.266.214-2.253.046 1.128.064 1.123.165 2.238.585 4.435.914 4.379 1.227 4.327M309.062 172.902c.836 2.48 1.392 5.04 1.81 7.617.398 2.58.658 5.186.625 7.803l-1.278-7.7-1.157-7.72m3.972 58.138l1.252 9.988 1.077 10.005.924 10.02.408 5.016.339 5.023-.662-4.99-.591-4.997-1.076-10.006-.923-10.021-.748-10.037m70.724-92.584c-1.867 2.58-2.981 5.6-4.844 8.215-1.835 2.611-4.128 4.936-6.854 6.653-2.707 1.72-5.917 2.776-9.17 2.681-3.23-.075-6.474-1.131-9.018-3.189a11.56 11.56 0 0 1-3.037-3.8c-.726-1.464-1.139-3.054-1.37-4.645s-.301-3.197-.32-4.791l.128-4.783a64.13 64.13 0 0 1 1.35-9.458c.709-3.106 1.629-6.161 2.804-9.114l-1.41 4.549-1.077 4.633c-.615 3.109-1.009 6.26-1.159 9.421l-.064 4.744c.028 1.582.109 3.161.343 4.711s.643 3.069 1.34 4.451a10.94 10.94 0 0 0 2.891 3.573c2.398 1.966 5.508 3.008 8.614 3.098 3.126.12 6.21-.903 8.89-2.511 2.69-1.622 4.99-3.867 6.858-6.41 1.924-2.51 3.116-5.53 5.106-8.027m-64.602-14.712c-1.929.801-3.78 1.778-5.554 2.871a35.93 35.93 0 0 0-4.995 3.725c-1.539 1.391-2.922 2.955-4.029 4.697-1.096 1.747-1.891 3.672-2.278 5.687l-.004.021-.007.019-3.117 9.199-3.151 9.187.009-.031-3.696 15.863-1.858 7.929-1.818 7.939 1.546-7.999 1.688-7.969 3.528-15.903.003-.015.006-.017 3.139-9.191 3.174-9.179-.011.04a17.13 17.13 0 0 1 .922-3.05c.425-.975.925-1.913 1.505-2.799 1.169-1.767 2.609-3.331 4.195-4.711s3.321-2.58 5.134-3.629 3.702-1.97 5.667-2.683m-81.307 80.812c2.789 4.489 5.667 8.922 8.599 13.317 2.918 4.404 5.896 8.768 8.966 13.066 3.08 4.289 6.203 8.549 9.512 12.659 3.316 4.095 6.755 8.128 10.685 11.611 1.963 1.727 4.103 3.289 6.544 4.171 1.215.431 2.49.703 3.773.704 1.282.01 2.562-.236 3.759-.706 2.406-.944 4.428-2.709 6.086-4.71 1.656-2.018 3.018-4.287 4.105-6.668l6.146-14.606 6.209-14.591-5.91 14.712-5.98 14.691c-1.076 2.437-2.432 4.755-4.128 6.826-1.691 2.054-3.77 3.898-6.307 4.907-1.26.502-2.621.768-3.981.762-1.363.004-2.711-.279-3.984-.727-2.555-.914-4.768-2.524-6.766-4.267-3.974-3.549-7.405-7.61-10.719-11.732-3.296-4.142-6.438-8.401-9.457-12.743a437.79 437.79 0 0 1-8.821-13.182l-8.328-13.494"/><path d="M250.973 180.054c2.748 2.924 5.396 5.939 7.977 9.014 1.298 1.531 2.541 3.108 3.766 4.703.611.798 1.209 1.607 1.788 2.433.586.83 1.125 1.655 1.725 2.454 2.337 3.232 4.975 6.253 7.697 9.182 1.36 1.467 2.758 2.901 4.194 4.295 1.421 1.411 2.899 2.764 4.418 4.074-3.215-2.406-6.159-5.159-8.98-8.017-2.812-2.871-5.458-5.908-7.863-9.146-.597-.81-1.147-1.67-1.709-2.484-.563-.822-1.149-1.631-1.749-2.43-1.194-1.604-2.445-3.168-3.679-4.745l-3.777-4.677-3.808-4.657z"/></g><path d="M344.495 270.522s-.97.701-2.091 3.039l7.36-3.37s-3.697-.543-5.268.331" class="R"/><use xlink:href="#H" class="N"/><use xlink:href="#H" class="I"/><use xlink:href="#I" class="N"/><use xlink:href="#I" class="I"/><use xlink:href="#J" class="N"/><use xlink:href="#J" class="I"/><use xlink:href="#K" class="M"/><use xlink:href="#K" class="I"/><use xlink:href="#L" class="N"/><use xlink:href="#L" class="I"/><use xlink:href="#M" class="M"/><use xlink:href="#M" class="I"/><path d="M221.028 290.032l68.117 18.016-30.039 6.721-33.068-8.846z" class="M"/><path d="M353.829 178.349l.156 3.723.101 3.717.179 7.442.022 3.722c.093 1.169-.329 2.775.865 2.911 1.129.147 2.388-.165 3.428-.755a6.43 6.43 0 0 0 2.564-2.562c-.95 2.304-3.419 3.996-6.077 3.819-.338-.044-.723-.191-.979-.505s-.322-.692-.352-1.02l-.052-1.88-.081-3.721-.024-7.444.25-7.447" fill="#47332b"/><path d="M382.829 245.094c2.218-.975 4.367-2.081 6.42-3.339 2.041-1.276 4.024-2.645 5.855-4.204 1.839-1.547 3.593-3.199 5.178-5.008 1.616-1.784 3.068-3.712 4.415-5.718l.167.097c-.405.667-1.257.973-1.956.748.716.146 1.477-.234 1.788-.842l.166.097c-1.172 2.127-2.593 4.117-4.152 5.989-1.588 1.845-3.307 3.587-5.195 5.132-1.894 1.533-3.886 2.954-6.023 4.124-2.124 1.188-4.355 2.183-6.664 2.924" fill="#0c0801"/></g></g></svg>
