<svg xmlns="http://www.w3.org/2000/svg" xmlns:xlink="http://www.w3.org/1999/xlink" width="545" height="434"><style><![CDATA[.B{fill:#fff}.C{stroke-width:2}.D{fill:#1d1d1b}.E{stroke:#4b5563}.F{fill:#374151}.G{fill:#c18465}.H{fill:#ffd593}.I{fill:#fdc280}.J{stroke:#1d1d1b}.K{stroke-width:1.049}]]></style><defs><path id="A" d="M.388.098h506.336v324.588H.388z"/><path id="B" d="M0 .032h501.385V105H0z"/><path id="C" d="M502.925 300.352h-342.85a5.07 5.07 0 0 1-5.075-5.066V65.418a5.07 5.07 0 0 1 5.075-5.066h342.85A5.07 5.07 0 0 1 508 65.418v229.868a5.07 5.07 0 0 1-5.075 5.066z"/><path id="D" d="M180 72.852a3.5 3.5 0 1 1-7 0 3.5 3.5 0 1 1 7 0"/><path id="E" d="M286 149.352a3 3 0 1 1 0 6 3 3 0 1 1 0-6"/><path id="F" d="M296.159 149.902c-2.082-2.665-5.855-6.549-10.159-6.549s-8.077 3.884-10.159 6.549a3.99 3.99 0 0 0 0 4.9c1.029 1.318 2.472 2.933 4.187 4.229v-6.682h0c.001-3.332 2.674-6.033 5.972-6.033s5.972 2.702 5.972 6.036-2.674 6.036-5.972 6.036c-1.089 0-2.107-.3-2.986-.815v3.178c.954.376 1.954.601 2.986.601 4.304 0 8.077-3.885 10.159-6.55a3.99 3.99 0 0 0 0-4.9"/><path id="G" d="M368.995 102.495a2 2 0 0 1-3.99-.286 2 2 0 0 1 3.99.286"/><path id="H" d="M343.673 389.352s18.1-7.338 20.861-9.153 22.298-12.083 22.298-12.083 10.576-4.91-6.921-8.106c-19.263-3.569-61.937-12.658-61.937-12.658s-13.72 5.837-20.364 10.786S278 371.104 278 371.104l65.673 18.249z"/><path id="I" d="M180.68 370.675l-28.869-97.15s-3.062-6.521 2.712-9.731c.887-.493 1.462-.44 1.462-.44l160.812 14.962a7.63 7.63 0 0 1 2.96.897c2.095 1.144 4.713 3.568 5.836 7.871 2.127 8.145 22.852 98.54 22.852 98.54l.555 1.701-5.006 2.028-163.313-18.677z"/></defs><g fill="none" fill-rule="evenodd"><g transform="translate(38 .352)"><mask id="J" class="B"><use xlink:href="#A"/></mask><path d="M1.693 272.574l-.08-.744C-9.134 169.357 51.723 66.843 148.25 29.321c88.236-34.298 208.907-48.913 287.04 15.863 33.401 27.692 56.631 67 65.943 109.256 5.933 26.921 7.638 55.116 2.211 82.272-4.398 22.006-16.349 61.81-39.936 69.874-8.318 2.844-17.38 2.078-26.136 1.277-53.693-4.906-106.18-10.082-160.047-8.638-46.643 1.251-93.207 5.5-139.303 12.724l-61.963 9.771c-17.497 2.981-38.154 6.385-53.774-4.435-13.933-9.652-18.74-27.828-20.593-44.713" fill="#1f2937" mask="url(#J)"/></g><g class="C"><path d="M155 84.852h353" class="E"/><use xlink:href="#C" stroke="#fff"/><use xlink:href="#C" class="E"/></g><use xlink:href="#D" fill="#fe9184"/><use xlink:href="#D" x="14" fill="#fad780"/><use xlink:href="#D" x="28" fill="#00c77d"/><path d="M537.194 283.352H390.806c-2.654 0-4.806-2.131-4.806-4.76v-63.481c0-2.629 2.152-4.76 4.806-4.76h146.388c2.654 0 4.806 2.131 4.806 4.76v63.481c0 2.629-2.152 4.76-4.806 4.76" class="F"/><path d="M537.194 283.352H390.806c-2.654 0-4.806-2.131-4.806-4.76v-63.481c0-2.629 2.152-4.76 4.806-4.76h146.388c2.654 0 4.806 2.131 4.806 4.76v63.481c0 2.629-2.152 4.76-4.806 4.76z" class="C E"/><path d="M407.847 269.352h45.306c3.781 0 6.847-3.041 6.847-6.792v-32.417c0-3.75-3.065-6.791-6.847-6.791h-45.306c-3.781 0-6.847 3.041-6.847 6.791v32.417c0 3.751 3.065 6.792 6.847 6.792" class="F"/><g fill="#fdfdf3"><path d="M425.04 242.352a6.97 6.97 0 0 0 6.961 6.961 6.97 6.97 0 0 0 6.961-6.961 6.97 6.97 0 0 0-6.961-6.961 6.97 6.97 0 0 0-6.961 6.961m-2.04 0c0-4.963 4.038-9 9-9s9 4.037 9 9-4.037 9-9 9-9-4.037-9-9"/><path d="M423.407 251.352l2.593-2.593-1.407-1.407-2.593 2.593z"/><path d="M421.114 249.803l-5.664 5.664a1.54 1.54 0 0 0 0 2.175l1.26 1.26a1.54 1.54 0 0 0 2.175 0l5.664-5.663a1.54 1.54 0 0 0 0-2.175l-1.26-1.26a1.54 1.54 0 0 0-2.175 0"/></g><path d="M470 236.852h54m-54 9h26m-26 9h54" stroke="#d1d5db" class="C"/><path d="M163.835 236.352H50.165c-3.405 0-6.165-2.77-6.165-6.187V144.54c0-3.418 2.76-6.188 6.165-6.188h113.67c3.405 0 6.165 2.77 6.165 6.188v85.624c0 3.417-2.76 6.187-6.165 6.187" class="F"/><g class="C"><path d="M163.835 236.352H50.165c-3.405 0-6.165-2.77-6.165-6.187V144.54c0-3.418 2.76-6.188 6.165-6.188h113.67c3.405 0 6.165 2.77 6.165 6.188v85.624c0 3.417-2.76 6.187-6.165 6.187z" class="E"/><g stroke="#d1d5db"><path d="M63 178.852h62m-62 19h62"/><path d="M63 188.852h26"/></g></g><path d="M400.415 176.352H257.585c-1.98 0-3.585-1.604-3.585-3.582v-40.836c0-1.979 1.606-3.582 3.585-3.582h142.829c1.981 0 3.585 1.603 3.585 3.582v40.836c0 1.978-1.605 3.582-3.585 3.582" fill="#6366f1"/><path d="M314 146.852h73m-73 10h23" stroke="#fff" class="C"/><g class="B"><use xlink:href="#E"/><use xlink:href="#F"/></g><path fill="#faefeb" d="M428 256.352l14.698 6.328-4.117 2.337 5.42 5.75-3.637 3.585-5.284-6.217-2.957 3.817z"/><path stroke="#4f3b32" stroke-width=".611" d="M428 256.352l14.742 6.399-4.156 2.298 5.414 5.76-3.681 3.543-5.274-6.224-2.998 3.779z"/><path d="M357.683 125.883s-.191 7.055 1.862 19.591c-7.591 7.225-9.071 26.017-6.145 30.089l10.663 14.789 25.116-3.851s33.917-6.001 30.461-24.502-15.167-15.042-13.241-21.293 23.646-4.453 22.562-47.354" class="D"/><path d="M361.106 127.792s5.881 23.913-2.323 31.473 3.961 44.042 7.867 47.412 20.269 16.868 30.322-2.691S408 155.891 408 155.891s-5.821-22.059-4.266-29.548-42.628 1.449-42.628 1.449" class="G"/><path d="M313.912 228.897l1.645 34.234c1.022 22.641 2.101 35.655 5.584 45.942s-1.163 55.454-1.163 55.454 82.404 12.822 121.421 3.319c0 0-3.008-33.721 3.501-99.133L453 173.489s-26.149-8.697-44.739-17.137c0 0-5.263 54.971-27.032 52.865s-21.987-49.484-21.987-49.484-28.071 11.901-39.372 19.732-9.999 31.956-5.958 49.431" class="H"/><path d="M445.644 268.352c10.79 13.106-44.455 103.041-107.644 64.963l3.029 16.866 35.071 8.172 67.637-28.09 1.907-61.91z" class="I"/><g transform="translate(0 328.352)"><mask id="K" class="B"><use xlink:href="#B"/></mask><path d="M492.32 17.723L43.897.043l-.899-.008L9.235.774C-1.547 1.01-3.561 16.2 6.789 19.226l308.222 85.395a9.45 9.45 0 0 0 4.002.283l174.283-68.451c11.361-1.638 10.493-18.277-.977-18.729" fill="#1f2937" mask="url(#K)"/></g><path d="M319 433.352v-16.117l178.211-69.883s10.785 15.111-4.038 17.258S319 433.352 319 433.352" fill="#4b5563"/><path d="M319 417.324L5.209 330.352s-8.69 7.347-1.097 16.12L319 433.352v-16.028z" class="F"/><path d="M364 138.495s9.576 13.389 18.616 13.843c8.014.402 12.717-7.45 21.384-19.985 0 0-19.001 20.254-40 6.143" fill="#995334"/><path d="M351.977 87.177c-1.216 7.865-1.297 15.907-.242 23.796 1.405 10.499 3.958 15.591 9.636 24.51 2.514 3.949 6.879 8.054 10.765 10.642s8.755 3.931 13.288 2.854c5.158-1.225 9.097-4.579 12.753-8.443 6.537-6.908 11.298-12.659 14.082-21.78-.939.51.667 4.642 1.456 5.365s.559.503 1.612.334c4.567-.732 4.721-7.133 6.719-11.333 2.162-4.542 3.738-9.694 2.54-14.585-.249-1.017-.632-2.032-1.34-2.799-1.666-1.807-.362.694-2.44 1.999s-3.434 3.48-4.72 5.578c5.413-4.074 7.188-9.306 7.713-16.092s-1.985-13.751-6.707-18.62c-4.05-4.175-9.472-6.722-14.961-8.591-7.136-2.43-14.657-3.868-22.187-3.636-5.147.159-10.504 1.204-14.518 4.453-3.34 2.704-5.415 6.653-7.241 10.558-2.469 5.282-5.317 10.019-6.209 15.789" class="G"/><g class="D"><path d="M363 101.231c.515-.825 1.315-1.281 2.093-1.567.793-.28 1.619-.356 2.424-.29.809.048 1.596.276 2.356.579.375.171.742.374 1.102.583.351.249.701.49 1.026.801-.414.034-.804 0-1.192-.028l-1.146-.101-2.223-.207c-.732-.062-1.459-.1-2.189-.075s-1.465.076-2.25.304"/><use xlink:href="#G"/><path d="M391 101.676c.557-.655 1.379-.983 2.172-1.171.807-.181 1.637-.191 2.439-.084.807.093 1.584.334 2.328.637.367.168.725.36 1.074.559l.986.735c-.415.001-.804-.052-1.191-.101l-1.141-.159-2.214-.318-2.187-.205c-.735-.029-1.469-.033-2.267.107"/><use xlink:href="#G" x="27" y="1"/><path d="M390.842 93.795s-3.911 1.051-2.557-.877 6.8-2.996 14.715 2.434c0 0-10.226-1.839-12.158-1.557m-22.46-.302s5.354 1.236 4.532-.44-6.354-2.875-10.706.202c0 0-.781 1.339.677 1.059s2.589-1.25 5.496-.821"/></g><path d="M381.837 102.352s1.139 4.267-2.598 10.866c-1.616 2.853-7.402 11.123 2.029 10.037" stroke-width=".971" class="J"/><path d="M373 130.352s9.981 4.392 16 .478c0 0-8.871 12.737-16-.478" fill="#a80e2b"/><path d="M313 226.352l2.791 50.497c1.14 13.559 19.207 36.164 23.209 38.503 0 0-13.708-17.162-15.934-33.14S313 226.352 313 226.352" class="I"/><path d="M317.964 183.567c-.913-1.369-2.845-1.61-4.127-.572-8.285 6.712-26.598 19.128-33.739 51.475-8.339 37.776-31.122 96.867-11.05 113.695s50.112 36.188 50.112 36.188-.809-20.38 21.841-14.339l-44.441-43.316s14.711-47.339 19.239-69.114l.531-2.691s12.783-54.594 1.635-71.326" class="H"/><path d="M351.459 123.352s-22.838-25.413-1.02-65.798c4.882-9.036 11.655-4.976 11.655-4.976s2.222-16.236 29.583-14.018a40.83 40.83 0 0 1 6.063.947c10.197 2.402 18.791 9.042 24.159 18.027 2.642 4.421 4.5 9.302 5.583 14.34.55 2.557.805 5.095.961 7.685.231 3.825.761 7.472.472 11.333-.071.939-.17 1.885-.473 2.776-.351 1.033-.962 1.952-1.566 2.858-.928 1.393-1.992 3.596-3.686 3.766-.853.086-1.562.139-2.357.521-1.797.866-4.272-2.153-8.368 14.558 0 0-3.409-5.876-3.887-30.192.063 3.207-10.579 2.79-12.116 2.669-10.959-.867-21.125-6.513-29.437-13.461-.863-.722-2.652-3.038-3.828-3.055-5.073-.072-6.84 6.843-8.686 10.426-.127-.07-.145-.235-.291-.31-.945 5.887 1.105 11.569-1.076 17.416-.085.23-2.869 5.027-3.363 3.158" fill="#111827"/><path d="M350.345 109.417s.994-10.184-1.131-8.963-6.19 3.749.334 19.709c0 0 4.203 8.328 3.332-1.93s-2.393-10.721-2.393-10.721" class="G"/><path d="M353 115.352s-2.533-9.631-3.792-21.714 3.619-17.286 3.619-17.286-2.476 27.33.173 39" class="D"/><path d="M436.973 347.149c9.016-2.949-14.963-15.797-14.963-15.797s-11.333 10.525-14.221 10.615-11.252-2.796-11.252-2.796-4.787-1.826-6.884.381-12.441 7.962-17.33 16.756 5.204.58 7.36-1.436 8.253-8.453 10.6-8.138-1.57 1.529-3.814 4.423-13.758 11.887-14.239 13.194.148 3.838 4.813.884 15.275-11.49 17.655-12.39-.318-.008-.318-.008-13.618 11.43-13.668 13.251-.231 3.765 5.396.523 13.375-9.509 13.553-9.064-9.939 7.275-9.718 8.475.71 1.968 6.706-.825 8.864-2.904 12.895-3.676c2.394-.458 4.696-1.629 6.868-2.678 2.228-1.075 4.698-2.106 6.743-3.497 1.265-.86 2.265-2.043 3.53-2.906.821-.56 1.599-1.179 2.444-1.712 2.434-1.536 5.111-2.682 7.848-3.577" class="G"/><path d="M436.973 347.149c9.016-2.949-14.963-15.797-14.963-15.797s-11.333 10.525-14.221 10.615-11.252-2.796-11.252-2.796-4.787-1.826-6.884.381-12.441 7.962-17.33 16.756 5.204.58 7.36-1.436 8.253-8.453 10.6-8.138-1.57 1.529-3.814 4.423-13.758 11.887-14.239 13.194.148 3.838 4.813.884 15.275-11.49 17.655-12.39-.318-.008-.318-.008-13.618 11.43-13.668 13.251-.231 3.765 5.396.523 13.375-9.509 13.553-9.064-9.939 7.275-9.718 8.475.71 1.968 6.706-.825 8.864-2.904 12.895-3.676c2.394-.458 4.696-1.629 6.868-2.678 2.228-1.075 4.698-2.106 6.743-3.497 1.265-.86 2.265-2.043 3.53-2.906.821-.56 1.599-1.179 2.444-1.712 2.434-1.536 5.111-2.682 7.848-3.577z" stroke="#2e2e2e" stroke-width=".715" stroke-linejoin="round"/><use xlink:href="#H" fill="#6b7280"/><use xlink:href="#H" stroke="#374151"/><path d="M348.295 383.804l36.206-18.44" class="B"/><path d="M348.295 383.804l36.206-18.44" class="J K"/><g fill="#4b5563"><path d="M344.496 375.678l15.504-7.36-21.671-4.966L338 375.5l2.794 1.853z"/><use xlink:href="#I"/></g><use xlink:href="#I" stroke="#374151"/><path d="M347 386.352l-22.179-97.821s-.719-7.65-10.048-9.124S153 265.352 153 265.352" class="J K"/><path d="M453.425 172.352s17.032 2.828 26.6 25.597 8.202 81.069 8.202 81.069 12.32 35.743-61.433 79.333c0 0-.701-16.73-13.794-22.203 14.401-8.752 27.551-28.267 40.559-48.992.607-4.304-4.662-17.39-6.633-42.674 0 0-10.013-29.604 6.499-72.131" class="H"/><path d="M379.971 207.79l5.029-.449-6.191 42.335s-7.14 6.16-7.809-.209l3.993-43.114 4.978 1.438z" fill="#ffdeb3"/><path d="M416.999 121.89a1.51 1.51 0 0 1-1.544 1.462 1.49 1.49 0 0 1-1.455-1.537 1.51 1.51 0 0 1 1.544-1.462 1.49 1.49 0 0 1 1.455 1.537m-64.106-1.384c.248.806.05 1.614-.443 1.805s-1.095-.308-1.343-1.114-.049-1.613.444-1.805 1.094.307 1.342 1.113" fill="#1c1302"/><path d="M204.932 259.13l101.849 9.191c4.091.369 6.846-2.557 6.096-6.533l-2.272-12.03c-.774-4.1-4.852-7.723-9.032-8.019l-103.883-7.372c-3.542-.251-5.498 2.656-4.37 6.434l3.312 11.1c1.096 3.673 4.821 6.914 8.301 7.228" class="D"/><path d="M295.468 246.54l8.962 11.686c1.177 1.536.432 3.258-1.342 3.119l-13.108-1.047c-1.89-.152-3.484-2.227-2.833-3.691l4.619-10.395c.568-1.279 2.607-1.1 3.701.327" fill="red"/><path d="M295.031 247.581c.013-.005-.065-.184-.338-.458-.266-.265-.778-.638-1.471-.745-.34-.052-.718-.032-1.057.119-.338.141-.61.47-.758.826l-1.101 2.326-2.768 6.017-.386.856c-.149.332-.191.74-.11 1.165.155.849.813 1.756 1.713 2.277a3.36 3.36 0 0 0 1.404.455l1.214.1 2.486.2 4.926.386 2.354.179.575.043.286.022.326.003c.428-.022.811-.162 1.091-.396.57-.466.728-1.279.449-2.06a3.21 3.21 0 0 0-.273-.569l-.183-.265-.173-.225-.674-.868-2.473-3.166-3.637-4.581-1.42-1.641c-.041.022.384.65 1.186 1.765l3.446 4.679 2.399 3.203.659.875.164.221.131.196a2.36 2.36 0 0 1 .189.41c.191.556.065 1.14-.345 1.462-.202.163-.471.257-.774.269l-.233-.005-.285-.024-.576-.048-2.359-.196-4.932-.399-2.487-.195L290 259.7a2.39 2.39 0 0 1-.999-.316c-.637-.361-1.119-1.018-1.232-1.62-.059-.302-.036-.592.071-.838l.372-.859 2.617-6.107.994-2.391c.131-.359.311-.595.582-.744.266-.141.576-.18.865-.157.587.049 1.061.336 1.334.552.28.222.4.377.428.361m.293 2.538l.667 4.59c.055.373-.184.649-.555.642-.392-.007-.798-.323-.924-.72l-1.482-4.666c-.113-.355.1-.642.454-.612l1.13.096c.338.029.661.333.71.669m-.19 7.476c.277.535.887.861 1.365.73s.642-.674.365-1.211-.89-.864-1.367-.73-.639.676-.362 1.211" class="B"/><path d="M201.605 244.387l76.655 5.958c1.187.092 1.949-.787 1.69-1.957s-1.45-2.206-2.641-2.296l-76.899-5.736c-1.056-.079-1.648.765-1.318 1.873s1.46 2.075 2.513 2.157m37.027 10.288l41.626 3.67c1.186.105 1.949-.806 1.692-2.027h0c-.257-1.224-1.443-2.31-2.634-2.411l-41.761-3.547c-1.115-.095-1.782.8-1.484 1.986s1.45 2.231 2.561 2.329" fill="red"/><path d="M197.464 226.438l103.253 9.874c4.661.446 7.924-2.848 7.176-7.369l-2.276-13.768c-.781-4.723-5.403-8.807-10.193-9.025l-105.397-4.793c-3.187-.145-4.811 2.884-3.655 6.697l3.385 11.167c1.116 3.683 4.564 6.915 7.707 7.216" class="D"/><path d="M288.524 211.653l9.864 13.157c1.302 1.736.411 3.688-1.595 3.533l-14.573-1.14c-2.064-.163-3.777-2.459-3.051-4.091l5.231-11.75c.652-1.464 2.924-1.31 4.124.291" fill="red"/><path d="M288.083 212.714c.015-.006-.07-.209-.373-.518a2.92 2.92 0 0 0-1.641-.822c-.381-.051-.805-.019-1.187.16-.381.169-.69.551-.861.961l-1.263 2.673-3.147 6.842-.436.966c-.168.374-.218.832-.136 1.309.16.95.871 1.964 1.855 2.543a3.61 3.61 0 0 0 1.543.505l1.341.107 2.758.218 5.513.422 2.657.198.65.047.324.024.37.003c.486-.026.926-.187 1.251-.454.662-.532.862-1.461.562-2.351-.072-.223-.179-.439-.298-.648l-.203-.302-.192-.256-.749-.987-2.743-3.597-4.026-5.19-1.57-1.853c-.047.026.42.737 1.304 2l3.805 5.303 2.656 3.637.73.994.182.251.145.222c.082.153.157.308.206.467.204.634.047 1.3-.428 1.669-.234.187-.542.294-.887.309l-.265-.005-.324-.026-.652-.053-2.662-.214-5.52-.432-2.759-.209-1.341-.101a2.56 2.56 0 0 1-1.098-.35c-.696-.402-1.218-1.136-1.335-1.811-.061-.338-.032-.664.088-.941l.421-.969 2.986-6.944 1.146-2.744c.153-.413.357-.686.664-.863.3-.167.648-.219.972-.198.659.043 1.187.362 1.49.603.312.249.445.424.476.404m.3 3.505l.612 5.377c.05.436-.2.761-.582.758-.401-.003-.813-.369-.936-.831l-1.448-5.44c-.11-.415.112-.756.474-.727l1.159.091c.346.027.675.38.72.773m-1.189 9.004c.404.8 1.315 1.285 2.037 1.083s.985-1.019.58-1.823-1.322-1.29-2.045-1.084-.977 1.023-.572 1.824" class="B"/><path d="M194.457 211.425l75.659 4.923c1.277.083 2.104-.899 1.833-2.187s-1.548-2.411-2.83-2.485l-75.894-4.32c-.957-.054-1.459.817-1.118 1.934h0c.339 1.114 1.395 2.074 2.35 2.136m35.153 10.367l42.511 3.551c1.27.107 2.096-.881 1.83-2.197s-1.533-2.482-2.809-2.578l-42.655-3.212c-1.087-.082-1.717.85-1.406 2.067s1.447 2.279 2.53 2.369" fill="red"/><path d="M443.925 217.352s-2.055 9.035-.036 25.454-.888 47.546-.888 47.546l4-41.873-3.075-31.127" class="I"/><path d="M361.147 170.352l.064 5.64.659 5.592c.628 3.699 1.63 7.33 3.02 10.803.702 1.732 1.466 3.44 2.343 5.088s1.797 3.277 2.888 4.773 2.338 2.876 3.829 3.92c.748.521 1.537.955 2.398 1.266l1.287.482 1.32.359c1.767.423 3.612.55 5.379.18 1.769-.359 3.418-1.217 4.82-2.385 2.824-2.362 4.702-5.694 6.321-9.036 1.602-3.381 2.864-6.925 4.138-10.46l1.982-5.284c.698-1.746 1.448-3.48 2.404-5.098-1.748 3.33-2.861 6.939-4.068 10.495s-2.419 7.132-3.978 10.574c-.78 1.718-1.651 3.403-2.692 4.989s-2.244 3.08-3.71 4.308c-1.457 1.229-3.204 2.154-5.083 2.546-1.877.404-3.828.28-5.672-.155l-1.371-.381-1.326-.505c-.888-.326-1.746-.801-2.525-1.352-1.567-1.112-2.855-2.554-3.959-4.093-1.111-1.542-2.034-3.194-2.908-4.867-.885-1.669-1.63-3.41-2.308-5.173-1.344-3.532-2.298-7.21-2.861-10.944-.535-3.739-.685-7.531-.392-11.287m82.886 57.005l.791 9.456 1.295 9.39 1.827 9.307 1.116 4.618.624 2.286c.263.734.652 1.457 1.314 1.943-.709-.425-1.179-1.143-1.49-1.879-.322-.741-.536-1.507-.785-2.262l-1.313-4.586-1.997-9.319-1.135-9.451-.247-9.503m39.968-10a48.94 48.94 0 0 0-1.106-7.796 52.08 52.08 0 0 0-2.257-7.515c-1.869-4.879-4.378-9.507-7.519-13.646-3.098-4.169-6.825-7.857-11.057-10.818-4.226-2.962-9.004-5.143-14.061-6.225 2.555.394 5.058 1.129 7.47 2.096 2.405.989 4.708 2.237 6.883 3.684 4.348 2.909 8.128 6.653 11.305 10.84 3.134 4.226 5.683 8.908 7.467 13.881s2.838 10.223 2.876 15.498m3.965 61.001c.253 8.194-.922 16.452-3.518 24.272-2.577 7.819-6.711 15.186-12.308 21.322-2.825 3.046-5.938 5.786-9.155 8.397a117.32 117.32 0 0 1-10.088 7.26c-3.49 2.239-7.079 4.32-10.732 6.278-3.665 1.938-7.385 3.769-11.165 5.471 3.709-1.848 7.392-3.743 10.994-5.775a157.93 157.93 0 0 0 10.597-6.429c6.88-4.547 13.405-9.687 19.044-15.653 5.576-6.024 9.642-13.319 12.326-21.032 2.676-7.731 3.987-15.917 4.005-24.111m-36.91-1c.39 1.941.843 3.82 1.509 5.646.647 1.832 1.496 3.585 2.435 5.354-1.43-1.459-2.457-3.25-3.141-5.132-.665-1.887-1-3.895-.802-5.868m-38.057 59c3.32-2.861 6.498-5.881 9.477-9.092s5.793-6.577 8.353-10.139c2.607-3.524 4.916-7.282 7.466-10.881 1.279-1.796 2.604-3.564 4.034-5.242 1.446-1.661 2.979-3.252 4.671-4.646a45.04 45.04 0 0 0-4.416 4.865c-1.369 1.711-2.639 3.503-3.861 5.329-2.451 3.646-4.765 7.402-7.349 10.987-2.622 3.55-5.45 6.947-8.524 10.096s-6.355 6.085-9.85 8.723m-39.332-113c.191 1.71.237 3.433.225 5.156l-.347 5.158c-.382 3.43-1.087 6.817-1.887 10.174-.423 1.678-.926 3.317-1.008 4.991-.031.828.019 1.667.309 2.429.279.756.767 1.454 1.446 1.924 1.359.949 3.421 1.012 4.805.014 1.395-.985 2.039-2.887 1.462-4.523.732 1.591.197 3.623-1.245 4.783-1.484 1.151-3.738 1.176-5.336.153-.81-.514-1.393-1.298-1.713-2.156-.337-.858-.398-1.769-.376-2.649.066-1.77.565-3.463.963-5.122.854-3.329 1.543-6.692 2.038-10.082s.739-6.814.665-10.251" fill="#47332b"/><path d="M394 309.352c3.102-1.773 6.112-3.695 8.987-5.803s5.641-4.364 8.226-6.821c2.623-2.416 5.063-5.03 7.365-7.765l1.697-2.076 1.628-2.135 1.58-2.175 1.518-2.224-1.366 2.326-1.458 2.271-1.559 2.204-1.633 2.149c-2.233 2.825-4.699 5.459-7.306 7.935-2.645 2.435-5.431 4.717-8.39 6.747s-6.056 3.848-9.289 5.367" fill="#0c0801"/><path d="M353 162.352l-8.487 3.707-8.361 3.962c-5.528 2.73-10.978 5.615-16.256 8.778-2.647 1.569-5.249 3.207-7.801 4.919s-5.013 3.548-7.43 5.436-4.7 3.942-6.847 6.121c-2.156 2.171-4.139 4.516-5.818 7.077 3.142-5.272 7.598-9.673 12.326-13.601 4.764-3.921 9.926-7.343 15.211-10.533 5.328-3.127 10.79-6.028 16.38-8.665s11.27-5.089 17.082-7.202" fill="#47332b"/><g class="B"><use xlink:href="#E"/><use xlink:href="#F"/></g></g></svg>
