<?xml version="1.0" encoding="UTF-8"?><svg id="a" xmlns="http://www.w3.org/2000/svg" viewBox="0 0 970 720"><g><path d="M76.34,480.38c-.04-.36-.08-.72-.12-1.08-15.62-149.14,72.84-298.33,213.16-352.94,128.26-49.92,303.68-71.19,417.26,23.09,48.55,40.3,82.32,97.51,95.86,159.01,8.62,39.18,11.1,80.22,3.21,119.74-6.39,32.03-23.77,89.96-58.05,101.69-12.09,4.14-25.27,3.02-37.99,1.86-78.05-7.14-154.35-14.67-232.65-12.57-67.8,1.82-135.49,8-202.5,18.52-30.15,4.73-60.13,9.11-90.07,14.22-25.43,4.34-55.46,9.29-78.17-6.45-20.25-14.05-27.24-40.5-29.94-65.07Z" fill="#1f2937"/><g><g><line x1="244.78" y1="206.78" x2="757.21" y2="206.78" fill="none" stroke="#4b5563" stroke-miterlimit="10" stroke-width="2"/><rect x="244.78" y="169.8" width="512.42" height="349.02" rx="7.37" ry="7.37" fill="none" stroke="#fff" stroke-miterlimit="10" stroke-width="2"/><rect x="244.78" y="169.8" width="512.42" height="349.02" rx="7.37" ry="7.37" fill="none" stroke="#4b5563" stroke-miterlimit="10" stroke-width="2"/><g><circle cx="275.73" cy="188.67" r="5.16" fill="#fe9184"/><circle cx="295.78" cy="188.67" r="5.16" fill="#fad780"/><circle cx="315.83" cy="188.67" r="5.16" fill="#00c77d"/></g></g><g><g><rect x="580.19" y="387.95" width="226.05" height="106.81" rx="6.96" ry="6.96" fill="#374151"/><rect x="580.19" y="387.95" width="226.05" height="106.81" rx="6.96" ry="6.96" fill="none" stroke="#4b5563" stroke-miterlimit="10" stroke-width="2"/></g><g><g><rect x="601.3" y="406.68" width="85.19" height="66.96" rx="9.89" ry="9.89" transform="translate(1287.79 880.33) rotate(180)" fill="#374151"/><g><path d="M632.55,435.39c0-7.41,6.03-13.44,13.44-13.44s13.44,6.03,13.44,13.44-6.03,13.44-13.44,13.44-13.44-6.03-13.44-13.44Zm3.05,0c0,5.73,4.66,10.39,10.39,10.39s10.39-4.66,10.39-10.39-4.66-10.39-10.39-10.39-10.39,4.66-10.39,10.39Z" fill="#fdfdf3"/><rect x="632.79" y="444.3" width="5.61" height="3.05" transform="translate(-129.08 580) rotate(-45)" fill="#fdfdf3"/><rect x="621.27" y="449.1" width="15.37" height="6.74" rx="2.13" ry="2.13" transform="translate(-135.73 577.26) rotate(-45)" fill="#fdfdf3"/></g></g><g><line x1="702.22" y1="426.6" x2="780.24" y2="426.6" fill="none" stroke="#d1d5db" stroke-miterlimit="10" stroke-width="2"/><line x1="702.22" y1="440.22" x2="740.26" y2="440.22" fill="none" stroke="#d1d5db" stroke-miterlimit="10" stroke-width="2"/><line x1="702.22" y1="453.84" x2="780.24" y2="453.84" fill="none" stroke="#d1d5db" stroke-miterlimit="10" stroke-width="2"/></g></g></g><g><g><rect x="82.23" y="284.05" width="182.86" height="141.71" rx="8.95" ry="8.95" fill="#374151"/><rect x="82.23" y="284.05" width="182.86" height="141.71" rx="8.95" ry="8.95" fill="none" stroke="#4b5563" stroke-miterlimit="10" stroke-width="2"/></g><g><line x1="110.43" y1="343.2" x2="200.66" y2="343.2" fill="none" stroke="#d1d5db" stroke-miterlimit="10" stroke-width="2"/><line x1="110.43" y1="370.44" x2="200.66" y2="370.44" fill="none" stroke="#d1d5db" stroke-miterlimit="10" stroke-width="2"/><line x1="110.43" y1="356.82" x2="148.47" y2="356.82" fill="none" stroke="#d1d5db" stroke-miterlimit="10" stroke-width="2"/></g></g><g><rect x="388" y="269.05" width="217.97" height="69.81" rx="5.21" ry="5.21" fill="#6366f1"/><g><line x1="475.25" y1="296.63" x2="581.43" y2="296.63" fill="none" stroke="#fff" stroke-miterlimit="10" stroke-width="2"/><line x1="475.25" y1="310.24" x2="508.89" y2="310.24" fill="none" stroke="#fff" stroke-miterlimit="10" stroke-width="2"/></g><g><circle cx="434.15" cy="303.9" r="4.42" fill="#fff"/><path d="M449.19,300.31c-3.08-3.9-8.67-9.59-15.04-9.59s-11.96,5.69-15.04,9.59c-1.66,2.1-1.66,5.07,0,7.18,1.52,1.93,3.66,4.29,6.2,6.19v-9.79h0c0-4.88,3.96-8.84,8.84-8.84s8.84,3.96,8.84,8.84-3.96,8.84-8.84,8.84c-1.61,0-3.12-.44-4.42-1.19v4.65c1.41,.55,2.89,.88,4.42,.88,6.37,0,11.96-5.69,15.04-9.59,1.66-2.1,1.66-5.07,0-7.18Z" fill="#fff"/></g></g><g><polygon points="640.74 456 662.24 464.95 656.21 468.26 664.14 476.4 658.82 481.48 651.09 472.67 646.77 478.08 640.74 456" fill="#faefeb"/><polygon points="640.82 455.92 662.26 465.02 656.22 468.29 664.09 476.48 658.74 481.52 651.07 472.67 646.71 478.04 640.82 455.92" fill="none" stroke="#4f3b32" stroke-miterlimit="10" stroke-width=".61"/></g></g></g><path d="M538.38,266.13s-.28,10.23,2.71,28.42c-11.07,10.48-13.22,37.74-8.96,43.65,7.55,10.45,15.55,21.45,15.55,21.45l36.62-5.59s49.45-8.71,44.41-35.54c-5.04-26.84-22.11-21.82-19.31-30.89,2.81-9.07,34.48-6.46,32.9-68.69" fill="#1d1d1b"/><path d="M544.11,268.38s8.54,34.84-3.37,45.85c-11.91,11.01,5.75,64.17,11.42,69.07,5.67,4.91,29.43,24.58,44.03-3.92,14.6-28.5,16.01-70.07,16.01-70.07,0,0-8.45-32.14-6.19-43.05,2.26-10.91-61.9,2.11-61.9,2.11Z" fill="#c18465"/><path d="M474.65,414.76s.91,16.85,2.4,49.76,3.06,51.82,8.14,66.77-1.69,80.6-1.69,80.6c0,0,120.14,18.64,177.03,4.82,0,0-4.39-49.01,5.1-144.08,9.11-91.27,11.81-138.4,11.81-138.4,0,0-38.12-12.64-65.23-24.91,0,0-7.67,79.9-39.41,76.84-31.74-3.06-32.06-71.92-32.06-71.92,0,0-40.93,17.3-57.4,28.68-16.48,11.38-14.58,46.45-8.69,71.84Z" fill="#ffd593"/><path d="M665.63,472.63c15.61,18.98-64.33,149.18-155.77,94.05l4.38,24.42,50.75,11.83,97.87-40.67,2.76-89.63Z" fill="#fdc280"/><g><path d="M734.8,585.51l-652.09-25.76c-.44-.02-.87-.02-1.31-.01l-49.1,1.08c-15.68,.34-18.61,22.48-3.56,26.89l448.21,124.43c1.89,.55,3.87,.69,5.82,.41l253.44-99.74c16.52-2.39,15.26-26.63-1.42-27.29Z" fill="#1f2937"/><path d="M482.78,712.54v-23.39s259.31-101.4,259.31-101.4c0,0,15.69,21.92-5.87,25.04-21.57,3.12-253.44,99.74-253.44,99.74Z" fill="#4b5563"/><path d="M482.78,689.16L26.22,562.26s-12.64,10.72-1.6,23.52l458.16,126.76v-23.39Z" fill="#374151"/></g><path d="M548.1,284.78s13.75,19.44,26.72,20.1c11.5,.58,18.25-10.82,30.7-29.02,0,0-27.27,29.41-57.42,8.92Z" fill="#995334" opacity=".5"/><path d="M529.85,209.33c-1.77,11.4-1.89,23.05-.35,34.48,2.05,15.21,5.78,22.59,14.06,35.51,3.67,5.72,10.04,11.67,15.71,15.42s12.78,5.7,19.39,4.14c7.53-1.78,13.28-6.63,18.61-12.23,9.54-10.01,16.49-18.34,20.55-31.56-1.37,.74,.97,6.73,2.13,7.77s.82,.73,2.35,.48c6.66-1.06,6.89-10.34,9.81-16.42,3.15-6.58,5.46-14.05,3.71-21.13-.36-1.47-.92-2.94-1.95-4.06-2.43-2.62-.53,1-3.56,2.9-3.03,1.89-5.01,5.04-6.89,8.08,7.9-5.9,10.49-13.49,11.26-23.32,.77-9.83-2.9-19.93-9.79-26.98-5.91-6.05-13.82-9.74-21.84-12.45-10.41-3.52-21.39-5.6-32.38-5.27-7.51,.23-15.33,1.74-21.19,6.45-4.87,3.92-7.9,9.64-10.57,15.3-3.6,7.65-7.76,14.52-9.06,22.88Z" fill="#c18465"/><g><path d="M546.69,229.62c1.62-1.91,4.41-2.34,6.77-2.21,1.82,.1,3.56,.6,5.18,1.38,1.81,1,1.85,1.07-.25,.92-3.95-.19-7.77-.91-11.7-.09h0Z" fill="#1d1d1b"/><circle cx="552.29" cy="231.2" r="2.72" fill="#1d1d1b"/></g><g><path d="M586.35,230.85c1.73-1.8,4.54-2.06,6.89-1.79,1.81,.21,3.52,.82,5.08,1.7,1.75,1.11,1.78,1.18-.31,.9-3.93-.43-7.7-1.39-11.67-.82h0Z" fill="#1d1d1b"/><circle cx="591.88" cy="232.34" r="2.72" fill="#1d1d1b"/></g><path d="M587.29,219.83s-5.61,1.52-3.67-1.27,9.75-4.34,21.1,3.53c0,0-14.66-2.67-17.43-2.26Z" fill="#1d1d1b"/><path d="M553.78,218.34s7.85,1.75,6.64-.62-9.31-4.08-15.69,.29c0,0-1.14,1.9,.99,1.5s3.79-1.77,8.06-1.16Z" fill="#1d1d1b"/><path d="M573.45,231.22s1.63,6.1-3.71,15.53c-2.31,4.08-10.58,15.9,2.9,14.34" fill="none" stroke="#1d1d1b" stroke-miterlimit="10" stroke-width=".97"/><path d="M560.35,271.89s14.95,5.99,23.97,.65c0,0-13.29,17.38-23.97-.65Z" fill="#a80e2b"/><path d="M474.07,412.16s2.41,53.51,4.08,73.15,28.06,52.39,33.91,55.78c0,0-20.03-24.86-23.28-48.01-3.25-23.15-14.71-80.92-14.71-80.92Z" fill="#fdc280"/><path d="M480.98,348.51c-1.32-1.99-4.11-2.35-5.96-.83-11.97,9.78-38.42,27.86-48.73,74.99-12.04,55.03-44.95,141.12-15.96,165.63,28.99,24.52,72.38,52.72,72.38,52.72,0,0-1.17-29.69,31.54-20.89l-64.18-63.1s21.25-68.96,27.79-100.68c.28-1.38,.54-2.69,.77-3.92,0,0,18.46-79.53,2.36-103.91Z" fill="#ffd593"/><path d="M530.1,261.97s-33.29-36.84-1.49-95.39c7.12-13.1,16.99-7.21,16.99-7.21,0,0,3.24-23.54,43.12-20.32,2.97,.24,5.93,.69,8.84,1.37,14.86,3.48,27.39,13.11,35.21,26.13,3.85,6.41,6.56,13.49,8.14,20.79,.8,3.71,1.17,7.39,1.4,11.14,.34,5.55,1.11,10.83,.69,16.43-.1,1.36-.25,2.73-.69,4.03-.51,1.5-1.4,2.83-2.28,4.14-1.35,2.02-2.9,5.21-5.37,5.46-1.24,.12-2.28,.2-3.44,.76-2.62,1.25-6.23-3.12-12.2,21.11,0,0-4.97-8.52-5.67-43.77,.09,4.65-15.42,4.04-17.66,3.87-15.97-1.26-30.79-9.44-42.9-19.51-1.26-1.05-3.87-4.4-5.58-4.43-7.39-.1-9.97,9.92-12.66,15.11-.19-.1-.21-.34-.42-.45-1.38,8.54,1.61,16.77-1.57,25.25-.12,.33-4.18,7.29-4.9,4.58" fill="#111827"/><path d="M528.51,242.44s1.39-14.59-1.58-12.84-8.64,5.37,.47,28.23c0,0,5.87,11.93,4.65-2.76s-3.34-15.35-3.34-15.35" fill="#c18465"/><path d="M532.16,250.78s-3.38-13.89-5.06-31.31c-1.68-17.42,4.83-24.93,4.83-24.93,0,0-3.31,39.41,.23,56.24Z" fill="#1d1d1b"/><path d="M653.09,587.15c13.01-4.31-21.59-23.08-21.59-23.08,0,0-16.35,15.38-20.52,15.51-4.17,.13-16.24-4.09-16.24-4.09,0,0-6.91-2.67-9.93,.56s-17.95,11.63-25.01,24.48c-7.05,12.85,7.51,.85,10.62-2.1,3.11-2.95,11.91-12.35,15.29-11.89,3.39,.46-2.27,2.23-5.5,6.46-3.24,4.23-19.85,17.37-20.55,19.28s.21,5.61,6.95,1.29,22.04-16.79,25.48-18.1c3.43-1.31-.46-.01-.46-.01,0,0-19.65,16.7-19.72,19.36s-.33,5.5,7.79,.76c8.12-4.74,19.3-13.89,19.56-13.24s-14.34,10.63-14.02,12.38,1.02,2.88,9.68-1.21c8.65-4.08,12.79-4.24,18.61-5.37,3.45-.67,6.78-2.38,9.91-3.91s6.78-3.08,9.73-5.11c1.83-1.26,3.27-2.98,5.09-4.25,1.19-.82,2.31-1.72,3.53-2.5,3.51-2.24,7.38-3.92,11.32-5.23Z" fill="#c18465" stroke="#2e2e2e" stroke-linecap="round" stroke-linejoin="round" stroke-width=".71"/><g><path d="M518.79,648.23s26.36-10.73,30.38-13.39c4.02-2.65,32.47-17.68,32.47-17.68,0,0,15.4-7.18-10.08-11.86-28.05-5.22-90.19-18.52-90.19-18.52,0,0-19.98,8.54-29.65,15.78s-28.55,18.97-28.55,18.97l95.63,26.69Z" fill="#6b7280" stroke="#374151" stroke-miterlimit="10"/><line x1="525.31" y1="640.9" x2="578.15" y2="614.7" fill="#fff" stroke="#1d1d1b" stroke-miterlimit="10" stroke-width="1.05"/><polygon points="519.33 628.1 541.93 617.47 510.34 610.29 509.87 627.85 513.94 630.52 519.33 628.1" fill="#4b5563"/><path d="M281.56,621.15l-41.93-140.86s-4.45-9.46,3.94-14.11c1.29-.72,2.12-.64,2.12-.64l233.59,21.69c1.51,.14,2.97,.57,4.3,1.3,3.04,1.66,6.85,5.17,8.48,11.41,3.09,11.81,33.19,142.87,33.19,142.87l.81,2.47-7.27,2.94-237.23-27.08Z" fill="#4b5563" stroke="#374151" stroke-miterlimit="10"/><path d="M523.04,644.4l-32.25-142.45s-1.05-11.14-14.61-13.29c-13.57-2.15-235.25-20.47-235.25-20.47" fill="none" stroke="#1d1d1b" stroke-miterlimit="10" stroke-width="1.05"/></g><path d="M677.24,333.34s24.8,4.1,38.72,37.1c13.93,33,11.94,117.5,11.94,117.5,0,0,17.94,51.81-89.44,114.99,0,0-1.02-24.25-20.08-32.18,20.97-12.69,40.11-40.97,59.05-71.01,.88-6.24-6.79-25.21-9.66-61.85,0,0-14.58-42.91,9.46-104.55Z" fill="#ffd593"/><path d="M570.73,385.46l7.12-.65-8.76,60.95s-10.1,8.87-11.05-.3l5.65-62.07,7.04,2.07Z" fill="#ffdeb3"/><ellipse cx="622.58" cy="259.95" rx="2.17" ry="1.98" transform="translate(345.77 875.22) rotate(-88.44)" fill="#1c1302"/><ellipse cx="530.1" cy="259.07" rx="1.39" ry="2.02" transform="translate(-55.53 187.23) rotate(-19.05)" fill="#1c1302"/><g><path d="M317.46,459.08l147.64,13.51c5.93,.54,9.92-3.76,8.84-9.6l-3.29-17.69c-1.12-6.03-7.03-11.36-13.09-11.79l-150.59-10.84c-5.14-.37-7.97,3.9-6.34,9.46l4.8,16.32c1.59,5.4,6.99,10.17,12.03,10.63Z" fill="#1d1d1b"/><g><path d="M448.35,440.78l12.87,17.49c1.69,2.3,.62,4.87-1.93,4.67-5.36-.44-13.34-1.11-18.83-1.57-2.71-.23-5-3.33-4.07-5.52l6.63-15.55c.82-1.91,3.74-1.65,5.32,.49Z" fill="red"/><g opacity=".5"><path d="M448.33,441.99s-.09-.27-.48-.68c-.38-.39-1.11-.95-2.11-1.11-.49-.08-1.03-.05-1.51,.18-.48,.21-.87,.7-1.08,1.23-.47,1.02-1,2.18-1.58,3.46-1.14,2.57-2.48,5.6-3.96,8.94-.18,.42-.37,.84-.55,1.27-.21,.49-.27,1.1-.16,1.73,.22,1.26,1.16,2.61,2.45,3.39,.64,.39,1.35,.62,2.01,.68,.57,.05,1.15,.1,1.74,.15,1.17,.1,2.36,.2,3.56,.3,2.41,.2,4.77,.39,7.05,.57,1.14,.09,2.27,.18,3.37,.27,.28,.02,.55,.04,.82,.06l.41,.03h.47c.61-.03,1.16-.24,1.56-.58,.82-.69,1.04-1.9,.64-3.06-.1-.29-.24-.57-.39-.85l-.26-.39-.25-.33c-.33-.44-.65-.87-.97-1.29-1.27-1.69-2.45-3.26-3.54-4.71-2.18-2.88-3.96-5.21-5.21-6.81-1.25-1.6-1.97-2.47-2.03-2.44s.55,.97,1.7,2.62c1.15,1.66,2.83,4.03,4.93,6.96,1.05,1.46,2.2,3.05,3.43,4.76,.31,.43,.62,.86,.94,1.3l.24,.33,.19,.29c.11,.2,.2,.4,.27,.61,.27,.83,.09,1.69-.49,2.17-.29,.24-.67,.38-1.11,.4h-.33s-.41-.04-.41-.04c-.27-.02-.55-.05-.82-.07-1.1-.1-2.23-.19-3.38-.29-2.29-.19-4.65-.39-7.06-.59-1.2-.1-2.39-.2-3.56-.29-.58-.05-1.16-.09-1.74-.14-.49-.04-.98-.2-1.43-.47-.91-.54-1.6-1.51-1.76-2.41-.08-.45-.05-.88,.1-1.25,.18-.43,.36-.86,.53-1.28,1.4-3.39,2.67-6.47,3.74-9.08,.52-1.31,1-2.5,1.42-3.55,.19-.53,.44-.88,.83-1.11,.38-.21,.82-.27,1.24-.23,.84,.07,1.52,.5,1.91,.82,.4,.33,.57,.56,.61,.54Z" fill="#fff"/></g><path d="M448.36,446.08l1.03,7.05c.08,.57-.28,1-.85,.99h0c-.6,0-1.23-.5-1.42-1.11l-2.28-7.17c-.17-.55,.15-.99,.7-.94l1.74,.15c.52,.04,1.02,.51,1.09,1.03Z" fill="#fff" opacity=".5"/><path d="M447.55,457.65c.49,.92,1.56,1.48,2.4,1.25s1.13-1.16,.64-2.08c-.49-.92-1.56-1.48-2.4-1.25-.84,.23-1.12,1.16-.64,2.08Z" fill="#fff" opacity=".5"/></g><path d="M312.72,437.96l110.84,8.88c1.72,.14,2.82-1.17,2.44-2.92h0c-.38-1.75-2.1-3.29-3.82-3.42l-111.19-8.55c-1.53-.12-2.38,1.14-1.91,2.79h0c.48,1.65,2.11,3.09,3.63,3.22Z" fill="red"/><path d="M366.28,453.6l59.87,5.16c1.71,.15,2.8-1.13,2.43-2.85h0c-.37-1.72-2.08-3.25-3.79-3.39l-60.07-4.99c-1.6-.13-2.56,1.13-2.13,2.79h0c.43,1.66,2.08,3.14,3.68,3.27Z" fill="red"/></g><g><path d="M306.5,411.55l149.96,14.23c6.77,.64,11.51-4.1,10.42-10.62l-3.31-19.84c-1.13-6.8-7.85-12.69-14.8-13l-153.08-6.91c-4.63-.21-6.99,4.16-5.31,9.65l4.92,16.09c1.62,5.31,6.63,9.96,11.19,10.4Z" fill="#1d1d1b"/><g><path d="M438.22,390.71l14.19,19.24c1.87,2.54,.59,5.39-2.29,5.17-6.03-.47-14.92-1.18-20.97-1.67-2.97-.24-5.43-3.6-4.39-5.98l7.52-17.19c.94-2.14,4.21-1.92,5.93,.42Z" fill="red"/><g opacity=".5"><path d="M438.17,392.05s-.1-.3-.53-.75c-.42-.43-1.23-1.03-2.34-1.19-.54-.07-1.15-.03-1.69,.23-.54,.24-.98,.8-1.23,1.39-.53,1.14-1.14,2.44-1.8,3.85-1.3,2.85-2.82,6.2-4.48,9.87-.2,.46-.41,.92-.62,1.39-.24,.54-.31,1.2-.19,1.89,.23,1.37,1.24,2.83,2.64,3.67,.69,.42,1.47,.67,2.2,.73,.63,.05,1.27,.1,1.91,.15,1.29,.1,2.6,.21,3.93,.31,2.67,.21,5.3,.41,7.86,.61,1.28,.1,2.54,.19,3.79,.28,.31,.02,.62,.05,.93,.07l.46,.03h.53c.69-.03,1.32-.26,1.78-.65,.94-.77,1.23-2.11,.8-3.39-.1-.32-.25-.63-.42-.93l-.29-.44-.27-.37c-.36-.48-.72-.96-1.07-1.42-1.4-1.86-2.71-3.6-3.91-5.19-2.4-3.17-4.36-5.73-5.74-7.48-1.38-1.76-2.17-2.71-2.24-2.67s.6,1.06,1.86,2.88c1.26,1.82,3.11,4.43,5.42,7.65,1.16,1.61,2.43,3.36,3.78,5.24,.34,.47,.69,.95,1.04,1.43l.26,.36,.21,.32c.12,.22,.22,.44,.29,.67,.29,.91,.07,1.87-.61,2.41-.33,.27-.77,.42-1.26,.45h-.38s-.46-.04-.46-.04c-.31-.03-.62-.05-.93-.08-1.24-.1-2.51-.2-3.79-.31-2.56-.2-5.19-.41-7.87-.62-1.33-.1-2.64-.2-3.93-.3-.64-.05-1.28-.1-1.91-.14-.54-.04-1.07-.21-1.56-.51-.99-.58-1.74-1.64-1.9-2.61-.09-.49-.05-.96,.13-1.36,.2-.47,.4-.94,.6-1.4,1.58-3.73,3.03-7.12,4.26-10.01,.6-1.46,1.15-2.78,1.63-3.96,.22-.59,.51-.99,.95-1.24,.43-.24,.92-.32,1.39-.29,.94,.06,1.69,.52,2.12,.87,.44,.36,.63,.61,.68,.58Z" fill="#fff"/></g><path d="M438.13,396.6l1.02,7.78c.08,.63-.33,1.1-.97,1.1h0c-.67,0-1.36-.53-1.56-1.2l-2.42-7.87c-.18-.6,.19-1.09,.79-1.05l1.94,.13c.58,.04,1.13,.55,1.2,1.12Z" fill="#fff" opacity=".5"/><path d="M437.03,409.36c.53,1,1.71,1.61,2.65,1.36s1.28-1.28,.76-2.29c-.53-1.01-1.72-1.62-2.66-1.36-.94,.26-1.27,1.28-.74,2.29Z" fill="#fff" opacity=".5"/></g><path d="M301.48,390.61l109.45,7.24c1.85,.12,3.04-1.32,2.65-3.21h0c-.39-1.9-2.24-3.54-4.09-3.65l-109.79-6.35c-1.38-.08-2.11,1.2-1.62,2.84h0c.49,1.64,2.02,3.05,3.4,3.14Z" fill="red"/><path d="M352.27,405.7l61.36,5c1.83,.15,3.03-1.24,2.64-3.09h0c-.39-1.86-2.21-3.49-4.05-3.63l-61.57-4.52c-1.57-.12-2.48,1.2-2.03,2.91h0c.45,1.71,2.09,3.21,3.65,3.33Z" fill="red"/></g><path d="M664.14,399.34s-2.82,13.12-.05,36.95c2.77,23.84-1.22,69.02-1.22,69.02l5.5-60.79s-3.85-38.14-4.23-45.19Z" fill="#fdc280"/><path d="M543.56,330.35c-.54,13.47,2.49,27.08,8.85,38.97,3.1,5.73,6.88,11.93,13.26,14.31,0,0,1.87,.69,1.87,.69l1.92,.52c23.73,5.39,27.52-31.43,36.43-46.09-7.64,14.04-10.5,42.94-28.41,47.29-3.41,.74-6.97,.24-10.25-.77-7.64-2.17-12.14-8.86-15.59-15.54-6.28-12.03-9.14-25.85-8.09-39.37h0Z" fill="#47332b"/><path d="M663.84,413.64c.99,17.29,3.42,34.53,7.93,51.26,.37,1.07,.91,2.13,1.84,2.84-.99-.62-1.65-1.67-2.09-2.75-5.49-16.48-7.99-34-7.68-51.36h0Z" fill="#47332b"/><path d="M722,398.97c-1.54-22.55-13.65-44.38-32.25-57.3-6.21-4.27-13.24-7.41-20.67-8.97,3.75,.57,7.44,1.63,10.98,3.02,24.73,10.25,41.4,36.75,41.94,63.25h0Z" fill="#47332b"/><path d="M727.94,486.49c.69,23.88-6.63,48.62-22.81,66.59-12.32,13.19-27.41,23.46-43.2,32.04-5.28,2.83-10.64,5.5-16.09,7.99,5.34-2.7,10.65-5.47,15.84-8.44,40.95-23.28,65.5-48.73,66.25-98.18h0Z" fill="#47332b"/><path d="M674.57,485.37c.97,5.58,2.7,10.72,5.29,15.75-3.76-4.21-5.75-10.12-5.29-15.75h0Z" fill="#47332b"/><path d="M619.23,571.02c9.76-8.24,18.66-17.49,26.24-27.77,5.74-7.65,10.6-16.04,16.92-23.28,2.13-2.4,4.38-4.7,6.87-6.71-2.34,2.18-4.51,4.53-6.5,7.02-6.05,7.47-10.78,15.82-16.49,23.56-7.68,10.26-16.74,19.54-27.04,27.17h0Z" fill="#47332b"/><path d="M561.6,406.85c1.03,10.14-.55,20.35-2.82,30.22-.83,3.61-2.13,7.34-.98,10.94,1.06,3.59,5.77,5.14,8.77,2.86,1.96-1.45,2.86-4.26,2.05-6.67,1.03,2.35,.28,5.34-1.75,7.05-3.2,2.67-8.67,1.07-9.89-2.95-1.28-3.77,.02-7.81,.82-11.46,2.36-9.82,4-19.85,3.79-29.99h0Z" fill="#47332b"/><path d="M591.61,532.65c16.96-9.43,31.73-22.67,42.92-38.52,0,0,2.21-3.2,2.21-3.2l-1.99,3.35c-10.38,16.47-25.51,30.07-43.14,38.37h0Z" fill="#0c0801"/><path d="M532.16,317.97c-16.43,7.02-32.53,14.94-47.82,24.18-11.41,6.95-22.55,14.62-31.89,24.23-3.11,3.19-5.98,6.64-8.4,10.41,16.35-26.89,59.25-47.65,88.12-58.82h0Z" fill="#47332b"/><g><circle cx="434.15" cy="303.9" r="4.42" fill="#fff"/><path d="M449.19,300.31c-3.08-3.9-8.67-9.59-15.04-9.59s-11.96,5.69-15.04,9.59c-1.66,2.1-1.66,5.07,0,7.18,1.52,1.93,3.66,4.29,6.2,6.19v-9.79h0c0-4.88,3.96-8.84,8.84-8.84s8.84,3.96,8.84,8.84-3.96,8.84-8.84,8.84c-1.61,0-3.12-.44-4.42-1.19v4.65c1.41,.55,2.89,.88,4.42,.88,6.37,0,11.96-5.69,15.04-9.59,1.66-2.1,1.66-5.07,0-7.18Z" fill="#fff"/></g></svg>