<svg width="524" height="391" viewBox="0 0 524 391" fill="none" xmlns="http://www.w3.org/2000/svg">
<mask id="mask0_287_90" style="mask-type:alpha" maskUnits="userSpaceOnUse" x="36" y="0" width="488" height="313">
<path d="M36.9309 0.294983H523.734V312.674H36.9309V0.294983Z" fill="white"/>
</mask>
<g mask="url(#mask0_287_90)">
<path fill-rule="evenodd" clip-rule="evenodd" d="M38.1859 262.521L38.1089 261.805C27.7759 163.186 86.2859 64.529 179.089 28.418C263.922 -4.59002 379.938 -18.655 455.056 43.684C487.169 70.334 509.503 108.164 518.455 148.831C524.159 174.739 525.798 201.874 520.581 228.008C516.353 249.186 504.863 287.493 482.186 295.253C474.189 297.99 465.476 297.253 457.059 296.482C405.437 291.761 354.975 286.779 303.186 288.169C258.342 289.372 213.575 293.462 169.257 300.415L109.684 309.819C92.8619 312.688 73.0019 315.964 57.9849 305.551C44.5889 296.262 39.9679 278.769 38.1859 262.52" fill="#1F2937"/>
</g>
<path d="M149.279 81.948H488.457" stroke="#4B5563" stroke-width="2"/>
<path d="M483.581 288.603H154.155C151.462 288.603 149.279 286.425 149.279 283.737V62.949C149.279 60.262 151.462 58.083 154.155 58.083H483.581C486.274 58.083 488.457 60.261 488.457 62.949V283.737C488.457 286.424 486.274 288.603 483.581 288.603Z" stroke="white" stroke-width="2"/>
<path d="M483.581 288.603H154.155C151.462 288.603 149.279 286.425 149.279 283.737V62.949C149.279 60.262 151.462 58.083 154.155 58.083H483.581C486.274 58.083 488.457 60.261 488.457 62.949V283.737C488.457 286.424 486.274 288.603 483.581 288.603Z" stroke="#4B5563" stroke-width="2"/>
<path d="M173.651 69.762C173.651 71.725 172.06 73.316 170.097 73.316C168.134 73.316 166.543 71.725 166.543 69.762C166.543 67.799 168.134 66.208 170.097 66.208C172.06 66.208 173.651 67.799 173.651 69.762Z" fill="#FE9184"/>
<path d="M186.853 69.762C186.853 71.725 185.262 73.316 183.299 73.316C181.336 73.316 179.745 71.725 179.745 69.762C179.745 67.799 181.336 66.208 183.299 66.208C185.262 66.208 186.853 67.799 186.853 69.762Z" fill="#FAD780"/>
<path d="M200.054 69.762C200.054 71.725 198.463 73.316 196.5 73.316C194.537 73.316 192.946 71.725 192.946 69.762C192.946 67.799 194.537 66.208 196.5 66.208C198.463 66.208 200.054 67.799 200.054 69.762Z" fill="#00C77D"/>
<path fill-rule="evenodd" clip-rule="evenodd" d="M516.355 272.355H376.273C373.733 272.355 371.674 270.28 371.674 267.72V205.904C371.674 203.344 373.733 201.269 376.273 201.269H516.354C518.894 201.269 520.953 203.344 520.953 205.904V267.72C520.953 270.28 518.894 272.355 516.354 272.355" fill="#374151"/>
<path fill-rule="evenodd" clip-rule="evenodd" d="M516.355 272.355H376.273C373.733 272.355 371.674 270.28 371.674 267.72V205.904C371.674 203.344 373.733 201.269 376.273 201.269H516.354C518.894 201.269 520.953 203.344 520.953 205.904V267.72C520.953 270.28 518.894 272.355 516.354 272.355H516.355Z" stroke="#4B5563" stroke-width="2"/>
<path d="M451.899 227.165H503.69M451.899 236.305H477.287M451.899 245.444H503.69" stroke="#D1D5DB" stroke-width="2"/>
<path fill-rule="evenodd" clip-rule="evenodd" d="M156.568 226.657H47.548C44.282 226.657 41.635 224.016 41.635 220.758V139.13C41.635 135.872 44.282 133.231 47.548 133.231H156.568C159.833 133.231 162.481 135.872 162.481 139.13V220.758C162.481 224.016 159.834 226.657 156.568 226.657" fill="#374151"/>
<path fill-rule="evenodd" clip-rule="evenodd" d="M156.568 226.657H47.548C44.282 226.657 41.635 224.016 41.635 220.758V139.13C41.635 135.872 44.282 133.231 47.548 133.231H156.568C159.833 133.231 162.481 135.872 162.481 139.13V220.758C162.481 224.016 159.834 226.657 156.568 226.657V226.657Z" stroke="#4B5563" stroke-width="2"/>
<path d="M60.9299 172.328H120.845M60.9299 190.607H120.845" stroke="#D1D5DB" stroke-width="2"/>
<path d="M60.9299 181.467H86.3179" stroke="#D1D5DB" stroke-width="2"/>
<path fill-rule="evenodd" clip-rule="evenodd" d="M384.476 168.774H247.168C245.265 168.774 243.721 167.247 243.721 165.364V126.487C243.721 124.603 245.264 123.077 247.168 123.077H384.476C386.38 123.077 387.923 124.604 387.923 126.487V165.364C387.923 167.247 386.38 168.774 384.476 168.774Z" fill="#6366F1"/>
<path d="M301.605 141.863H371.675M301.605 149.987H323.946" stroke="white" stroke-width="2"/>
<path fill-rule="evenodd" clip-rule="evenodd" d="M275.202 143.386C276.01 143.387 276.784 143.708 277.356 144.279C277.927 144.851 278.248 145.625 278.249 146.433C278.248 147.241 277.927 148.015 277.356 148.587C276.784 149.158 276.01 149.479 275.202 149.48C274.394 149.479 273.62 149.158 273.048 148.587C272.477 148.015 272.156 147.241 272.155 146.433C272.156 145.625 272.477 144.851 273.048 144.279C273.62 143.708 274.394 143.387 275.202 143.386M284.541 143.575C282.523 141.019 278.866 137.294 274.693 137.294C270.52 137.294 266.864 141.02 264.845 143.575C263.758 144.952 263.758 146.898 264.845 148.275C265.842 149.539 267.241 151.088 268.904 152.331V145.922C268.905 144.387 269.515 142.916 270.601 141.831C271.686 140.746 273.157 140.137 274.692 140.136C276.227 140.137 277.699 140.747 278.785 141.832C279.87 142.918 280.48 144.39 280.48 145.925C280.48 147.46 279.87 148.932 278.785 150.018C277.699 151.103 276.227 151.713 274.692 151.714C273.675 151.714 272.677 151.445 271.798 150.933V153.981C272.723 154.341 273.692 154.557 274.692 154.557C278.864 154.557 282.521 150.831 284.54 148.275C285.627 146.898 285.627 144.952 284.54 143.575" fill="white"/>
<path fill-rule="evenodd" clip-rule="evenodd" d="M400.919 227.088H443.319C446.857 227.088 449.727 224.243 449.727 220.732V190.395C449.727 186.885 446.858 184.039 443.319 184.039H400.919C397.381 184.039 394.512 186.885 394.512 190.395V220.732C394.512 224.243 397.38 227.088 400.919 227.088Z" fill="#374151"/>
<path fill-rule="evenodd" clip-rule="evenodd" d="M417.009 201.821C417.012 203.548 417.699 205.203 418.92 206.424C420.141 207.646 421.797 208.333 423.524 208.335C425.251 208.333 426.907 207.646 428.128 206.424C429.349 205.203 430.036 203.548 430.038 201.821C430.036 200.093 429.349 198.438 428.128 197.217C426.907 195.995 425.251 195.308 423.524 195.306C421.797 195.308 420.141 195.995 418.92 197.217C417.699 198.438 417.012 200.093 417.009 201.821M415.1 201.821C415.1 197.176 418.879 193.398 423.523 193.398C428.167 193.398 431.946 197.176 431.946 201.821C431.946 206.465 428.168 210.243 423.523 210.243C418.878 210.243 415.1 206.465 415.1 201.821Z" fill="#FDFDF3"/>
<path fill-rule="evenodd" clip-rule="evenodd" d="M415.482 210.244L417.909 207.817L416.592 206.5L414.165 208.927L415.482 210.244Z" fill="#FDFDF3"/>
<path fill-rule="evenodd" clip-rule="evenodd" d="M413.335 208.794L408.035 214.094C407.765 214.364 407.614 214.73 407.614 215.112C407.614 215.494 407.765 215.859 408.035 216.13L409.214 217.309C409.484 217.578 409.85 217.73 410.232 217.73C410.613 217.73 410.979 217.578 411.249 217.309L416.55 212.009C416.82 211.739 416.971 211.373 416.971 210.991C416.971 210.61 416.82 210.244 416.55 209.974L415.371 208.794C415.101 208.525 414.735 208.374 414.353 208.374C413.972 208.374 413.606 208.525 413.335 208.794" fill="#FDFDF3"/>
<path fill-rule="evenodd" clip-rule="evenodd" d="M419.78 214.922L433.535 220.844L429.682 223.032L434.754 228.413L431.35 231.768L426.405 225.95L423.638 229.522L419.78 214.922Z" fill="#FAEFEB"/>
<path fill-rule="evenodd" clip-rule="evenodd" d="M419.78 214.922L433.576 220.911L429.686 223.062L434.753 228.452L431.308 231.768L426.373 225.943L423.567 229.48L419.78 214.922Z" stroke="#4F3B32" stroke-width="0.611"/>
<path fill-rule="evenodd" clip-rule="evenodd" d="M353.974 92.8233C353.974 92.8233 353.795 99.4257 355.716 111.158C348.612 117.919 347.227 135.505 349.965 139.316L359.944 153.157L383.449 149.553C383.449 149.553 415.19 143.937 411.956 126.622C408.722 109.308 397.762 112.545 399.564 106.695C401.367 100.845 421.694 102.528 420.679 62.3793" fill="#1D1D1B"/>
<path fill-rule="evenodd" clip-rule="evenodd" d="M357.177 94.6099C357.177 94.6099 362.681 116.989 355.003 124.064C347.325 131.139 358.71 165.28 362.365 168.434C366.021 171.588 381.334 184.22 390.742 165.916C400.15 147.612 401.063 120.906 401.063 120.906C401.063 120.906 395.615 100.262 397.07 93.2538C398.526 86.2453 357.177 94.6099 357.177 94.6099" fill="#C18465"/>
<path fill-rule="evenodd" clip-rule="evenodd" d="M313.01 189.229L314.55 221.267C315.506 242.455 316.516 254.634 319.776 264.261C323.035 273.888 318.687 316.158 318.687 316.158C318.687 316.158 395.805 328.157 432.319 319.264C432.319 319.264 429.504 287.706 435.595 226.49L443.176 137.375C443.176 137.375 418.704 129.236 401.307 121.338C401.307 121.338 396.381 172.782 376.009 170.811C355.637 168.84 355.432 124.502 355.432 124.502C355.432 124.502 329.162 135.639 318.586 142.968C308.01 150.297 309.229 172.874 313.01 189.228" fill="#FFD593"/>
<path fill-rule="evenodd" clip-rule="evenodd" d="M436.292 226.153C446.389 238.418 394.689 322.583 335.553 286.948L338.388 302.732L371.209 310.38L434.507 284.092L436.292 226.154V226.153Z" fill="#FDC280"/>
<mask id="mask1_287_90" style="mask-type:alpha" maskUnits="userSpaceOnUse" x="19" y="282" width="470" height="99">
<path d="M19.2368 282.333H488.457V380.567H19.2368V282.333Z" fill="white"/>
</mask>
<g mask="url(#mask1_287_90)">
<path fill-rule="evenodd" clip-rule="evenodd" d="M479.973 298.889L60.3177 282.344L59.4764 282.336L27.8793 283.028C17.789 283.249 15.9042 297.464 25.5903 300.296L314.039 380.213C315.254 380.568 316.531 380.658 317.784 380.477L480.887 316.418C491.519 314.885 490.707 299.313 479.972 298.89" fill="#1F2937"/>
</g>
<path fill-rule="evenodd" clip-rule="evenodd" d="M317.772 380.567V365.484L484.551 300.085C484.551 300.085 494.644 314.226 480.772 316.235C466.9 318.245 317.772 380.567 317.772 380.567Z" fill="#4B5563"/>
<path fill-rule="evenodd" clip-rule="evenodd" d="M317.772 365.568L24.1116 284.175C24.1116 284.175 15.9791 291.051 23.085 299.261L317.772 380.567V365.568V365.568Z" fill="#374151"/>
<path fill-rule="evenodd" clip-rule="evenodd" d="M359.885 104.626C359.885 104.626 368.847 117.156 377.307 117.581C384.807 117.957 389.208 110.609 397.319 98.8783C397.319 98.8783 379.537 117.833 359.885 104.627" fill="#995334"/>
<path fill-rule="evenodd" clip-rule="evenodd" d="M348.633 56.6005C347.496 63.9609 347.42 71.487 348.407 78.8699C349.722 88.6953 352.111 93.4607 357.425 101.808C359.778 105.503 363.863 109.345 367.499 111.767C371.136 114.189 375.693 115.446 379.935 114.438C384.762 113.291 388.448 110.152 391.87 106.536C397.987 100.072 402.443 94.6895 405.048 86.1536C404.17 86.6309 405.672 90.4978 406.411 91.1744C407.149 91.851 406.934 91.6451 407.919 91.487C412.193 90.8019 412.338 84.8116 414.207 80.881C416.231 76.6304 417.706 71.8089 416.584 67.2317C416.351 66.2799 415.993 65.33 415.33 64.6122C413.771 62.9212 414.992 65.2617 413.047 66.483C411.102 67.7043 409.833 69.7398 408.63 71.7032C413.696 67.8905 415.357 62.9942 415.848 56.6435C416.339 50.2928 413.99 43.7747 409.571 39.218C405.781 35.3108 400.707 32.9272 395.57 31.1781C388.892 28.904 381.853 27.5583 374.806 27.7754C369.99 27.9242 364.976 28.9022 361.22 31.9427C358.094 34.4733 356.152 38.1689 354.443 41.8234C352.133 46.7666 349.467 51.1997 348.633 56.5995" fill="#C18465"/>
<path fill-rule="evenodd" clip-rule="evenodd" d="M358.949 69.7528C359.431 68.9807 360.18 68.554 360.908 68.2863C361.65 68.0243 362.423 67.9532 363.177 68.0149C363.934 68.0599 364.67 68.2732 365.382 68.5568C365.732 68.7168 366.076 68.9068 366.413 69.1024C366.741 69.3354 367.069 69.561 367.373 69.852C366.986 69.8838 366.621 69.852 366.257 69.8258L365.185 69.7313L363.105 69.5376C362.42 69.4795 361.739 69.444 361.056 69.4674C360.373 69.4908 359.685 69.5385 358.95 69.7519" fill="#1D1D1B"/>
<path d="M364.561 70.9362C364.543 71.1815 364.478 71.4208 364.367 71.6407C364.257 71.8605 364.105 72.0566 363.919 72.2175C363.733 72.3785 363.518 72.5013 363.284 72.5789C363.051 72.6566 362.805 72.6875 362.559 72.6699C362.314 72.6523 362.075 72.5866 361.855 72.4765C361.635 72.3664 361.439 72.2141 361.278 72.0282C361.117 71.8424 360.994 71.6267 360.917 71.3934C360.839 71.16 360.808 70.9137 360.826 70.6685C360.861 70.1732 361.092 69.7123 361.467 69.3872C361.843 69.062 362.332 68.8993 362.827 68.9348C363.323 68.9704 363.783 69.2011 364.109 69.5765C364.434 69.9518 364.596 70.4409 364.561 70.9362" fill="#1D1D1B"/>
<path fill-rule="evenodd" clip-rule="evenodd" d="M385.153 70.1693C385.675 69.5563 386.444 69.2493 387.186 69.0734C387.941 68.904 388.718 68.8946 389.468 68.9948C390.224 69.0818 390.951 69.3074 391.647 69.5909C391.991 69.7481 392.326 69.9278 392.652 70.1141L393.575 70.8019C393.187 70.8028 392.823 70.7532 392.46 70.7074L391.393 70.5586L389.321 70.261L387.274 70.0691C386.586 70.042 385.899 70.0383 385.152 70.1693" fill="#1D1D1B"/>
<path d="M389.829 71.8721C389.811 72.1173 389.745 72.3567 389.635 72.5765C389.525 72.7964 389.373 72.9924 389.187 73.1534C389.001 73.3144 388.785 73.4372 388.552 73.5148C388.319 73.5924 388.073 73.6233 387.827 73.6057C387.582 73.5881 387.343 73.5224 387.123 73.4123C386.903 73.3023 386.707 73.1499 386.546 72.9641C386.385 72.7782 386.262 72.5625 386.185 72.3292C386.107 72.0959 386.076 71.8496 386.094 71.6044C386.129 71.1091 386.36 70.6481 386.735 70.323C387.111 69.9979 387.6 69.8352 388.095 69.8707C388.59 69.9062 389.051 70.137 389.376 70.5123C389.701 70.8877 389.864 71.3768 389.829 71.8721" fill="#1D1D1B"/>
<path fill-rule="evenodd" clip-rule="evenodd" d="M385.005 62.7938C385.005 62.7938 381.345 63.7774 382.612 61.9731C383.879 60.1688 388.976 59.1693 396.383 64.2509C396.383 64.2509 386.813 62.5299 385.005 62.7938M363.986 62.5112C363.986 62.5112 368.997 63.6679 368.227 62.0994C367.458 60.5309 362.281 59.4089 358.208 62.2885C358.208 62.2885 357.477 63.5416 358.842 63.2795C360.206 63.0175 361.265 62.1097 363.985 62.5112" fill="#1D1D1B"/>
<path d="M376.578 70.8019C376.578 70.8019 377.644 74.7951 374.147 80.9708C372.634 83.6408 367.22 91.3802 376.046 90.3639" stroke="#1D1D1B" stroke-width="0.971"/>
<path fill-rule="evenodd" clip-rule="evenodd" d="M368.308 97.0056C368.308 97.0056 377.649 101.116 383.281 97.4529C383.281 97.4529 374.98 109.373 368.308 97.0056Z" fill="#A80E2B"/>
<path fill-rule="evenodd" clip-rule="evenodd" d="M312.157 186.847L314.769 234.104C315.836 246.794 332.744 267.948 336.489 270.137C336.489 270.137 323.661 254.076 321.577 239.123C319.494 224.17 312.157 186.847 312.157 186.847Z" fill="#FDC280"/>
<path fill-rule="evenodd" clip-rule="evenodd" d="M316.803 146.807C315.948 145.526 314.14 145.3 312.941 146.271C305.187 152.553 288.049 164.172 281.366 194.444C273.562 229.797 252.241 285.097 271.025 300.845C289.809 316.594 317.922 334.712 317.922 334.712C317.922 334.712 317.165 315.639 338.362 321.293L296.772 280.756C296.772 280.756 310.539 236.454 314.777 216.075L315.274 213.557C315.274 213.557 327.237 162.465 316.804 146.807" fill="#FFD593"/>
<path fill-rule="evenodd" clip-rule="evenodd" d="M348.149 90.4548C348.149 90.4548 326.776 66.6721 347.194 28.8779C351.763 20.4215 358.102 24.2211 358.102 24.2211C358.102 24.2211 360.181 9.02665 385.787 11.1024C387.698 11.255 389.594 11.5513 391.461 11.9886C401.004 14.2365 409.046 20.4505 414.07 28.8591C416.543 32.9965 418.281 37.5644 419.295 42.2792C419.81 44.6722 420.048 47.0473 420.194 49.4712C420.41 53.0508 420.906 56.4638 420.636 60.0771C420.57 60.9559 420.477 61.8412 420.193 62.6751C419.865 63.6418 419.293 64.5018 418.728 65.3497C417.859 66.6533 416.864 68.715 415.278 68.8741C414.48 68.9546 413.816 69.0042 413.072 69.3617C411.391 70.1721 409.074 67.3468 405.241 82.9858C405.241 82.9858 402.051 77.4867 401.604 54.7306C401.663 57.7319 391.703 57.3417 390.265 57.2284C380.009 56.417 370.495 51.1332 362.716 44.631C361.909 43.9553 360.234 41.7879 359.134 41.772C354.386 41.7046 352.733 48.176 351.005 51.5291C350.886 51.4636 350.869 51.3092 350.733 51.239C349.848 56.7483 351.767 62.0658 349.726 67.5377C349.646 67.753 347.041 72.2422 346.579 70.4931" fill="#111827"/>
<path fill-rule="evenodd" clip-rule="evenodd" d="M347.106 77.4137C347.106 77.4137 348.036 67.883 346.048 69.0257C344.059 70.1683 340.255 72.5341 346.36 87.4703C346.36 87.4703 350.294 95.264 349.479 85.6641C348.663 76.0642 347.239 75.6309 347.239 75.6309" fill="#C18465"/>
<path fill-rule="evenodd" clip-rule="evenodd" d="M349.591 82.9679C349.591 82.9679 347.221 73.9548 346.042 62.6469C344.864 51.3391 349.429 46.4698 349.429 46.4698C349.429 46.4698 347.112 72.0466 349.591 82.9679" fill="#1D1D1B"/>
<path fill-rule="evenodd" clip-rule="evenodd" d="M428.177 299.895C436.615 297.135 414.174 285.111 414.174 285.111C414.174 285.111 403.568 294.961 400.865 295.045C398.162 295.129 390.335 292.428 390.335 292.428C390.335 292.428 385.855 290.72 383.893 292.785C381.93 294.85 372.25 300.236 367.674 308.466C363.099 316.696 372.545 309.009 374.562 307.122C376.58 305.235 382.286 299.211 384.482 299.506C386.679 299.801 383.013 300.937 380.913 303.645C378.813 306.354 368.038 314.77 367.587 315.993C367.137 317.216 367.726 319.585 372.092 316.82C376.457 314.056 386.387 306.067 388.614 305.225C390.841 304.383 388.316 305.218 388.316 305.218C388.316 305.218 375.572 315.914 375.525 317.619C375.478 319.323 375.309 321.142 380.575 318.108C385.841 315.074 393.092 309.209 393.259 309.626C393.425 310.042 383.957 316.434 384.164 317.557C384.371 318.68 384.828 319.399 390.44 316.785C396.051 314.171 398.735 314.067 402.508 313.345C404.748 312.916 406.902 311.82 408.935 310.838C411.02 309.832 413.332 308.868 415.245 307.566C416.429 306.761 417.365 305.654 418.549 304.846C419.317 304.322 420.045 303.743 420.836 303.244C423.114 301.807 425.619 300.734 428.181 299.896" fill="#C18465"/>
<path fill-rule="evenodd" clip-rule="evenodd" d="M428.177 299.895C436.615 297.135 414.174 285.111 414.174 285.111C414.174 285.111 403.568 294.961 400.865 295.045C398.162 295.129 390.335 292.428 390.335 292.428C390.335 292.428 385.855 290.72 383.893 292.785C381.93 294.85 372.25 300.236 367.674 308.466C363.099 316.696 372.545 309.009 374.562 307.122C376.58 305.235 382.286 299.211 384.482 299.506C386.679 299.801 383.013 300.937 380.913 303.645C378.813 306.354 368.038 314.77 367.587 315.993C367.137 317.216 367.726 319.585 372.092 316.82C376.457 314.056 386.387 306.067 388.614 305.225C390.841 304.383 388.316 305.218 388.316 305.218C388.316 305.218 375.572 315.914 375.525 317.619C375.478 319.323 375.309 321.142 380.575 318.108C385.841 315.074 393.092 309.209 393.259 309.626C393.425 310.042 383.957 316.434 384.164 317.557C384.371 318.68 384.828 319.399 390.44 316.785C396.051 314.171 398.735 314.067 402.508 313.345C404.748 312.916 406.902 311.82 408.935 310.838C411.02 309.832 413.332 308.868 415.245 307.566C416.429 306.761 417.365 305.654 418.549 304.846C419.317 304.322 420.045 303.743 420.836 303.244C423.114 301.807 425.619 300.734 428.181 299.896L428.177 299.895Z" stroke="#2E2E2E" stroke-width="0.715" stroke-linejoin="round"/>
<path d="M340.863 339.39C340.863 339.39 357.801 332.523 360.385 330.824C362.969 329.126 381.253 319.517 381.253 319.517C381.253 319.517 391.15 314.922 374.776 311.931C356.749 308.591 316.812 300.085 316.812 300.085C316.812 300.085 303.972 305.547 297.755 310.179C291.537 314.81 279.403 322.313 279.403 322.313L340.863 339.391V339.39Z" fill="#6B7280"/>
<path d="M340.863 339.39C340.863 339.39 357.801 332.523 360.385 330.824C362.969 329.126 381.253 319.517 381.253 319.517C381.253 319.517 391.15 314.922 374.776 311.931C356.749 308.591 316.812 300.085 316.812 300.085C316.812 300.085 303.972 305.547 297.755 310.179C291.537 314.81 279.403 322.313 279.403 322.313L340.863 339.391V339.39Z" stroke="#374151"/>
<path fill-rule="evenodd" clip-rule="evenodd" d="M345.188 334.198L379.071 316.941Z" fill="white"/>
<path d="M345.188 334.198L379.071 316.941" stroke="#1D1D1B" stroke-width="1.049"/>
<path fill-rule="evenodd" clip-rule="evenodd" d="M341.632 326.593L356.142 319.706L335.861 315.058L335.553 326.427L338.168 328.161L341.632 326.593Z" fill="#4B5563"/>
<path d="M188.326 321.911L161.309 230.994C161.309 230.994 158.443 224.891 163.847 221.887C164.677 221.426 165.215 221.475 165.215 221.475L315.71 235.477C316.681 235.565 317.624 235.851 318.481 236.317C320.441 237.387 322.891 239.656 323.942 243.683C325.933 251.305 345.328 335.901 345.328 335.901L345.848 337.493L341.163 339.391L188.327 321.912L188.326 321.911Z" fill="#4B5563"/>
<path d="M188.326 321.911L161.309 230.994C161.309 230.994 158.443 224.891 163.847 221.887C164.677 221.426 165.215 221.475 165.215 221.475L315.71 235.477C316.681 235.565 317.624 235.851 318.481 236.317C320.441 237.387 322.891 239.656 323.942 243.683C325.933 251.305 345.328 335.901 345.328 335.901L345.848 337.493L341.163 339.391L188.327 321.912L188.326 321.911Z" stroke="#374151"/>
<path d="M343.976 336.583L323.22 245.037C323.22 245.037 322.547 237.878 313.816 236.498C305.086 235.119 162.421 223.345 162.421 223.345" stroke="#1D1D1B" stroke-width="1.049"/>
<path fill-rule="evenodd" clip-rule="evenodd" d="M443.574 136.311C443.574 136.311 459.513 138.958 468.467 160.266C477.421 181.574 476.143 236.134 476.143 236.134C476.143 236.134 487.673 269.584 418.651 310.378C418.651 310.378 417.995 294.721 405.742 289.599C419.219 281.409 431.525 263.146 443.699 243.75C444.267 239.722 439.336 227.476 437.492 203.814C437.492 203.814 428.121 176.109 443.574 136.31" fill="#FFD593"/>
<path fill-rule="evenodd" clip-rule="evenodd" d="M374.832 169.476L379.538 169.056L373.744 208.675C373.744 208.675 367.062 214.44 366.436 208.479L370.173 168.131L374.832 169.477V169.476Z" fill="#FFDEB3"/>
<path fill-rule="evenodd" clip-rule="evenodd" d="M409.484 89.0865C409.472 89.459 409.314 89.8118 409.043 90.068C408.773 90.3243 408.412 90.4633 408.039 90.4547C407.855 90.4505 407.674 90.4098 407.505 90.3351C407.337 90.2603 407.185 90.153 407.059 90.0193C406.932 89.8855 406.833 89.728 406.768 89.5559C406.702 89.3838 406.672 89.2004 406.678 89.0163C406.689 88.6438 406.848 88.291 407.118 88.0347C407.389 87.7785 407.75 87.6395 408.123 87.6481C408.307 87.6523 408.488 87.693 408.656 87.7677C408.825 87.8424 408.977 87.9498 409.103 88.0835C409.23 88.2172 409.329 88.3747 409.394 88.5469C409.459 88.719 409.49 88.9024 409.484 89.0865M349.491 87.7913C349.723 88.5456 349.538 89.3017 349.076 89.4805C348.615 89.6592 348.051 89.1922 347.819 88.4379C347.587 87.6836 347.773 86.9284 348.235 86.7487C348.696 86.5691 349.259 87.036 349.491 87.7903" fill="#1C1302"/>
<path fill-rule="evenodd" clip-rule="evenodd" d="M211.022 217.522L306.337 226.124C310.166 226.469 312.744 223.731 312.042 220.01L309.916 208.751C309.192 204.914 305.375 201.524 301.463 201.247L204.245 194.348C200.93 194.113 199.099 196.833 200.155 200.369L203.255 210.757C204.28 214.194 207.766 217.227 211.023 217.521" fill="#1D1D1B"/>
<path fill-rule="evenodd" clip-rule="evenodd" d="M295.75 205.74L304.137 216.676C305.238 218.114 304.541 219.725 302.881 219.595L290.614 218.615C288.845 218.473 287.353 216.531 287.963 215.161L292.285 205.433C292.817 204.236 294.725 204.404 295.749 205.739" fill="#FF0000"/>
<path fill-rule="evenodd" clip-rule="evenodd" d="M295.341 206.714C295.353 206.709 295.28 206.542 295.025 206.285C294.776 206.037 294.296 205.688 293.648 205.588C293.33 205.54 292.976 205.558 292.659 205.7C292.342 205.832 292.088 206.139 291.949 206.473L290.919 208.649L288.329 214.28L287.967 215.082C287.828 215.392 287.789 215.774 287.864 216.172C288.009 216.966 288.625 217.815 289.468 218.303C289.869 218.54 290.317 218.686 290.781 218.729L291.918 218.822L294.244 219.009L298.854 219.371L301.057 219.538L301.595 219.578L301.863 219.599L302.168 219.602C302.568 219.581 302.927 219.45 303.189 219.231C303.722 218.795 303.87 218.034 303.609 217.303C303.542 217.118 303.456 216.939 303.354 216.771L303.182 216.523L303.02 216.312L302.39 215.5L300.075 212.537L296.672 208.25L295.343 206.714C295.304 206.735 295.702 207.322 296.453 208.366L299.678 212.745L301.923 215.742L302.539 216.561L302.693 216.768L302.816 216.951C302.887 217.073 302.946 217.202 302.992 217.335C303.171 217.855 303.053 218.402 302.67 218.703C302.48 218.856 302.229 218.944 301.945 218.955L301.727 218.95L301.46 218.928L300.921 218.883L298.714 218.699L294.098 218.326L291.771 218.144L290.633 218.056C290.303 218.027 289.984 217.926 289.698 217.76C289.102 217.422 288.651 216.807 288.545 216.244C288.49 215.961 288.511 215.69 288.611 215.46L288.959 214.656L291.408 208.94L292.339 206.703C292.461 206.367 292.63 206.146 292.883 206.007C293.132 205.875 293.422 205.838 293.693 205.86C294.242 205.906 294.686 206.174 294.941 206.376C295.203 206.584 295.316 206.729 295.342 206.714M295.616 209.089L296.24 213.385C296.292 213.734 296.068 213.992 295.721 213.986C295.354 213.979 294.974 213.683 294.856 213.312L293.469 208.945C293.363 208.613 293.563 208.344 293.894 208.372L294.952 208.462C295.268 208.489 295.57 208.774 295.616 209.088M295.438 216.085C295.697 216.585 296.268 216.891 296.716 216.768C297.163 216.645 297.316 216.137 297.057 215.635C296.798 215.132 296.224 214.826 295.778 214.951C295.332 215.077 295.18 215.584 295.439 216.085" fill="white"/>
<path fill-rule="evenodd" clip-rule="evenodd" d="M207.908 203.725L279.646 209.301C280.757 209.387 281.47 208.564 281.227 207.469C280.985 206.374 279.87 205.405 278.756 205.321L206.79 199.953C205.802 199.879 205.248 200.669 205.556 201.705C205.865 202.742 206.923 203.647 207.908 203.724M242.56 213.352L281.515 216.787C282.625 216.885 283.339 216.032 283.099 214.89C282.858 213.744 281.749 212.728 280.634 212.633L241.552 209.314C240.509 209.225 239.884 210.063 240.163 211.172C240.442 212.282 241.52 213.26 242.56 213.352" fill="#FF0000"/>
<path fill-rule="evenodd" clip-rule="evenodd" d="M204.033 186.927L300.662 196.168C305.024 196.585 308.078 193.503 307.378 189.272L305.248 176.387C304.517 171.967 300.191 168.145 295.709 167.941L197.073 163.455C194.091 163.32 192.571 166.154 193.653 169.723L196.82 180.173C197.865 183.62 201.092 186.645 204.033 186.927" fill="#1D1D1B"/>
<path fill-rule="evenodd" clip-rule="evenodd" d="M289.251 173.091L298.483 185.404C299.701 187.029 298.867 188.855 296.99 188.71L283.352 187.643C281.42 187.491 279.817 185.342 280.496 183.815L285.392 172.819C286.002 171.449 288.128 171.593 289.251 173.091Z" fill="#FF0000"/>
<path fill-rule="evenodd" clip-rule="evenodd" d="M288.839 174.084C288.853 174.078 288.773 173.888 288.49 173.599C288.074 173.184 287.535 172.915 286.954 172.83C286.597 172.782 286.201 172.812 285.843 172.98C285.487 173.138 285.197 173.495 285.037 173.879L283.855 176.381L280.91 182.784L280.502 183.688C280.345 184.038 280.298 184.466 280.375 184.913C280.525 185.802 281.19 186.751 282.111 187.292C282.55 187.558 283.044 187.719 283.555 187.765L284.81 187.865L287.391 188.069L292.55 188.464L295.037 188.649L295.645 188.693L295.948 188.716L296.295 188.719C296.75 188.694 297.161 188.544 297.465 188.294C298.085 187.796 298.272 186.927 297.991 186.094C297.924 185.885 297.824 185.683 297.713 185.487L297.523 185.205L297.343 184.965L296.642 184.041L294.075 180.675L290.307 175.818L288.838 174.084C288.794 174.108 289.231 174.774 290.058 175.956L293.619 180.918L296.105 184.322L296.788 185.252L296.958 185.487L297.094 185.695C297.171 185.838 297.241 185.983 297.287 186.132C297.478 186.725 297.331 187.349 296.886 187.694C296.667 187.869 296.379 187.969 296.056 187.983L295.808 187.978L295.505 187.954L294.895 187.905L292.403 187.704L287.238 187.3L284.656 187.104L283.401 187.01C283.038 186.98 282.686 186.868 282.373 186.682C281.722 186.306 281.233 185.619 281.124 184.988C281.067 184.671 281.094 184.366 281.206 184.107L281.6 183.2L284.395 176.702L285.467 174.134C285.61 173.747 285.801 173.492 286.088 173.326C286.369 173.17 286.695 173.121 286.998 173.141C287.615 173.181 288.109 173.479 288.392 173.705C288.684 173.938 288.809 174.102 288.838 174.083M289.119 177.363L289.691 182.395C289.738 182.803 289.504 183.107 289.147 183.105C288.771 183.102 288.386 182.759 288.271 182.327L286.916 177.236C286.813 176.847 287.02 176.528 287.359 176.556L288.444 176.641C288.768 176.666 289.076 176.996 289.118 177.364M288.005 185.79C288.383 186.539 289.236 186.993 289.911 186.804C290.587 186.615 290.833 185.85 290.454 185.098C290.075 184.346 289.217 183.891 288.54 184.083C287.864 184.276 287.626 185.041 288.005 185.79" fill="white"/>
<path fill-rule="evenodd" clip-rule="evenodd" d="M201.219 172.878L272.024 177.485C273.219 177.562 273.993 176.643 273.74 175.438C273.486 174.233 272.291 173.182 271.091 173.113L200.066 169.07C199.17 169.019 198.701 169.834 199.02 170.88C199.337 171.922 200.325 172.821 201.219 172.879M234.117 182.581L273.901 185.904C275.089 186.004 275.862 185.079 275.613 183.848C275.364 182.616 274.179 181.525 272.984 181.435L233.066 178.429C232.049 178.352 231.459 179.225 231.75 180.363C232.041 181.502 233.104 182.496 234.118 182.581" fill="#FF0000"/>
<path fill-rule="evenodd" clip-rule="evenodd" d="M434.683 178.424C434.683 178.424 432.76 186.88 434.649 202.245C436.539 217.611 433.818 246.741 433.818 246.741L437.562 207.555L434.684 178.424" fill="#FDC280"/>
<path fill-rule="evenodd" clip-rule="evenodd" d="M357.215 134.439L357.275 139.718L357.892 144.951C358.48 148.413 359.417 151.811 360.718 155.061C361.375 156.682 362.09 158.28 362.911 159.822C363.732 161.365 364.593 162.889 365.614 164.289C366.635 165.689 367.802 166.981 369.197 167.958C369.897 168.445 370.635 168.852 371.441 169.143L372.646 169.594L373.881 169.93C375.535 170.326 377.261 170.444 378.915 170.098C380.57 169.762 382.114 168.959 383.426 167.866C386.069 165.656 387.826 162.537 389.341 159.41C390.84 156.246 392.021 152.929 393.214 149.621L395.069 144.676C395.722 143.042 396.424 141.419 397.318 139.905C395.682 143.021 394.641 146.399 393.511 149.727C392.382 153.054 391.248 156.401 389.789 159.622C389.059 161.23 388.243 162.807 387.269 164.291C386.295 165.775 385.169 167.174 383.797 168.323C382.434 169.473 380.799 170.339 379.04 170.705C377.284 171.084 375.458 170.968 373.732 170.56L372.449 170.204L371.208 169.731C370.377 169.426 369.574 168.982 368.845 168.466C367.379 167.425 366.173 166.076 365.14 164.636C364.1 163.192 363.237 161.646 362.419 160.081C361.59 158.519 360.893 156.89 360.259 155.24C359.001 151.934 358.108 148.492 357.581 144.998C357.081 141.499 356.94 137.95 357.214 134.435M434.783 187.783L435.523 196.632L436.735 205.42L438.445 214.13L439.49 218.451L440.073 220.591C440.32 221.278 440.684 221.954 441.303 222.409C440.64 222.011 440.2 221.34 439.909 220.651C439.607 219.957 439.407 219.24 439.174 218.534L437.945 214.242L436.076 205.521L435.014 196.676L434.783 187.783M472.187 178.424C472.039 175.969 471.692 173.529 471.152 171.128C470.626 168.734 469.92 166.383 469.04 164.096C467.291 159.53 464.943 155.198 462.003 151.325C459.104 147.423 455.616 143.972 451.656 141.201C447.701 138.429 443.229 136.388 438.497 135.375C440.888 135.744 443.23 136.432 445.487 137.337C447.738 138.262 449.893 139.43 451.929 140.785C455.998 143.507 459.535 147.011 462.509 150.929C465.442 154.884 467.827 159.266 469.497 163.92C471.166 168.574 472.152 173.487 472.188 178.423M475.899 235.511C476.135 243.179 475.036 250.908 472.606 258.226C470.195 265.543 466.326 272.438 461.088 278.18C458.444 281.031 455.531 283.595 452.52 286.038C449.496 288.468 446.344 290.736 443.079 292.833C439.813 294.928 436.455 296.876 433.036 298.708C429.606 300.522 426.125 302.235 422.587 303.828C426.058 302.098 429.505 300.325 432.876 298.423C436.259 296.548 439.567 294.541 442.793 292.407C449.232 288.152 455.338 283.341 460.615 277.758C465.834 272.12 469.639 265.293 472.151 258.075C474.655 250.84 475.882 243.179 475.899 235.511M441.357 234.575C441.722 236.392 442.145 238.15 442.769 239.859C443.374 241.573 444.169 243.214 445.048 244.87C443.709 243.504 442.748 241.828 442.108 240.067C441.486 238.301 441.172 236.422 441.357 234.575M405.742 289.79C408.849 287.113 411.823 284.287 414.611 281.282C417.399 278.276 420.032 275.126 422.428 271.793C424.868 268.495 427.029 264.978 429.415 261.61C430.612 259.929 431.852 258.275 433.19 256.704C434.544 255.15 435.978 253.661 437.562 252.356C436.075 253.771 434.694 255.293 433.429 256.909C432.148 258.51 430.959 260.187 429.816 261.896C427.522 265.308 425.356 268.823 422.938 272.178C420.484 275.501 417.838 278.68 414.961 281.627C412.084 284.574 409.014 287.321 405.743 289.79M368.934 184.039C369.113 185.64 369.156 187.252 369.145 188.865L368.82 193.692C368.462 196.902 367.803 200.071 367.054 203.213C366.658 204.783 366.187 206.317 366.111 207.884C366.082 208.659 366.128 209.444 366.4 210.157C366.661 210.865 367.118 211.518 367.753 211.958C369.025 212.846 370.955 212.905 372.25 211.971C373.555 211.049 374.158 209.269 373.618 207.738C374.303 209.227 373.802 211.128 372.453 212.214C371.064 213.291 368.955 213.315 367.459 212.357C366.701 211.876 366.156 211.143 365.856 210.34C365.541 209.537 365.484 208.684 365.504 207.86C365.566 206.204 366.033 204.62 366.405 203.067C367.205 199.952 367.849 196.804 368.313 193.632C368.776 190.459 369.004 187.255 368.935 184.038" fill="#47332B"/>
<path fill-rule="evenodd" clip-rule="evenodd" d="M387.961 264.522C390.864 262.863 393.681 261.064 396.371 259.092C399.062 257.119 401.65 255.008 404.069 252.708C406.524 250.447 408.808 248.001 410.962 245.441L412.55 243.498L414.074 241.5L415.552 239.465L416.973 237.384L415.695 239.56L414.33 241.686L412.871 243.748L411.343 245.76C409.253 248.403 406.945 250.868 404.506 253.185C402.03 255.464 399.423 257.6 396.654 259.5C393.885 261.399 390.986 263.101 387.961 264.522" fill="#0C0801"/>
<path fill-rule="evenodd" clip-rule="evenodd" d="M349.591 126.953L341.649 130.422L333.824 134.13C328.651 136.685 323.55 139.385 318.611 142.345C316.134 143.813 313.699 145.346 311.31 146.948C308.922 148.55 306.619 150.268 304.357 152.035C302.095 153.802 299.958 155.724 297.949 157.764C295.931 159.795 294.076 161.99 292.504 164.387C295.445 159.453 299.615 155.334 304.04 151.658C308.498 147.989 313.329 144.786 318.275 141.801C323.261 138.875 328.373 136.16 333.604 133.692C338.835 131.224 344.151 128.929 349.59 126.952" fill="#47332B"/>
</svg>
